<?xml version="1.0" encoding="utf-8"?>
<!-- Generator: Adobe Illustrator 16.0.0, SVG Export Plug-In . SVG Version: 6.00 Build 0)  -->
<!DOCTYPE svg PUBLIC "-//W3C//DTD SVG 1.1//EN" "http://www.w3.org/Graphics/SVG/1.1/DTD/svg11.dtd">
<svg version="1.1" xmlns="http://www.w3.org/2000/svg" xmlns:xlink="http://www.w3.org/1999/xlink" x="0px" y="0px"
	 width="708.662px" height="425.197px" viewBox="70.865 425.196 708.662 425.197"
	 enable-background="new 70.865 425.196 708.662 425.197" xml:space="preserve">
<g id="Layer_1">
	<g id="Layer_1_1_">
	</g>
</g>
<g id="zone_11">
	<g id="zone11">
		
			<rect x="597.609" y="531.874" fill="none" stroke="#000000" stroke-width="2" stroke-miterlimit="10" width="61.951" height="61.715"/>
	</g>
</g>
<g id="zone_8">
	<g id="zone8">
		
			<rect x="129.102" y="513.874" fill="none" stroke="#000000" stroke-width="2" stroke-miterlimit="10" width="49.045" height="234.001"/>
	</g>
</g>
<g id="zone_16">
	<g id="zone16">
		
			<rect x="518.233" y="684.23" fill="none" stroke="#000000" stroke-width="2" stroke-miterlimit="10" width="141.327" height="60.43"/>
	</g>
</g>
<g id="zone_6">
	<g id="zone6">
		
			<rect x="178.147" y="762.018" fill="none" stroke="#000000" stroke-width="2" stroke-miterlimit="10" width="481.413" height="48.857"/>
	</g>
</g>
<g id="zone_5">
	<g id="zone5">
		
			<rect x="659.56" y="762.018" fill="none" stroke="#000000" stroke-width="2" stroke-miterlimit="10" width="63.24" height="48.857"/>
	</g>
</g>
<g id="zone_15">
	<g id="zone15">
		
			<rect x="615.677" y="609.018" fill="none" stroke="#000000" stroke-width="2" stroke-miterlimit="10" width="43.883" height="59.141"/>
	</g>
</g>
<g id="zone_12C">
	<g id="zone12C">
		<polygon fill="none" stroke="#000000" stroke-width="2" stroke-miterlimit="10" points="195.571,670.762 195.571,744.66 
			267.202,744.66 267.202,671.436 365.936,670.088 365.936,744.66 500.81,744.66 500.81,672.783 675.048,670.088 675.048,762.018 
			178.147,762.018 178.147,671.436 		"/>
	</g>
</g>
<g id="zone_12B">
	<g id="zone12B">
		<polygon fill="none" stroke="#000000" stroke-width="2" stroke-miterlimit="10" points="293.66,609.018 293.014,668.158 
			340.768,670.088 340.768,609.018 500.81,609.018 500.81,670.088 518.233,670.088 518.233,609.018 597.609,609.018 
			597.609,671.287 615.677,668.158 615.677,609.018 659.56,609.018 659.56,668.158 675.048,670.088 675.048,600.017 
			243.969,601.303 243.969,609.018 		"/>
	</g>
</g>
<g id="zone_9">
	<g id="zone9">
		<polygon fill="none" stroke="#000000" stroke-width="2" stroke-miterlimit="10" points="267.202,744.66 267.202,668.158 
			243.969,668.158 243.969,591.017 322.7,591.017 322.7,565.302 307.213,565.302 307.213,531.873 195.571,531.873 195.571,744.66 		
			"/>
	</g>
</g>
<g id="zone_10">
	<g id="zone10">
		
			<rect x="356.257" y="531.874" fill="none" stroke="#000000" stroke-width="2" stroke-miterlimit="10" width="222.637" height="61.715"/>
	</g>
</g>
<g id="zone_13">
	<g id="zone13">
		
			<rect x="340.768" y="609.018" fill="none" stroke="#000000" stroke-width="2" stroke-miterlimit="10" width="78.085" height="61.07"/>
	</g>
</g>
<g id="zone_7">
	<g id="zone7">
		
			<rect x="129.102" y="747.875" fill="none" stroke="#000000" stroke-width="2" stroke-miterlimit="10" width="49.045" height="63"/>
	</g>
</g>
<g id="zone_2">
	<g id="zone2">
		
			<rect x="191.053" y="465.016" fill="none" stroke="#000000" stroke-width="2" stroke-miterlimit="10" width="483.994" height="48.858"/>
	</g>
</g>
<g id="zone_1">
	<g id="zone1">
		
			<rect x="129.102" y="465.016" fill="none" stroke="#000000" stroke-width="2" stroke-miterlimit="10" width="61.951" height="48.858"/>
	</g>
</g>
<g id="zone_3">
	<g id="zone3">
		
			<rect x="675.048" y="465.016" fill="none" stroke="#000000" stroke-width="2" stroke-miterlimit="10" width="47.753" height="60.429"/>
	</g>
</g>
<g id="zone_4">
	<g id="zone4">
		
			<rect x="675.048" y="525.445" fill="none" stroke="#000000" stroke-width="2" stroke-miterlimit="10" width="47.753" height="236.573"/>
	</g>
</g>
<g id="zone_14">
	<g id="zone14">
		
			<rect x="365.936" y="672.783" fill="none" stroke="#000000" stroke-width="2" stroke-miterlimit="10" width="134.874" height="71.877"/>
	</g>
</g>
<g id="zone_12A">
	<g id="zone12A">
		<path fill="none" stroke="#000000" stroke-width="2" stroke-miterlimit="10" d="M597.609,531.874l-18.716,59.143v-59.143H356.257
			v61.715h222.637l-383.322,7.714h-17.424v-87.43h496.9v86.143l-431.078,1.287v-10.286h78.73v-25.715h-15.487v-33.428H195.571
			v69.429 M597.609,593.589h61.951v-61.715h-61.951V593.589z"/>
	</g>
</g>
</svg>
