<?xml version="1.0" encoding="utf-8"?>
<!-- Generator: Adobe Illustrator 16.0.0, SVG Export Plug-In . SVG Version: 6.00 Build 0)  -->
<!DOCTYPE svg PUBLIC "-//W3C//DTD SVG 1.1//EN" "http://www.w3.org/Graphics/SVG/1.1/DTD/svg11.dtd">
<svg version="1.1" id="Layer_1" xmlns="http://www.w3.org/2000/svg" xmlns:xlink="http://www.w3.org/1999/xlink" x="0px" y="0px"
	 width="708.662px" height="425.197px" viewBox="-56.691 208.347 708.662 425.197"
	 enable-background="new -56.691 208.347 708.662 425.197" xml:space="preserve">
<title>VAST_FloorPlan_F2</title>
<rect x="0.964" y="248.016" fill="none" stroke="#000000" stroke-miterlimit="10" width="593.352" height="345.859"/>
<rect x="0.964" y="248.016" fill="none" stroke="#000000" stroke-miterlimit="10" width="62.997" height="50.143"/>
<rect x="0.964" y="298.158" fill="none" stroke="#000000" stroke-miterlimit="10" width="48.86" height="44.357"/>
<rect x="0.964" y="342.515" fill="none" stroke="#000000" stroke-miterlimit="10" width="48.86" height="27.646"/>
<rect x="0.964" y="370.161" fill="none" stroke="#000000" stroke-miterlimit="10" width="48.86" height="33.432"/>
<rect x="0.964" y="403.583" fill="none" stroke="#000000" stroke-miterlimit="10" width="48.86" height="29.45"/>
<rect x="0.964" y="433.033" fill="none" stroke="#000000" stroke-miterlimit="10" width="48.86" height="32.264"/>
<rect x="0.964" y="465.296" fill="none" stroke="#000000" stroke-miterlimit="10" width="48.86" height="30.857"/>
<rect x="0.964" y="496.154" fill="none" stroke="#000000" stroke-miterlimit="10" width="48.86" height="36.643"/>
<rect x="0.964" y="532.796" fill="none" stroke="#000000" stroke-miterlimit="10" width="48.86" height="61.068"/>
<rect x="49.824" y="548.226" fill="none" stroke="#000000" stroke-miterlimit="10" width="38.571" height="45.639"/>
<rect x="88.396" y="548.226" fill="none" stroke="#000000" stroke-miterlimit="10" width="31.503" height="45.639"/>
<rect x="119.889" y="548.226" fill="none" stroke="#000000" stroke-miterlimit="10" width="32.14" height="45.639"/>
<rect x="152.038" y="548.226" fill="none" stroke="#000000" stroke-miterlimit="10" width="94.5" height="45.639"/>
<rect x="246.538" y="548.226" fill="none" stroke="#000000" stroke-miterlimit="10" width="29.574" height="45.639"/>
<rect x="276.103" y="548.226" fill="none" stroke="#000000" stroke-miterlimit="10" width="62.36" height="45.639"/>
<rect x="338.463" y="548.226" fill="none" stroke="#000000" stroke-miterlimit="10" width="31.503" height="45.639"/>
<rect x="369.966" y="548.226" fill="none" stroke="#000000" stroke-miterlimit="10" width="31.503" height="45.639"/>
<rect x="401.459" y="548.226" fill="none" stroke="#000000" stroke-miterlimit="10" width="31.503" height="45.639"/>
<rect x="432.962" y="548.226" fill="none" stroke="#000000" stroke-miterlimit="10" width="62.36" height="45.639"/>
<rect x="495.323" y="548.226" fill="none" stroke="#000000" stroke-miterlimit="10" width="37.925" height="45.639"/>
<rect x="533.247" y="548.226" fill="none" stroke="#000000" stroke-miterlimit="10" width="61.068" height="45.639"/>
<rect x="547.394" y="499.375" fill="none" stroke="#000000" stroke-miterlimit="10" width="46.932" height="48.861"/>
<rect x="547.394" y="467.873" fill="none" stroke="#000000" stroke-miterlimit="10" width="46.932" height="31.502"/>
<rect x="547.394" y="433.033" fill="none" stroke="#000000" stroke-miterlimit="10" width="46.932" height="34.84"/>
<rect x="547.394" y="403.583" fill="none" stroke="#000000" stroke-miterlimit="10" width="46.932" height="29.45"/>
<rect x="547.394" y="372.726" fill="none" stroke="#000000" stroke-miterlimit="10" width="46.932" height="30.857"/>
<rect x="547.394" y="342.515" fill="none" stroke="#000000" stroke-miterlimit="10" width="46.932" height="30.211"/>
<rect x="547.394" y="312.304" fill="none" stroke="#000000" stroke-miterlimit="10" width="46.932" height="30.211"/>
<rect x="547.394" y="248.016" fill="none" stroke="#000000" stroke-miterlimit="10" width="46.932" height="64.289"/>
<rect x="514.281" y="248.016" fill="none" stroke="#000000" stroke-miterlimit="10" width="33.104" height="50.143"/>
<rect x="444.533" y="248.016" fill="none" stroke="#000000" stroke-miterlimit="10" width="69.747" height="50.143"/>
<rect x="413.031" y="248.016" fill="none" stroke="#000000" stroke-miterlimit="10" width="31.503" height="50.143"/>
<rect x="382.82" y="248.016" fill="none" stroke="#000000" stroke-miterlimit="10" width="30.211" height="50.143"/>
<rect x="351.317" y="248.016" fill="none" stroke="#000000" stroke-miterlimit="10" width="31.503" height="50.143"/>
<rect x="320.459" y="248.016" fill="none" stroke="#000000" stroke-miterlimit="10" width="30.857" height="50.143"/>
<rect x="288.966" y="248.016" fill="none" stroke="#000000" stroke-miterlimit="10" width="31.503" height="50.143"/>
<rect x="258.11" y="248.016" fill="none" stroke="#000000" stroke-miterlimit="10" width="30.856" height="50.143"/>
<rect x="226.607" y="248.016" fill="none" stroke="#000000" stroke-miterlimit="10" width="31.503" height="50.143"/>
<rect x="195.103" y="248.016" fill="none" stroke="#000000" stroke-miterlimit="10" width="31.504" height="50.143"/>
<rect x="163.61" y="248.016" fill="none" stroke="#000000" stroke-miterlimit="10" width="31.503" height="50.143"/>
<rect x="101.249" y="248.016" fill="none" stroke="#000000" stroke-miterlimit="10" width="62.36" height="50.143"/>
<rect x="63.961" y="248.016" fill="none" stroke="#000000" stroke-miterlimit="10" width="37.288" height="50.143"/>
<rect x="69.11" y="316.161" fill="none" stroke="#000000" stroke-miterlimit="10" width="48.215" height="30.857"/>
<rect x="69.11" y="347.019" fill="none" stroke="#000000" stroke-miterlimit="10" width="48.215" height="39.854"/>
<rect x="69.11" y="386.872" fill="none" stroke="#000000" stroke-miterlimit="10" width="48.215" height="31.436"/>
<rect x="69.11" y="418.308" fill="none" stroke="#000000" stroke-miterlimit="10" width="48.215" height="30.858"/>
<rect x="69.11" y="449.166" fill="none" stroke="#000000" stroke-miterlimit="10" width="48.215" height="79.129"/>
<rect x="117.324" y="505.796" fill="none" stroke="#000000" stroke-miterlimit="10" width="22.496" height="22.498"/>
<rect x="117.324" y="453.726" fill="none" stroke="#000000" stroke-miterlimit="10" width="22.496" height="52.07"/>
<rect x="117.324" y="393.94" fill="none" stroke="#000000" stroke-miterlimit="10" width="27" height="59.786"/>
<rect x="117.324" y="393.94" fill="none" stroke="#000000" stroke-miterlimit="10" width="48.86" height="59.786"/>
<rect x="132.425" y="316.161" fill="none" stroke="#000000" stroke-miterlimit="10" width="46.932" height="30.857"/>
<rect x="132.425" y="347.019" fill="none" stroke="#000000" stroke-miterlimit="10" width="31.175" height="28.928"/>
<rect x="163.61" y="347.019" fill="none" stroke="#000000" stroke-miterlimit="10" width="31.503" height="28.928"/>
<rect x="229.818" y="316.161" fill="none" stroke="#000000" stroke-miterlimit="10" width="21.86" height="30.857"/>
<rect x="229.818" y="347.019" fill="none" stroke="#000000" stroke-miterlimit="10" width="21.86" height="28.928"/>
<rect x="251.678" y="347.019" fill="none" stroke="#000000" stroke-miterlimit="10" width="21.86" height="28.928"/>
<rect x="251.678" y="316.161" fill="none" stroke="#000000" stroke-miterlimit="10" width="21.86" height="30.857"/>
<rect x="288.966" y="316.161" fill="none" stroke="#000000" stroke-miterlimit="10" width="23.008" height="30.857"/>
<rect x="311.974" y="316.161" fill="none" stroke="#000000" stroke-miterlimit="10" width="20.703" height="30.857"/>
<rect x="311.974" y="347.019" fill="none" stroke="#000000" stroke-miterlimit="10" width="20.703" height="28.928"/>
<rect x="288.966" y="347.019" fill="none" stroke="#000000" stroke-miterlimit="10" width="23.008" height="28.928"/>
<rect x="348.751" y="316.161" fill="none" stroke="#000000" stroke-miterlimit="10" width="21.215" height="30.857"/>
<rect x="369.966" y="347.019" fill="none" stroke="#000000" stroke-miterlimit="10" width="21.86" height="28.928"/>
<rect x="369.966" y="316.161" fill="none" stroke="#000000" stroke-miterlimit="10" width="21.86" height="30.857"/>
<rect x="348.751" y="347.019" fill="none" stroke="#000000" stroke-miterlimit="10" width="21.215" height="28.928"/>
<rect x="409.173" y="316.161" fill="none" stroke="#000000" stroke-miterlimit="10" width="19.604" height="30.857"/>
<rect x="428.787" y="316.161" fill="none" stroke="#000000" stroke-miterlimit="10" width="22.824" height="30.857"/>
<rect x="428.787" y="347.019" fill="none" stroke="#000000" stroke-miterlimit="10" width="22.824" height="28.928"/>
<rect x="409.173" y="347.019" fill="none" stroke="#000000" stroke-miterlimit="10" width="19.604" height="28.928"/>
<rect x="468.323" y="347.019" fill="none" stroke="#000000" stroke-miterlimit="10" width="28.929" height="28.928"/>
<rect x="497.251" y="347.019" fill="none" stroke="#000000" stroke-miterlimit="10" width="33.586" height="28.928"/>
<rect x="482.787" y="316.161" fill="none" stroke="#000000" stroke-miterlimit="10" width="48.05" height="30.857"/>
<rect x="210.86" y="393.94" fill="none" stroke="#000000" stroke-miterlimit="10" width="81.317" height="59.786"/>
<rect x="292.177" y="393.94" fill="none" stroke="#000000" stroke-miterlimit="10" width="77.789" height="29.893"/>
<rect x="292.177" y="423.833" fill="none" stroke="#000000" stroke-miterlimit="10" width="77.789" height="29.893"/>
<rect x="346.177" y="453.726" fill="none" stroke="#000000" stroke-miterlimit="10" width="26.354" height="74.568"/>
<rect x="236.895" y="453.726" fill="none" stroke="#000000" stroke-miterlimit="10" width="109.282" height="74.568"/>
<rect x="391.817" y="393.94" fill="none" stroke="#000000" stroke-miterlimit="10" width="52.717" height="59.786"/>
<rect x="444.533" y="393.94" fill="none" stroke="#000000" stroke-miterlimit="10" width="23.789" height="59.786"/>
<rect x="486.316" y="393.94" fill="none" stroke="#000000" stroke-miterlimit="10" width="23.144" height="29.893"/>
<rect x="509.459" y="393.94" fill="none" stroke="#000000" stroke-miterlimit="10" width="18.64" height="29.893"/>
<rect x="509.459" y="423.833" fill="none" stroke="#000000" stroke-miterlimit="10" width="18.64" height="29.893"/>
<rect x="486.316" y="423.833" fill="none" stroke="#000000" stroke-miterlimit="10" width="23.144" height="29.893"/>
<rect x="497.888" y="483.619" fill="none" stroke="#000000" stroke-miterlimit="10" width="30.211" height="44.676"/>
<rect x="468.323" y="483.619" fill="none" stroke="#000000" stroke-miterlimit="10" width="29.574" height="44.676"/>
<rect x="391.817" y="471.083" fill="none" stroke="#000000" stroke-miterlimit="10" width="29.893" height="29.893"/>
<rect x="421.709" y="471.083" fill="none" stroke="#000000" stroke-miterlimit="10" width="29.893" height="29.893"/>
<rect x="421.709" y="500.976" fill="none" stroke="#000000" stroke-miterlimit="10" width="29.893" height="27.318"/>
<rect x="391.817" y="500.976" fill="none" stroke="#000000" stroke-miterlimit="10" width="29.893" height="27.318"/>
</svg>
