<?xml version="1.0" encoding="utf-8"?>
<!-- Generator: Adobe Illustrator 16.0.0, SVG Export Plug-In . SVG Version: 6.00 Build 0)  -->
<!DOCTYPE svg PUBLIC "-//W3C//DTD SVG 1.1//EN" "http://www.w3.org/Graphics/SVG/1.1/DTD/svg11.dtd">
<svg version="1.1" id="Layer_1" xmlns="http://www.w3.org/2000/svg" xmlns:xlink="http://www.w3.org/1999/xlink" x="0px" y="0px"
	 width="612px" height="1500px" viewBox="0 -354 612 1500" enable-background="new 0 -354 612 1500" xml:space="preserve">
<path opacity="0.2" fill="#00A19A" stroke="#00A19A" stroke-width="6" stroke-miterlimit="10" enable-background="new    " d="
	M556.559,582.113H50.469c-5.472,0-9.949-3.285-9.949-7.3v-214.47c0-4.014,4.478-7.298,9.949-7.298h506.089
	c5.474,0,9.949,3.284,9.949,7.298v214.47C566.508,578.828,562.032,582.113,556.559,582.113z"/>
<polygon fill="none" stroke="#E30613" stroke-width="3" stroke-miterlimit="10" points="89.438,389.662 89.438,400.61 
	155.768,400.61 155.187,358.397 48.563,358.823 49.641,389.662 "/>
<polygon fill="none" stroke="#E30613" stroke-width="3" stroke-miterlimit="10" points="89.438,400.61 144.408,400.61 
	144.408,484.55 104.362,484.55 104.362,535.217 147.476,535.217 147.476,520.193 166.794,520.193 166.794,546.166 122.022,546.166 
	122.022,575.787 48.563,576.578 49.641,389.662 89.438,389.662 "/>
<rect x="104.362" y="484.55" opacity="0.4" fill="none" stroke="#E30613" stroke-miterlimit="10" width="43.113" height="50.667"/>
<rect x="147.476" y="450.062" opacity="0.4" fill="none" stroke="#E30613" stroke-miterlimit="10" width="41.456" height="38.503"/>
<rect x="229.309" y="450.062" opacity="0.4" fill="none" stroke="#E30613" stroke-miterlimit="10" width="69.065" height="38.137"/>
<polyline fill="none" stroke="#E30613" stroke-width="3" stroke-miterlimit="10" points="149.133,484.55 149.133,520.193 
	168.452,520.193 168.452,546.166 123.68,546.166 123.68,575.787 259.655,576.578 259.156,535.217 250.286,535.217 250.286,488.198 
	230.967,488.198 230.967,450.062 248.047,450.062 248.047,437.896 265.458,437.896 265.458,400.61 248.047,400.61 248.047,358.397 
	156.844,358.397 157.425,400.61 146.066,400.61 146.066,450.062 190.59,450.062 190.59,484.55 146.066,484.55 "/>
<polygon fill="none" stroke="#E30613" stroke-width="3" stroke-miterlimit="10" points="246.388,400.61 263.8,400.61 263.8,437.896 
	246.388,437.896 246.388,450.062 298.374,450.062 298.374,488.198 248.627,488.198 248.627,535.217 257.499,535.217 
	257.995,576.578 420.004,576.578 420.004,544.949 407.817,545.739 406.738,358.397 246.388,358.397 "/>
<polygon fill="none" stroke="#E30613" stroke-width="3" stroke-miterlimit="10" points="407.817,545.739 420.004,544.949 
	420.004,576.578 558.137,576.578 558.137,358.397 406.738,358.397 "/>
<rect x="48.563" y="358.764" opacity="0.4" fill="none" stroke="#000000" stroke-miterlimit="10" enable-background="new    " width="54.142" height="31.628"/>
<rect x="48.563" y="390.392" opacity="0.4" fill="none" stroke="#000000" stroke-miterlimit="10" enable-background="new    " width="42.036" height="27.98"/>
<rect x="48.563" y="418.372" opacity="0.4" fill="none" stroke="#000000" stroke-miterlimit="10" enable-background="new    " width="42.036" height="17.456"/>
<rect x="48.563" y="435.828" opacity="0.4" fill="none" stroke="#000000" stroke-miterlimit="10" enable-background="new    " width="42.036" height="21.106"/>
<rect x="48.563" y="456.935" opacity="0.4" fill="none" stroke="#000000" stroke-miterlimit="10" enable-background="new    " width="42.036" height="18.553"/>
<rect x="48.563" y="475.487" opacity="0.4" fill="none" stroke="#000000" stroke-miterlimit="10" enable-background="new    " width="42.036" height="20.375"/>
<rect x="48.563" y="495.862" opacity="0.4" fill="none" stroke="#000000" stroke-miterlimit="10" enable-background="new    " width="42.036" height="19.465"/>
<rect x="48.563" y="515.327" opacity="0.4" fill="none" stroke="#000000" stroke-miterlimit="10" enable-background="new    " width="42.036" height="23.113"/>
<rect x="48.563" y="538.44" opacity="0.4" fill="none" stroke="#000000" stroke-miterlimit="10" enable-background="new    " width="42.036" height="38.503"/>
<rect x="90.516" y="548.173" opacity="0.4" fill="none" stroke="#000000" stroke-miterlimit="10" enable-background="new    " width="33.164" height="28.771"/>
<rect x="123.68" y="548.173" opacity="0.4" fill="none" stroke="#000000" stroke-miterlimit="10" enable-background="new    " width="27.111" height="28.771"/>
<rect x="150.792" y="548.173" opacity="0.4" fill="none" stroke="#000000" stroke-miterlimit="10" enable-background="new    " width="27.61" height="28.771"/>
<rect x="178.401" y="548.173" opacity="0.4" fill="none" stroke="#000000" stroke-miterlimit="10" enable-background="new    " width="81.254" height="28.771"/>
<rect x="259.655" y="548.173" opacity="0.4" fill="none" stroke="#000000" stroke-miterlimit="10" enable-background="new    " width="25.453" height="28.771"/>
<rect x="285.108" y="548.173" opacity="0.4" fill="none" stroke="#000000" stroke-miterlimit="10" enable-background="new    " width="53.644" height="28.771"/>
<rect x="338.752" y="548.173" opacity="0.4" fill="none" stroke="#000000" stroke-miterlimit="10" enable-background="new    " width="27.113" height="28.771"/>
<rect x="365.78" y="548.173" opacity="0.4" fill="none" stroke="#000000" stroke-miterlimit="10" enable-background="new    " width="27.113" height="28.771"/>
<rect x="392.894" y="548.173" opacity="0.4" fill="none" stroke="#000000" stroke-miterlimit="10" enable-background="new    " width="27.11" height="28.771"/>
<rect x="420.004" y="548.173" opacity="0.4" fill="none" stroke="#000000" stroke-miterlimit="10" enable-background="new    " width="53.642" height="28.771"/>
<rect x="473.563" y="548.173" opacity="0.4" fill="none" stroke="#000000" stroke-miterlimit="10" enable-background="new    " width="32.587" height="28.771"/>
<rect x="506.23" y="548.173" opacity="0.4" fill="none" stroke="#000000" stroke-miterlimit="10" enable-background="new    " width="52.485" height="28.771"/>
<rect x="518.337" y="517.334" opacity="0.4" fill="none" stroke="#000000" stroke-miterlimit="10" enable-background="new    " width="40.379" height="30.839"/>
<rect x="518.337" y="497.444" opacity="0.4" fill="none" stroke="#000000" stroke-miterlimit="10" enable-background="new    " width="40.379" height="19.89"/>
<rect x="518.337" y="475.487" opacity="0.4" fill="none" stroke="#000000" stroke-miterlimit="10" enable-background="new    " width="40.379" height="21.957"/>
<rect x="518.337" y="456.935" opacity="0.4" fill="none" stroke="#000000" stroke-miterlimit="10" enable-background="new    " width="40.379" height="18.553"/>
<rect x="518.337" y="437.47" opacity="0.4" fill="none" stroke="#000000" stroke-miterlimit="10" enable-background="new    " width="40.379" height="19.465"/>
<rect x="518.337" y="418.372" opacity="0.4" fill="none" stroke="#000000" stroke-miterlimit="10" enable-background="new    " width="40.379" height="19.037"/>
<rect x="518.337" y="399.333" opacity="0.4" fill="none" stroke="#000000" stroke-miterlimit="10" enable-background="new    " width="40.379" height="19.038"/>
<rect x="518.337" y="358.764" opacity="0.4" fill="none" stroke="#000000" stroke-miterlimit="10" enable-background="new    " width="40.379" height="40.569"/>
<rect x="489.859" y="358.764" opacity="0.4" fill="none" stroke="#000000" stroke-miterlimit="10" enable-background="new    " width="28.437" height="31.628"/>
<rect x="429.953" y="358.764" opacity="0.4" fill="none" stroke="#000000" stroke-miterlimit="10" enable-background="new    " width="59.947" height="31.628"/>
<rect x="402.843" y="358.764" opacity="0.4" fill="none" stroke="#000000" stroke-miterlimit="10" enable-background="new    " width="27.11" height="31.628"/>
<rect x="376.891" y="358.764" opacity="0.4" fill="none" stroke="#000000" stroke-miterlimit="10" enable-background="new    " width="25.952" height="31.628"/>
<rect x="349.779" y="358.764" opacity="0.4" fill="none" stroke="#000000" stroke-miterlimit="10" enable-background="new    " width="27.111" height="31.628"/>
<rect x="323.248" y="358.764" opacity="0.4" fill="none" stroke="#000000" stroke-miterlimit="10" enable-background="new    " width="26.531" height="31.628"/>
<rect x="296.136" y="358.764" opacity="0.4" fill="none" stroke="#000000" stroke-miterlimit="10" enable-background="new    " width="27.112" height="31.628"/>
<rect x="269.604" y="358.764" opacity="0.4" fill="none" stroke="#000000" stroke-miterlimit="10" enable-background="new    " width="26.532" height="31.628"/>
<rect x="242.575" y="358.764" opacity="0.4" fill="none" stroke="#000000" stroke-miterlimit="10" enable-background="new    " width="27.112" height="31.628"/>
<rect x="215.463" y="358.764" opacity="0.4" fill="none" stroke="#000000" stroke-miterlimit="10" enable-background="new    " width="27.112" height="31.628"/>
<rect x="188.352" y="358.764" opacity="0.4" fill="none" stroke="#000000" stroke-miterlimit="10" enable-background="new    " width="27.111" height="31.628"/>
<rect x="134.79" y="358.764" opacity="0.4" fill="none" stroke="#000000" stroke-miterlimit="10" enable-background="new    " width="53.643" height="31.628"/>
<rect x="102.704" y="358.764" opacity="0.4" fill="none" stroke="#000000" stroke-miterlimit="10" enable-background="new    " width="32.087" height="31.628"/>
<rect x="107.098" y="401.767" opacity="0.4" fill="none" stroke="#000000" stroke-miterlimit="10" enable-background="new    " width="41.456" height="19.464"/>
<rect x="107.098" y="421.23" opacity="0.4" fill="none" stroke="#000000" stroke-miterlimit="10" enable-background="new    " width="41.456" height="25.12"/>
<rect x="107.098" y="446.351" opacity="0.4" fill="none" stroke="#000000" stroke-miterlimit="10" enable-background="new    " width="41.456" height="19.83"/>
<rect x="107.098" y="466.181" opacity="0.4" fill="none" stroke="#000000" stroke-miterlimit="10" enable-background="new    " width="41.456" height="19.465"/>
<rect x="107.098" y="485.646" opacity="0.4" fill="none" stroke="#000000" stroke-miterlimit="10" enable-background="new    " width="41.456" height="49.936"/>
<rect x="148.553" y="521.409" opacity="0.4" fill="none" stroke="#000000" stroke-miterlimit="10" enable-background="new    " width="19.318" height="14.172"/>
<rect x="148.553" y="488.564" opacity="0.4" fill="none" stroke="#000000" stroke-miterlimit="10" enable-background="new    " width="19.318" height="32.845"/>
<rect x="148.553" y="450.853" opacity="0.4" fill="none" stroke="#000000" stroke-miterlimit="10" enable-background="new    " width="23.215" height="37.712"/>
<rect x="148.553" y="450.853" opacity="0.4" fill="none" stroke="#000000" stroke-miterlimit="10" enable-background="new    " width="42.037" height="37.712"/>
<rect x="161.57" y="401.767" opacity="0.4" fill="none" stroke="#000000" stroke-miterlimit="10" enable-background="new    " width="40.378" height="19.464"/>
<rect x="161.57" y="421.23" opacity="0.4" fill="none" stroke="#000000" stroke-miterlimit="10" enable-background="new    " width="26.781" height="18.248"/>
<rect x="188.352" y="421.23" opacity="0.4" fill="none" stroke="#000000" stroke-miterlimit="10" enable-background="new    " width="27.111" height="18.248"/>
<rect x="245.31" y="401.767" opacity="0.4" fill="none" stroke="#000000" stroke-miterlimit="10" enable-background="new    " width="18.822" height="19.464"/>
<rect x="245.31" y="421.23" opacity="0.4" fill="none" stroke="#000000" stroke-miterlimit="10" enable-background="new    " width="18.822" height="18.248"/>
<rect x="264.132" y="421.23" opacity="0.4" fill="none" stroke="#000000" stroke-miterlimit="10" enable-background="new    " width="18.82" height="18.248"/>
<rect x="264.132" y="401.767" opacity="0.4" fill="none" stroke="#000000" stroke-miterlimit="10" enable-background="new    " width="18.82" height="19.464"/>
<rect x="296.136" y="401.767" opacity="0.4" fill="none" stroke="#000000" stroke-miterlimit="10" enable-background="new    " width="19.814" height="19.464"/>
<rect x="315.95" y="401.767" opacity="0.4" fill="none" stroke="#000000" stroke-miterlimit="10" enable-background="new    " width="17.827" height="19.464"/>
<rect x="315.95" y="421.23" opacity="0.4" fill="none" stroke="#000000" stroke-miterlimit="10" enable-background="new    " width="17.827" height="18.248"/>
<rect x="296.136" y="421.23" opacity="0.4" fill="none" stroke="#000000" stroke-miterlimit="10" enable-background="new    " width="19.814" height="18.248"/>
<rect x="347.539" y="401.767" opacity="0.4" fill="none" stroke="#000000" stroke-miterlimit="10" enable-background="new    " width="18.241" height="19.464"/>
<rect x="365.78" y="421.23" opacity="0.4" fill="none" stroke="#000000" stroke-miterlimit="10" enable-background="new    " width="18.822" height="18.248"/>
<rect x="365.78" y="401.767" opacity="0.4" fill="none" stroke="#000000" stroke-miterlimit="10" enable-background="new    " width="18.822" height="19.464"/>
<rect x="347.539" y="421.23" opacity="0.4" fill="none" stroke="#000000" stroke-miterlimit="10" enable-background="new    " width="18.241" height="18.248"/>
<rect x="399.526" y="401.767" opacity="0.4" fill="none" stroke="#000000" stroke-miterlimit="10" enable-background="new    " width="16.829" height="19.464"/>
<rect x="416.355" y="401.767" opacity="0.4" fill="none" stroke="#000000" stroke-miterlimit="10" enable-background="new    " width="19.651" height="19.464"/>
<rect x="416.355" y="421.23" opacity="0.4" fill="none" stroke="#000000" stroke-miterlimit="10" enable-background="new    " width="19.651" height="18.248"/>
<rect x="399.526" y="421.23" opacity="0.4" fill="none" stroke="#000000" stroke-miterlimit="10" enable-background="new    " width="16.829" height="18.248"/>
<rect x="450.349" y="421.23" opacity="0.4" fill="none" stroke="#000000" stroke-miterlimit="10" enable-background="new    " width="24.875" height="18.248"/>
<rect x="475.224" y="421.23" opacity="0.4" fill="none" stroke="#000000" stroke-miterlimit="10" enable-background="new    " width="28.854" height="18.248"/>
<rect x="462.787" y="401.767" opacity="0.4" fill="none" stroke="#000000" stroke-miterlimit="10" enable-background="new    " width="41.29" height="19.464"/>
<rect x="228.978" y="450.853" opacity="0.4" fill="none" stroke="#000000" stroke-miterlimit="10" enable-background="new    " width="69.894" height="37.712"/>
<rect x="298.955" y="450.853" opacity="0.4" fill="none" stroke="#000000" stroke-miterlimit="10" enable-background="new    " width="66.911" height="18.856"/>
<rect x="298.955" y="469.709" opacity="0.4" fill="none" stroke="#000000" stroke-miterlimit="10" enable-background="new    " width="66.911" height="18.855"/>
<rect x="345.385" y="488.564" opacity="0.4" fill="none" stroke="#000000" stroke-miterlimit="10" enable-background="new    " width="22.633" height="47.017"/>
<rect x="251.364" y="488.564" opacity="0.4" fill="none" stroke="#000000" stroke-miterlimit="10" enable-background="new    " width="93.938" height="47.017"/>
<rect x="384.603" y="450.853" opacity="0.4" fill="none" stroke="#000000" stroke-miterlimit="10" enable-background="new    " width="45.351" height="37.712"/>
<rect x="429.953" y="450.853" opacity="0.4" fill="none" stroke="#000000" stroke-miterlimit="10" enable-background="new    " width="20.48" height="37.712"/>
<rect x="465.854" y="450.853" opacity="0.4" fill="none" stroke="#000000" stroke-miterlimit="10" enable-background="new    " width="19.898" height="18.856"/>
<rect x="485.753" y="450.853" opacity="0.4" fill="none" stroke="#000000" stroke-miterlimit="10" enable-background="new    " width="16.002" height="18.856"/>
<rect x="485.753" y="469.709" opacity="0.4" fill="none" stroke="#000000" stroke-miterlimit="10" enable-background="new    " width="16.002" height="18.855"/>
<rect x="465.854" y="469.709" opacity="0.4" fill="none" stroke="#000000" stroke-miterlimit="10" enable-background="new    " width="19.898" height="18.855"/>
<rect x="475.804" y="507.419" opacity="0.4" fill="none" stroke="#000000" stroke-miterlimit="10" enable-background="new    " width="25.951" height="28.162"/>
<rect x="450.349" y="507.419" opacity="0.4" fill="none" stroke="#000000" stroke-miterlimit="10" enable-background="new    " width="25.455" height="28.162"/>
<rect x="384.603" y="499.513" opacity="0.4" fill="none" stroke="#000000" stroke-miterlimit="10" enable-background="new    " width="25.702" height="18.855"/>
<rect x="410.305" y="499.513" opacity="0.4" fill="none" stroke="#000000" stroke-miterlimit="10" enable-background="new    " width="25.702" height="18.855"/>
<rect x="410.305" y="518.368" opacity="0.4" fill="none" stroke="#000000" stroke-miterlimit="10" enable-background="new    " width="25.702" height="17.213"/>
<rect x="384.603" y="518.368" opacity="0.4" fill="none" stroke="#000000" stroke-miterlimit="10" enable-background="new    " width="25.702" height="17.213"/>
<line opacity="0.6" fill="none" stroke="#00A19A" stroke-width="4" stroke-miterlimit="10" enable-background="new    " x1="531.34" y1="-29.844" x2="597.884" y2="-29.844"/>
<line opacity="0.6" fill="none" stroke="#00A19A" stroke-width="4" stroke-miterlimit="10" enable-background="new    " x1="564.588" y1="-29.844" x2="564.588" y2="-61.317"/>
<path opacity="0.6" fill="#00A19A" stroke="#00A19A" stroke-width="4" stroke-miterlimit="10" enable-background="new    " d="
	M590.495,27.643h-55.03c-3.166,0-5.757-2.591-5.757-5.757V-3.687c0-3.166,2.591-5.757,5.757-5.757h55.03
	c3.167,0,5.757,2.591,5.757,5.757v25.572C596.252,25.052,593.662,27.643,590.495,27.643z"/>
<rect x="527.837" y="-56.184" fill="none" width="38.862" height="21.206"/>
<g enable-background="new    ">
	<path fill="#00A19A" d="M539.021-55.757c0.403-0.067,0.931-0.125,1.603-0.125c0.825,0,1.431,0.192,1.814,0.538
		c0.354,0.307,0.566,0.777,0.566,1.354c0,0.585-0.173,1.046-0.499,1.382c-0.442,0.47-1.162,0.71-1.978,0.71
		c-0.25,0-0.479-0.01-0.672-0.058v2.591h-0.835V-55.757z M539.856-52.638c0.183,0.048,0.413,0.067,0.691,0.067
		c1.008,0,1.622-0.49,1.622-1.382c0-0.854-0.605-1.267-1.526-1.267c-0.365,0-0.644,0.029-0.787,0.067V-52.638z"/>
	<path fill="#00A19A" d="M544.097-52.561c0-0.547-0.009-1.017-0.038-1.449h0.739l0.028,0.912h0.039
		c0.211-0.624,0.72-1.018,1.286-1.018c0.096,0,0.163,0.01,0.239,0.029v0.797c-0.086-0.02-0.173-0.029-0.287-0.029
		c-0.596,0-1.018,0.451-1.133,1.084c-0.02,0.115-0.038,0.25-0.038,0.394v2.476h-0.836V-52.561z"/>
	<path fill="#00A19A" d="M551.438-51.726c0,1.718-1.19,2.466-2.313,2.466c-1.258,0-2.228-0.921-2.228-2.39
		c0-1.555,1.018-2.467,2.304-2.467C550.536-54.116,551.438-53.146,551.438-51.726z M547.753-51.678c0,1.017,0.586,1.785,1.411,1.785
		c0.806,0,1.411-0.758,1.411-1.804c0-0.787-0.394-1.786-1.392-1.786C548.185-53.482,547.753-52.561,547.753-51.678z"/>
	<path fill="#00A19A" d="M552.896-54.01l0.663,0.999c0.172,0.259,0.316,0.499,0.47,0.758h0.029c0.153-0.278,0.307-0.518,0.46-0.768
		l0.653-0.989h0.911l-1.583,2.246l1.631,2.399h-0.959l-0.682-1.046c-0.183-0.269-0.336-0.528-0.499-0.806h-0.02
		c-0.153,0.278-0.316,0.528-0.489,0.806l-0.672,1.046h-0.931l1.65-2.371l-1.574-2.275H552.896z"/>
</g>
<g enable-background="new    ">
	<path fill="none" stroke="#00A19A" stroke-miterlimit="10" d="M539.021-55.757c0.403-0.067,0.931-0.125,1.603-0.125
		c0.825,0,1.431,0.192,1.814,0.538c0.354,0.307,0.566,0.777,0.566,1.354c0,0.585-0.173,1.046-0.499,1.382
		c-0.442,0.47-1.162,0.71-1.978,0.71c-0.25,0-0.479-0.01-0.672-0.058v2.591h-0.835V-55.757z M539.856-52.638
		c0.183,0.048,0.413,0.067,0.691,0.067c1.008,0,1.622-0.49,1.622-1.382c0-0.854-0.605-1.267-1.526-1.267
		c-0.365,0-0.644,0.029-0.787,0.067V-52.638z"/>
	<path fill="none" stroke="#00A19A" stroke-miterlimit="10" d="M544.097-52.561c0-0.547-0.009-1.017-0.038-1.449h0.739l0.028,0.912
		h0.039c0.211-0.624,0.72-1.018,1.286-1.018c0.096,0,0.163,0.01,0.239,0.029v0.797c-0.086-0.02-0.173-0.029-0.287-0.029
		c-0.596,0-1.018,0.451-1.133,1.084c-0.02,0.115-0.038,0.25-0.038,0.394v2.476h-0.836V-52.561z"/>
	<path fill="none" stroke="#00A19A" stroke-miterlimit="10" d="M551.438-51.726c0,1.718-1.19,2.466-2.313,2.466
		c-1.258,0-2.228-0.921-2.228-2.39c0-1.555,1.018-2.467,2.304-2.467C550.536-54.116,551.438-53.146,551.438-51.726z M547.753-51.678
		c0,1.017,0.586,1.785,1.411,1.785c0.806,0,1.411-0.758,1.411-1.804c0-0.787-0.394-1.786-1.392-1.786
		C548.185-53.482,547.753-52.561,547.753-51.678z"/>
	<path fill="none" stroke="#00A19A" stroke-miterlimit="10" d="M552.896-54.01l0.663,0.999c0.172,0.259,0.316,0.499,0.47,0.758
		h0.029c0.153-0.278,0.307-0.518,0.46-0.768l0.653-0.989h0.911l-1.583,2.246l1.631,2.399h-0.959l-0.682-1.046
		c-0.183-0.269-0.336-0.528-0.499-0.806h-0.02c-0.153,0.278-0.316,0.528-0.489,0.806l-0.672,1.046h-0.931l1.65-2.371l-1.574-2.275
		H552.896z"/>
</g>
<g enable-background="new    ">
	<path fill="#00A19A" d="M535.317-38.339l3.59-5.25v-0.029h-3.283v-0.701h4.367v0.508l-3.57,5.231v0.029h3.618v0.701h-4.722V-38.339
		z"/>
	<path fill="#00A19A" d="M545.24-40.211c0,1.718-1.19,2.466-2.313,2.466c-1.258,0-2.228-0.921-2.228-2.39
		c0-1.555,1.018-2.467,2.304-2.467C544.338-42.601,545.24-41.632,545.24-40.211z M541.555-40.163c0,1.017,0.586,1.785,1.411,1.785
		c0.806,0,1.411-0.758,1.411-1.804c0-0.787-0.394-1.786-1.392-1.786C541.986-41.968,541.555-41.046,541.555-40.163z"/>
	<path fill="#00A19A" d="M546.304-41.238c0-0.479-0.009-0.873-0.038-1.257h0.749l0.048,0.768h0.02
		c0.229-0.441,0.768-0.874,1.535-0.874c0.644,0,1.642,0.384,1.642,1.977v2.774h-0.845v-2.678c0-0.749-0.278-1.373-1.075-1.373
		c-0.557,0-0.988,0.394-1.133,0.864c-0.038,0.105-0.058,0.25-0.058,0.394v2.793h-0.845V-41.238z"/>
	<path fill="#00A19A" d="M552.1-40.019c0.02,1.142,0.749,1.612,1.593,1.612c0.605,0,0.97-0.105,1.286-0.24l0.145,0.604
		c-0.298,0.134-0.807,0.288-1.545,0.288c-1.431,0-2.285-0.941-2.285-2.342c0-1.401,0.826-2.505,2.179-2.505
		c1.517,0,1.92,1.334,1.92,2.188c0,0.173-0.02,0.307-0.028,0.394H552.1z M554.576-40.624c0.01-0.537-0.221-1.373-1.171-1.373
		c-0.854,0-1.229,0.787-1.296,1.373H554.576z"/>
	<path fill="#00A19A" d="M556.322-38.714c0.249,0.163,0.69,0.336,1.113,0.336c0.614,0,0.901-0.307,0.901-0.691
		c0-0.403-0.239-0.624-0.863-0.854c-0.835-0.297-1.229-0.758-1.229-1.315c0-0.749,0.604-1.363,1.603-1.363
		c0.471,0,0.883,0.134,1.143,0.288l-0.211,0.614c-0.183-0.115-0.519-0.269-0.95-0.269c-0.5,0-0.778,0.288-0.778,0.634
		c0,0.384,0.278,0.557,0.884,0.787c0.806,0.307,1.219,0.71,1.219,1.401c0,0.816-0.634,1.392-1.737,1.392
		c-0.509,0-0.979-0.125-1.306-0.317L556.322-38.714z"/>
</g>
<g enable-background="new    ">
	<path fill="none" stroke="#00A19A" stroke-miterlimit="10" d="M535.317-38.339l3.59-5.25v-0.029h-3.283v-0.701h4.367v0.508
		l-3.57,5.231v0.029h3.618v0.701h-4.722V-38.339z"/>
	<path fill="none" stroke="#00A19A" stroke-miterlimit="10" d="M545.24-40.211c0,1.718-1.19,2.466-2.313,2.466
		c-1.258,0-2.228-0.921-2.228-2.39c0-1.555,1.018-2.467,2.304-2.467C544.338-42.601,545.24-41.632,545.24-40.211z M541.555-40.163
		c0,1.017,0.586,1.785,1.411,1.785c0.806,0,1.411-0.758,1.411-1.804c0-0.787-0.394-1.786-1.392-1.786
		C541.986-41.968,541.555-41.046,541.555-40.163z"/>
	<path fill="none" stroke="#00A19A" stroke-miterlimit="10" d="M546.304-41.238c0-0.479-0.009-0.873-0.038-1.257h0.749l0.048,0.768
		h0.02c0.229-0.441,0.768-0.874,1.535-0.874c0.644,0,1.642,0.384,1.642,1.977v2.774h-0.845v-2.678c0-0.749-0.278-1.373-1.075-1.373
		c-0.557,0-0.988,0.394-1.133,0.864c-0.038,0.105-0.058,0.25-0.058,0.394v2.793h-0.845V-41.238z"/>
	<path fill="none" stroke="#00A19A" stroke-miterlimit="10" d="M552.1-40.019c0.02,1.142,0.749,1.612,1.593,1.612
		c0.605,0,0.97-0.105,1.286-0.24l0.145,0.604c-0.298,0.134-0.807,0.288-1.545,0.288c-1.431,0-2.285-0.941-2.285-2.342
		c0-1.401,0.826-2.505,2.179-2.505c1.517,0,1.92,1.334,1.92,2.188c0,0.173-0.02,0.307-0.028,0.394H552.1z M554.576-40.624
		c0.01-0.537-0.221-1.373-1.171-1.373c-0.854,0-1.229,0.787-1.296,1.373H554.576z"/>
	<path fill="none" stroke="#00A19A" stroke-miterlimit="10" d="M556.322-38.714c0.249,0.163,0.69,0.336,1.113,0.336
		c0.614,0,0.901-0.307,0.901-0.691c0-0.403-0.239-0.624-0.863-0.854c-0.835-0.297-1.229-0.758-1.229-1.315
		c0-0.749,0.604-1.363,1.603-1.363c0.471,0,0.883,0.134,1.143,0.288l-0.211,0.614c-0.183-0.115-0.519-0.269-0.95-0.269
		c-0.5,0-0.778,0.288-0.778,0.634c0,0.384,0.278,0.557,0.884,0.787c0.806,0.307,1.219,0.71,1.219,1.401
		c0,0.816-0.634,1.392-1.737,1.392c-0.509,0-0.979-0.125-1.306-0.317L556.322-38.714z"/>
</g>
<rect x="563.964" y="-56.184" fill="none" width="38.862" height="21.206"/>
<g enable-background="new    ">
	<path fill="#00A19A" d="M573.424-55.833v2.707h3.129v-2.707h0.846v6.469h-0.846v-3.033h-3.129v3.033h-0.834v-6.469H573.424z"/>
	<path fill="#00A19A" d="M580.266-49.365l-2.111-6.469h0.902l1.008,3.187c0.277,0.873,0.518,1.66,0.691,2.418h0.018
		c0.184-0.749,0.451-1.564,0.74-2.409l1.094-3.196h0.893l-2.313,6.469H580.266z"/>
	<path fill="#00A19A" d="M585.246-51.399l-0.672,2.035h-0.863l2.197-6.469h1.008l2.207,6.469h-0.893l-0.691-2.035H585.246z
		 M587.367-52.052l-0.633-1.862c-0.145-0.422-0.24-0.806-0.336-1.181h-0.02c-0.096,0.384-0.201,0.777-0.326,1.171l-0.635,1.872
		H587.367z"/>
	<path fill="#00A19A" d="M594.592-49.576c-0.307,0.153-0.922,0.307-1.707,0.307c-1.824,0-3.197-1.152-3.197-3.273
		c0-2.025,1.373-3.398,3.379-3.398c0.807,0,1.314,0.173,1.535,0.288L594.4-54.97c-0.316-0.154-0.768-0.269-1.305-0.269
		c-1.518,0-2.525,0.97-2.525,2.668c0,1.583,0.912,2.601,2.486,2.601c0.508,0,1.027-0.106,1.363-0.269L594.592-49.576z"/>
</g>
<g enable-background="new    ">
	<path fill="none" stroke="#00A19A" stroke-miterlimit="10" d="M573.424-55.833v2.707h3.129v-2.707h0.846v6.469h-0.846v-3.033
		h-3.129v3.033h-0.834v-6.469H573.424z"/>
	<path fill="none" stroke="#00A19A" stroke-miterlimit="10" d="M580.266-49.365l-2.111-6.469h0.902l1.008,3.187
		c0.277,0.873,0.518,1.66,0.691,2.418h0.018c0.184-0.749,0.451-1.564,0.74-2.409l1.094-3.196h0.893l-2.313,6.469H580.266z"/>
	<path fill="none" stroke="#00A19A" stroke-miterlimit="10" d="M585.246-51.399l-0.672,2.035h-0.863l2.197-6.469h1.008l2.207,6.469
		h-0.893l-0.691-2.035H585.246z M587.367-52.052l-0.633-1.862c-0.145-0.422-0.24-0.806-0.336-1.181h-0.02
		c-0.096,0.384-0.201,0.777-0.326,1.171l-0.635,1.872H587.367z"/>
	<path fill="none" stroke="#00A19A" stroke-miterlimit="10" d="M594.592-49.576c-0.307,0.153-0.922,0.307-1.707,0.307
		c-1.824,0-3.197-1.152-3.197-3.273c0-2.025,1.373-3.398,3.379-3.398c0.807,0,1.314,0.173,1.535,0.288L594.4-54.97
		c-0.316-0.154-0.768-0.269-1.305-0.269c-1.518,0-2.525,0.97-2.525,2.668c0,1.583,0.912,2.601,2.486,2.601
		c0.508,0,1.027-0.106,1.363-0.269L594.592-49.576z"/>
</g>
<g enable-background="new    ">
	<path fill="#00A19A" d="M571.429-38.339l3.59-5.25v-0.029h-3.283v-0.701h4.367v0.508l-3.57,5.231v0.029h3.618v0.701h-4.722V-38.339
		z"/>
	<path fill="#00A19A" d="M581.352-40.211c0,1.718-1.19,2.466-2.313,2.466c-1.258,0-2.228-0.921-2.228-2.39
		c0-1.555,1.018-2.467,2.304-2.467C580.449-42.601,581.352-41.632,581.352-40.211z M577.666-40.163c0,1.017,0.586,1.785,1.411,1.785
		c0.806,0,1.411-0.758,1.411-1.804c0-0.787-0.394-1.786-1.392-1.786C578.098-41.968,577.666-41.046,577.666-40.163z"/>
	<path fill="#00A19A" d="M582.415-41.238c0-0.479-0.009-0.873-0.038-1.257h0.749l0.048,0.768h0.02
		c0.229-0.441,0.768-0.874,1.535-0.874c0.644,0,1.642,0.384,1.642,1.977v2.774h-0.845v-2.678c0-0.749-0.278-1.373-1.075-1.373
		c-0.557,0-0.988,0.394-1.133,0.864c-0.038,0.105-0.058,0.25-0.058,0.394v2.793h-0.845V-41.238z"/>
	<path fill="#00A19A" d="M588.211-40.019c0.02,1.142,0.749,1.612,1.593,1.612c0.605,0,0.97-0.105,1.286-0.24l0.145,0.604
		c-0.298,0.134-0.807,0.288-1.545,0.288c-1.431,0-2.285-0.941-2.285-2.342c0-1.401,0.826-2.505,2.179-2.505
		c1.517,0,1.92,1.334,1.92,2.188c0,0.173-0.02,0.307-0.028,0.394H588.211z M590.688-40.624c0.01-0.537-0.221-1.373-1.171-1.373
		c-0.854,0-1.229,0.787-1.296,1.373H590.688z"/>
	<path fill="#00A19A" d="M592.434-38.714c0.249,0.163,0.69,0.336,1.113,0.336c0.614,0,0.901-0.307,0.901-0.691
		c0-0.403-0.239-0.624-0.863-0.854c-0.835-0.297-1.229-0.758-1.229-1.315c0-0.749,0.604-1.363,1.603-1.363
		c0.471,0,0.883,0.134,1.143,0.288l-0.211,0.614c-0.183-0.115-0.519-0.269-0.95-0.269c-0.5,0-0.778,0.288-0.778,0.634
		c0,0.384,0.278,0.557,0.884,0.787c0.806,0.307,1.219,0.71,1.219,1.401c0,0.816-0.634,1.392-1.737,1.392
		c-0.509,0-0.979-0.125-1.306-0.317L592.434-38.714z"/>
</g>
<g enable-background="new    ">
	<path fill="none" stroke="#00A19A" stroke-miterlimit="10" d="M571.429-38.339l3.59-5.25v-0.029h-3.283v-0.701h4.367v0.508
		l-3.57,5.231v0.029h3.618v0.701h-4.722V-38.339z"/>
	<path fill="none" stroke="#00A19A" stroke-miterlimit="10" d="M581.352-40.211c0,1.718-1.19,2.466-2.313,2.466
		c-1.258,0-2.228-0.921-2.228-2.39c0-1.555,1.018-2.467,2.304-2.467C580.449-42.601,581.352-41.632,581.352-40.211z M577.666-40.163
		c0,1.017,0.586,1.785,1.411,1.785c0.806,0,1.411-0.758,1.411-1.804c0-0.787-0.394-1.786-1.392-1.786
		C578.098-41.968,577.666-41.046,577.666-40.163z"/>
	<path fill="none" stroke="#00A19A" stroke-miterlimit="10" d="M582.415-41.238c0-0.479-0.009-0.873-0.038-1.257h0.749l0.048,0.768
		h0.02c0.229-0.441,0.768-0.874,1.535-0.874c0.644,0,1.642,0.384,1.642,1.977v2.774h-0.845v-2.678c0-0.749-0.278-1.373-1.075-1.373
		c-0.557,0-0.988,0.394-1.133,0.864c-0.038,0.105-0.058,0.25-0.058,0.394v2.793h-0.845V-41.238z"/>
	<path fill="none" stroke="#00A19A" stroke-miterlimit="10" d="M588.211-40.019c0.02,1.142,0.749,1.612,1.593,1.612
		c0.605,0,0.97-0.105,1.286-0.24l0.145,0.604c-0.298,0.134-0.807,0.288-1.545,0.288c-1.431,0-2.285-0.941-2.285-2.342
		c0-1.401,0.826-2.505,2.179-2.505c1.517,0,1.92,1.334,1.92,2.188c0,0.173-0.02,0.307-0.028,0.394H588.211z M590.688-40.624
		c0.01-0.537-0.221-1.373-1.171-1.373c-0.854,0-1.229,0.787-1.296,1.373H590.688z"/>
	<path fill="none" stroke="#00A19A" stroke-miterlimit="10" d="M592.434-38.714c0.249,0.163,0.69,0.336,1.113,0.336
		c0.614,0,0.901-0.307,0.901-0.691c0-0.403-0.239-0.624-0.863-0.854c-0.835-0.297-1.229-0.758-1.229-1.315
		c0-0.749,0.604-1.363,1.603-1.363c0.471,0,0.883,0.134,1.143,0.288l-0.211,0.614c-0.183-0.115-0.519-0.269-0.95-0.269
		c-0.5,0-0.778,0.288-0.778,0.634c0,0.384,0.278,0.557,0.884,0.787c0.806,0.307,1.219,0.71,1.219,1.401
		c0,0.816-0.634,1.392-1.737,1.392c-0.509,0-0.979-0.125-1.306-0.317L592.434-38.714z"/>
</g>
<path opacity="0.6" fill="#00A19A" stroke="#00A19A" stroke-width="3" stroke-miterlimit="10" enable-background="new    " d="
	M251.436,333.527h-30.562c-3.167,0-5.757-2.591-5.757-5.757v-19.958c0-3.167,2.591-5.757,5.757-5.757h30.562
	c3.167,0,5.757,2.591,5.757,5.757v19.958C257.193,330.937,254.602,333.527,251.436,333.527z"/>
<path opacity="0.6" fill="#00A19A" stroke="#00A19A" stroke-width="3" stroke-miterlimit="10" enable-background="new    " d="
	M408.034,333.527h-30.563c-3.166,0-5.756-2.591-5.756-5.757v-19.958c0-3.167,2.59-5.757,5.756-5.757h30.563
	c3.166,0,5.758,2.591,5.758,5.757v19.958C413.792,330.937,411.2,333.527,408.034,333.527z"/>
<path opacity="0.6" fill="#00A19A" stroke="#00A19A" stroke-width="3" stroke-miterlimit="10" enable-background="new    " d="
	M302.532,333.527H271.97c-3.167,0-5.758-2.591-5.758-5.757v-19.958c0-3.167,2.591-5.757,5.758-5.757h30.562
	c3.167,0,5.756,2.591,5.756,5.757v19.958C308.288,330.937,305.698,333.527,302.532,333.527z"/>
<path opacity="0.6" fill="#00A19A" stroke="#00A19A" stroke-width="3" stroke-miterlimit="10" enable-background="new    " d="
	M355.259,333.527h-30.563c-3.166,0-5.756-2.591-5.756-5.757v-19.958c0-3.167,2.59-5.757,5.756-5.757h30.563
	c3.166,0,5.758,2.591,5.758,5.757v19.958C361.017,330.937,358.425,333.527,355.259,333.527z"/>
<g>
	<rect x="371.763" y="313.041" fill="none" width="35.168" height="12.282"/>
	<text transform="matrix(1 0 0 1 381.7441 321.5586)" fill="#FFFFFF" font-family="'MyriadPro-Regular'" font-size="11.9944">CO</text>
	
		<text transform="matrix(1 0 0 1 381.7441 321.5586)" fill="none" stroke="#FFFFFF" stroke-miterlimit="10" font-family="'MyriadPro-Regular'" font-size="11.9944">CO</text>
	<rect x="392.394" y="310.258" fill="none" width="13.098" height="8.972"/>
	<text transform="matrix(1 0 0 1 397.1045 315.3457)" fill="#FFFFFF" font-family="'MyriadPro-Regular'" font-size="7.1966">2</text>
	
		<text transform="matrix(1 0 0 1 397.1045 315.3457)" fill="none" stroke="#FFFFFF" stroke-miterlimit="10" font-family="'MyriadPro-Regular'" font-size="7.1966">2</text>
</g>
<line opacity="0.6" fill="none" stroke="#00A19A" stroke-width="3" stroke-miterlimit="10" enable-background="new    " x1="39.954" y1="230.84" x2="39.954" y2="252.726"/>
<line opacity="0.6" fill="none" stroke="#00A19A" stroke-width="3" stroke-miterlimit="10" enable-background="new    " x1="63.499" y1="230.84" x2="63.499" y2="252.726"/>
<line opacity="0.6" fill="none" stroke="#00A19A" stroke-width="3" stroke-miterlimit="10" enable-background="new    " x1="63.499" y1="230.84" x2="63.499" y2="252.726"/>
<line opacity="0.6" fill="none" stroke="#00A19A" stroke-width="3" stroke-miterlimit="10" enable-background="new    " x1="87.042" y1="230.84" x2="87.042" y2="252.726"/>
<line opacity="0.6" fill="none" stroke="#00A19A" stroke-width="3" stroke-miterlimit="10" enable-background="new    " x1="87.042" y1="230.84" x2="87.042" y2="252.726"/>
<line opacity="0.6" fill="none" stroke="#00A19A" stroke-width="3" stroke-miterlimit="10" enable-background="new    " x1="110.517" y1="230.84" x2="110.517" y2="252.726"/>
<line opacity="0.6" fill="none" stroke="#00A19A" stroke-width="3" stroke-miterlimit="10" enable-background="new    " x1="110.517" y1="230.84" x2="110.517" y2="252.726"/>
<line opacity="0.6" fill="none" stroke="#00A19A" stroke-width="3" stroke-miterlimit="10" enable-background="new    " x1="134.061" y1="230.84" x2="134.061" y2="252.726"/>
<line opacity="0.6" fill="none" stroke="#00A19A" stroke-width="3" stroke-miterlimit="10" enable-background="new    " x1="133.637" y1="230.84" x2="133.637" y2="252.726"/>
<line opacity="0.6" fill="none" stroke="#00A19A" stroke-width="3" stroke-miterlimit="10" enable-background="new    " x1="157.181" y1="230.84" x2="157.181" y2="252.726"/>
<line opacity="0.6" fill="none" stroke="#00A19A" stroke-width="3" stroke-miterlimit="10" enable-background="new    " x1="157.181" y1="230.84" x2="157.181" y2="252.726"/>
<line opacity="0.6" fill="none" stroke="#00A19A" stroke-width="3" stroke-miterlimit="10" enable-background="new    " x1="180.726" y1="230.84" x2="180.726" y2="252.726"/>
<line opacity="0.6" fill="none" stroke="#00A19A" stroke-width="3" stroke-miterlimit="10" enable-background="new    " x1="180.726" y1="230.84" x2="180.726" y2="252.726"/>
<line opacity="0.6" fill="none" stroke="#00A19A" stroke-width="3" stroke-miterlimit="10" enable-background="new    " x1="204.27" y1="230.84" x2="204.27" y2="252.726"/>
<line opacity="0.6" fill="none" stroke="#00A19A" stroke-width="3" stroke-miterlimit="10" enable-background="new    " x1="204.27" y1="230.84" x2="204.27" y2="252.726"/>
<line opacity="0.6" fill="none" stroke="#00A19A" stroke-width="3" stroke-miterlimit="10" enable-background="new    " x1="227.744" y1="230.84" x2="227.744" y2="252.726"/>
<line opacity="0.6" fill="none" stroke="#00A19A" stroke-width="3" stroke-miterlimit="10" enable-background="new    " x1="227.744" y1="230.84" x2="227.744" y2="252.726"/>
<line opacity="0.6" fill="none" stroke="#00A19A" stroke-width="3" stroke-miterlimit="10" enable-background="new    " x1="251.288" y1="230.84" x2="251.288" y2="252.726"/>
<line opacity="0.6" fill="none" stroke="#00A19A" stroke-width="3" stroke-miterlimit="10" enable-background="new    " x1="251.288" y1="230.84" x2="251.288" y2="252.726"/>
<line opacity="0.6" fill="none" stroke="#00A19A" stroke-width="3" stroke-miterlimit="10" enable-background="new    " x1="274.832" y1="230.84" x2="274.832" y2="252.726"/>
<line opacity="0.6" fill="none" stroke="#00A19A" stroke-width="3" stroke-miterlimit="10" enable-background="new    " x1="274.832" y1="230.84" x2="274.832" y2="252.726"/>
<line opacity="0.6" fill="none" stroke="#00A19A" stroke-width="3" stroke-miterlimit="10" enable-background="new    " x1="298.376" y1="230.84" x2="298.376" y2="252.726"/>
<line opacity="0.6" fill="none" stroke="#00A19A" stroke-width="3" stroke-miterlimit="10" enable-background="new    " x1="298.376" y1="230.84" x2="298.376" y2="252.726"/>
<line opacity="0.6" fill="none" stroke="#00A19A" stroke-width="3" stroke-miterlimit="10" enable-background="new    " x1="321.921" y1="230.84" x2="321.921" y2="252.726"/>
<line opacity="0.6" fill="none" stroke="#00A19A" stroke-width="3" stroke-miterlimit="10" enable-background="new    " x1="321.921" y1="230.84" x2="321.921" y2="252.726"/>
<line opacity="0.6" fill="none" stroke="#00A19A" stroke-width="3" stroke-miterlimit="10" enable-background="new    " x1="321.921" y1="230.84" x2="321.921" y2="252.726"/>
<line opacity="0.6" fill="none" stroke="#00A19A" stroke-width="3" stroke-miterlimit="10" enable-background="new    " x1="345.396" y1="230.84" x2="345.396" y2="252.726"/>
<line opacity="0.6" fill="none" stroke="#00A19A" stroke-width="3" stroke-miterlimit="10" enable-background="new    " x1="345.396" y1="230.84" x2="345.396" y2="252.726"/>
<line opacity="0.6" fill="none" stroke="#00A19A" stroke-width="3" stroke-miterlimit="10" enable-background="new    " x1="368.94" y1="230.84" x2="368.94" y2="252.726"/>
<line opacity="0.6" fill="none" stroke="#00A19A" stroke-width="3" stroke-miterlimit="10" enable-background="new    " x1="368.94" y1="230.84" x2="368.94" y2="252.726"/>
<line opacity="0.6" fill="none" stroke="#00A19A" stroke-width="3" stroke-miterlimit="10" enable-background="new    " x1="392.483" y1="230.84" x2="392.483" y2="252.726"/>
<line opacity="0.6" fill="none" stroke="#00A19A" stroke-width="3" stroke-miterlimit="10" enable-background="new    " x1="392.483" y1="230.84" x2="392.483" y2="252.726"/>
<line opacity="0.6" fill="none" stroke="#00A19A" stroke-width="3" stroke-miterlimit="10" enable-background="new    " x1="416.028" y1="230.84" x2="416.028" y2="252.726"/>
<line opacity="0.6" fill="none" stroke="#00A19A" stroke-width="3" stroke-miterlimit="10" enable-background="new    " x1="416.028" y1="230.84" x2="416.028" y2="252.726"/>
<line opacity="0.6" fill="none" stroke="#00A19A" stroke-width="3" stroke-miterlimit="10" enable-background="new    " x1="439.573" y1="230.84" x2="439.573" y2="252.726"/>
<line opacity="0.6" fill="none" stroke="#00A19A" stroke-width="3" stroke-miterlimit="10" enable-background="new    " x1="439.573" y1="230.84" x2="439.573" y2="252.726"/>
<line opacity="0.6" fill="none" stroke="#00A19A" stroke-width="3" stroke-miterlimit="10" enable-background="new    " x1="463.046" y1="230.84" x2="463.046" y2="252.726"/>
<line opacity="0.6" fill="none" stroke="#00A19A" stroke-width="3" stroke-miterlimit="10" enable-background="new    " x1="463.046" y1="230.84" x2="463.046" y2="252.726"/>
<line opacity="0.6" fill="none" stroke="#00A19A" stroke-width="3" stroke-miterlimit="10" enable-background="new    " x1="486.591" y1="230.84" x2="486.591" y2="252.726"/>
<path opacity="0.5" fill="none" stroke="#E30613" stroke-width="4" stroke-miterlimit="10" enable-background="new    " d="
	M143.465,280.302c0,4.224-4.171,7.628-9.404,7.628s-9.404-3.404-9.404-7.628c0-4.225,9.404-21.299,9.404-21.299
	S143.465,276.078,143.465,280.302z"/>
<rect x="129.465" y="275.022" fill="none" width="8.343" height="8.507"/>
<text transform="matrix(1.205 0 0 1 130.9302 281.2427)" opacity="0.6" enable-background="new    " font-family="'MyriadPro-Regular'" font-size="8.8012">5</text>
<text transform="matrix(1.205 0 0 1 130.9302 281.2427)" opacity="0.6" fill="none" stroke="#00A19A" stroke-miterlimit="10" enable-background="new    " font-family="'MyriadPro-Regular'" font-size="8.8012">5</text>
<rect x="14.712" y="232.248" fill="none" width="19.303" height="19.07"/>
<g enable-background="new    ">
	<path fill="#00A19A" d="M16.619,232.652c0.562-0.071,1.23-0.124,1.962-0.124c1.325,0,2.269,0.256,2.895,0.74
		c0.636,0.484,1.007,1.171,1.007,2.13c0,0.969-0.36,1.762-1.029,2.308c-0.668,0.555-1.771,0.854-3.16,0.854
		c-0.657,0-1.209-0.026-1.675-0.07V232.652z M17.542,237.899c0.233,0.035,0.573,0.044,0.933,0.044c1.973,0,3.044-0.916,3.044-2.518
		c0.01-1.4-0.944-2.29-2.896-2.29c-0.477,0-0.837,0.036-1.082,0.08V237.899z"/>
	<path fill="#00A19A" d="M26.492,238.506l-0.074-0.537h-0.032c-0.286,0.335-0.838,0.634-1.569,0.634c-1.04,0-1.57-0.607-1.57-1.224
		c0-1.03,1.103-1.594,3.086-1.585v-0.088c0-0.353-0.117-0.986-1.167-0.986c-0.477,0-0.976,0.123-1.336,0.317l-0.212-0.511
		c0.424-0.229,1.04-0.379,1.687-0.379c1.569,0,1.951,0.89,1.951,1.743v1.594c0,0.37,0.021,0.73,0.085,1.021H26.492z M26.354,236.332
		c-1.018-0.018-2.174,0.132-2.174,0.96c0,0.502,0.403,0.739,0.88,0.739c0.668,0,1.092-0.352,1.241-0.713
		c0.032-0.079,0.053-0.167,0.053-0.247V236.332z"/>
	<path fill="#00A19A" d="M29.101,234.245l1.125,2.519c0.117,0.281,0.244,0.616,0.329,0.871h0.021
		c0.096-0.255,0.202-0.581,0.329-0.889l1.018-2.501h0.986l-1.4,3.038c-0.668,1.461-1.125,2.21-1.761,2.668
		c-0.456,0.334-0.912,0.466-1.145,0.501L28.37,239.8c0.233-0.062,0.541-0.185,0.816-0.378c0.254-0.168,0.573-0.467,0.785-0.863
		c0.042-0.079,0.074-0.141,0.074-0.185s-0.021-0.105-0.063-0.203l-1.898-3.927H29.101z"/>
</g>
<g enable-background="new    ">
	<path fill="none" stroke="#00A19A" stroke-miterlimit="10" d="M16.619,232.652c0.562-0.071,1.23-0.124,1.962-0.124
		c1.325,0,2.269,0.256,2.895,0.74c0.636,0.484,1.007,1.171,1.007,2.13c0,0.969-0.36,1.762-1.029,2.308
		c-0.668,0.555-1.771,0.854-3.16,0.854c-0.657,0-1.209-0.026-1.675-0.07V232.652z M17.542,237.899
		c0.233,0.035,0.573,0.044,0.933,0.044c1.973,0,3.044-0.916,3.044-2.518c0.01-1.4-0.944-2.29-2.896-2.29
		c-0.477,0-0.837,0.036-1.082,0.08V237.899z"/>
	<path fill="none" stroke="#00A19A" stroke-miterlimit="10" d="M26.492,238.506l-0.074-0.537h-0.032
		c-0.286,0.335-0.838,0.634-1.569,0.634c-1.04,0-1.57-0.607-1.57-1.224c0-1.03,1.103-1.594,3.086-1.585v-0.088
		c0-0.353-0.117-0.986-1.167-0.986c-0.477,0-0.976,0.123-1.336,0.317l-0.212-0.511c0.424-0.229,1.04-0.379,1.687-0.379
		c1.569,0,1.951,0.89,1.951,1.743v1.594c0,0.37,0.021,0.73,0.085,1.021H26.492z M26.354,236.332
		c-1.018-0.018-2.174,0.132-2.174,0.96c0,0.502,0.403,0.739,0.88,0.739c0.668,0,1.092-0.352,1.241-0.713
		c0.032-0.079,0.053-0.167,0.053-0.247V236.332z"/>
	<path fill="none" stroke="#00A19A" stroke-miterlimit="10" d="M29.101,234.245l1.125,2.519c0.117,0.281,0.244,0.616,0.329,0.871
		h0.021c0.096-0.255,0.202-0.581,0.329-0.889l1.018-2.501h0.986l-1.4,3.038c-0.668,1.461-1.125,2.21-1.761,2.668
		c-0.456,0.334-0.912,0.466-1.145,0.501L28.37,239.8c0.233-0.062,0.541-0.185,0.816-0.378c0.254-0.168,0.573-0.467,0.785-0.863
		c0.042-0.079,0.074-0.141,0.074-0.185s-0.021-0.105-0.063-0.203l-1.898-3.927H29.101z"/>
</g>
<text transform="matrix(1.205 0 0 1 21.6821 249.0688)" fill="#00A19A" font-family="'MyriadPro-Regular'" font-size="8.8012">1</text>
<text transform="matrix(1.205 0 0 1 21.6821 249.0688)" fill="none" stroke="#00A19A" stroke-miterlimit="10" font-family="'MyriadPro-Regular'" font-size="8.8012">1</text>
<rect x="491.116" y="232.248" fill="none" width="19.303" height="19.07"/>
<g enable-background="new    ">
	<path fill="#00A19A" d="M492.988,232.652c0.563-0.071,1.23-0.124,1.961-0.124c1.326,0,2.27,0.256,2.896,0.74
		c0.635,0.484,1.008,1.171,1.008,2.13c0,0.969-0.361,1.762-1.029,2.308c-0.668,0.555-1.771,0.854-3.16,0.854
		c-0.658,0-1.209-0.026-1.676-0.07V232.652z M493.91,237.899c0.234,0.035,0.572,0.044,0.934,0.044c1.973,0,3.043-0.916,3.043-2.518
		c0.012-1.4-0.943-2.29-2.895-2.29c-0.477,0-0.838,0.036-1.082,0.08V237.899z"/>
	<path fill="#00A19A" d="M502.861,238.506l-0.074-0.537h-0.031c-0.287,0.335-0.838,0.634-1.57,0.634
		c-1.039,0-1.568-0.607-1.568-1.224c0-1.03,1.102-1.594,3.086-1.585v-0.088c0-0.353-0.117-0.986-1.166-0.986
		c-0.479,0-0.977,0.123-1.338,0.317l-0.211-0.511c0.424-0.229,1.039-0.379,1.686-0.379c1.57,0,1.951,0.89,1.951,1.743v1.594
		c0,0.37,0.021,0.73,0.086,1.021H502.861z M502.725,236.332c-1.02-0.018-2.174,0.132-2.174,0.96c0,0.502,0.402,0.739,0.879,0.739
		c0.668,0,1.094-0.352,1.242-0.713c0.031-0.079,0.053-0.167,0.053-0.247V236.332z"/>
	<path fill="#00A19A" d="M505.471,234.245l1.123,2.519c0.117,0.281,0.244,0.616,0.33,0.871h0.021
		c0.094-0.255,0.201-0.581,0.328-0.889l1.018-2.501h0.986l-1.4,3.038c-0.668,1.461-1.123,2.21-1.76,2.668
		c-0.455,0.334-0.912,0.466-1.145,0.501l-0.234-0.651c0.234-0.062,0.541-0.185,0.816-0.378c0.256-0.168,0.574-0.467,0.785-0.863
		c0.043-0.079,0.074-0.141,0.074-0.185s-0.021-0.105-0.063-0.203l-1.898-3.927H505.471z"/>
</g>
<g enable-background="new    ">
	<path fill="none" stroke="#00A19A" stroke-miterlimit="10" d="M492.988,232.652c0.563-0.071,1.23-0.124,1.961-0.124
		c1.326,0,2.27,0.256,2.896,0.74c0.635,0.484,1.008,1.171,1.008,2.13c0,0.969-0.361,1.762-1.029,2.308
		c-0.668,0.555-1.771,0.854-3.16,0.854c-0.658,0-1.209-0.026-1.676-0.07V232.652z M493.91,237.899
		c0.234,0.035,0.572,0.044,0.934,0.044c1.973,0,3.043-0.916,3.043-2.518c0.012-1.4-0.943-2.29-2.895-2.29
		c-0.477,0-0.838,0.036-1.082,0.08V237.899z"/>
	<path fill="none" stroke="#00A19A" stroke-miterlimit="10" d="M502.861,238.506l-0.074-0.537h-0.031
		c-0.287,0.335-0.838,0.634-1.57,0.634c-1.039,0-1.568-0.607-1.568-1.224c0-1.03,1.102-1.594,3.086-1.585v-0.088
		c0-0.353-0.117-0.986-1.166-0.986c-0.479,0-0.977,0.123-1.338,0.317l-0.211-0.511c0.424-0.229,1.039-0.379,1.686-0.379
		c1.57,0,1.951,0.89,1.951,1.743v1.594c0,0.37,0.021,0.73,0.086,1.021H502.861z M502.725,236.332
		c-1.02-0.018-2.174,0.132-2.174,0.96c0,0.502,0.402,0.739,0.879,0.739c0.668,0,1.094-0.352,1.242-0.713
		c0.031-0.079,0.053-0.167,0.053-0.247V236.332z"/>
	<path fill="none" stroke="#00A19A" stroke-miterlimit="10" d="M505.471,234.245l1.123,2.519c0.117,0.281,0.244,0.616,0.33,0.871
		h0.021c0.094-0.255,0.201-0.581,0.328-0.889l1.018-2.501h0.986l-1.4,3.038c-0.668,1.461-1.123,2.21-1.76,2.668
		c-0.455,0.334-0.912,0.466-1.145,0.501l-0.234-0.651c0.234-0.062,0.541-0.185,0.816-0.378c0.256-0.168,0.574-0.467,0.785-0.863
		c0.043-0.079,0.074-0.141,0.074-0.185s-0.021-0.105-0.063-0.203l-1.898-3.927H505.471z"/>
</g>
<text transform="matrix(1.205 0 0 1 495.293 249.0688)" fill="#00A19A" font-family="'MyriadPro-Regular'" font-size="8.8012">20</text>
<text transform="matrix(1.205 0 0 1 495.293 249.0688)" fill="none" stroke="#00A19A" stroke-miterlimit="10" font-family="'MyriadPro-Regular'" font-size="8.8012">20</text>
<path opacity="0.6" fill="#00A19A" stroke="#00A19A" stroke-width="4" stroke-miterlimit="10" enable-background="new    " d="
	M591.406,80.37h-55.029c-3.167,0-5.758-2.591-5.758-5.757V49.041c0-3.167,2.591-5.757,5.758-5.757h55.029
	c3.167,0,5.758,2.591,5.758,5.757v25.572C597.164,77.779,594.573,80.37,591.406,80.37z"/>
<path opacity="0.6" fill="#00A19A" stroke="#00A19A" stroke-width="4" stroke-miterlimit="10" enable-background="new    " d="
	M590.975,132.617h-55.078c-3.166,0-5.757-2.591-5.757-5.757v-25.572c0-3.166,2.591-5.757,5.757-5.757h55.03
	c3.167,0,5.758,2.591,5.758,5.757v25.572C596.732,130.026,594.142,132.617,590.975,132.617z"/>
<rect x="318.783" y="350.945" fill="none" width="43.133" height="9.691"/>
<g enable-background="new    ">
	<path fill="#FFFFFF" d="M325.759,313.283v2.706h3.129v-2.706h0.845v6.469h-0.845v-3.033h-3.129v3.033h-0.835v-6.469H325.759z"/>
	<path fill="#FFFFFF" d="M333.723,319.752l-0.066-0.586h-0.029c-0.259,0.365-0.758,0.691-1.42,0.691
		c-0.941,0-1.421-0.662-1.421-1.334c0-1.123,0.998-1.737,2.793-1.728v-0.097c0-0.384-0.105-1.074-1.056-1.074
		c-0.432,0-0.883,0.134-1.209,0.345l-0.192-0.557c0.384-0.249,0.94-0.412,1.526-0.412c1.42,0,1.766,0.969,1.766,1.9v1.737
		c0,0.402,0.02,0.796,0.077,1.113H333.723z M333.599,317.381c-0.922-0.019-1.968,0.145-1.968,1.046c0,0.548,0.364,0.807,0.797,0.807
		c0.604,0,0.988-0.384,1.122-0.777c0.029-0.087,0.049-0.183,0.049-0.269V317.381z"/>
	<path fill="#FFFFFF" d="M335.248,319.263l2.102-2.736c0.202-0.249,0.394-0.47,0.604-0.72v-0.019h-2.515v-0.682h3.542l-0.01,0.527
		l-2.073,2.697c-0.191,0.26-0.384,0.489-0.595,0.729v0.02h2.716v0.672h-3.771V319.263z"/>
	<path fill="#FFFFFF" d="M340.824,313.801c0.009,0.288-0.202,0.519-0.538,0.519c-0.297,0-0.509-0.23-0.509-0.519
		c0-0.297,0.221-0.527,0.528-0.527C340.622,313.273,340.824,313.504,340.824,313.801z M339.883,319.752v-4.646h0.845v4.646H339.883z
		"/>
	<path fill="#FFFFFF" d="M346.016,318.484c0,0.48,0.01,0.902,0.038,1.268h-0.748l-0.049-0.759h-0.019
		c-0.221,0.375-0.711,0.864-1.536,0.864c-0.729,0-1.603-0.403-1.603-2.035v-2.716h0.845v2.572c0,0.883,0.269,1.478,1.036,1.478
		c0.566,0,0.96-0.394,1.113-0.768c0.048-0.125,0.077-0.278,0.077-0.432v-2.851h0.845V318.484z"/>
	<path fill="#FFFFFF" d="M347.415,316.363c0-0.479-0.009-0.873-0.038-1.257h0.739l0.038,0.749h0.029
		c0.259-0.442,0.69-0.854,1.459-0.854c0.633,0,1.113,0.384,1.314,0.931h0.02c0.144-0.259,0.326-0.461,0.518-0.604
		c0.278-0.211,0.586-0.326,1.027-0.326c0.614,0,1.526,0.403,1.526,2.016v2.735h-0.826v-2.63c0-0.893-0.326-1.431-1.007-1.431
		c-0.48,0-0.854,0.355-0.999,0.769c-0.038,0.115-0.066,0.269-0.066,0.422v2.87h-0.826v-2.783c0-0.739-0.326-1.277-0.969-1.277
		c-0.528,0-0.912,0.423-1.047,0.845c-0.048,0.125-0.066,0.27-0.066,0.413v2.803h-0.826V316.363z"/>
</g>
<g enable-background="new    ">
	<path fill="none" stroke="#FFFFFF" stroke-miterlimit="10" d="M325.759,313.283v2.706h3.129v-2.706h0.845v6.469h-0.845v-3.033
		h-3.129v3.033h-0.835v-6.469H325.759z"/>
	<path fill="none" stroke="#FFFFFF" stroke-miterlimit="10" d="M333.723,319.752l-0.066-0.586h-0.029
		c-0.259,0.365-0.758,0.691-1.42,0.691c-0.941,0-1.421-0.662-1.421-1.334c0-1.123,0.998-1.737,2.793-1.728v-0.097
		c0-0.384-0.105-1.074-1.056-1.074c-0.432,0-0.883,0.134-1.209,0.345l-0.192-0.557c0.384-0.249,0.94-0.412,1.526-0.412
		c1.42,0,1.766,0.969,1.766,1.9v1.737c0,0.402,0.02,0.796,0.077,1.113H333.723z M333.599,317.381
		c-0.922-0.019-1.968,0.145-1.968,1.046c0,0.548,0.364,0.807,0.797,0.807c0.604,0,0.988-0.384,1.122-0.777
		c0.029-0.087,0.049-0.183,0.049-0.269V317.381z"/>
	<path fill="none" stroke="#FFFFFF" stroke-miterlimit="10" d="M335.248,319.263l2.102-2.736c0.202-0.249,0.394-0.47,0.604-0.72
		v-0.019h-2.515v-0.682h3.542l-0.01,0.527l-2.073,2.697c-0.191,0.26-0.384,0.489-0.595,0.729v0.02h2.716v0.672h-3.771V319.263z"/>
	<path fill="none" stroke="#FFFFFF" stroke-miterlimit="10" d="M340.824,313.801c0.009,0.288-0.202,0.519-0.538,0.519
		c-0.297,0-0.509-0.23-0.509-0.519c0-0.297,0.221-0.527,0.528-0.527C340.622,313.273,340.824,313.504,340.824,313.801z
		 M339.883,319.752v-4.646h0.845v4.646H339.883z"/>
	<path fill="none" stroke="#FFFFFF" stroke-miterlimit="10" d="M346.016,318.484c0,0.48,0.01,0.902,0.038,1.268h-0.748l-0.049-0.759
		h-0.019c-0.221,0.375-0.711,0.864-1.536,0.864c-0.729,0-1.603-0.403-1.603-2.035v-2.716h0.845v2.572
		c0,0.883,0.269,1.478,1.036,1.478c0.566,0,0.96-0.394,1.113-0.768c0.048-0.125,0.077-0.278,0.077-0.432v-2.851h0.845V318.484z"/>
	<path fill="none" stroke="#FFFFFF" stroke-miterlimit="10" d="M347.415,316.363c0-0.479-0.009-0.873-0.038-1.257h0.739l0.038,0.749
		h0.029c0.259-0.442,0.69-0.854,1.459-0.854c0.633,0,1.113,0.384,1.314,0.931h0.02c0.144-0.259,0.326-0.461,0.518-0.604
		c0.278-0.211,0.586-0.326,1.027-0.326c0.614,0,1.526,0.403,1.526,2.016v2.735h-0.826v-2.63c0-0.893-0.326-1.431-1.007-1.431
		c-0.48,0-0.854,0.355-0.999,0.769c-0.038,0.115-0.066,0.269-0.066,0.422v2.87h-0.826v-2.783c0-0.739-0.326-1.277-0.969-1.277
		c-0.528,0-0.912,0.423-1.047,0.845c-0.048,0.125-0.066,0.27-0.066,0.413v2.803h-0.826V316.363z"/>
</g>
<rect x="265.685" y="308.579" fill="none" width="43.132" height="18.423"/>
<g enable-background="new    ">
	<path fill="#FFFFFF" d="M276.84,315.176c-0.308,0.153-0.922,0.307-1.708,0.307c-1.824,0-3.196-1.152-3.196-3.273
		c0-2.025,1.372-3.398,3.378-3.398c0.807,0,1.315,0.173,1.536,0.288l-0.202,0.682c-0.316-0.154-0.768-0.269-1.305-0.269
		c-1.517,0-2.524,0.97-2.524,2.668c0,1.583,0.912,2.601,2.485,2.601c0.509,0,1.027-0.106,1.363-0.269L276.84,315.176z"/>
	<path fill="#FFFFFF" d="M282.06,313.026c0,1.718-1.19,2.466-2.313,2.466c-1.258,0-2.228-0.921-2.228-2.39
		c0-1.555,1.018-2.467,2.304-2.467C281.158,310.636,282.06,311.605,282.06,313.026z M278.375,313.074
		c0,1.017,0.586,1.785,1.411,1.785c0.806,0,1.411-0.758,1.411-1.804c0-0.787-0.394-1.786-1.392-1.786
		C278.806,311.269,278.375,312.19,278.375,313.074z"/>
	<path fill="#FFFFFF" d="M287.328,313.026c0,1.718-1.19,2.466-2.313,2.466c-1.258,0-2.228-0.921-2.228-2.39
		c0-1.555,1.018-2.467,2.304-2.467C286.425,310.636,287.328,311.605,287.328,313.026z M283.642,313.074
		c0,1.017,0.586,1.785,1.411,1.785c0.806,0,1.411-0.758,1.411-1.804c0-0.787-0.394-1.786-1.392-1.786
		C284.074,311.269,283.642,312.19,283.642,313.074z"/>
	<path fill="#FFFFFF" d="M288.391,308.572h0.845v6.814h-0.845V308.572z"/>
	<path fill="#FFFFFF" d="M291.597,309.436c0.009,0.288-0.202,0.519-0.538,0.519c-0.297,0-0.509-0.23-0.509-0.519
		c0-0.297,0.221-0.528,0.528-0.528C291.395,308.908,291.597,309.139,291.597,309.436z M290.656,315.387v-4.646h0.845v4.646H290.656z
		"/>
	<path fill="#FFFFFF" d="M292.901,311.999c0-0.479-0.009-0.873-0.038-1.257h0.749l0.048,0.768h0.02
		c0.229-0.441,0.768-0.874,1.535-0.874c0.644,0,1.642,0.384,1.642,1.977v2.774h-0.845v-2.678c0-0.749-0.278-1.373-1.075-1.373
		c-0.557,0-0.988,0.394-1.133,0.864c-0.038,0.105-0.058,0.25-0.058,0.394v2.793h-0.845V311.999z"/>
	<path fill="#FFFFFF" d="M302.23,310.741c-0.02,0.336-0.039,0.71-0.039,1.277v2.697c0,1.065-0.211,1.718-0.662,2.121
		c-0.451,0.422-1.104,0.557-1.688,0.557c-0.557,0-1.171-0.134-1.546-0.384l0.211-0.643c0.308,0.192,0.787,0.365,1.363,0.365
		c0.864,0,1.497-0.451,1.497-1.622v-0.518h-0.019c-0.26,0.432-0.759,0.777-1.479,0.777c-1.151,0-1.978-0.979-1.978-2.265
		c0-1.574,1.027-2.467,2.093-2.467c0.807,0,1.248,0.422,1.449,0.806h0.02l0.038-0.701H302.23z M301.356,312.575
		c0-0.144-0.009-0.269-0.048-0.384c-0.153-0.489-0.566-0.893-1.181-0.893c-0.806,0-1.382,0.682-1.382,1.757
		c0,0.912,0.461,1.67,1.373,1.67c0.518,0,0.988-0.327,1.171-0.864c0.048-0.144,0.066-0.307,0.066-0.451V312.575z"/>
</g>
<g enable-background="new    ">
	<path fill="none" stroke="#FFFFFF" stroke-miterlimit="10" d="M276.84,315.176c-0.308,0.153-0.922,0.307-1.708,0.307
		c-1.824,0-3.196-1.152-3.196-3.273c0-2.025,1.372-3.398,3.378-3.398c0.807,0,1.315,0.173,1.536,0.288l-0.202,0.682
		c-0.316-0.154-0.768-0.269-1.305-0.269c-1.517,0-2.524,0.97-2.524,2.668c0,1.583,0.912,2.601,2.485,2.601
		c0.509,0,1.027-0.106,1.363-0.269L276.84,315.176z"/>
	<path fill="none" stroke="#FFFFFF" stroke-miterlimit="10" d="M282.06,313.026c0,1.718-1.19,2.466-2.313,2.466
		c-1.258,0-2.228-0.921-2.228-2.39c0-1.555,1.018-2.467,2.304-2.467C281.158,310.636,282.06,311.605,282.06,313.026z
		 M278.375,313.074c0,1.017,0.586,1.785,1.411,1.785c0.806,0,1.411-0.758,1.411-1.804c0-0.787-0.394-1.786-1.392-1.786
		C278.806,311.269,278.375,312.19,278.375,313.074z"/>
	<path fill="none" stroke="#FFFFFF" stroke-miterlimit="10" d="M287.328,313.026c0,1.718-1.19,2.466-2.313,2.466
		c-1.258,0-2.228-0.921-2.228-2.39c0-1.555,1.018-2.467,2.304-2.467C286.425,310.636,287.328,311.605,287.328,313.026z
		 M283.642,313.074c0,1.017,0.586,1.785,1.411,1.785c0.806,0,1.411-0.758,1.411-1.804c0-0.787-0.394-1.786-1.392-1.786
		C284.074,311.269,283.642,312.19,283.642,313.074z"/>
	<path fill="none" stroke="#FFFFFF" stroke-miterlimit="10" d="M288.391,308.572h0.845v6.814h-0.845V308.572z"/>
	<path fill="none" stroke="#FFFFFF" stroke-miterlimit="10" d="M291.597,309.436c0.009,0.288-0.202,0.519-0.538,0.519
		c-0.297,0-0.509-0.23-0.509-0.519c0-0.297,0.221-0.528,0.528-0.528C291.395,308.908,291.597,309.139,291.597,309.436z
		 M290.656,315.387v-4.646h0.845v4.646H290.656z"/>
	<path fill="none" stroke="#FFFFFF" stroke-miterlimit="10" d="M292.901,311.999c0-0.479-0.009-0.873-0.038-1.257h0.749l0.048,0.768
		h0.02c0.229-0.441,0.768-0.874,1.535-0.874c0.644,0,1.642,0.384,1.642,1.977v2.774h-0.845v-2.678c0-0.749-0.278-1.373-1.075-1.373
		c-0.557,0-0.988,0.394-1.133,0.864c-0.038,0.105-0.058,0.25-0.058,0.394v2.793h-0.845V311.999z"/>
	<path fill="none" stroke="#FFFFFF" stroke-miterlimit="10" d="M302.23,310.741c-0.02,0.336-0.039,0.71-0.039,1.277v2.697
		c0,1.065-0.211,1.718-0.662,2.121c-0.451,0.422-1.104,0.557-1.688,0.557c-0.557,0-1.171-0.134-1.546-0.384l0.211-0.643
		c0.308,0.192,0.787,0.365,1.363,0.365c0.864,0,1.497-0.451,1.497-1.622v-0.518h-0.019c-0.26,0.432-0.759,0.777-1.479,0.777
		c-1.151,0-1.978-0.979-1.978-2.265c0-1.574,1.027-2.467,2.093-2.467c0.807,0,1.248,0.422,1.449,0.806h0.02l0.038-0.701H302.23z
		 M301.356,312.575c0-0.144-0.009-0.269-0.048-0.384c-0.153-0.489-0.566-0.893-1.181-0.893c-0.806,0-1.382,0.682-1.382,1.757
		c0,0.912,0.461,1.67,1.373,1.67c0.518,0,0.988-0.327,1.171-0.864c0.048-0.144,0.066-0.307,0.066-0.451V312.575z"/>
</g>
<g enable-background="new    ">
	<path fill="#FFFFFF" d="M277.579,325.884c0.374,0.23,0.921,0.423,1.497,0.423c0.854,0,1.354-0.451,1.354-1.104
		c0-0.604-0.346-0.95-1.219-1.286c-1.056-0.375-1.709-0.922-1.709-1.833c0-1.008,0.835-1.757,2.093-1.757
		c0.662,0,1.142,0.153,1.43,0.316l-0.23,0.682c-0.211-0.115-0.643-0.307-1.229-0.307c-0.883,0-1.219,0.527-1.219,0.969
		c0,0.604,0.394,0.902,1.286,1.248c1.095,0.422,1.651,0.95,1.651,1.9c0,0.998-0.739,1.862-2.266,1.862
		c-0.624,0-1.305-0.183-1.65-0.413L277.579,325.884z"/>
	<path fill="#FFFFFF" d="M283.413,320.922v1.334h1.21v0.644h-1.21v2.505c0,0.576,0.163,0.902,0.634,0.902
		c0.221,0,0.384-0.029,0.489-0.058l0.038,0.634c-0.163,0.066-0.422,0.115-0.748,0.115c-0.394,0-0.71-0.125-0.912-0.355
		c-0.24-0.25-0.326-0.662-0.326-1.209v-2.534h-0.72v-0.644h0.72v-1.113L283.413,320.922z"/>
	<path fill="#FFFFFF" d="M288.143,326.901l-0.066-0.585h-0.029c-0.259,0.364-0.758,0.69-1.42,0.69c-0.941,0-1.421-0.662-1.421-1.334
		c0-1.123,0.998-1.737,2.793-1.728v-0.096c0-0.384-0.105-1.075-1.056-1.075c-0.432,0-0.883,0.135-1.209,0.346l-0.192-0.557
		c0.384-0.25,0.94-0.413,1.526-0.413c1.42,0,1.766,0.97,1.766,1.9v1.737c0,0.403,0.02,0.797,0.077,1.113H288.143z M288.019,324.531
		c-0.922-0.02-1.968,0.144-1.968,1.046c0,0.547,0.364,0.807,0.797,0.807c0.604,0,0.988-0.385,1.122-0.778
		c0.029-0.086,0.049-0.182,0.049-0.269V324.531z"/>
	<path fill="#FFFFFF" d="M291.213,320.922v1.334h1.21v0.644h-1.21v2.505c0,0.576,0.163,0.902,0.634,0.902
		c0.221,0,0.384-0.029,0.489-0.058l0.038,0.634c-0.163,0.066-0.422,0.115-0.748,0.115c-0.394,0-0.71-0.125-0.912-0.355
		c-0.24-0.25-0.326-0.662-0.326-1.209v-2.534h-0.72v-0.644h0.72v-1.113L291.213,320.922z"/>
	<path fill="#FFFFFF" d="M293.843,324.732c0.02,1.143,0.749,1.612,1.594,1.612c0.604,0,0.969-0.105,1.285-0.239l0.145,0.604
		c-0.298,0.134-0.807,0.288-1.545,0.288c-1.431,0-2.285-0.941-2.285-2.343c0-1.4,0.826-2.505,2.179-2.505
		c1.517,0,1.92,1.334,1.92,2.188c0,0.173-0.02,0.308-0.028,0.394H293.843z M296.32,324.128c0.01-0.537-0.221-1.372-1.171-1.372
		c-0.854,0-1.229,0.786-1.296,1.372H296.32z"/>
</g>
<g enable-background="new    ">
	<path fill="none" stroke="#FFFFFF" stroke-miterlimit="10" d="M277.579,325.884c0.374,0.23,0.921,0.423,1.497,0.423
		c0.854,0,1.354-0.451,1.354-1.104c0-0.604-0.346-0.95-1.219-1.286c-1.056-0.375-1.709-0.922-1.709-1.833
		c0-1.008,0.835-1.757,2.093-1.757c0.662,0,1.142,0.153,1.43,0.316l-0.23,0.682c-0.211-0.115-0.643-0.307-1.229-0.307
		c-0.883,0-1.219,0.527-1.219,0.969c0,0.604,0.394,0.902,1.286,1.248c1.095,0.422,1.651,0.95,1.651,1.9
		c0,0.998-0.739,1.862-2.266,1.862c-0.624,0-1.305-0.183-1.65-0.413L277.579,325.884z"/>
	<path fill="none" stroke="#FFFFFF" stroke-miterlimit="10" d="M283.413,320.922v1.334h1.21v0.644h-1.21v2.505
		c0,0.576,0.163,0.902,0.634,0.902c0.221,0,0.384-0.029,0.489-0.058l0.038,0.634c-0.163,0.066-0.422,0.115-0.748,0.115
		c-0.394,0-0.71-0.125-0.912-0.355c-0.24-0.25-0.326-0.662-0.326-1.209v-2.534h-0.72v-0.644h0.72v-1.113L283.413,320.922z"/>
	<path fill="none" stroke="#FFFFFF" stroke-miterlimit="10" d="M288.143,326.901l-0.066-0.585h-0.029
		c-0.259,0.364-0.758,0.69-1.42,0.69c-0.941,0-1.421-0.662-1.421-1.334c0-1.123,0.998-1.737,2.793-1.728v-0.096
		c0-0.384-0.105-1.075-1.056-1.075c-0.432,0-0.883,0.135-1.209,0.346l-0.192-0.557c0.384-0.25,0.94-0.413,1.526-0.413
		c1.42,0,1.766,0.97,1.766,1.9v1.737c0,0.403,0.02,0.797,0.077,1.113H288.143z M288.019,324.531
		c-0.922-0.02-1.968,0.144-1.968,1.046c0,0.547,0.364,0.807,0.797,0.807c0.604,0,0.988-0.385,1.122-0.778
		c0.029-0.086,0.049-0.182,0.049-0.269V324.531z"/>
	<path fill="none" stroke="#FFFFFF" stroke-miterlimit="10" d="M291.213,320.922v1.334h1.21v0.644h-1.21v2.505
		c0,0.576,0.163,0.902,0.634,0.902c0.221,0,0.384-0.029,0.489-0.058l0.038,0.634c-0.163,0.066-0.422,0.115-0.748,0.115
		c-0.394,0-0.71-0.125-0.912-0.355c-0.24-0.25-0.326-0.662-0.326-1.209v-2.534h-0.72v-0.644h0.72v-1.113L291.213,320.922z"/>
	<path fill="none" stroke="#FFFFFF" stroke-miterlimit="10" d="M293.843,324.732c0.02,1.143,0.749,1.612,1.594,1.612
		c0.604,0,0.969-0.105,1.285-0.239l0.145,0.604c-0.298,0.134-0.807,0.288-1.545,0.288c-1.431,0-2.285-0.941-2.285-2.343
		c0-1.4,0.826-2.505,2.179-2.505c1.517,0,1.92,1.334,1.92,2.188c0,0.173-0.02,0.308-0.028,0.394H293.843z M296.32,324.128
		c0.01-0.537-0.221-1.372-1.171-1.372c-0.854,0-1.229,0.786-1.296,1.372H296.32z"/>
</g>
<rect x="214.625" y="350.945" fill="none" width="43.132" height="9.691"/>
<g enable-background="new    ">
	<path fill="#FFFFFF" d="M225.727,313.993h-1.968v-0.71h4.79v0.71h-1.977v5.759h-0.845V313.993z"/>
	<path fill="#FFFFFF" d="M229.709,317.583c0.019,1.142,0.749,1.612,1.593,1.612c0.604,0,0.969-0.105,1.286-0.24l0.144,0.604
		c-0.298,0.135-0.806,0.288-1.545,0.288c-1.43,0-2.284-0.94-2.284-2.342s0.825-2.505,2.179-2.505c1.517,0,1.919,1.334,1.919,2.188
		c0,0.173-0.019,0.307-0.029,0.394H229.709z M232.185,316.978c0.01-0.537-0.221-1.372-1.171-1.372c-0.854,0-1.229,0.787-1.295,1.372
		H232.185z"/>
	<path fill="#FFFFFF" d="M234.046,316.363c0-0.479-0.01-0.873-0.039-1.257h0.739l0.038,0.749h0.029
		c0.259-0.442,0.691-0.854,1.459-0.854c0.633,0,1.113,0.384,1.315,0.931h0.019c0.144-0.259,0.327-0.461,0.519-0.604
		c0.278-0.211,0.585-0.326,1.027-0.326c0.614,0,1.526,0.403,1.526,2.016v2.735h-0.825v-2.63c0-0.893-0.326-1.431-1.008-1.431
		c-0.48,0-0.854,0.355-0.998,0.769c-0.039,0.115-0.067,0.269-0.067,0.422v2.87h-0.825v-2.783c0-0.739-0.327-1.277-0.97-1.277
		c-0.528,0-0.912,0.423-1.046,0.845c-0.048,0.125-0.067,0.27-0.067,0.413v2.803h-0.825V316.363z"/>
	<path fill="#FFFFFF" d="M242.048,316.623c0-0.596-0.019-1.075-0.039-1.517h0.758l0.039,0.797h0.019
		c0.346-0.566,0.893-0.902,1.651-0.902c1.123,0,1.967,0.95,1.967,2.361c0,1.67-1.017,2.495-2.111,2.495
		c-0.614,0-1.152-0.269-1.43-0.729h-0.019v2.524h-0.835V316.623z M242.883,317.861c0,0.124,0.019,0.239,0.039,0.345
		c0.153,0.586,0.662,0.989,1.267,0.989c0.893,0,1.411-0.729,1.411-1.795c0-0.931-0.49-1.728-1.382-1.728
		c-0.576,0-1.113,0.412-1.276,1.046c-0.029,0.105-0.058,0.23-0.058,0.346V317.861z"/>
</g>
<g enable-background="new    ">
	<path fill="none" stroke="#FFFFFF" stroke-miterlimit="10" d="M225.727,313.993h-1.968v-0.71h4.79v0.71h-1.977v5.759h-0.845
		V313.993z"/>
	<path fill="none" stroke="#FFFFFF" stroke-miterlimit="10" d="M229.709,317.583c0.019,1.142,0.749,1.612,1.593,1.612
		c0.604,0,0.969-0.105,1.286-0.24l0.144,0.604c-0.298,0.135-0.806,0.288-1.545,0.288c-1.43,0-2.284-0.94-2.284-2.342
		s0.825-2.505,2.179-2.505c1.517,0,1.919,1.334,1.919,2.188c0,0.173-0.019,0.307-0.029,0.394H229.709z M232.185,316.978
		c0.01-0.537-0.221-1.372-1.171-1.372c-0.854,0-1.229,0.787-1.295,1.372H232.185z"/>
	<path fill="none" stroke="#FFFFFF" stroke-miterlimit="10" d="M234.046,316.363c0-0.479-0.01-0.873-0.039-1.257h0.739l0.038,0.749
		h0.029c0.259-0.442,0.691-0.854,1.459-0.854c0.633,0,1.113,0.384,1.315,0.931h0.019c0.144-0.259,0.327-0.461,0.519-0.604
		c0.278-0.211,0.585-0.326,1.027-0.326c0.614,0,1.526,0.403,1.526,2.016v2.735h-0.825v-2.63c0-0.893-0.326-1.431-1.008-1.431
		c-0.48,0-0.854,0.355-0.998,0.769c-0.039,0.115-0.067,0.269-0.067,0.422v2.87h-0.825v-2.783c0-0.739-0.327-1.277-0.97-1.277
		c-0.528,0-0.912,0.423-1.046,0.845c-0.048,0.125-0.067,0.27-0.067,0.413v2.803h-0.825V316.363z"/>
	<path fill="none" stroke="#FFFFFF" stroke-miterlimit="10" d="M242.048,316.623c0-0.596-0.019-1.075-0.039-1.517h0.758l0.039,0.797
		h0.019c0.346-0.566,0.893-0.902,1.651-0.902c1.123,0,1.967,0.95,1.967,2.361c0,1.67-1.017,2.495-2.111,2.495
		c-0.614,0-1.152-0.269-1.43-0.729h-0.019v2.524h-0.835V316.623z M242.883,317.861c0,0.124,0.019,0.239,0.039,0.345
		c0.153,0.586,0.662,0.989,1.267,0.989c0.893,0,1.411-0.729,1.411-1.795c0-0.931-0.49-1.728-1.382-1.728
		c-0.576,0-1.113,0.412-1.276,1.046c-0.029,0.105-0.058,0.23-0.058,0.346V317.861z"/>
</g>
<rect x="539.639" y="1.687" fill="none" width="47.978" height="20.63"/>
<g enable-background="new    ">
	<path fill="#FFFFFF" d="M546.878,2.296h6.093v1.226h-4.632v3.76h4.279V8.49h-4.279v5.119h-1.461V2.296z"/>
	<path fill="#FFFFFF" d="M555.006,1.692h1.477v11.917h-1.477V1.692z"/>
	<path fill="#FFFFFF" d="M566.32,9.48c0,3.004-2.081,4.313-4.045,4.313c-2.199,0-3.895-1.611-3.895-4.179
		c0-2.719,1.779-4.314,4.028-4.314C564.742,5.301,566.32,6.996,566.32,9.48z M559.875,9.564c0,1.779,1.023,3.122,2.467,3.122
		c1.41,0,2.468-1.326,2.468-3.155c0-1.376-0.688-3.122-2.434-3.122C560.63,6.409,559.875,8.02,559.875,9.564z"/>
	<path fill="#FFFFFF" d="M575.539,9.48c0,3.004-2.081,4.313-4.045,4.313c-2.199,0-3.895-1.611-3.895-4.179
		c0-2.719,1.779-4.314,4.028-4.314C573.961,5.301,575.539,6.996,575.539,9.48z M569.094,9.564c0,1.779,1.023,3.122,2.467,3.122
		c1.41,0,2.468-1.326,2.468-3.155c0-1.376-0.688-3.122-2.434-3.122C569.849,6.409,569.094,8.02,569.094,9.564z"/>
	<path fill="#FFFFFF" d="M577.406,8.02c0-0.957-0.018-1.779-0.067-2.535h1.292l0.051,1.595h0.067
		c0.369-1.091,1.259-1.779,2.249-1.779c0.168,0,0.285,0.017,0.42,0.051v1.393c-0.151-0.034-0.303-0.05-0.504-0.05
		c-1.041,0-1.779,0.789-1.98,1.896c-0.034,0.201-0.067,0.437-0.067,0.688v4.331h-1.46V8.02z"/>
</g>
<g enable-background="new    ">
	<path fill="none" stroke="#FFFFFF" stroke-miterlimit="10" d="M546.878,2.296h6.093v1.226h-4.632v3.76h4.279V8.49h-4.279v5.119
		h-1.461V2.296z"/>
	<path fill="none" stroke="#FFFFFF" stroke-miterlimit="10" d="M555.006,1.692h1.477v11.917h-1.477V1.692z"/>
	<path fill="none" stroke="#FFFFFF" stroke-miterlimit="10" d="M566.32,9.48c0,3.004-2.081,4.313-4.045,4.313
		c-2.199,0-3.895-1.611-3.895-4.179c0-2.719,1.779-4.314,4.028-4.314C564.742,5.301,566.32,6.996,566.32,9.48z M559.875,9.564
		c0,1.779,1.023,3.122,2.467,3.122c1.41,0,2.468-1.326,2.468-3.155c0-1.376-0.688-3.122-2.434-3.122
		C560.63,6.409,559.875,8.02,559.875,9.564z"/>
	<path fill="none" stroke="#FFFFFF" stroke-miterlimit="10" d="M575.539,9.48c0,3.004-2.081,4.313-4.045,4.313
		c-2.199,0-3.895-1.611-3.895-4.179c0-2.719,1.779-4.314,4.028-4.314C573.961,5.301,575.539,6.996,575.539,9.48z M569.094,9.564
		c0,1.779,1.023,3.122,2.467,3.122c1.41,0,2.468-1.326,2.468-3.155c0-1.376-0.688-3.122-2.434-3.122
		C569.849,6.409,569.094,8.02,569.094,9.564z"/>
	<path fill="none" stroke="#FFFFFF" stroke-miterlimit="10" d="M577.406,8.02c0-0.957-0.018-1.779-0.067-2.535h1.292l0.051,1.595
		h0.067c0.369-1.091,1.259-1.779,2.249-1.779c0.168,0,0.285,0.017,0.42,0.051v1.393c-0.151-0.034-0.303-0.05-0.504-0.05
		c-1.041,0-1.779,0.789-1.98,1.896c-0.034,0.201-0.067,0.437-0.067,0.688v4.331h-1.46V8.02z"/>
</g>
<rect x="539.639" y="54.415" fill="none" width="47.978" height="20.63"/>
<g enable-background="new    ">
	<path fill="#FFFFFF" d="M546.878,55.035h6.093v1.226h-4.632v3.76h4.279v1.208h-4.279v5.119h-1.461V55.035z"/>
	<path fill="#FFFFFF" d="M555.006,54.431h1.477v11.917h-1.477V54.431z"/>
	<path fill="#FFFFFF" d="M566.32,62.219c0,3.004-2.081,4.313-4.045,4.313c-2.199,0-3.895-1.611-3.895-4.179
		c0-2.719,1.779-4.314,4.028-4.314C564.742,58.039,566.32,59.734,566.32,62.219z M559.875,62.303c0,1.779,1.023,3.122,2.467,3.122
		c1.41,0,2.468-1.326,2.468-3.155c0-1.376-0.688-3.122-2.434-3.122C560.63,59.147,559.875,60.758,559.875,62.303z"/>
	<path fill="#FFFFFF" d="M575.539,62.219c0,3.004-2.081,4.313-4.045,4.313c-2.199,0-3.895-1.611-3.895-4.179
		c0-2.719,1.779-4.314,4.028-4.314C573.961,58.039,575.539,59.734,575.539,62.219z M569.094,62.303c0,1.779,1.023,3.122,2.467,3.122
		c1.41,0,2.468-1.326,2.468-3.155c0-1.376-0.688-3.122-2.434-3.122C569.849,59.147,569.094,60.758,569.094,62.303z"/>
	<path fill="#FFFFFF" d="M577.406,60.758c0-0.957-0.018-1.779-0.067-2.535h1.292l0.051,1.595h0.067
		c0.369-1.091,1.259-1.779,2.249-1.779c0.168,0,0.285,0.017,0.42,0.051v1.393c-0.151-0.034-0.303-0.05-0.504-0.05
		c-1.041,0-1.779,0.789-1.98,1.896c-0.034,0.201-0.067,0.437-0.067,0.688v4.331h-1.46V60.758z"/>
</g>
<g enable-background="new    ">
	<path fill="none" stroke="#FFFFFF" stroke-miterlimit="10" d="M546.878,55.035h6.093v1.226h-4.632v3.76h4.279v1.208h-4.279v5.119
		h-1.461V55.035z"/>
	<path fill="none" stroke="#FFFFFF" stroke-miterlimit="10" d="M555.006,54.431h1.477v11.917h-1.477V54.431z"/>
	<path fill="none" stroke="#FFFFFF" stroke-miterlimit="10" d="M566.32,62.219c0,3.004-2.081,4.313-4.045,4.313
		c-2.199,0-3.895-1.611-3.895-4.179c0-2.719,1.779-4.314,4.028-4.314C564.742,58.039,566.32,59.734,566.32,62.219z M559.875,62.303
		c0,1.779,1.023,3.122,2.467,3.122c1.41,0,2.468-1.326,2.468-3.155c0-1.376-0.688-3.122-2.434-3.122
		C560.63,59.147,559.875,60.758,559.875,62.303z"/>
	<path fill="none" stroke="#FFFFFF" stroke-miterlimit="10" d="M575.539,62.219c0,3.004-2.081,4.313-4.045,4.313
		c-2.199,0-3.895-1.611-3.895-4.179c0-2.719,1.779-4.314,4.028-4.314C573.961,58.039,575.539,59.734,575.539,62.219z
		 M569.094,62.303c0,1.779,1.023,3.122,2.467,3.122c1.41,0,2.468-1.326,2.468-3.155c0-1.376-0.688-3.122-2.434-3.122
		C569.849,59.147,569.094,60.758,569.094,62.303z"/>
	<path fill="none" stroke="#FFFFFF" stroke-miterlimit="10" d="M577.406,60.758c0-0.957-0.018-1.779-0.067-2.535h1.292l0.051,1.595
		h0.067c0.369-1.091,1.259-1.779,2.249-1.779c0.168,0,0.285,0.017,0.42,0.051v1.393c-0.151-0.034-0.303-0.05-0.504-0.05
		c-1.041,0-1.779,0.789-1.98,1.896c-0.034,0.201-0.067,0.437-0.067,0.688v4.331h-1.46V60.758z"/>
</g>
<rect x="539.639" y="105.798" fill="none" width="47.978" height="20.631"/>
<g enable-background="new    ">
	<path fill="#FFFFFF" d="M546.878,106.408h6.093v1.225h-4.632v3.76h4.279v1.209h-4.279v5.119h-1.461V106.408z"/>
	<path fill="#FFFFFF" d="M555.006,105.804h1.477v11.917h-1.477V105.804z"/>
	<path fill="#FFFFFF" d="M566.32,113.592c0,3.004-2.081,4.313-4.045,4.313c-2.199,0-3.895-1.611-3.895-4.18
		c0-2.719,1.779-4.313,4.028-4.313C564.742,109.412,566.32,111.107,566.32,113.592z M559.875,113.676
		c0,1.779,1.023,3.122,2.467,3.122c1.41,0,2.468-1.326,2.468-3.156c0-1.376-0.688-3.121-2.434-3.121
		C560.63,110.521,559.875,112.132,559.875,113.676z"/>
	<path fill="#FFFFFF" d="M575.539,113.592c0,3.004-2.081,4.313-4.045,4.313c-2.199,0-3.895-1.611-3.895-4.18
		c0-2.719,1.779-4.313,4.028-4.313C573.961,109.412,575.539,111.107,575.539,113.592z M569.094,113.676
		c0,1.779,1.023,3.122,2.467,3.122c1.41,0,2.468-1.326,2.468-3.156c0-1.376-0.688-3.121-2.434-3.121
		C569.849,110.521,569.094,112.132,569.094,113.676z"/>
	<path fill="#FFFFFF" d="M577.406,112.132c0-0.957-0.018-1.779-0.067-2.535h1.292l0.051,1.595h0.067
		c0.369-1.091,1.259-1.779,2.249-1.779c0.168,0,0.285,0.017,0.42,0.051v1.393c-0.151-0.033-0.303-0.05-0.504-0.05
		c-1.041,0-1.779,0.789-1.98,1.896c-0.034,0.201-0.067,0.437-0.067,0.688v4.33h-1.46V112.132z"/>
</g>
<g enable-background="new    ">
	<path fill="none" stroke="#FFFFFF" stroke-miterlimit="10" d="M546.878,106.408h6.093v1.225h-4.632v3.76h4.279v1.209h-4.279v5.119
		h-1.461V106.408z"/>
	<path fill="none" stroke="#FFFFFF" stroke-miterlimit="10" d="M555.006,105.804h1.477v11.917h-1.477V105.804z"/>
	<path fill="none" stroke="#FFFFFF" stroke-miterlimit="10" d="M566.32,113.592c0,3.004-2.081,4.313-4.045,4.313
		c-2.199,0-3.895-1.611-3.895-4.18c0-2.719,1.779-4.313,4.028-4.313C564.742,109.412,566.32,111.107,566.32,113.592z
		 M559.875,113.676c0,1.779,1.023,3.122,2.467,3.122c1.41,0,2.468-1.326,2.468-3.156c0-1.376-0.688-3.121-2.434-3.121
		C560.63,110.521,559.875,112.132,559.875,113.676z"/>
	<path fill="none" stroke="#FFFFFF" stroke-miterlimit="10" d="M575.539,113.592c0,3.004-2.081,4.313-4.045,4.313
		c-2.199,0-3.895-1.611-3.895-4.18c0-2.719,1.779-4.313,4.028-4.313C573.961,109.412,575.539,111.107,575.539,113.592z
		 M569.094,113.676c0,1.779,1.023,3.122,2.467,3.122c1.41,0,2.468-1.326,2.468-3.156c0-1.376-0.688-3.121-2.434-3.121
		C569.849,110.521,569.094,112.132,569.094,113.676z"/>
	<path fill="none" stroke="#FFFFFF" stroke-miterlimit="10" d="M577.406,112.132c0-0.957-0.018-1.779-0.067-2.535h1.292l0.051,1.595
		h0.067c0.369-1.091,1.259-1.779,2.249-1.779c0.168,0,0.285,0.017,0.42,0.051v1.393c-0.151-0.033-0.303-0.05-0.504-0.05
		c-1.041,0-1.779,0.789-1.98,1.896c-0.034,0.201-0.067,0.437-0.067,0.688v4.33h-1.46V112.132z"/>
</g>
<g>
	<path fill="#00A19A" d="M541.798,143.94c-5.421,0-9.835,4.414-9.835,9.835c0,5.422,4.414,9.836,9.835,9.836
		c5.422,0,9.836-4.414,9.836-9.836C551.634,148.354,547.22,143.94,541.798,143.94z M546.5,154.543l-5.854,4.03
		c-0.144,0.096-0.336,0.192-0.527,0.192c-0.145,0-0.288-0.048-0.432-0.097c-0.336-0.144-0.528-0.479-0.528-0.863v-8.061
		c0-0.335,0.192-0.671,0.528-0.863c0.336-0.144,0.671-0.144,1.007,0.048l5.854,4.03c0.24,0.192,0.432,0.479,0.432,0.768
		C546.932,154.063,546.788,154.352,546.5,154.543z"/>
	<rect x="555.999" y="148.69" fill="none" width="43.516" height="20.15"/>
	<g enable-background="new    ">
		<path fill="#00A19A" d="M556.684,149.077c0.383-0.063,0.884-0.118,1.521-0.118c0.783,0,1.357,0.183,1.722,0.511
			c0.337,0.291,0.537,0.737,0.537,1.284c0,0.556-0.164,0.993-0.474,1.312c-0.419,0.446-1.103,0.674-1.877,0.674
			c-0.236,0-0.455-0.009-0.638-0.055v2.46h-0.792V149.077z M557.476,152.038c0.174,0.046,0.393,0.063,0.656,0.063
			c0.957,0,1.54-0.464,1.54-1.312c0-0.811-0.574-1.202-1.449-1.202c-0.346,0-0.61,0.027-0.747,0.063V152.038z"/>
		<path fill="#00A19A" d="M561.506,148.677h0.802v6.468h-0.802V148.677z"/>
		<path fill="#00A19A" d="M566.099,155.145l-0.063-0.556h-0.027c-0.246,0.346-0.72,0.656-1.349,0.656
			c-0.893,0-1.349-0.629-1.349-1.267c0-1.065,0.948-1.648,2.651-1.64v-0.091c0-0.364-0.101-1.021-1.002-1.021
			c-0.41,0-0.838,0.128-1.147,0.328l-0.183-0.528c0.364-0.237,0.893-0.392,1.448-0.392c1.349,0,1.677,0.92,1.677,1.804v1.648
			c0,0.383,0.018,0.756,0.072,1.057H566.099z M565.98,152.895c-0.875-0.019-1.868,0.137-1.868,0.993
			c0,0.519,0.347,0.765,0.757,0.765c0.573,0,0.938-0.364,1.065-0.737c0.027-0.082,0.046-0.174,0.046-0.255V152.895z"/>
		<path fill="#00A19A" d="M568.342,150.735l0.966,2.605c0.101,0.292,0.21,0.638,0.282,0.902h0.019
			c0.082-0.265,0.173-0.602,0.282-0.921l0.875-2.587h0.847l-1.202,3.143c-0.574,1.513-0.966,2.287-1.513,2.761
			c-0.392,0.346-0.783,0.482-0.983,0.52l-0.2-0.675c0.2-0.063,0.465-0.191,0.701-0.392c0.219-0.173,0.492-0.482,0.674-0.893
			c0.037-0.082,0.064-0.146,0.064-0.191s-0.019-0.109-0.055-0.209l-1.631-4.063H568.342z"/>
		<path fill="#00A19A" d="M574.304,149.087c0.482-0.073,1.057-0.128,1.686-0.128c1.139,0,1.949,0.265,2.486,0.766
			c0.547,0.501,0.865,1.211,0.865,2.204c0,1.002-0.31,1.822-0.883,2.387c-0.574,0.574-1.521,0.884-2.715,0.884
			c-0.565,0-1.039-0.027-1.439-0.073V149.087z M575.096,154.516c0.201,0.037,0.492,0.046,0.802,0.046
			c1.694,0,2.615-0.947,2.615-2.605c0.009-1.448-0.812-2.368-2.487-2.368c-0.41,0-0.72,0.036-0.93,0.082V154.516z"/>
		<path fill="#00A19A" d="M582.789,155.145l-0.063-0.556h-0.027c-0.246,0.346-0.72,0.656-1.349,0.656
			c-0.893,0-1.349-0.629-1.349-1.267c0-1.065,0.948-1.648,2.651-1.64v-0.091c0-0.364-0.101-1.021-1.002-1.021
			c-0.41,0-0.838,0.128-1.147,0.328l-0.183-0.528c0.364-0.237,0.893-0.392,1.448-0.392c1.349,0,1.677,0.92,1.677,1.804v1.648
			c0,0.383,0.018,0.756,0.072,1.057H582.789z M582.671,152.895c-0.875-0.019-1.868,0.137-1.868,0.993
			c0,0.519,0.347,0.765,0.757,0.765c0.573,0,0.938-0.364,1.065-0.737c0.027-0.082,0.046-0.174,0.046-0.255V152.895z"/>
		<path fill="#00A19A" d="M585.032,150.735l0.966,2.605c0.101,0.292,0.21,0.638,0.282,0.902h0.019
			c0.082-0.265,0.173-0.602,0.282-0.921l0.875-2.587h0.847l-1.202,3.143c-0.574,1.513-0.966,2.287-1.513,2.761
			c-0.392,0.346-0.783,0.482-0.983,0.52l-0.2-0.675c0.2-0.063,0.465-0.191,0.701-0.392c0.219-0.173,0.492-0.482,0.674-0.893
			c0.037-0.082,0.064-0.146,0.064-0.191s-0.019-0.109-0.055-0.209l-1.631-4.063H585.032z"/>
	</g>
	<g enable-background="new    ">
		<path fill="none" stroke="#00A19A" stroke-miterlimit="10" d="M556.684,149.077c0.383-0.063,0.884-0.118,1.521-0.118
			c0.783,0,1.357,0.183,1.722,0.511c0.337,0.291,0.537,0.737,0.537,1.284c0,0.556-0.164,0.993-0.474,1.312
			c-0.419,0.446-1.103,0.674-1.877,0.674c-0.236,0-0.455-0.009-0.638-0.055v2.46h-0.792V149.077z M557.476,152.038
			c0.174,0.046,0.393,0.063,0.656,0.063c0.957,0,1.54-0.464,1.54-1.312c0-0.811-0.574-1.202-1.449-1.202
			c-0.346,0-0.61,0.027-0.747,0.063V152.038z"/>
		<path fill="none" stroke="#00A19A" stroke-miterlimit="10" d="M561.506,148.677h0.802v6.468h-0.802V148.677z"/>
		<path fill="none" stroke="#00A19A" stroke-miterlimit="10" d="M566.099,155.145l-0.063-0.556h-0.027
			c-0.246,0.346-0.72,0.656-1.349,0.656c-0.893,0-1.349-0.629-1.349-1.267c0-1.065,0.948-1.648,2.651-1.64v-0.091
			c0-0.364-0.101-1.021-1.002-1.021c-0.41,0-0.838,0.128-1.147,0.328l-0.183-0.528c0.364-0.237,0.893-0.392,1.448-0.392
			c1.349,0,1.677,0.92,1.677,1.804v1.648c0,0.383,0.018,0.756,0.072,1.057H566.099z M565.98,152.895
			c-0.875-0.019-1.868,0.137-1.868,0.993c0,0.519,0.347,0.765,0.757,0.765c0.573,0,0.938-0.364,1.065-0.737
			c0.027-0.082,0.046-0.174,0.046-0.255V152.895z"/>
		<path fill="none" stroke="#00A19A" stroke-miterlimit="10" d="M568.342,150.735l0.966,2.605c0.101,0.292,0.21,0.638,0.282,0.902
			h0.019c0.082-0.265,0.173-0.602,0.282-0.921l0.875-2.587h0.847l-1.202,3.143c-0.574,1.513-0.966,2.287-1.513,2.761
			c-0.392,0.346-0.783,0.482-0.983,0.52l-0.2-0.675c0.2-0.063,0.465-0.191,0.701-0.392c0.219-0.173,0.492-0.482,0.674-0.893
			c0.037-0.082,0.064-0.146,0.064-0.191s-0.019-0.109-0.055-0.209l-1.631-4.063H568.342z"/>
		<path fill="none" stroke="#00A19A" stroke-miterlimit="10" d="M574.304,149.087c0.482-0.073,1.057-0.128,1.686-0.128
			c1.139,0,1.949,0.265,2.486,0.766c0.547,0.501,0.865,1.211,0.865,2.204c0,1.002-0.31,1.822-0.883,2.387
			c-0.574,0.574-1.521,0.884-2.715,0.884c-0.565,0-1.039-0.027-1.439-0.073V149.087z M575.096,154.516
			c0.201,0.037,0.492,0.046,0.802,0.046c1.694,0,2.615-0.947,2.615-2.605c0.009-1.448-0.812-2.368-2.487-2.368
			c-0.41,0-0.72,0.036-0.93,0.082V154.516z"/>
		<path fill="none" stroke="#00A19A" stroke-miterlimit="10" d="M582.789,155.145l-0.063-0.556h-0.027
			c-0.246,0.346-0.72,0.656-1.349,0.656c-0.893,0-1.349-0.629-1.349-1.267c0-1.065,0.948-1.648,2.651-1.64v-0.091
			c0-0.364-0.101-1.021-1.002-1.021c-0.41,0-0.838,0.128-1.147,0.328l-0.183-0.528c0.364-0.237,0.893-0.392,1.448-0.392
			c1.349,0,1.677,0.92,1.677,1.804v1.648c0,0.383,0.018,0.756,0.072,1.057H582.789z M582.671,152.895
			c-0.875-0.019-1.868,0.137-1.868,0.993c0,0.519,0.347,0.765,0.757,0.765c0.573,0,0.938-0.364,1.065-0.737
			c0.027-0.082,0.046-0.174,0.046-0.255V152.895z"/>
		<path fill="none" stroke="#00A19A" stroke-miterlimit="10" d="M585.032,150.735l0.966,2.605c0.101,0.292,0.21,0.638,0.282,0.902
			h0.019c0.082-0.265,0.173-0.602,0.282-0.921l0.875-2.587h0.847l-1.202,3.143c-0.574,1.513-0.966,2.287-1.513,2.761
			c-0.392,0.346-0.783,0.482-0.983,0.52l-0.2-0.675c0.2-0.063,0.465-0.191,0.701-0.392c0.219-0.173,0.492-0.482,0.674-0.893
			c0.037-0.082,0.064-0.146,0.064-0.191s-0.019-0.109-0.055-0.209l-1.631-4.063H585.032z"/>
	</g>
</g>
<path fill="#00A19A" stroke="#00A19A" stroke-miterlimit="10" d="M590.495,204.536H537.72c-3.166,0-5.757-2.591-5.757-5.758v-6.381
	c0-3.167,2.591-5.757,5.757-5.757h52.775c3.167,0,5.757,2.59,5.757,5.757v6.381C596.252,201.945,593.662,204.536,590.495,204.536z"
	/>
<rect x="552.593" y="191.534" fill="none" width="23.029" height="8.107"/>
<g enable-background="new    ">
	<path fill="#FFFFFF" d="M554.765,192.836h-0.018l-1.029,0.556l-0.155-0.61l1.294-0.692h0.683v5.921h-0.774V192.836z"/>
	<path fill="#FFFFFF" d="M560.179,198.01v-1.612h-2.751v-0.528l2.642-3.78h0.865v3.68h0.829v0.629h-0.829v1.612H560.179z
		 M560.179,195.769v-1.977c0-0.31,0.009-0.619,0.027-0.929h-0.027c-0.183,0.346-0.328,0.601-0.492,0.874l-1.448,2.014v0.018H560.179
		z"/>
	<path fill="#FFFFFF" d="M562.441,194.33c0-0.337,0.228-0.573,0.547-0.573c0.318,0,0.528,0.236,0.537,0.573
		c0,0.319-0.209,0.565-0.547,0.565C562.66,194.895,562.441,194.649,562.441,194.33z M562.441,197.545
		c0-0.337,0.228-0.573,0.547-0.573c0.318,0,0.528,0.236,0.537,0.573c0,0.319-0.209,0.565-0.547,0.565
		C562.66,198.111,562.441,197.865,562.441,197.545z"/>
	<path fill="#FFFFFF" d="M564.456,197.09c0.228,0.146,0.756,0.373,1.312,0.373c1.029,0,1.348-0.655,1.339-1.147
		c-0.009-0.829-0.756-1.185-1.53-1.185h-0.446v-0.601h0.446c0.583,0,1.321-0.301,1.321-1.002c0-0.474-0.301-0.894-1.039-0.894
		c-0.474,0-0.929,0.21-1.184,0.393l-0.21-0.583c0.31-0.229,0.911-0.456,1.549-0.456c1.166,0,1.694,0.692,1.694,1.412
		c0,0.61-0.364,1.13-1.094,1.394v0.019c0.729,0.146,1.321,0.692,1.321,1.521c0,0.947-0.738,1.776-2.159,1.776
		c-0.665,0-1.248-0.21-1.539-0.401L564.456,197.09z"/>
	<path fill="#FFFFFF" d="M572.876,194.986c0,2.014-0.747,3.125-2.06,3.125c-1.156,0-1.94-1.084-1.958-3.043
		c0-1.986,0.856-3.079,2.059-3.079C572.165,191.989,572.876,193.1,572.876,194.986z M569.66,195.077c0,1.54,0.474,2.414,1.202,2.414
		c0.82,0,1.212-0.956,1.212-2.469c0-1.457-0.374-2.414-1.203-2.414C570.17,192.608,569.66,193.464,569.66,195.077z"/>
</g>
<g enable-background="new    ">
	<path fill="none" stroke="#FFFFFF" stroke-miterlimit="10" d="M554.765,192.836h-0.018l-1.029,0.556l-0.155-0.61l1.294-0.692h0.683
		v5.921h-0.774V192.836z"/>
	<path fill="none" stroke="#FFFFFF" stroke-miterlimit="10" d="M560.179,198.01v-1.612h-2.751v-0.528l2.642-3.78h0.865v3.68h0.829
		v0.629h-0.829v1.612H560.179z M560.179,195.769v-1.977c0-0.31,0.009-0.619,0.027-0.929h-0.027
		c-0.183,0.346-0.328,0.601-0.492,0.874l-1.448,2.014v0.018H560.179z"/>
	<path fill="none" stroke="#FFFFFF" stroke-miterlimit="10" d="M562.441,194.33c0-0.337,0.228-0.573,0.547-0.573
		c0.318,0,0.528,0.236,0.537,0.573c0,0.319-0.209,0.565-0.547,0.565C562.66,194.895,562.441,194.649,562.441,194.33z
		 M562.441,197.545c0-0.337,0.228-0.573,0.547-0.573c0.318,0,0.528,0.236,0.537,0.573c0,0.319-0.209,0.565-0.547,0.565
		C562.66,198.111,562.441,197.865,562.441,197.545z"/>
	<path fill="none" stroke="#FFFFFF" stroke-miterlimit="10" d="M564.456,197.09c0.228,0.146,0.756,0.373,1.312,0.373
		c1.029,0,1.348-0.655,1.339-1.147c-0.009-0.829-0.756-1.185-1.53-1.185h-0.446v-0.601h0.446c0.583,0,1.321-0.301,1.321-1.002
		c0-0.474-0.301-0.894-1.039-0.894c-0.474,0-0.929,0.21-1.184,0.393l-0.21-0.583c0.31-0.229,0.911-0.456,1.549-0.456
		c1.166,0,1.694,0.692,1.694,1.412c0,0.61-0.364,1.13-1.094,1.394v0.019c0.729,0.146,1.321,0.692,1.321,1.521
		c0,0.947-0.738,1.776-2.159,1.776c-0.665,0-1.248-0.21-1.539-0.401L564.456,197.09z"/>
	<path fill="none" stroke="#FFFFFF" stroke-miterlimit="10" d="M572.876,194.986c0,2.014-0.747,3.125-2.06,3.125
		c-1.156,0-1.94-1.084-1.958-3.043c0-1.986,0.856-3.079,2.059-3.079C572.165,191.989,572.876,193.1,572.876,194.986z
		 M569.66,195.077c0,1.54,0.474,2.414,1.202,2.414c0.82,0,1.212-0.956,1.212-2.469c0-1.457-0.374-2.414-1.203-2.414
		C570.17,192.608,569.66,193.464,569.66,195.077z"/>
</g>
<g>
	<path opacity="0.6" fill="#00A19A" stroke="#00A19A" stroke-width="3" stroke-miterlimit="10" enable-background="new    " d="
		M199.14,333.527h-30.562c-3.167,0-5.757-2.591-5.757-5.757v-19.958c0-3.167,2.591-5.757,5.757-5.757h30.562
		c3.167,0,5.757,2.591,5.757,5.757v19.958C204.897,330.937,202.307,333.527,199.14,333.527z"/>
	<rect x="161.958" y="307.092" fill="none" width="43.132" height="24.181"/>
	<g enable-background="new    ">
		<path fill="#FFFFFF" d="M174.824,308.152h-1.968v-0.71h4.79v0.71h-1.977v5.759h-0.845V308.152z"/>
		<path fill="#FFFFFF" d="M178.336,310.715c0-0.547-0.01-1.017-0.039-1.449h0.739l0.029,0.912h0.038
			c0.211-0.624,0.72-1.018,1.286-1.018c0.096,0,0.163,0.01,0.24,0.029v0.797c-0.086-0.02-0.173-0.029-0.288-0.029
			c-0.595,0-1.018,0.451-1.132,1.084c-0.02,0.115-0.039,0.25-0.039,0.394v2.476h-0.835V310.715z"/>
		<path fill="#FFFFFF" d="M184.046,313.911l-0.067-0.585h-0.029c-0.259,0.365-0.758,0.691-1.42,0.691c-0.94,0-1.42-0.662-1.42-1.334
			c0-1.123,0.998-1.737,2.793-1.728v-0.096c0-0.384-0.105-1.075-1.056-1.075c-0.432,0-0.883,0.134-1.209,0.345l-0.192-0.557
			c0.384-0.25,0.94-0.413,1.526-0.413c1.42,0,1.766,0.969,1.766,1.9v1.737c0,0.403,0.019,0.796,0.077,1.113H184.046z
			 M183.921,311.541c-0.921-0.019-1.967,0.144-1.967,1.046c0,0.547,0.365,0.807,0.796,0.807c0.605,0,0.989-0.384,1.123-0.778
			c0.029-0.086,0.048-0.182,0.048-0.269V311.541z"/>
		<path fill="#FFFFFF" d="M189.41,313.738c-0.221,0.115-0.71,0.269-1.334,0.269c-1.401,0-2.313-0.95-2.313-2.371
			c0-1.43,0.979-2.466,2.496-2.466c0.499,0,0.94,0.125,1.171,0.24l-0.192,0.653c-0.202-0.115-0.519-0.221-0.979-0.221
			c-1.065,0-1.642,0.787-1.642,1.756c0,1.075,0.691,1.737,1.613,1.737c0.479,0,0.796-0.125,1.036-0.23L189.41,313.738z"/>
		<path fill="#FFFFFF" d="M191.232,311.396h0.019c0.115-0.163,0.278-0.365,0.413-0.528l1.363-1.603h1.017l-1.794,1.91l2.044,2.735
			h-1.027l-1.603-2.227l-0.432,0.48v1.747h-0.835v-6.814h0.835V311.396z"/>
	</g>
	<g enable-background="new    ">
		<path fill="none" stroke="#FFFFFF" stroke-miterlimit="10" d="M174.824,308.152h-1.968v-0.71h4.79v0.71h-1.977v5.759h-0.845
			V308.152z"/>
		<path fill="none" stroke="#FFFFFF" stroke-miterlimit="10" d="M178.336,310.715c0-0.547-0.01-1.017-0.039-1.449h0.739l0.029,0.912
			h0.038c0.211-0.624,0.72-1.018,1.286-1.018c0.096,0,0.163,0.01,0.24,0.029v0.797c-0.086-0.02-0.173-0.029-0.288-0.029
			c-0.595,0-1.018,0.451-1.132,1.084c-0.02,0.115-0.039,0.25-0.039,0.394v2.476h-0.835V310.715z"/>
		<path fill="none" stroke="#FFFFFF" stroke-miterlimit="10" d="M184.046,313.911l-0.067-0.585h-0.029
			c-0.259,0.365-0.758,0.691-1.42,0.691c-0.94,0-1.42-0.662-1.42-1.334c0-1.123,0.998-1.737,2.793-1.728v-0.096
			c0-0.384-0.105-1.075-1.056-1.075c-0.432,0-0.883,0.134-1.209,0.345l-0.192-0.557c0.384-0.25,0.94-0.413,1.526-0.413
			c1.42,0,1.766,0.969,1.766,1.9v1.737c0,0.403,0.019,0.796,0.077,1.113H184.046z M183.921,311.541
			c-0.921-0.019-1.967,0.144-1.967,1.046c0,0.547,0.365,0.807,0.796,0.807c0.605,0,0.989-0.384,1.123-0.778
			c0.029-0.086,0.048-0.182,0.048-0.269V311.541z"/>
		<path fill="none" stroke="#FFFFFF" stroke-miterlimit="10" d="M189.41,313.738c-0.221,0.115-0.71,0.269-1.334,0.269
			c-1.401,0-2.313-0.95-2.313-2.371c0-1.43,0.979-2.466,2.496-2.466c0.499,0,0.94,0.125,1.171,0.24l-0.192,0.653
			c-0.202-0.115-0.519-0.221-0.979-0.221c-1.065,0-1.642,0.787-1.642,1.756c0,1.075,0.691,1.737,1.613,1.737
			c0.479,0,0.796-0.125,1.036-0.23L189.41,313.738z"/>
		<path fill="none" stroke="#FFFFFF" stroke-miterlimit="10" d="M191.232,311.396h0.019c0.115-0.163,0.278-0.365,0.413-0.528
			l1.363-1.603h1.017l-1.794,1.91l2.044,2.735h-1.027l-1.603-2.227l-0.432,0.48v1.747h-0.835v-6.814h0.835V311.396z"/>
	</g>
	<g enable-background="new    ">
		<path fill="#FFFFFF" d="M180.112,323.392l-0.672,2.034h-0.864l2.198-6.469h1.008l2.208,6.469h-0.893l-0.691-2.034H180.112z
			 M182.233,322.738l-0.633-1.861c-0.144-0.423-0.24-0.807-0.336-1.181h-0.019c-0.096,0.384-0.202,0.777-0.326,1.171l-0.634,1.871
			H182.233z"/>
		<path fill="#FFFFFF" d="M184.91,318.611h0.845v6.814h-0.845V318.611z"/>
		<path fill="#FFFFFF" d="M187.174,318.611h0.845v6.814h-0.845V318.611z"/>
	</g>
	<g enable-background="new    ">
		<path fill="none" stroke="#FFFFFF" stroke-miterlimit="10" d="M180.112,323.392l-0.672,2.034h-0.864l2.198-6.469h1.008
			l2.208,6.469h-0.893l-0.691-2.034H180.112z M182.233,322.738l-0.633-1.861c-0.144-0.423-0.24-0.807-0.336-1.181h-0.019
			c-0.096,0.384-0.202,0.777-0.326,1.171l-0.634,1.871H182.233z"/>
		<path fill="none" stroke="#FFFFFF" stroke-miterlimit="10" d="M184.91,318.611h0.845v6.814h-0.845V318.611z"/>
		<path fill="none" stroke="#FFFFFF" stroke-miterlimit="10" d="M187.174,318.611h0.845v6.814h-0.845V318.611z"/>
	</g>
</g>
<g>
	<path opacity="0.6" fill="#00A19A" stroke="#00A19A" stroke-width="3" stroke-miterlimit="10" enable-background="new    " d="
		M148.044,333.527h-30.562c-3.167,0-5.757-2.591-5.757-5.757v-19.958c0-3.167,2.591-5.757,5.757-5.757h30.562
		c3.167,0,5.757,2.591,5.757,5.757v19.958C153.801,330.937,151.211,333.527,148.044,333.527z"/>
	<rect x="111.198" y="307.476" fill="none" width="43.131" height="18.328"/>
	<g enable-background="new    ">
		<path fill="#FFFFFF" d="M124.064,308.519h-1.968v-0.71h4.79v0.71h-1.977v5.759h-0.845V308.519z"/>
		<path fill="#FFFFFF" d="M127.576,311.081c0-0.547-0.01-1.017-0.039-1.449h0.739l0.029,0.912h0.038
			c0.211-0.624,0.72-1.018,1.286-1.018c0.096,0,0.163,0.01,0.24,0.029v0.797c-0.086-0.02-0.173-0.029-0.288-0.029
			c-0.595,0-1.018,0.451-1.132,1.084c-0.02,0.115-0.039,0.25-0.039,0.394v2.476h-0.835V311.081z"/>
		<path fill="#FFFFFF" d="M133.286,314.277l-0.067-0.585h-0.029c-0.259,0.365-0.758,0.691-1.42,0.691c-0.94,0-1.42-0.662-1.42-1.334
			c0-1.123,0.998-1.737,2.793-1.728v-0.096c0-0.384-0.105-1.075-1.056-1.075c-0.432,0-0.883,0.134-1.209,0.345l-0.192-0.557
			c0.384-0.25,0.94-0.413,1.526-0.413c1.42,0,1.766,0.969,1.766,1.9v1.737c0,0.403,0.019,0.796,0.077,1.113H133.286z
			 M133.161,311.907c-0.921-0.019-1.967,0.144-1.967,1.046c0,0.547,0.365,0.807,0.796,0.807c0.605,0,0.989-0.384,1.123-0.778
			c0.029-0.086,0.048-0.182,0.048-0.269V311.907z"/>
		<path fill="#FFFFFF" d="M138.649,314.104c-0.221,0.115-0.71,0.269-1.334,0.269c-1.401,0-2.313-0.95-2.313-2.371
			c0-1.43,0.979-2.466,2.496-2.466c0.499,0,0.94,0.125,1.171,0.24l-0.192,0.653c-0.202-0.115-0.519-0.221-0.979-0.221
			c-1.065,0-1.642,0.787-1.642,1.756c0,1.075,0.691,1.737,1.613,1.737c0.479,0,0.796-0.125,1.036-0.23L138.649,314.104z"/>
		<path fill="#FFFFFF" d="M140.472,311.763h0.019c0.115-0.163,0.278-0.365,0.413-0.528l1.363-1.603h1.017l-1.794,1.91l2.044,2.735
			h-1.027l-1.603-2.227l-0.432,0.48v1.747h-0.835v-6.814h0.835V311.763z"/>
	</g>
	<g enable-background="new    ">
		<path fill="none" stroke="#FFFFFF" stroke-miterlimit="10" d="M124.064,308.519h-1.968v-0.71h4.79v0.71h-1.977v5.759h-0.845
			V308.519z"/>
		<path fill="none" stroke="#FFFFFF" stroke-miterlimit="10" d="M127.576,311.081c0-0.547-0.01-1.017-0.039-1.449h0.739l0.029,0.912
			h0.038c0.211-0.624,0.72-1.018,1.286-1.018c0.096,0,0.163,0.01,0.24,0.029v0.797c-0.086-0.02-0.173-0.029-0.288-0.029
			c-0.595,0-1.018,0.451-1.132,1.084c-0.02,0.115-0.039,0.25-0.039,0.394v2.476h-0.835V311.081z"/>
		<path fill="none" stroke="#FFFFFF" stroke-miterlimit="10" d="M133.286,314.277l-0.067-0.585h-0.029
			c-0.259,0.365-0.758,0.691-1.42,0.691c-0.94,0-1.42-0.662-1.42-1.334c0-1.123,0.998-1.737,2.793-1.728v-0.096
			c0-0.384-0.105-1.075-1.056-1.075c-0.432,0-0.883,0.134-1.209,0.345l-0.192-0.557c0.384-0.25,0.94-0.413,1.526-0.413
			c1.42,0,1.766,0.969,1.766,1.9v1.737c0,0.403,0.019,0.796,0.077,1.113H133.286z M133.161,311.907
			c-0.921-0.019-1.967,0.144-1.967,1.046c0,0.547,0.365,0.807,0.796,0.807c0.605,0,0.989-0.384,1.123-0.778
			c0.029-0.086,0.048-0.182,0.048-0.269V311.907z"/>
		<path fill="none" stroke="#FFFFFF" stroke-miterlimit="10" d="M138.649,314.104c-0.221,0.115-0.71,0.269-1.334,0.269
			c-1.401,0-2.313-0.95-2.313-2.371c0-1.43,0.979-2.466,2.496-2.466c0.499,0,0.94,0.125,1.171,0.24l-0.192,0.653
			c-0.202-0.115-0.519-0.221-0.979-0.221c-1.065,0-1.642,0.787-1.642,1.756c0,1.075,0.691,1.737,1.613,1.737
			c0.479,0,0.796-0.125,1.036-0.23L138.649,314.104z"/>
		<path fill="none" stroke="#FFFFFF" stroke-miterlimit="10" d="M140.472,311.763h0.019c0.115-0.163,0.278-0.365,0.413-0.528
			l1.363-1.603h1.017l-1.794,1.91l2.044,2.735h-1.027l-1.603-2.227l-0.432,0.48v1.747h-0.835v-6.814h0.835V311.763z"/>
	</g>
	<g enable-background="new    ">
		<path fill="#FFFFFF" d="M119.764,319.4c0.403-0.067,0.931-0.125,1.603-0.125c0.826,0,1.43,0.192,1.814,0.538
			c0.355,0.307,0.566,0.777,0.566,1.354c0,0.585-0.173,1.046-0.499,1.382c-0.441,0.47-1.161,0.71-1.977,0.71
			c-0.25,0-0.48-0.01-0.672-0.058v2.591h-0.835V319.4z M120.599,322.519c0.182,0.048,0.413,0.067,0.691,0.067
			c1.008,0,1.622-0.49,1.622-1.382c0-0.854-0.604-1.267-1.526-1.267c-0.365,0-0.643,0.029-0.787,0.067V322.519z"/>
		<path fill="#FFFFFF" d="M125.311,323.623c0.019,1.142,0.749,1.612,1.593,1.612c0.604,0,0.969-0.105,1.286-0.24l0.144,0.604
			c-0.298,0.134-0.806,0.288-1.545,0.288c-1.43,0-2.284-0.941-2.284-2.342c0-1.401,0.825-2.505,2.179-2.505
			c1.517,0,1.919,1.334,1.919,2.188c0,0.173-0.019,0.307-0.029,0.394H125.311z M127.787,323.018c0.01-0.537-0.221-1.373-1.171-1.373
			c-0.854,0-1.229,0.787-1.295,1.373H127.787z"/>
		<path fill="#FFFFFF" d="M129.647,322.596c0-0.547-0.01-1.017-0.039-1.449h0.739l0.029,0.912h0.038
			c0.211-0.624,0.72-1.018,1.286-1.018c0.096,0,0.164,0.01,0.24,0.029v0.797c-0.086-0.02-0.173-0.029-0.288-0.029
			c-0.595,0-1.017,0.451-1.132,1.084c-0.02,0.115-0.039,0.25-0.039,0.394v2.476h-0.835V322.596z"/>
		<path fill="#FFFFFF" d="M132.67,324.928c0.25,0.163,0.691,0.336,1.113,0.336c0.614,0,0.902-0.307,0.902-0.691
			c0-0.403-0.24-0.624-0.864-0.854c-0.835-0.297-1.229-0.758-1.229-1.315c0-0.749,0.604-1.363,1.603-1.363
			c0.471,0,0.883,0.134,1.142,0.288l-0.211,0.614c-0.182-0.115-0.518-0.269-0.95-0.269c-0.499,0-0.777,0.288-0.777,0.634
			c0,0.384,0.278,0.557,0.883,0.787c0.806,0.307,1.219,0.71,1.219,1.401c0,0.816-0.634,1.392-1.737,1.392
			c-0.509,0-0.979-0.125-1.305-0.317L132.67,324.928z"/>
		<path fill="#FFFFFF" d="M140.789,323.431c0,1.718-1.19,2.466-2.313,2.466c-1.257,0-2.227-0.921-2.227-2.39
			c0-1.555,1.017-2.467,2.303-2.467C139.887,321.041,140.789,322.01,140.789,323.431z M137.103,323.479
			c0,1.017,0.585,1.785,1.411,1.785c0.806,0,1.411-0.758,1.411-1.804c0-0.787-0.394-1.786-1.392-1.786
			S137.103,322.596,137.103,323.479z"/>
		<path fill="#FFFFFF" d="M141.853,322.404c0-0.479-0.01-0.873-0.039-1.257h0.749l0.048,0.768h0.019
			c0.23-0.441,0.768-0.874,1.536-0.874c0.643,0,1.641,0.384,1.641,1.977v2.774h-0.844v-2.678c0-0.749-0.278-1.373-1.075-1.373
			c-0.557,0-0.989,0.394-1.132,0.864c-0.039,0.105-0.058,0.25-0.058,0.394v2.793h-0.845V322.404z"/>
	</g>
	<g enable-background="new    ">
		<path fill="none" stroke="#FFFFFF" stroke-miterlimit="10" d="M119.764,319.4c0.403-0.067,0.931-0.125,1.603-0.125
			c0.826,0,1.43,0.192,1.814,0.538c0.355,0.307,0.566,0.777,0.566,1.354c0,0.585-0.173,1.046-0.499,1.382
			c-0.441,0.47-1.161,0.71-1.977,0.71c-0.25,0-0.48-0.01-0.672-0.058v2.591h-0.835V319.4z M120.599,322.519
			c0.182,0.048,0.413,0.067,0.691,0.067c1.008,0,1.622-0.49,1.622-1.382c0-0.854-0.604-1.267-1.526-1.267
			c-0.365,0-0.643,0.029-0.787,0.067V322.519z"/>
		<path fill="none" stroke="#FFFFFF" stroke-miterlimit="10" d="M125.311,323.623c0.019,1.142,0.749,1.612,1.593,1.612
			c0.604,0,0.969-0.105,1.286-0.24l0.144,0.604c-0.298,0.134-0.806,0.288-1.545,0.288c-1.43,0-2.284-0.941-2.284-2.342
			c0-1.401,0.825-2.505,2.179-2.505c1.517,0,1.919,1.334,1.919,2.188c0,0.173-0.019,0.307-0.029,0.394H125.311z M127.787,323.018
			c0.01-0.537-0.221-1.373-1.171-1.373c-0.854,0-1.229,0.787-1.295,1.373H127.787z"/>
		<path fill="none" stroke="#FFFFFF" stroke-miterlimit="10" d="M129.647,322.596c0-0.547-0.01-1.017-0.039-1.449h0.739l0.029,0.912
			h0.038c0.211-0.624,0.72-1.018,1.286-1.018c0.096,0,0.164,0.01,0.24,0.029v0.797c-0.086-0.02-0.173-0.029-0.288-0.029
			c-0.595,0-1.017,0.451-1.132,1.084c-0.02,0.115-0.039,0.25-0.039,0.394v2.476h-0.835V322.596z"/>
		<path fill="none" stroke="#FFFFFF" stroke-miterlimit="10" d="M132.67,324.928c0.25,0.163,0.691,0.336,1.113,0.336
			c0.614,0,0.902-0.307,0.902-0.691c0-0.403-0.24-0.624-0.864-0.854c-0.835-0.297-1.229-0.758-1.229-1.315
			c0-0.749,0.604-1.363,1.603-1.363c0.471,0,0.883,0.134,1.142,0.288l-0.211,0.614c-0.182-0.115-0.518-0.269-0.95-0.269
			c-0.499,0-0.777,0.288-0.777,0.634c0,0.384,0.278,0.557,0.883,0.787c0.806,0.307,1.219,0.71,1.219,1.401
			c0,0.816-0.634,1.392-1.737,1.392c-0.509,0-0.979-0.125-1.305-0.317L132.67,324.928z"/>
		<path fill="none" stroke="#FFFFFF" stroke-miterlimit="10" d="M140.789,323.431c0,1.718-1.19,2.466-2.313,2.466
			c-1.257,0-2.227-0.921-2.227-2.39c0-1.555,1.017-2.467,2.303-2.467C139.887,321.041,140.789,322.01,140.789,323.431z
			 M137.103,323.479c0,1.017,0.585,1.785,1.411,1.785c0.806,0,1.411-0.758,1.411-1.804c0-0.787-0.394-1.786-1.392-1.786
			S137.103,322.596,137.103,323.479z"/>
		<path fill="none" stroke="#FFFFFF" stroke-miterlimit="10" d="M141.853,322.404c0-0.479-0.01-0.873-0.039-1.257h0.749l0.048,0.768
			h0.019c0.23-0.441,0.768-0.874,1.536-0.874c0.643,0,1.641,0.384,1.641,1.977v2.774h-0.844v-2.678c0-0.749-0.278-1.373-1.075-1.373
			c-0.557,0-0.989,0.394-1.132,0.864c-0.039,0.105-0.058,0.25-0.058,0.394v2.793h-0.845V322.404z"/>
	</g>
</g>
<line fill="none" stroke="#00A19A" stroke-width="6" stroke-miterlimit="10" x1="264.793" y1="-61.5" x2="264.793" y2="216.5"/>
<line fill="none" stroke="#00A19A" stroke-width="6" stroke-miterlimit="10" x1="21.473" y1="77.5" x2="513" y2="77.5"/>
<rect x="268.719" y="-61.317" fill="none" stroke="#000000" stroke-miterlimit="10" width="244.281" height="136.817"/>
<rect x="16.71" y="-61.317" fill="none" stroke="#000000" stroke-miterlimit="10" width="244.281" height="136.817"/>
<rect x="16.164" y="78.752" fill="none" stroke="#000000" stroke-miterlimit="10" width="244.281" height="136.817"/>
<rect x="268.719" y="78.752" fill="none" stroke="#000000" stroke-miterlimit="10" width="244.281" height="136.817"/>
</svg>
