<svg id="Layer_1" data-name="Layer 1" xmlns="http://www.w3.org/2000/svg" viewBox="0 0 737.96 435.32"><defs><style>.cls-1{fill:none;stroke:#231f20;stroke-miterlimit:10;stroke-width:2px;}</style></defs><title>VAST_ProxZones_F1</title><rect class="cls-1" x="1" y="1" width="735.96" height="433.32"/><rect class="cls-1" x="1" y="1" width="180.36" height="152.85"/><rect class="cls-1" x="234.09" y="1" width="288.12" height="139.09"/><rect class="cls-1" x="1" y="153.85" width="58.08" height="41.27"/><rect class="cls-1" x="1" y="195.12" width="58.08" height="160.49"/><rect class="cls-1" x="1" y="355.61" width="58.08" height="78.72"/><rect class="cls-1" x="59.08" y="372.42" width="48.91" height="61.9"/><rect class="cls-1" x="107.99" y="372.42" width="77.19" height="61.9"/><rect class="cls-1" x="146.59" y="181.36" width="57.7" height="77.95"/><rect class="cls-1" x="262.37" y="181.36" width="100.12" height="77.95"/><rect class="cls-1" x="362.49" y="181.36" width="99.35" height="36.85"/><rect class="cls-1" x="362.49" y="218.21" width="99.35" height="41.1"/><rect class="cls-1" x="293.7" y="259.31" width="168.13" height="91.71"/><rect class="cls-1" x="550.49" y="181.36" width="29.81" height="77.95"/><rect class="cls-1" x="586.41" y="372.42" width="75.66" height="61.9"/><rect class="cls-1" x="662.07" y="372.42" width="74.9" height="61.9"/></svg>