<svg id="Layer_1" data-name="Layer 1" xmlns="http://www.w3.org/2000/svg" viewBox="0 0 615.33 360.67"><defs><style>.cls-1{fill:#fff;}.cls-1,.cls-2{stroke:#1d1d1b;stroke-miterlimit:10;stroke-width:2px;}.cls-2{fill:none;}</style></defs><title>VAST_EnergyZones_F3</title><rect class="cls-1" x="1" y="1" width="64" height="50.67"/><rect class="cls-1" x="65" y="1" width="500" height="50.67"/><rect class="cls-1" x="565" y="1" width="49.33" height="62.67"/><rect class="cls-1" x="565" y="63.67" width="49.33" height="245.33"/><rect class="cls-1" x="1" y="51.67" width="50.67" height="242.67"/><rect class="cls-1" x="1" y="294.33" width="50.67" height="65.33"/><rect class="cls-1" x="51.67" y="309" width="497.33" height="50.67"/><rect class="cls-1" x="549" y="309" width="65.33" height="50.67"/><rect class="cls-1" x="485" y="70.33" width="64" height="64"/><rect class="cls-1" x="503.67" y="150.33" width="45.33" height="61.33"/><rect class="cls-1" x="219.67" y="150.33" width="80.67" height="63.33"/><rect class="cls-1" x="245.67" y="216.46" width="139.33" height="74.54"/><rect class="cls-1" x="403" y="228.33" width="146" height="62.67"/><rect class="cls-1" x="235.67" y="70.33" width="230" height="64"/><polygon class="cls-2" points="143.67 291 143.67 211.67 119.67 211.67 119.67 131.67 201 131.67 201 105 185 105 185 70.33 69.67 70.33 69.67 291 143.67 291"/><polygon class="cls-2" points="69.67 214.37 69.67 291 143.67 291 143.67 215.06 245.67 213.67 245.67 291 385 291 385 216.46 565 213.67 565 309 51.67 309 51.67 215.06 69.67 214.37"/><polygon class="cls-2" points="171 150.33 170.33 211.67 219.67 213.67 219.67 150.33 385 150.33 385 213.67 403 213.67 403 150.33 485 150.33 485 214.91 503.67 211.67 503.67 150.33 549 150.33 549 211.67 565 213.67 565 141 119.67 142.33 119.67 150.33 171 150.33"/><path class="cls-2" d="M352.67,555.67" transform="translate(-117 -421.33)"/><path class="cls-2" d="M666,553" transform="translate(-117 -421.33)"/><path class="cls-2" d="M602,555.67" transform="translate(-117 -421.33)"/><polyline class="cls-2" points="485 70.33 485 134.33 549 134.33 549 70.33 485 70.33 465.67 131.67 465.67 70.33 235.67 70.33 235.67 134.33 465.67 134.33 69.67 142.33 51.67 142.33 51.67 51.67 565 51.67 565 141 119.67 142.33 119.67 131.67 201 131.67 201 105 185 105 185 70.33 69.67 70.33 69.67 142.33"/></svg>