<?xml version="1.0" encoding="utf-8"?>
<!-- Generator: Adobe Illustrator 16.0.0, SVG Export Plug-In . SVG Version: 6.00 Build 0)  -->
<!DOCTYPE svg PUBLIC "-//W3C//DTD SVG 1.1//EN" "http://www.w3.org/Graphics/SVG/1.1/DTD/svg11.dtd">
<svg version="1.1" xmlns="http://www.w3.org/2000/svg" xmlns:xlink="http://www.w3.org/1999/xlink" x="0px" y="0px"
	 width="708.661px" height="425.197px" viewBox="0 0 708.661 425.197" enable-background="new 0 0 708.661 425.197"
	 xml:space="preserve">
<g id="Layer_1">
	<rect x="48.136" y="32.804" fill="#FFFFFF" width="614" height="358.5"/>
	<rect x="48.136" y="32.804" fill="#FFFFFF" width="95" height="51"/>
	<rect x="48.136" y="32.804" fill="none" stroke="#000000" stroke-width="2" stroke-miterlimit="10" width="95" height="51"/>
	<rect x="48.136" y="83.804" fill="#FFFFFF" width="47.5" height="80"/>
	<rect x="48.136" y="83.804" fill="none" stroke="#000000" stroke-width="2" stroke-miterlimit="10" width="47.5" height="80"/>
	<rect x="48.136" y="163.804" fill="#FFFFFF" width="47.5" height="34.5"/>
	<rect x="48.136" y="163.804" fill="none" stroke="#000000" stroke-width="2" stroke-miterlimit="10" width="47.5" height="34.5"/>
	<rect x="48.136" y="198.304" fill="#FFFFFF" width="47.5" height="78.5"/>
	<rect x="48.136" y="198.304" fill="none" stroke="#000000" stroke-width="2" stroke-miterlimit="10" width="47.5" height="78.5"/>
	<rect x="48.136" y="276.804" fill="#FFFFFF" width="47.5" height="39"/>
	<rect x="48.136" y="276.804" fill="none" stroke="#000000" stroke-width="2" stroke-miterlimit="10" width="47.5" height="39"/>
	<rect x="48.136" y="315.804" fill="#FFFFFF" width="47.5" height="75.5"/>
	<rect x="48.136" y="315.804" fill="none" stroke="#000000" stroke-width="2" stroke-miterlimit="10" width="47.5" height="75.5"/>
	<rect x="95.636" y="343.804" fill="#FFFFFF" width="41.5" height="47.5"/>
	<rect x="95.636" y="343.804" fill="none" stroke="#000000" stroke-width="2" stroke-miterlimit="10" width="41.5" height="47.5"/>
	<rect x="137.136" y="343.804" fill="#FFFFFF" width="64.5" height="47.5"/>
	<rect x="137.136" y="343.804" fill="none" stroke="#000000" stroke-width="2" stroke-miterlimit="10" width="64.5" height="47.5"/>
	<rect x="201.636" y="343.804" fill="#FFFFFF" width="98.5" height="47.5"/>
	<rect x="201.636" y="343.804" fill="none" stroke="#000000" stroke-width="2" stroke-miterlimit="10" width="98.5" height="47.5"/>
	<rect x="300.136" y="343.804" fill="#FFFFFF" width="33" height="47.5"/>
	<rect x="300.136" y="343.804" fill="none" stroke="#000000" stroke-width="2" stroke-miterlimit="10" width="33" height="47.5"/>
	<rect x="333.136" y="343.804" fill="#FFFFFF" width="64.5" height="47.5"/>
	<rect x="333.136" y="343.804" fill="none" stroke="#000000" stroke-width="2" stroke-miterlimit="10" width="64.5" height="47.5"/>
	<rect x="397.636" y="343.804" fill="#FFFFFF" width="32" height="47.5"/>
	<rect x="397.636" y="343.804" fill="none" stroke="#000000" stroke-width="2" stroke-miterlimit="10" width="32" height="47.5"/>
	<rect x="429.636" y="343.804" fill="#FFFFFF" width="66" height="47.5"/>
	<rect x="429.636" y="343.804" fill="none" stroke="#000000" stroke-width="2" stroke-miterlimit="10" width="66" height="47.5"/>
	<rect x="143.136" y="32.804" fill="#FFFFFF" width="32.5" height="51"/>
	<rect x="143.136" y="32.804" fill="none" stroke="#000000" stroke-width="2" stroke-miterlimit="10" width="32.5" height="51"/>
	<rect x="175.636" y="32.804" fill="#FFFFFF" width="33.5" height="51"/>
	<rect x="175.636" y="32.804" fill="none" stroke="#000000" stroke-width="2" stroke-miterlimit="10" width="33.5" height="51"/>
	<rect x="209.136" y="32.804" fill="#FFFFFF" width="77.5" height="51"/>
	<rect x="209.136" y="32.804" fill="none" stroke="#000000" stroke-width="2" stroke-miterlimit="10" width="77.5" height="51"/>
	<rect x="286.636" y="32.804" fill="#FFFFFF" width="65" height="51"/>
	<rect x="286.636" y="32.804" fill="none" stroke="#000000" stroke-width="2" stroke-miterlimit="10" width="65" height="51"/>
	<rect x="351.636" y="32.804" fill="#FFFFFF" width="32.5" height="51"/>
	<rect x="351.636" y="32.804" fill="none" stroke="#000000" stroke-width="2" stroke-miterlimit="10" width="32.5" height="51"/>
	<rect x="384.136" y="32.804" fill="#FFFFFF" width="32.5" height="51"/>
	<rect x="384.136" y="32.804" fill="none" stroke="#000000" stroke-width="2" stroke-miterlimit="10" width="32.5" height="51"/>
	<rect x="416.636" y="32.804" fill="#FFFFFF" width="63.5" height="51"/>
	<rect x="416.636" y="32.804" fill="none" stroke="#000000" stroke-width="2" stroke-miterlimit="10" width="63.5" height="51"/>
	<rect x="284.136" y="102.304" fill="#FFFFFF" width="22.5" height="32"/>
	<rect x="284.136" y="102.304" fill="none" stroke="#000000" stroke-width="2" stroke-miterlimit="10" width="22.5" height="32"/>
	<rect x="306.636" y="102.304" fill="#FFFFFF" width="22" height="32"/>
	<rect x="306.636" y="102.304" fill="none" stroke="#000000" stroke-width="2" stroke-miterlimit="10" width="22" height="32"/>
	<rect x="306.636" y="134.304" fill="#FFFFFF" width="22" height="29.5"/>
	<rect x="306.636" y="134.304" fill="none" stroke="#000000" stroke-width="2" stroke-miterlimit="10" width="22" height="29.5"/>
	<rect x="284.136" y="134.304" fill="#FFFFFF" width="22.5" height="29.5"/>
	<rect x="284.136" y="134.304" fill="none" stroke="#000000" stroke-width="2" stroke-miterlimit="10" width="22.5" height="29.5"/>
	<rect x="265.136" y="183.804" fill="#FFFFFF" width="83.5" height="62"/>
	<rect x="265.136" y="183.804" fill="none" stroke="#000000" stroke-width="2" stroke-miterlimit="10" width="83.5" height="62"/>
	<rect x="346.636" y="102.304" fill="#FFFFFF" width="21.25" height="32"/>
	<rect x="346.636" y="102.304" fill="none" stroke="#000000" stroke-width="2" stroke-miterlimit="10" width="21.25" height="32"/>
	<rect x="367.886" y="102.304" fill="#FFFFFF" width="21.75" height="32"/>
	<rect x="367.886" y="102.304" fill="none" stroke="#000000" stroke-width="2" stroke-miterlimit="10" width="21.75" height="32"/>
	<rect x="367.886" y="134.304" fill="#FFFFFF" width="21.75" height="29.5"/>
	
		<rect x="367.886" y="134.304" fill="none" stroke="#000000" stroke-width="2" stroke-miterlimit="10" width="21.75" height="29.5"/>
	<rect x="346.636" y="134.304" fill="#FFFFFF" width="21.25" height="29.5"/>
	
		<rect x="346.636" y="134.304" fill="none" stroke="#000000" stroke-width="2" stroke-miterlimit="10" width="21.25" height="29.5"/>
	<rect x="407.636" y="102.304" fill="#FFFFFF" width="22" height="32"/>
	<rect x="407.636" y="102.304" fill="none" stroke="#000000" stroke-width="2" stroke-miterlimit="10" width="22" height="32"/>
	<rect x="429.636" y="102.304" fill="#FFFFFF" width="23" height="32"/>
	<rect x="429.636" y="102.304" fill="none" stroke="#000000" stroke-width="2" stroke-miterlimit="10" width="23" height="32"/>
	<rect x="429.636" y="134.304" fill="#FFFFFF" width="23" height="29.5"/>
	<rect x="429.636" y="134.304" fill="none" stroke="#000000" stroke-width="2" stroke-miterlimit="10" width="23" height="29.5"/>
	<rect x="407.636" y="134.304" fill="#FFFFFF" width="22" height="29.5"/>
	<rect x="407.636" y="134.304" fill="none" stroke="#000000" stroke-width="2" stroke-miterlimit="10" width="22" height="29.5"/>
	<rect x="348.636" y="183.804" fill="#FFFFFF" width="81" height="31"/>
	<rect x="348.636" y="183.804" fill="none" stroke="#000000" stroke-width="2" stroke-miterlimit="10" width="81" height="31"/>
	<rect x="348.636" y="214.804" fill="#FFFFFF" width="81" height="31"/>
	<rect x="348.636" y="214.804" fill="none" stroke="#000000" stroke-width="2" stroke-miterlimit="10" width="81" height="31"/>
	<rect x="404.136" y="245.804" fill="#FFFFFF" width="25.5" height="77.5"/>
	<rect x="404.136" y="245.804" fill="none" stroke="#000000" stroke-width="2" stroke-miterlimit="10" width="25.5" height="77.5"/>
	<rect x="290.636" y="245.804" fill="#FFFFFF" width="113.5" height="77.5"/>
	
		<rect x="290.636" y="245.804" fill="none" stroke="#000000" stroke-width="2" stroke-miterlimit="10" width="113.5" height="77.5"/>
	<rect x="116.386" y="102.304" fill="#FFFFFF" width="48.25" height="32"/>
	<rect x="116.386" y="102.304" fill="none" stroke="#000000" stroke-width="2" stroke-miterlimit="10" width="48.25" height="32"/>
	<rect x="116.386" y="134.304" fill="#FFFFFF" width="48.25" height="41.5"/>
	
		<rect x="116.386" y="134.304" fill="none" stroke="#000000" stroke-width="2" stroke-miterlimit="10" width="48.25" height="41.5"/>
	<rect x="116.386" y="175.804" fill="#FFFFFF" width="48.25" height="33"/>
	<rect x="116.386" y="175.804" fill="none" stroke="#000000" stroke-width="2" stroke-miterlimit="10" width="48.25" height="33"/>
	<rect x="116.386" y="208.804" fill="#FFFFFF" width="48.25" height="33.5"/>
	
		<rect x="116.386" y="208.804" fill="none" stroke="#000000" stroke-width="2" stroke-miterlimit="10" width="48.25" height="33.5"/>
	<rect x="116.386" y="242.304" fill="#FFFFFF" width="48.25" height="81"/>
	<rect x="116.386" y="242.304" fill="none" stroke="#000000" stroke-width="2" stroke-miterlimit="10" width="48.25" height="81"/>
	<rect x="164.636" y="298.304" fill="#FFFFFF" width="25" height="25"/>
	<rect x="164.636" y="298.304" fill="none" stroke="#000000" stroke-width="2" stroke-miterlimit="10" width="25" height="25"/>
	<rect x="164.636" y="242.304" fill="#FFFFFF" width="25" height="56"/>
	<rect x="164.636" y="242.304" fill="none" stroke="#000000" stroke-width="2" stroke-miterlimit="10" width="25" height="56"/>
	<rect x="164.636" y="183.804" fill="#FFFFFF" width="30" height="58.5"/>
	<rect x="164.636" y="183.804" fill="none" stroke="#000000" stroke-width="2" stroke-miterlimit="10" width="30" height="58.5"/>
	<rect x="194.636" y="183.804" fill="#FFFFFF" width="22" height="58.5"/>
	<rect x="194.636" y="183.804" fill="none" stroke="#000000" stroke-width="2" stroke-miterlimit="10" width="22" height="58.5"/>
</g>
<g id="canvas_layer">
	
		<rect id="canvas" x="48.136" y="32.804" fill="none" stroke="#000000" stroke-width="2" stroke-miterlimit="10" width="614" height="358.5"/>
</g>
</svg>
