<?xml version="1.0" encoding="utf-8"?>
<!-- Generator: Adobe Illustrator 16.0.0, SVG Export Plug-In . SVG Version: 6.00 Build 0)  -->
<!DOCTYPE svg PUBLIC "-//W3C//DTD SVG 1.1//EN" "http://www.w3.org/Graphics/SVG/1.1/DTD/svg11.dtd">
<svg version="1.1" xmlns="http://www.w3.org/2000/svg" xmlns:xlink="http://www.w3.org/1999/xlink" x="0px" y="0px"
	 width="708.661px" height="425.197px" viewBox="0 0 708.661 425.197" enable-background="new 0 0 708.661 425.197"
	 xml:space="preserve">
<g id="Layer_1">
	
		<rect x="31.803" y="20.727" fill="none" stroke="#000000" stroke-width="2" stroke-miterlimit="10" width="615.333" height="358.667"/>
	<rect x="31.803" y="20.727" fill="none" stroke="#000000" stroke-width="2" stroke-miterlimit="10" width="65.333" height="52"/>
	<rect x="31.803" y="72.727" fill="none" stroke="#000000" stroke-width="2" stroke-miterlimit="10" width="50.667" height="46"/>
	
		<rect x="31.803" y="118.727" fill="none" stroke="#000000" stroke-width="2" stroke-miterlimit="10" width="50.667" height="28.667"/>
	
		<rect x="31.803" y="147.394" fill="none" stroke="#000000" stroke-width="2" stroke-miterlimit="10" width="50.667" height="34.667"/>
	
		<rect x="31.803" y="182.061" fill="none" stroke="#000000" stroke-width="2" stroke-miterlimit="10" width="50.667" height="30.538"/>
	
		<rect x="31.803" y="212.599" fill="none" stroke="#000000" stroke-width="2" stroke-miterlimit="10" width="50.667" height="33.462"/>
	<rect x="31.803" y="246.061" fill="none" stroke="#000000" stroke-width="2" stroke-miterlimit="10" width="50.667" height="32"/>
	<rect x="31.803" y="278.061" fill="none" stroke="#000000" stroke-width="2" stroke-miterlimit="10" width="50.667" height="38"/>
	
		<rect x="31.803" y="316.061" fill="none" stroke="#000000" stroke-width="2" stroke-miterlimit="10" width="50.667" height="63.333"/>
	<rect x="82.469" y="332.061" fill="none" stroke="#000000" stroke-width="2" stroke-miterlimit="10" width="40" height="47.333"/>
	
		<rect x="122.469" y="332.061" fill="none" stroke="#000000" stroke-width="2" stroke-miterlimit="10" width="32.667" height="47.333"/>
	
		<rect x="155.136" y="332.061" fill="none" stroke="#000000" stroke-width="2" stroke-miterlimit="10" width="33.333" height="47.333"/>
	<rect x="188.469" y="332.061" fill="none" stroke="#000000" stroke-width="2" stroke-miterlimit="10" width="98" height="47.333"/>
	
		<rect x="286.469" y="332.061" fill="none" stroke="#000000" stroke-width="2" stroke-miterlimit="10" width="30.667" height="47.333"/>
	
		<rect x="317.136" y="332.061" fill="none" stroke="#000000" stroke-width="2" stroke-miterlimit="10" width="64.667" height="47.333"/>
	
		<rect x="381.803" y="332.061" fill="none" stroke="#000000" stroke-width="2" stroke-miterlimit="10" width="32.667" height="47.333"/>
	
		<rect x="414.469" y="332.061" fill="none" stroke="#000000" stroke-width="2" stroke-miterlimit="10" width="32.667" height="47.333"/>
	
		<rect x="447.136" y="332.061" fill="none" stroke="#000000" stroke-width="2" stroke-miterlimit="10" width="32.667" height="47.333"/>
	
		<rect x="479.803" y="332.061" fill="none" stroke="#000000" stroke-width="2" stroke-miterlimit="10" width="64.667" height="47.333"/>
	
		<rect x="544.469" y="332.061" fill="none" stroke="#000000" stroke-width="2" stroke-miterlimit="10" width="39.333" height="47.333"/>
	
		<rect x="583.803" y="332.061" fill="none" stroke="#000000" stroke-width="2" stroke-miterlimit="10" width="63.333" height="47.333"/>
	
		<rect x="598.469" y="281.394" fill="none" stroke="#000000" stroke-width="2" stroke-miterlimit="10" width="48.667" height="50.667"/>
	
		<rect x="598.469" y="248.727" fill="none" stroke="#000000" stroke-width="2" stroke-miterlimit="10" width="48.667" height="32.667"/>
	
		<rect x="598.469" y="212.599" fill="none" stroke="#000000" stroke-width="2" stroke-miterlimit="10" width="48.667" height="36.128"/>
	
		<rect x="598.469" y="182.061" fill="none" stroke="#000000" stroke-width="2" stroke-miterlimit="10" width="48.667" height="30.538"/>
	<rect x="598.469" y="150.061" fill="none" stroke="#000000" stroke-width="2" stroke-miterlimit="10" width="48.667" height="32"/>
	
		<rect x="598.469" y="118.728" fill="none" stroke="#000000" stroke-width="2" stroke-miterlimit="10" width="48.667" height="31.333"/>
	
		<rect x="598.469" y="87.394" fill="none" stroke="#000000" stroke-width="2" stroke-miterlimit="10" width="48.667" height="31.333"/>
	
		<rect x="598.469" y="20.727" fill="none" stroke="#000000" stroke-width="2" stroke-miterlimit="10" width="48.667" height="66.667"/>
	<rect x="564.136" y="20.727" fill="none" stroke="#000000" stroke-width="2" stroke-miterlimit="10" width="34.333" height="52"/>
	<rect x="491.803" y="20.727" fill="none" stroke="#000000" stroke-width="2" stroke-miterlimit="10" width="72.333" height="52"/>
	<rect x="459.136" y="20.727" fill="none" stroke="#000000" stroke-width="2" stroke-miterlimit="10" width="32.667" height="52"/>
	<rect x="427.803" y="20.727" fill="none" stroke="#000000" stroke-width="2" stroke-miterlimit="10" width="31.333" height="52"/>
	<rect x="395.136" y="20.727" fill="none" stroke="#000000" stroke-width="2" stroke-miterlimit="10" width="32.667" height="52"/>
	<rect x="363.136" y="20.727" fill="none" stroke="#000000" stroke-width="2" stroke-miterlimit="10" width="32" height="52"/>
	<rect x="330.469" y="20.727" fill="none" stroke="#000000" stroke-width="2" stroke-miterlimit="10" width="32.667" height="52"/>
	<rect x="298.469" y="20.727" fill="none" stroke="#000000" stroke-width="2" stroke-miterlimit="10" width="32" height="52"/>
	<rect x="265.802" y="20.727" fill="none" stroke="#000000" stroke-width="2" stroke-miterlimit="10" width="32.667" height="52"/>
	<rect x="233.136" y="20.727" fill="none" stroke="#000000" stroke-width="2" stroke-miterlimit="10" width="32.667" height="52"/>
	<rect x="200.469" y="20.727" fill="none" stroke="#000000" stroke-width="2" stroke-miterlimit="10" width="32.667" height="52"/>
	<rect x="135.802" y="20.727" fill="none" stroke="#000000" stroke-width="2" stroke-miterlimit="10" width="64.667" height="52"/>
	<rect x="97.136" y="20.727" fill="none" stroke="#000000" stroke-width="2" stroke-miterlimit="10" width="38.667" height="52"/>
	<rect x="102.469" y="91.394" fill="none" stroke="#000000" stroke-width="2" stroke-miterlimit="10" width="50" height="32"/>
	<rect x="102.469" y="123.394" fill="none" stroke="#000000" stroke-width="2" stroke-miterlimit="10" width="50" height="41.333"/>
	<rect x="102.469" y="164.727" fill="none" stroke="#000000" stroke-width="2" stroke-miterlimit="10" width="50" height="32.603"/>
	<rect x="102.469" y="197.33" fill="none" stroke="#000000" stroke-width="2" stroke-miterlimit="10" width="50" height="32"/>
	<rect x="102.469" y="229.329" fill="none" stroke="#000000" stroke-width="2" stroke-miterlimit="10" width="50" height="82.064"/>
	
		<rect x="152.469" y="288.061" fill="none" stroke="#000000" stroke-width="2" stroke-miterlimit="10" width="23.333" height="23.333"/>
	<rect x="152.469" y="234.061" fill="none" stroke="#000000" stroke-width="2" stroke-miterlimit="10" width="23.333" height="54"/>
	<rect x="152.469" y="172.061" fill="none" stroke="#000000" stroke-width="2" stroke-miterlimit="10" width="28" height="62"/>
	<rect x="152.469" y="172.061" fill="none" stroke="#000000" stroke-width="2" stroke-miterlimit="10" width="50.667" height="62"/>
	<rect x="168.136" y="91.394" fill="none" stroke="#000000" stroke-width="2" stroke-miterlimit="10" width="48.667" height="32"/>
	<rect x="168.136" y="123.394" fill="none" stroke="#000000" stroke-width="2" stroke-miterlimit="10" width="32.333" height="30"/>
	<rect x="200.469" y="123.394" fill="none" stroke="#000000" stroke-width="2" stroke-miterlimit="10" width="32.667" height="30"/>
	<rect x="269.136" y="91.394" fill="none" stroke="#000000" stroke-width="2" stroke-miterlimit="10" width="22.667" height="32"/>
	<rect x="269.136" y="123.394" fill="none" stroke="#000000" stroke-width="2" stroke-miterlimit="10" width="22.667" height="30"/>
	<rect x="291.803" y="123.394" fill="none" stroke="#000000" stroke-width="2" stroke-miterlimit="10" width="22.667" height="30"/>
	<rect x="291.803" y="91.394" fill="none" stroke="#000000" stroke-width="2" stroke-miterlimit="10" width="22.667" height="32"/>
	<rect x="330.469" y="91.394" fill="none" stroke="#000000" stroke-width="2" stroke-miterlimit="10" width="23.862" height="32"/>
	<rect x="354.331" y="91.394" fill="none" stroke="#000000" stroke-width="2" stroke-miterlimit="10" width="21.472" height="32"/>
	<rect x="354.331" y="123.394" fill="none" stroke="#000000" stroke-width="2" stroke-miterlimit="10" width="21.472" height="30"/>
	<rect x="330.469" y="123.394" fill="none" stroke="#000000" stroke-width="2" stroke-miterlimit="10" width="23.862" height="30"/>
	<rect x="392.469" y="91.394" fill="none" stroke="#000000" stroke-width="2" stroke-miterlimit="10" width="22" height="32"/>
	<rect x="414.469" y="123.394" fill="none" stroke="#000000" stroke-width="2" stroke-miterlimit="10" width="22.667" height="30"/>
	<rect x="414.469" y="91.394" fill="none" stroke="#000000" stroke-width="2" stroke-miterlimit="10" width="22.667" height="32"/>
	<rect x="392.469" y="123.394" fill="none" stroke="#000000" stroke-width="2" stroke-miterlimit="10" width="22" height="30"/>
	<rect x="455.136" y="91.394" fill="none" stroke="#000000" stroke-width="2" stroke-miterlimit="10" width="20.333" height="32"/>
	<rect x="475.469" y="91.394" fill="none" stroke="#000000" stroke-width="2" stroke-miterlimit="10" width="23.667" height="32"/>
	<rect x="475.469" y="123.394" fill="none" stroke="#000000" stroke-width="2" stroke-miterlimit="10" width="23.667" height="30"/>
	<rect x="455.136" y="123.394" fill="none" stroke="#000000" stroke-width="2" stroke-miterlimit="10" width="20.333" height="30"/>
	<rect x="516.469" y="123.394" fill="none" stroke="#000000" stroke-width="2" stroke-miterlimit="10" width="30" height="30"/>
	<rect x="546.469" y="123.394" fill="none" stroke="#000000" stroke-width="2" stroke-miterlimit="10" width="34.833" height="30"/>
	<rect x="531.469" y="91.394" fill="none" stroke="#000000" stroke-width="2" stroke-miterlimit="10" width="49.833" height="32"/>
	<rect x="249.47" y="172.061" fill="none" stroke="#000000" stroke-width="2" stroke-miterlimit="10" width="84.333" height="62"/>
	<rect x="333.803" y="172.061" fill="none" stroke="#000000" stroke-width="2" stroke-miterlimit="10" width="80.667" height="31"/>
	<rect x="333.803" y="203.061" fill="none" stroke="#000000" stroke-width="2" stroke-miterlimit="10" width="80.667" height="31"/>
	
		<rect x="389.803" y="234.061" fill="none" stroke="#000000" stroke-width="2" stroke-miterlimit="10" width="27.333" height="77.333"/>
	
		<rect x="276.47" y="234.061" fill="none" stroke="#000000" stroke-width="2" stroke-miterlimit="10" width="113.333" height="77.333"/>
	<rect x="437.136" y="172.061" fill="none" stroke="#000000" stroke-width="2" stroke-miterlimit="10" width="54.667" height="62"/>
	<rect x="491.803" y="172.061" fill="none" stroke="#000000" stroke-width="2" stroke-miterlimit="10" width="24.667" height="62"/>
	<rect x="535.136" y="172.061" fill="none" stroke="#000000" stroke-width="2" stroke-miterlimit="10" width="24" height="31"/>
	<rect x="559.136" y="172.061" fill="none" stroke="#000000" stroke-width="2" stroke-miterlimit="10" width="19.333" height="31"/>
	<rect x="559.136" y="203.061" fill="none" stroke="#000000" stroke-width="2" stroke-miterlimit="10" width="19.333" height="31"/>
	<rect x="535.136" y="203.061" fill="none" stroke="#000000" stroke-width="2" stroke-miterlimit="10" width="24" height="31"/>
	
		<rect x="547.136" y="265.061" fill="none" stroke="#000000" stroke-width="2" stroke-miterlimit="10" width="31.333" height="46.333"/>
	
		<rect x="516.469" y="265.061" fill="none" stroke="#000000" stroke-width="2" stroke-miterlimit="10" width="30.667" height="46.333"/>
	<rect x="437.136" y="252.061" fill="none" stroke="#000000" stroke-width="2" stroke-miterlimit="10" width="31" height="31"/>
	<rect x="468.136" y="252.061" fill="none" stroke="#000000" stroke-width="2" stroke-miterlimit="10" width="31" height="31"/>
	<rect x="468.136" y="283.061" fill="none" stroke="#000000" stroke-width="2" stroke-miterlimit="10" width="31" height="28.333"/>
	<rect x="437.136" y="283.061" fill="none" stroke="#000000" stroke-width="2" stroke-miterlimit="10" width="31" height="28.333"/>
</g>
<g id="canvas_layer">
	<rect id="canvas" x="31.803" y="20.727" opacity="0" fill="#FFFFFF" width="615.333" height="358.667"/>
</g>
</svg>
