<svg id="Layer_1" data-name="Layer 1" xmlns="http://www.w3.org/2000/svg" viewBox="0 0 616 360"><defs><style>.cls-1{fill:#fff;}.cls-1,.cls-2{stroke:#1d1d1b;stroke-miterlimit:10;stroke-width:2px;}.cls-2,.cls-3{fill:none;}</style></defs><title>VAST_EnergyZones_F2</title><rect class="cls-1" x="1" y="1" width="95.33" height="50.67"/><rect class="cls-1" x="96.33" y="1" width="340" height="50.67"/><rect class="cls-1" x="237.67" y="68.33" width="169.33" height="65.33"/><rect class="cls-1" x="1" y="51.67" width="50.67" height="232.67"/><rect class="cls-1" x="1" y="284.33" width="47.67" height="74.67"/><rect class="cls-1" x="48.67" y="309" width="397" height="50"/><rect class="cls-1" x="219.67" y="150.33" width="82" height="62.67"/><rect class="cls-1" x="69" y="72.33" width="51.33" height="136.67"/><rect class="cls-1" x="69" y="209" width="78" height="84"/><polygon class="cls-2" points="120.33 72.33 120.33 140.67 436.33 140.67 436.33 51.67 51.67 51.67 51.67 140.67 69 140.67 69 72.33 120.33 72.33"/><polygon class="cls-2" points="385.67 150.33 219.67 150.33 219.67 213 171 213 171 150.33 120.33 150.33 120.33 140.67 436.33 140.67 436.33 213 385.67 213 385.67 150.33"/><polygon class="cls-2" points="147 293 147 213 244 213 244 293 385.67 293 385.67 213 436.33 213 436.33 309 51.67 309 51.67 213 69 213 69 293 147 293"/><rect class="cls-3" x="244" y="213" width="141.67" height="80"/><polygon class="cls-2" points="445.67 309 445.67 359 615 359 615 1 436.33 1 436.33 309 445.67 309"/></svg>