<svg id="Layer_1" data-name="Layer 1" xmlns="http://www.w3.org/2000/svg" viewBox="0 0 615.33 359.33"><defs><style>.cls-1{fill:#fff;}.cls-1,.cls-2{stroke:#1d1d1b;stroke-miterlimit:10;stroke-width:2px;}.cls-2{fill:none;}</style></defs><title>VAST_EnergyZones_F1</title><rect class="cls-1" x="1" y="1" width="152" height="126.67"/><rect class="cls-1" x="196.33" y="1" width="241.33" height="116.67"/><rect class="cls-1" x="487" y="1" width="127.33" height="306"/><rect class="cls-1" x="487" y="307" width="127.33" height="51.33"/><polygon class="cls-2" points="50.33 307 153 307 153 358.33 1 358.33 1 127.67 50.33 127.67 50.33 307"/><rect class="cls-2" x="219" y="149.67" width="165.33" height="65.33"/><rect class="cls-2" x="243.67" y="215" width="140.67" height="77.33"/><polygon class="cls-2" points="437.67 117.67 437.67 1 487 1 487 215 384.33 215 384.33 149.67 219 149.67 219 215 50.33 215 50.33 127.67 153 127.67 153 1 196.33 1 196.33 117.67 437.67 117.67"/><polygon class="cls-2" points="243.67 215 243.67 292.33 384.33 292.33 384.33 215 487 215 487 358.33 153 358.33 153 307 50.33 307 50.33 215 243.67 215"/></svg>