<?xml version="1.0" encoding="utf-8"?>
<!-- Generator: Adobe Illustrator 16.0.0, SVG Export Plug-In . SVG Version: 6.00 Build 0)  -->
<!DOCTYPE svg PUBLIC "-//W3C//DTD SVG 1.1//EN" "http://www.w3.org/Graphics/SVG/1.1/DTD/svg11.dtd">
<svg version="1.1" xmlns="http://www.w3.org/2000/svg" xmlns:xlink="http://www.w3.org/1999/xlink" x="0px" y="0px"
	 width="850.39px" height="1275.59px" viewBox="0 0 850.39 1275.59" enable-background="new 0 0 850.39 1275.59"
	 xml:space="preserve">
<g id="Layer_1">
</g>
<g id="F1_Z7">
	<polygon fill="none" stroke="#000000" stroke-width="2" stroke-miterlimit="10" points="166.667,764.333 269.333,764.333 
		269.333,815.666 117.333,815.666 117.333,585 166.667,585 	"/>
</g>
<g id="F1_Z8B">
	<polygon fill="none" stroke="#000000" stroke-width="2" stroke-miterlimit="10" points="360,672.333 360,749.666 500.667,749.666 
		500.667,672.333 603.333,672.333 603.333,815.666 269.333,815.666 269.333,764.333 166.667,764.333 166.667,672.333 	"/>
</g>
<g id="F1_Z8A">
	<polygon fill="none" stroke="#000000" stroke-width="2" stroke-miterlimit="10" points="554,575 554,458.333 603.333,458.333 
		603.333,672.333 500.667,672.333 500.667,607 335.333,607 335.333,672.333 166.667,672.333 166.667,585 269.333,585 
		269.333,458.333 312.667,458.333 312.667,575 	"/>
</g>
<g id="F1_Z5">
	
		<rect x="360" y="672.333" fill="none" stroke="#000000" stroke-width="2" stroke-miterlimit="10" width="140.667" height="77.333"/>
</g>
<g id="F1_Z6">
	
		<rect x="335.334" y="607" fill="none" stroke="#000000" stroke-width="2" stroke-miterlimit="10" width="165.333" height="65.333"/>
</g>
<g id="F1_Z4">
	
		<rect x="603.333" y="764.333" fill="none" stroke="#000000" stroke-width="2" stroke-miterlimit="10" width="127.333" height="51.333"/>
</g>
<g id="F1_Z3">
	
		<rect x="603.334" y="458.333" fill="none" stroke="#000000" stroke-width="2" stroke-miterlimit="10" width="127.333" height="306"/>
</g>
<g id="F1_Z2">
	
		<rect x="312.667" y="458.333" fill="none" stroke="#000000" stroke-width="2" stroke-miterlimit="10" width="241.333" height="116.667"/>
</g>
<g id="F1_Z1">
	
		<rect x="117.333" y="458.333" fill="none" stroke="#000000" stroke-width="2" stroke-miterlimit="10" width="152" height="126.667"/>
</g>
</svg>
