<?xml version="1.0" encoding="utf-8"?>
<!-- Generator: Adobe Illustrator 16.0.0, SVG Export Plug-In . SVG Version: 6.00 Build 0)  -->
<!DOCTYPE svg PUBLIC "-//W3C//DTD SVG 1.1//EN" "http://www.w3.org/Graphics/SVG/1.1/DTD/svg11.dtd">
<svg version="1.1" xmlns="http://www.w3.org/2000/svg" xmlns:xlink="http://www.w3.org/1999/xlink" x="0px" y="0px"
	 width="850.39px" height="1275.59px" viewBox="0 0 850.39 1275.59" enable-background="new 0 0 850.39 1275.59"
	 xml:space="preserve">
<g id="Layer_1">
</g>
<g id="F2_Z11">
	<rect x="602" y="491.667" fill="none" stroke="#000000" stroke-width="2" stroke-miterlimit="10" width="64" height="64"/>
</g>
<g id="F2_Z1">
	<rect x="118" y="422.333" fill="none" stroke="#000000" stroke-width="2" stroke-miterlimit="10" width="64" height="50.667"/>
</g>
<g id="F2_Z2">
	<rect x="182" y="422.333" fill="none" stroke="#000000" stroke-width="2" stroke-miterlimit="10" width="500" height="50.667"/>
</g>
<g id="F2_Z3">
	<rect x="682" y="422.333" fill="none" stroke="#000000" stroke-width="2" stroke-miterlimit="10" width="49.333" height="62.667"/>
</g>
<g id="F2_Z4">
	<rect x="682" y="485" fill="none" stroke="#000000" stroke-width="2" stroke-miterlimit="10" width="49.333" height="245.333"/>
</g>
<g id="F2_Z8">
	<rect x="118" y="473" fill="none" stroke="#000000" stroke-width="2" stroke-miterlimit="10" width="50.667" height="242.667"/>
</g>
<g id="F2_Z7">
	<rect x="118" y="715.667" fill="none" stroke="#000000" stroke-width="2" stroke-miterlimit="10" width="50.667" height="65.333"/>
</g>
<g id="F2_Z14">
	
		<rect x="362.667" y="637.795" fill="none" stroke="#000000" stroke-width="2" stroke-miterlimit="10" width="139.333" height="74.538"/>
</g>
<g id="F2_Z13">
	
		<rect x="336.666" y="571.667" fill="none" stroke="#000000" stroke-width="2" stroke-miterlimit="10" width="80.667" height="63.333"/>
</g>
<g id="F2_Z15">
	
		<rect x="620.667" y="571.667" fill="none" stroke="#000000" stroke-width="2" stroke-miterlimit="10" width="45.333" height="61.333"/>
</g>
<g id="F2_Z5">
	<rect x="666" y="730.333" fill="none" stroke="#000000" stroke-width="2" stroke-miterlimit="10" width="65.333" height="50.667"/>
</g>
<g id="F2_Z6">
	
		<rect x="168.667" y="730.333" fill="none" stroke="#000000" stroke-width="2" stroke-miterlimit="10" width="497.333" height="50.667"/>
</g>
<g id="F2_Z16">
	<rect x="520" y="649.666" fill="none" stroke="#000000" stroke-width="2" stroke-miterlimit="10" width="146" height="62.667"/>
</g>
<g id="F2_Z9">
	<polygon fill="none" stroke="#000000" stroke-width="2" stroke-miterlimit="10" points="260.667,712.333 260.667,633 236.667,633 
		236.667,553 318,553 318,526.333 302,526.333 302,491.666 186.667,491.666 186.667,712.333 	"/>
</g>
<g id="F2_Z10">
	<rect x="352.667" y="491.667" fill="none" stroke="#000000" stroke-width="2" stroke-miterlimit="10" width="230" height="64"/>
</g>
<g id="F2_Z12C">
	<polygon fill="none" stroke="#000000" stroke-width="2" stroke-miterlimit="10" points="186.667,635.699 186.667,712.334 
		260.667,712.334 260.667,636.397 362.667,635 362.667,712.334 502,712.334 502,637.795 682,635 682,730.334 168.667,730.334 
		168.667,636.397 	"/>
</g>
<g id="F2_Z12B">
	<polygon fill="none" stroke="#000000" stroke-width="2" stroke-miterlimit="10" points="288,571.667 287.333,633 336.667,635 
		336.667,571.667 502,571.667 502,635 520,635 520,571.667 602,571.667 602,636.243 620.667,633 620.667,571.667 666,571.667 
		666,633 682,635 682,562.333 236.667,563.667 236.667,571.667 	"/>
</g>
<g id="F2_Z12A">
	<path fill="none" stroke="#000000" stroke-width="2" stroke-miterlimit="10" d="M602,491.667L582.667,553v-61.333h-230v64h230
		l-396,8h-18V473H682v89.333l-445.333,1.334V553H318v-26.667h-16v-34.666H186.667v72 M602,555.667h64v-64h-64V555.667z"/>
</g>
</svg>
