<svg id="Layer_1" data-name="Layer 1" xmlns="http://www.w3.org/2000/svg" viewBox="0 0 616.69 360.69"><defs><style>.cls-1{fill:none;stroke:#1d1d1b;stroke-miterlimit:10;stroke-width:2px;}</style></defs><title>VAST_ProxZones_F2</title><polygon class="cls-1" points="50.36 52.34 50.36 70.34 130.36 70.34 129.69 1 1.03 1.67 2.36 52.34 50.36 52.34"/><polygon class="cls-1" points="50.36 70.34 116.69 70.34 116.69 208.34 68.36 208.34 68.36 291.67 120.36 291.67 120.36 267 143.69 267 143.69 309.67 89.69 309.67 89.69 358.34 1.03 359.67 2.36 52.34 50.36 52.34 50.36 70.34"/><rect class="cls-1" x="68.36" y="208.34" width="52" height="83.33"/><rect class="cls-1" x="120.36" y="151.67" width="50" height="56.67"/><rect class="cls-1" x="219.03" y="151.67" width="83.33" height="62.67"/><polyline class="cls-1" points="120.36 208.34 120.36 267 143.69 267 143.69 309.67 89.69 309.67 89.69 358.34 253.69 359.67 253.03 291.67 242.36 291.67 242.36 214.34 219.03 214.34 219.03 151.67 239.69 151.67 239.69 131.67 260.69 131.67 260.69 70.34 239.69 70.34 239.69 1 129.69 1 130.36 70.34 116.69 70.34 116.69 151.67 170.36 151.67 170.36 208.34 116.69 208.34"/><polygon class="cls-1" points="239.69 70.34 260.69 70.34 260.69 131.67 239.69 131.67 239.69 151.67 302.36 151.67 302.36 214.34 242.36 214.34 242.36 291.67 253.03 291.67 253.69 359.67 449.03 359.67 449.03 307.67 434.36 309 433.03 1 239.69 1 239.69 70.34"/><polygon class="cls-1" points="434.36 309 449.03 307.67 449.03 359.67 615.69 359.67 615.69 1 433.03 1 434.36 309"/></svg>