<svg id="Layer_1" data-name="Layer 1" xmlns="http://www.w3.org/2000/svg" viewBox="0 0 617.34 356.67"><defs><style>.cls-1{fill:#fff;}.cls-1,.cls-2{stroke:#1d1d1b;stroke-miterlimit:10;stroke-width:2px;}.cls-2{fill:none;}</style></defs><title>VAST_ProxZones_F3</title><rect class="cls-1" x="71.67" y="220.33" width="49.33" height="70.67"/><rect class="cls-1" x="121" y="151" width="51.33" height="62"/><rect class="cls-1" x="221" y="151" width="84.67" height="62"/><rect class="cls-1" x="461" y="151" width="24.67" height="62"/><rect class="cls-1" x="461" y="1" width="70" height="51.33"/><polygon class="cls-2" points="157 355.67 1 355.67 1.67 1 105 1 105 52.33 121 52.33 121 220.33 71.67 220.33 71.67 291 121 291 121 265 146.67 265 146.67 310.33 157 310.33 157 355.67"/><polygon class="cls-2" points="245 213 567.67 213 567.67 191.67 616.34 191.67 616.34 355.67 255.67 355.67 255.67 291 245 291 245 213"/><polygon class="cls-2" points="121 52.33 121 151 172.34 151 172.34 213 121 213 121 265 146.67 265 146.67 310.33 157 310.33 157 355.67 255.67 355.67 255.67 291 245 291 245 213 221 213 221 151 305.67 151 305.67 133 323 133 323 69.67 299 69.67 299 1 105 1 105 52.33 121 52.33"/><polygon class="cls-2" points="567.67 213 485.67 213 485.67 151 461 151 461 213 305.67 213 305.67 133 323 133 323 69.67 299 69.67 299 1 461 1 461 52.33 531 52.33 531 1 616.34 1 616.34 191.67 567.67 191.67 567.67 213"/></svg>