<svg id="Layer_1" data-name="Layer 1" xmlns="http://www.w3.org/2000/svg" viewBox="0 0 851.44 612.93"><defs><style>.cls-1,.cls-13,.cls-5,.cls-6,.cls-8{fill:#00a19a;}.cls-1,.cls-12,.cls-13,.cls-5,.cls-6,.cls-8{stroke:#00a19a;}.cls-1,.cls-10,.cls-11,.cls-12,.cls-13,.cls-14,.cls-15,.cls-2,.cls-3,.cls-4,.cls-5,.cls-6,.cls-8,.cls-9{stroke-miterlimit:10;}.cls-1{stroke-width:6px;opacity:0.2;}.cls-11,.cls-2,.cls-3,.cls-4{fill:none;}.cls-11,.cls-2,.cls-3{stroke:#e30613;}.cls-11,.cls-2,.cls-5{stroke-width:4px;}.cls-3,.cls-4{stroke-width:2px;}.cls-4{stroke:#1d1d1b;}.cls-11,.cls-4{opacity:0.5;}.cls-12,.cls-13,.cls-5,.cls-6,.cls-8{opacity:0.6;}.cls-14,.cls-6{font-size:20px;}.cls-10,.cls-12,.cls-13,.cls-14,.cls-15,.cls-6,.cls-9{font-family:Myriad Pro;}.cls-7{letter-spacing:-1px;}.cls-8{stroke-width:3px;}.cls-9{font-size:25px;}.cls-10,.cls-14,.cls-15,.cls-9{fill:#fff;stroke:#fff;}.cls-10,.cls-12,.cls-13{font-size:15px;}.cls-12{fill:#1d1d1b;}.cls-15{font-size:35px;}</style></defs><title>Design</title><rect class="cls-1" x="35.67" y="107.23" width="634.38" height="376.56" rx="12" ry="12"/><polygon class="cls-2" points="94.67 166.27 94.67 184.27 174.67 184.27 174 114.93 45.33 115.6 46.67 166.27 94.67 166.27"/><polygon class="cls-2" points="94.67 184.27 161 184.27 161 322.27 112.67 322.27 112.67 405.6 164.67 405.6 164.67 380.93 188 380.93 188 423.6 134 423.6 134 472.27 45.33 473.6 46.67 166.27 94.67 166.27 94.67 184.27"/><rect class="cls-3" x="112.67" y="322.27" width="52" height="83.33"/><rect class="cls-2" x="164.67" y="265.6" width="50" height="63.26"/><rect class="cls-3" x="263.33" y="265.6" width="83.33" height="62.67"/><polyline class="cls-2" points="166.67 322.27 166.67 380.93 190 380.93 190 423.6 136 423.6 136 472.27 300 473.6 299.33 405.6 288.67 405.6 288.67 328.27 265.33 328.27 265.33 265.6 286 265.6 286 245.6 307 245.6 307 184.27 286 184.27 286 114.93 176 114.93 176.67 184.27 163 184.27 163 265.6 216.67 265.6 216.67 322.27 163 322.27"/><polygon class="cls-2" points="284 184.27 305 184.27 305 245.6 284 245.6 284 265.6 346.67 265.6 346.67 328.27 286.67 328.27 286.67 405.6 297.33 405.6 298 473.6 493.33 473.6 493.33 421.6 478.67 422.93 477.33 114.93 284 114.93 284 184.27"/><polygon class="cls-2" points="478.67 422.93 493.33 421.6 493.33 473.6 660 473.6 660 114.93 477.33 114.93 478.67 422.93"/><rect class="cls-4" x="45.33" y="115.52" width="615.33" height="358.67"/><rect class="cls-4" x="45.33" y="115.52" width="65.33" height="52"/><rect class="cls-4" x="45.33" y="167.52" width="50.67" height="46"/><rect class="cls-4" x="45.33" y="213.52" width="50.67" height="28.67"/><rect class="cls-4" x="45.33" y="242.19" width="50.67" height="34.67"/><rect class="cls-4" x="45.33" y="276.86" width="50.67" height="30.54"/><rect class="cls-4" x="45.33" y="307.4" width="50.67" height="33.46"/><rect class="cls-4" x="45.33" y="340.86" width="50.67" height="32"/><rect class="cls-4" x="45.33" y="372.86" width="50.67" height="38"/><rect class="cls-4" x="45.33" y="410.86" width="50.67" height="63.33"/><rect class="cls-4" x="96" y="426.86" width="40" height="47.33"/><rect class="cls-4" x="136" y="426.86" width="32.67" height="47.33"/><rect class="cls-4" x="168.67" y="426.86" width="33.33" height="47.33"/><rect class="cls-4" x="202" y="426.86" width="98" height="47.33"/><rect class="cls-4" x="300" y="426.86" width="30.67" height="47.33"/><rect class="cls-4" x="330.67" y="426.86" width="64.67" height="47.33"/><rect class="cls-4" x="395.33" y="426.86" width="32.67" height="47.33"/><rect class="cls-4" x="428" y="426.86" width="32.67" height="47.33"/><rect class="cls-4" x="460.67" y="426.86" width="32.67" height="47.33"/><rect class="cls-4" x="493.33" y="426.86" width="64.67" height="47.33"/><rect class="cls-4" x="558" y="426.86" width="39.33" height="47.33"/><rect class="cls-4" x="597.33" y="426.86" width="63.33" height="47.33"/><rect class="cls-4" x="612" y="376.19" width="48.67" height="50.67"/><rect class="cls-4" x="612" y="343.52" width="48.67" height="32.67"/><rect class="cls-4" x="612" y="307.4" width="48.67" height="36.13"/><rect class="cls-4" x="612" y="276.86" width="48.67" height="30.54"/><rect class="cls-4" x="612" y="244.86" width="48.67" height="32"/><rect class="cls-4" x="612" y="213.52" width="48.67" height="31.33"/><rect class="cls-4" x="612" y="182.19" width="48.67" height="31.33"/><rect class="cls-4" x="612" y="115.52" width="48.67" height="66.67"/><rect class="cls-4" x="577.67" y="115.52" width="34.33" height="52"/><rect class="cls-4" x="505.33" y="115.52" width="72.33" height="52"/><rect class="cls-4" x="472.67" y="115.52" width="32.67" height="52"/><rect class="cls-4" x="441.33" y="115.52" width="31.33" height="52"/><rect class="cls-4" x="408.67" y="115.52" width="32.67" height="52"/><rect class="cls-4" x="376.67" y="115.52" width="32" height="52"/><rect class="cls-4" x="344" y="115.52" width="32.67" height="52"/><rect class="cls-4" x="312" y="115.52" width="32" height="52"/><rect class="cls-4" x="279.33" y="115.52" width="32.67" height="52"/><rect class="cls-4" x="246.67" y="115.52" width="32.67" height="52"/><rect class="cls-4" x="214" y="115.52" width="32.67" height="52"/><rect class="cls-4" x="149.33" y="115.52" width="64.67" height="52"/><rect class="cls-4" x="110.67" y="115.52" width="38.67" height="52"/><rect class="cls-4" x="116" y="186.19" width="50" height="32"/><rect class="cls-4" x="116" y="218.19" width="50" height="41.33"/><rect class="cls-4" x="116" y="259.52" width="50" height="32.6"/><rect class="cls-4" x="116" y="292.13" width="50" height="32"/><rect class="cls-4" x="116" y="324.13" width="50" height="82.06"/><rect class="cls-4" x="166" y="382.86" width="23.33" height="23.33"/><rect class="cls-4" x="166" y="328.86" width="23.33" height="54"/><rect class="cls-4" x="166" y="266.86" width="28" height="62"/><rect class="cls-4" x="166" y="266.86" width="50.67" height="62"/><rect class="cls-4" x="181.67" y="186.19" width="48.67" height="32"/><rect class="cls-4" x="181.67" y="218.19" width="32.33" height="30"/><rect class="cls-4" x="214" y="218.19" width="32.67" height="30"/><rect class="cls-4" x="282.67" y="186.19" width="22.67" height="32"/><rect class="cls-4" x="282.67" y="218.19" width="22.67" height="30"/><rect class="cls-4" x="305.33" y="218.19" width="22.67" height="30"/><rect class="cls-4" x="305.33" y="186.19" width="22.67" height="32"/><rect class="cls-4" x="344" y="186.19" width="23.86" height="32"/><rect class="cls-4" x="367.86" y="186.19" width="21.47" height="32"/><rect class="cls-4" x="367.86" y="218.19" width="21.47" height="30"/><rect class="cls-4" x="344" y="218.19" width="23.86" height="30"/><rect class="cls-4" x="406" y="186.19" width="22" height="32"/><rect class="cls-4" x="428" y="218.19" width="22.67" height="30"/><rect class="cls-4" x="428" y="186.19" width="22.67" height="32"/><rect class="cls-4" x="406" y="218.19" width="22" height="30"/><rect class="cls-4" x="468.67" y="186.19" width="20.33" height="32"/><rect class="cls-4" x="489" y="186.19" width="23.67" height="32"/><rect class="cls-4" x="489" y="218.19" width="23.67" height="30"/><rect class="cls-4" x="468.67" y="218.19" width="20.33" height="30"/><rect class="cls-4" x="530" y="218.19" width="30" height="30"/><rect class="cls-4" x="560" y="218.19" width="34.83" height="30"/><rect class="cls-4" x="545" y="186.19" width="49.83" height="32"/><rect class="cls-4" x="263" y="266.86" width="84.33" height="62"/><rect class="cls-4" x="347.33" y="266.86" width="80.67" height="31"/><rect class="cls-4" x="347.33" y="297.86" width="80.67" height="31"/><rect class="cls-4" x="403.33" y="328.86" width="27.33" height="77.33"/><rect class="cls-4" x="290" y="328.86" width="113.33" height="77.33"/><rect class="cls-4" x="450.67" y="266.86" width="54.67" height="62"/><rect class="cls-4" x="505.33" y="266.86" width="24.67" height="62"/><rect class="cls-4" x="548.67" y="266.86" width="24" height="31"/><rect class="cls-4" x="572.67" y="266.86" width="19.33" height="31"/><rect class="cls-4" x="572.67" y="297.86" width="19.33" height="31"/><rect class="cls-4" x="548.67" y="297.86" width="24" height="31"/><rect class="cls-4" x="560.67" y="359.86" width="31.33" height="46.33"/><rect class="cls-4" x="530" y="359.86" width="30.67" height="46.33"/><rect class="cls-4" x="450.67" y="346.86" width="31" height="31"/><rect class="cls-4" x="481.67" y="346.86" width="31" height="31"/><rect class="cls-4" x="481.67" y="377.86" width="31" height="28.33"/><rect class="cls-4" x="450.67" y="377.86" width="31" height="28.33"/><line class="cls-5" x1="702.43" y1="67.1" x2="841.15" y2="67.1"/><line class="cls-5" x1="771.79" y1="67.1" x2="771.79" y2="1.5"/><rect class="cls-5" x="701.08" y="104.89" width="138.72" height="77.3" rx="12" ry="12"/><text class="cls-6" transform="translate(717.36 26.41)">P<tspan x="10.32" y="0">r</tspan><tspan x="16.66" y="0">o</tspan><tspan x="27.36" y="0">x</tspan><tspan x="-7.11" y="24">Z</tspan><tspan x="3.71" y="24">ones</tspan></text><text class="cls-6" transform="translate(787.64 26.41)">H<tspan class="cls-7" x="13.04" y="0">V</tspan><tspan x="23.06" y="0">A</tspan><tspan x="35" y="0">C</tspan><tspan x="-2.12" y="24">Z</tspan><tspan x="8.7" y="24">ones</tspan></text><rect class="cls-8" x="251.14" y="1.5" width="87.71" height="65.6" rx="12" ry="12"/><rect class="cls-8" x="577.51" y="1.5" width="87.71" height="65.6" rx="12" ry="12"/><rect class="cls-8" x="357.64" y="1.5" width="87.71" height="65.6" rx="12" ry="12"/><rect class="cls-8" x="467.57" y="1.5" width="87.71" height="65.6" rx="12" ry="12"/><text class="cls-9" transform="translate(598.73 42.15)">C<tspan x="13.97" y="0">O</tspan></text><text class="cls-10" transform="translate(630.49 29.2)">2</text><line class="cls-8" x1="35.67" y1="513.6" x2="35.67" y2="550.93"/><line class="cls-8" x1="68.95" y1="513.6" x2="68.95" y2="550.93"/><line class="cls-8" x1="68.95" y1="513.6" x2="68.95" y2="550.93"/><line class="cls-8" x1="102.23" y1="513.6" x2="102.23" y2="550.93"/><line class="cls-8" x1="102.23" y1="513.6" x2="102.23" y2="550.93"/><line class="cls-8" x1="135.51" y1="513.6" x2="135.51" y2="550.93"/><line class="cls-8" x1="135.51" y1="513.6" x2="135.51" y2="550.93"/><line class="cls-8" x1="168.79" y1="513.6" x2="168.79" y2="550.93"/><line class="cls-8" x1="168.19" y1="513.6" x2="168.19" y2="550.93"/><line class="cls-8" x1="201.47" y1="513.6" x2="201.47" y2="550.93"/><line class="cls-8" x1="201.47" y1="513.6" x2="201.47" y2="550.93"/><line class="cls-8" x1="234.75" y1="513.6" x2="234.75" y2="550.93"/><line class="cls-8" x1="234.75" y1="513.6" x2="234.75" y2="550.93"/><line class="cls-8" x1="268.03" y1="513.6" x2="268.03" y2="550.93"/><line class="cls-8" x1="268.03" y1="513.6" x2="268.03" y2="550.93"/><line class="cls-8" x1="301.3" y1="513.6" x2="301.3" y2="550.93"/><line class="cls-8" x1="301.3" y1="513.6" x2="301.3" y2="550.93"/><line class="cls-8" x1="334.58" y1="513.6" x2="334.58" y2="550.93"/><line class="cls-8" x1="334.58" y1="513.6" x2="334.58" y2="550.93"/><line class="cls-8" x1="367.86" y1="513.6" x2="367.86" y2="550.93"/><line class="cls-8" x1="367.86" y1="513.6" x2="367.86" y2="550.93"/><line class="cls-8" x1="401.14" y1="513.6" x2="401.14" y2="550.93"/><line class="cls-8" x1="401.14" y1="513.6" x2="401.14" y2="550.93"/><line class="cls-8" x1="434.42" y1="513.6" x2="434.42" y2="550.93"/><line class="cls-8" x1="434.42" y1="513.6" x2="434.42" y2="550.93"/><line class="cls-8" x1="434.42" y1="513.6" x2="434.42" y2="550.93"/><line class="cls-8" x1="467.7" y1="513.6" x2="467.7" y2="550.93"/><line class="cls-8" x1="467.7" y1="513.6" x2="467.7" y2="550.93"/><line class="cls-8" x1="500.98" y1="513.6" x2="500.98" y2="550.93"/><line class="cls-8" x1="500.98" y1="513.6" x2="500.98" y2="550.93"/><line class="cls-8" x1="534.26" y1="513.6" x2="534.26" y2="550.93"/><line class="cls-8" x1="534.26" y1="513.6" x2="534.26" y2="550.93"/><line class="cls-8" x1="567.54" y1="513.6" x2="567.54" y2="550.93"/><line class="cls-8" x1="567.54" y1="513.6" x2="567.54" y2="550.93"/><line class="cls-8" x1="600.82" y1="513.6" x2="600.82" y2="550.93"/><line class="cls-8" x1="600.82" y1="513.6" x2="600.82" y2="550.93"/><line class="cls-8" x1="634.1" y1="513.6" x2="634.1" y2="550.93"/><line class="cls-8" x1="634.1" y1="513.6" x2="634.1" y2="550.93"/><line class="cls-8" x1="667.38" y1="513.6" x2="667.38" y2="550.93"/><path class="cls-11" d="M467,941.31a13.27,13.27,0,0,1-26.53,0c0-7.19,13.27-36.31,13.27-36.31S467,934.12,467,941.31Z" transform="translate(-284.93 -343.4)"/><text class="cls-12" transform="translate(164.34 599.5)">5</text><text class="cls-13" transform="translate(1.58 526.67)">D<tspan x="9.99" y="0">a</tspan><tspan x="17.1" y="0">y</tspan><tspan x="8.23" y="18">1</tspan></text><text class="cls-13" transform="translate(675.33 526.67)">D<tspan x="9.99" y="0">a</tspan><tspan x="17.1" y="0">y</tspan><tspan x="4.39" y="18">20</tspan></text><rect class="cls-8" x="142.17" y="1.5" width="87.71" height="65.6" rx="12" ry="12"/><rect class="cls-8" x="35.67" y="1.5" width="87.71" height="65.6" rx="12" ry="12"/><rect class="cls-5" x="702.95" y="214.83" width="138.72" height="77.3" rx="12" ry="12"/><rect class="cls-5" x="702.01" y="323.71" width="138.72" height="77.3" rx="12" ry="12"/><text class="cls-14" transform="translate(478.52 38.39)">Hazium</text><text class="cls-14" transform="translate(368.99 29.29)">C<tspan x="11.38" y="0">ooling</tspan><tspan x="11.26" y="24">S</tspan><tspan x="21.06" y="24">t</tspan><tspan x="27.68" y="24">a</tspan><tspan x="37.24" y="24">t</tspan><tspan x="43.74" y="24">e</tspan></text><text class="cls-14" transform="translate(269.91 38.39)"><tspan class="cls-7">T</tspan><tspan x="8.52" y="0">emp</tspan></text><text class="cls-14" transform="translate(163.6 26.21)">T<tspan x="9.04" y="0">r</tspan><tspan x="15.48" y="0">ack</tspan><tspan x="10.92" y="24">A</tspan><tspan x="23.1" y="24">ll</tspan></text><text class="cls-14" transform="translate(57.8 26.98)">T<tspan x="9.04" y="0">r</tspan><tspan x="15.48" y="0">ack</tspan><tspan x="-6.62" y="24">P</tspan><tspan x="3.52" y="24">erson</tspan></text><text class="cls-15" transform="translate(721.81 152.95)">F<tspan x="16.45" y="0">loor 1</tspan></text><text class="cls-15" transform="translate(721.81 262.87)">F<tspan x="16.45" y="0">loor 2</tspan></text><text class="cls-15" transform="translate(721.81 369.95)">F<tspan x="16.45" y="0">loor 3</tspan></text></svg>