<?xml version="1.0" encoding="utf-8"?>
<!-- Generator: Adobe Illustrator 16.0.0, SVG Export Plug-In . SVG Version: 6.00 Build 0)  -->
<!DOCTYPE svg PUBLIC "-//W3C//DTD SVG 1.1//EN" "http://www.w3.org/Graphics/SVG/1.1/DTD/svg11.dtd">
<svg version="1.1" xmlns="http://www.w3.org/2000/svg" xmlns:xlink="http://www.w3.org/1999/xlink" x="0px" y="0px" width="1500px"
	 height="1500px" viewBox="-444 -354 1500 1500" enable-background="new -444 -354 1500 1500" xml:space="preserve">
<g id="Layer_1">
	<path opacity="0.2" fill="#00A19A" stroke="#00A19A" stroke-width="6" stroke-miterlimit="10" enable-background="new    " d="
		M497.792,685.138h-759.135c-8.207,0-14.924-4.928-14.924-10.951V352.482c0-6.021,6.717-10.946,14.924-10.946h759.135
		c8.209,0,14.924,4.926,14.924,10.946v321.704C512.716,680.21,506.001,685.138,497.792,685.138z"/>
	<polygon fill="none" stroke="#E30613" stroke-width="3" stroke-miterlimit="10" points="-202.89,396.459 -202.89,412.883 
		-103.396,412.883 -104.267,349.563 -264.203,350.202 -262.585,396.459 	"/>
	<polygon fill="none" stroke="#E30613" stroke-width="3" stroke-miterlimit="10" points="-202.89,412.883 -120.435,412.883 
		-120.435,538.791 -180.503,538.791 -180.503,614.793 -115.833,614.793 -115.833,592.258 -86.856,592.258 -86.856,631.217 
		-154.014,631.217 -154.014,675.648 -264.203,676.835 -262.585,396.459 -202.89,396.459 	"/>
	
		<rect x="-180.503" y="538.791" opacity="0.4" fill="none" stroke="#E30613" stroke-miterlimit="10" width="64.67" height="76.002"/>
	
		<rect x="-115.833" y="487.06" opacity="0.4" fill="none" stroke="#E30613" stroke-miterlimit="10" width="62.184" height="57.755"/>
	<rect x="6.917" y="487.06" opacity="0.4" fill="none" stroke="#E30613" stroke-miterlimit="10" width="103.598" height="57.204"/>
	<polyline fill="none" stroke="#E30613" stroke-width="3" stroke-miterlimit="10" points="-113.347,538.791 -113.347,592.258 
		-84.369,592.258 -84.369,631.217 -151.527,631.217 -151.527,675.648 52.436,676.835 51.688,614.793 38.381,614.793 38.381,544.264 
		9.404,544.264 9.404,487.06 35.024,487.06 35.024,468.812 61.141,468.812 61.141,412.883 35.024,412.883 35.024,349.563 
		-101.781,349.563 -100.91,412.883 -117.947,412.883 -117.947,487.06 -51.162,487.06 -51.162,538.791 -117.947,538.791 	"/>
	<polygon fill="none" stroke="#E30613" stroke-width="3" stroke-miterlimit="10" points="32.535,412.883 58.654,412.883 
		58.654,468.812 32.535,468.812 32.535,487.06 110.514,487.06 110.514,544.264 35.894,544.264 35.894,614.793 49.202,614.793 
		49.946,676.835 292.959,676.835 292.959,629.392 274.679,630.575 273.061,349.563 32.535,349.563 	"/>
	<polygon fill="none" stroke="#E30613" stroke-width="3" stroke-miterlimit="10" points="274.679,630.575 292.959,629.392 
		292.959,676.835 500.159,676.835 500.159,349.563 273.061,349.563 	"/>
	
		<rect x="-264.203" y="350.112" opacity="0.4" fill="none" stroke="#000000" stroke-miterlimit="10" enable-background="new    " width="81.212" height="47.442"/>
	
		<rect x="-264.203" y="397.555" opacity="0.4" fill="none" stroke="#000000" stroke-miterlimit="10" enable-background="new    " width="63.054" height="41.971"/>
	
		<rect x="-264.203" y="439.525" opacity="0.4" fill="none" stroke="#000000" stroke-miterlimit="10" enable-background="new    " width="63.054" height="26.184"/>
	
		<rect x="-264.203" y="465.709" opacity="0.4" fill="none" stroke="#000000" stroke-miterlimit="10" enable-background="new    " width="63.054" height="31.66"/>
	
		<rect x="-264.203" y="497.369" opacity="0.4" fill="none" stroke="#000000" stroke-miterlimit="10" enable-background="new    " width="63.054" height="27.828"/>
	
		<rect x="-264.203" y="525.197" opacity="0.4" fill="none" stroke="#000000" stroke-miterlimit="10" enable-background="new    " width="63.054" height="30.563"/>
	
		<rect x="-264.203" y="555.76" opacity="0.4" fill="none" stroke="#000000" stroke-miterlimit="10" enable-background="new    " width="63.054" height="29.197"/>
	
		<rect x="-264.203" y="584.957" opacity="0.4" fill="none" stroke="#000000" stroke-miterlimit="10" enable-background="new    " width="63.054" height="34.67"/>
	
		<rect x="-264.203" y="619.627" opacity="0.4" fill="none" stroke="#000000" stroke-miterlimit="10" enable-background="new    " width="63.054" height="57.756"/>
	
		<rect x="-201.273" y="634.226" opacity="0.4" fill="none" stroke="#000000" stroke-miterlimit="10" enable-background="new    " width="49.746" height="43.157"/>
	
		<rect x="-151.527" y="634.226" opacity="0.4" fill="none" stroke="#000000" stroke-miterlimit="10" enable-background="new    " width="40.667" height="43.157"/>
	
		<rect x="-110.86" y="634.226" opacity="0.4" fill="none" stroke="#000000" stroke-miterlimit="10" enable-background="new    " width="41.415" height="43.157"/>
	
		<rect x="-69.445" y="634.226" opacity="0.4" fill="none" stroke="#000000" stroke-miterlimit="10" enable-background="new    " width="121.881" height="43.157"/>
	
		<rect x="52.436" y="634.226" opacity="0.4" fill="none" stroke="#000000" stroke-miterlimit="10" enable-background="new    " width="38.18" height="43.157"/>
	
		<rect x="90.616" y="634.226" opacity="0.4" fill="none" stroke="#000000" stroke-miterlimit="10" enable-background="new    " width="80.465" height="43.157"/>
	
		<rect x="171.081" y="634.226" opacity="0.4" fill="none" stroke="#000000" stroke-miterlimit="10" enable-background="new    " width="40.67" height="43.157"/>
	
		<rect x="211.624" y="634.226" opacity="0.4" fill="none" stroke="#000000" stroke-miterlimit="10" enable-background="new    " width="40.67" height="43.157"/>
	
		<rect x="252.293" y="634.226" opacity="0.4" fill="none" stroke="#000000" stroke-miterlimit="10" enable-background="new    " width="40.666" height="43.157"/>
	
		<rect x="292.959" y="634.226" opacity="0.4" fill="none" stroke="#000000" stroke-miterlimit="10" enable-background="new    " width="80.461" height="43.157"/>
	
		<rect x="373.298" y="634.226" opacity="0.4" fill="none" stroke="#000000" stroke-miterlimit="10" enable-background="new    " width="48.881" height="43.157"/>
	
		<rect x="422.3" y="634.226" opacity="0.4" fill="none" stroke="#000000" stroke-miterlimit="10" enable-background="new    " width="78.727" height="43.157"/>
	
		<rect x="440.458" y="587.969" opacity="0.4" fill="none" stroke="#000000" stroke-miterlimit="10" enable-background="new    " width="60.568" height="46.257"/>
	
		<rect x="440.458" y="558.133" opacity="0.4" fill="none" stroke="#000000" stroke-miterlimit="10" enable-background="new    " width="60.568" height="29.836"/>
	
		<rect x="440.458" y="525.197" opacity="0.4" fill="none" stroke="#000000" stroke-miterlimit="10" enable-background="new    " width="60.568" height="32.936"/>
	
		<rect x="440.458" y="497.369" opacity="0.4" fill="none" stroke="#000000" stroke-miterlimit="10" enable-background="new    " width="60.568" height="27.828"/>
	
		<rect x="440.458" y="468.172" opacity="0.4" fill="none" stroke="#000000" stroke-miterlimit="10" enable-background="new    " width="60.568" height="29.197"/>
	
		<rect x="440.458" y="439.525" opacity="0.4" fill="none" stroke="#000000" stroke-miterlimit="10" enable-background="new    " width="60.568" height="28.556"/>
	
		<rect x="440.458" y="410.967" opacity="0.4" fill="none" stroke="#000000" stroke-miterlimit="10" enable-background="new    " width="60.568" height="28.557"/>
	
		<rect x="440.458" y="350.112" opacity="0.4" fill="none" stroke="#000000" stroke-miterlimit="10" enable-background="new    " width="60.568" height="60.854"/>
	
		<rect x="397.743" y="350.112" opacity="0.4" fill="none" stroke="#000000" stroke-miterlimit="10" enable-background="new    " width="42.654" height="47.442"/>
	
		<rect x="307.884" y="350.112" opacity="0.4" fill="none" stroke="#000000" stroke-miterlimit="10" enable-background="new    " width="89.92" height="47.442"/>
	
		<rect x="267.217" y="350.112" opacity="0.4" fill="none" stroke="#000000" stroke-miterlimit="10" enable-background="new    " width="40.667" height="47.442"/>
	
		<rect x="228.29" y="350.112" opacity="0.4" fill="none" stroke="#000000" stroke-miterlimit="10" enable-background="new    " width="38.928" height="47.442"/>
	
		<rect x="187.622" y="350.112" opacity="0.4" fill="none" stroke="#000000" stroke-miterlimit="10" enable-background="new    " width="40.668" height="47.442"/>
	
		<rect x="147.825" y="350.112" opacity="0.4" fill="none" stroke="#000000" stroke-miterlimit="10" enable-background="new    " width="39.797" height="47.442"/>
	
		<rect x="107.158" y="350.112" opacity="0.4" fill="none" stroke="#000000" stroke-miterlimit="10" enable-background="new    " width="40.667" height="47.442"/>
	
		<rect x="67.36" y="350.112" opacity="0.4" fill="none" stroke="#000000" stroke-miterlimit="10" enable-background="new    " width="39.798" height="47.442"/>
	
		<rect x="26.816" y="350.112" opacity="0.4" fill="none" stroke="#000000" stroke-miterlimit="10" enable-background="new    " width="40.668" height="47.442"/>
	
		<rect x="-13.853" y="350.112" opacity="0.4" fill="none" stroke="#000000" stroke-miterlimit="10" enable-background="new    " width="40.669" height="47.442"/>
	
		<rect x="-54.519" y="350.112" opacity="0.4" fill="none" stroke="#000000" stroke-miterlimit="10" enable-background="new    " width="40.666" height="47.442"/>
	
		<rect x="-134.862" y="350.112" opacity="0.4" fill="none" stroke="#000000" stroke-miterlimit="10" enable-background="new    " width="80.465" height="47.442"/>
	
		<rect x="-182.991" y="350.112" opacity="0.4" fill="none" stroke="#000000" stroke-miterlimit="10" enable-background="new    " width="48.13" height="47.442"/>
	
		<rect x="-176.4" y="414.617" opacity="0.4" fill="none" stroke="#000000" stroke-miterlimit="10" enable-background="new    " width="62.183" height="29.195"/>
	
		<rect x="-176.4" y="443.813" opacity="0.4" fill="none" stroke="#000000" stroke-miterlimit="10" enable-background="new    " width="62.183" height="37.681"/>
	
		<rect x="-176.4" y="481.493" opacity="0.4" fill="none" stroke="#000000" stroke-miterlimit="10" enable-background="new    " width="62.183" height="29.744"/>
	
		<rect x="-176.4" y="511.237" opacity="0.4" fill="none" stroke="#000000" stroke-miterlimit="10" enable-background="new    " width="62.183" height="29.197"/>
	
		<rect x="-176.4" y="540.435" opacity="0.4" fill="none" stroke="#000000" stroke-miterlimit="10" enable-background="new    " width="62.183" height="74.903"/>
	
		<rect x="-114.217" y="594.08" opacity="0.4" fill="none" stroke="#000000" stroke-miterlimit="10" enable-background="new    " width="28.978" height="21.258"/>
	
		<rect x="-114.217" y="544.814" opacity="0.4" fill="none" stroke="#000000" stroke-miterlimit="10" enable-background="new    " width="28.978" height="49.266"/>
	
		<rect x="-114.217" y="488.246" opacity="0.4" fill="none" stroke="#000000" stroke-miterlimit="10" enable-background="new    " width="34.822" height="56.568"/>
	
		<rect x="-114.217" y="488.246" opacity="0.4" fill="none" stroke="#000000" stroke-miterlimit="10" enable-background="new    " width="63.056" height="56.568"/>
	
		<rect x="-94.691" y="414.617" opacity="0.4" fill="none" stroke="#000000" stroke-miterlimit="10" enable-background="new    " width="60.567" height="29.195"/>
	
		<rect x="-94.691" y="443.813" opacity="0.4" fill="none" stroke="#000000" stroke-miterlimit="10" enable-background="new    " width="40.172" height="27.372"/>
	
		<rect x="-54.519" y="443.813" opacity="0.4" fill="none" stroke="#000000" stroke-miterlimit="10" enable-background="new    " width="40.666" height="27.372"/>
	
		<rect x="30.918" y="414.617" opacity="0.4" fill="none" stroke="#000000" stroke-miterlimit="10" enable-background="new    " width="28.233" height="29.195"/>
	
		<rect x="30.918" y="443.813" opacity="0.4" fill="none" stroke="#000000" stroke-miterlimit="10" enable-background="new    " width="28.233" height="27.372"/>
	
		<rect x="59.152" y="443.813" opacity="0.4" fill="none" stroke="#000000" stroke-miterlimit="10" enable-background="new    " width="28.23" height="27.372"/>
	
		<rect x="59.152" y="414.617" opacity="0.4" fill="none" stroke="#000000" stroke-miterlimit="10" enable-background="new    " width="28.23" height="29.195"/>
	
		<rect x="107.158" y="414.617" opacity="0.4" fill="none" stroke="#000000" stroke-miterlimit="10" enable-background="new    " width="29.721" height="29.195"/>
	
		<rect x="136.878" y="414.617" opacity="0.4" fill="none" stroke="#000000" stroke-miterlimit="10" enable-background="new    " width="26.741" height="29.195"/>
	
		<rect x="136.878" y="443.813" opacity="0.4" fill="none" stroke="#000000" stroke-miterlimit="10" enable-background="new    " width="26.741" height="27.372"/>
	
		<rect x="107.158" y="443.813" opacity="0.4" fill="none" stroke="#000000" stroke-miterlimit="10" enable-background="new    " width="29.721" height="27.372"/>
	
		<rect x="184.262" y="414.617" opacity="0.4" fill="none" stroke="#000000" stroke-miterlimit="10" enable-background="new    " width="27.361" height="29.195"/>
	
		<rect x="211.624" y="443.813" opacity="0.4" fill="none" stroke="#000000" stroke-miterlimit="10" enable-background="new    " width="28.233" height="27.372"/>
	
		<rect x="211.624" y="414.617" opacity="0.4" fill="none" stroke="#000000" stroke-miterlimit="10" enable-background="new    " width="28.233" height="29.195"/>
	
		<rect x="184.262" y="443.813" opacity="0.4" fill="none" stroke="#000000" stroke-miterlimit="10" enable-background="new    " width="27.361" height="27.372"/>
	
		<rect x="262.243" y="414.617" opacity="0.4" fill="none" stroke="#000000" stroke-miterlimit="10" enable-background="new    " width="25.244" height="29.195"/>
	
		<rect x="287.487" y="414.617" opacity="0.4" fill="none" stroke="#000000" stroke-miterlimit="10" enable-background="new    " width="29.477" height="29.195"/>
	
		<rect x="287.487" y="443.813" opacity="0.4" fill="none" stroke="#000000" stroke-miterlimit="10" enable-background="new    " width="29.477" height="27.372"/>
	
		<rect x="262.243" y="443.813" opacity="0.4" fill="none" stroke="#000000" stroke-miterlimit="10" enable-background="new    " width="25.244" height="27.372"/>
	
		<rect x="338.476" y="443.813" opacity="0.4" fill="none" stroke="#000000" stroke-miterlimit="10" enable-background="new    " width="37.313" height="27.372"/>
	
		<rect x="375.788" y="443.813" opacity="0.4" fill="none" stroke="#000000" stroke-miterlimit="10" enable-background="new    " width="43.281" height="27.372"/>
	
		<rect x="357.134" y="414.617" opacity="0.4" fill="none" stroke="#000000" stroke-miterlimit="10" enable-background="new    " width="61.936" height="29.195"/>
	
		<rect x="6.419" y="488.246" opacity="0.4" fill="none" stroke="#000000" stroke-miterlimit="10" enable-background="new    " width="104.841" height="56.568"/>
	
		<rect x="111.385" y="488.246" opacity="0.4" fill="none" stroke="#000000" stroke-miterlimit="10" enable-background="new    " width="100.365" height="28.285"/>
	
		<rect x="111.385" y="516.531" opacity="0.4" fill="none" stroke="#000000" stroke-miterlimit="10" enable-background="new    " width="100.365" height="28.283"/>
	
		<rect x="181.03" y="544.814" opacity="0.4" fill="none" stroke="#000000" stroke-miterlimit="10" enable-background="new    " width="33.949" height="70.523"/>
	
		<rect x="39.999" y="544.814" opacity="0.4" fill="none" stroke="#000000" stroke-miterlimit="10" enable-background="new    " width="140.907" height="70.523"/>
	
		<rect x="239.857" y="488.246" opacity="0.4" fill="none" stroke="#000000" stroke-miterlimit="10" enable-background="new    " width="68.027" height="56.568"/>
	
		<rect x="307.884" y="488.246" opacity="0.4" fill="none" stroke="#000000" stroke-miterlimit="10" enable-background="new    " width="30.721" height="56.568"/>
	
		<rect x="361.735" y="488.246" opacity="0.4" fill="none" stroke="#000000" stroke-miterlimit="10" enable-background="new    " width="29.848" height="28.285"/>
	
		<rect x="391.583" y="488.246" opacity="0.4" fill="none" stroke="#000000" stroke-miterlimit="10" enable-background="new    " width="24.002" height="28.285"/>
	
		<rect x="391.583" y="516.531" opacity="0.4" fill="none" stroke="#000000" stroke-miterlimit="10" enable-background="new    " width="24.002" height="28.283"/>
	
		<rect x="361.735" y="516.531" opacity="0.4" fill="none" stroke="#000000" stroke-miterlimit="10" enable-background="new    " width="29.848" height="28.283"/>
	
		<rect x="376.659" y="573.095" opacity="0.4" fill="none" stroke="#000000" stroke-miterlimit="10" enable-background="new    " width="38.926" height="42.243"/>
	
		<rect x="338.476" y="573.095" opacity="0.4" fill="none" stroke="#000000" stroke-miterlimit="10" enable-background="new    " width="38.184" height="42.243"/>
	
		<rect x="239.857" y="561.235" opacity="0.4" fill="none" stroke="#000000" stroke-miterlimit="10" enable-background="new    " width="38.554" height="28.283"/>
	
		<rect x="278.411" y="561.235" opacity="0.4" fill="none" stroke="#000000" stroke-miterlimit="10" enable-background="new    " width="38.553" height="28.283"/>
	
		<rect x="278.411" y="589.519" opacity="0.4" fill="none" stroke="#000000" stroke-miterlimit="10" enable-background="new    " width="38.553" height="25.819"/>
	
		<rect x="239.857" y="589.519" opacity="0.4" fill="none" stroke="#000000" stroke-miterlimit="10" enable-background="new    " width="38.554" height="25.819"/>
	
		<line opacity="0.6" fill="none" stroke="#00A19A" stroke-width="4" stroke-miterlimit="10" enable-background="new    " x1="569.321" y1="-198.672" x2="689.101" y2="-198.672"/>
	
		<line opacity="0.6" fill="none" stroke="#00A19A" stroke-width="4" stroke-miterlimit="10" enable-background="new    " x1="629.169" y1="-198.672" x2="629.169" y2="-255.324"/>
	<rect x="563.017" y="-246.083" fill="none" width="69.952" height="38.17"/>
	<rect x="628.045" y="-246.083" fill="none" width="69.952" height="38.17"/>
	<rect x="209.141" y="340.483" fill="none" width="64.699" height="14.537"/>
	<rect x="52.903" y="340.483" fill="none" width="64.697" height="14.537"/>
	<line fill="none" stroke="#00A19A" stroke-width="6" stroke-miterlimit="10" x1="117.479" y1="-257.321" x2="117.479" y2="216.5"/>
	<line fill="none" stroke="#00A19A" stroke-width="6" stroke-miterlimit="10" x1="-282.5" y1="-20.41" x2="513" y2="-20.41"/>
</g>
<g id="top_right_graph">
	<rect id="top_right_svg" x="117.48" y="-255.284" fill="none" width="395.52" height="235.099"/>
</g>
<g id="prox_zones">
	<g enable-background="new    ">
		<path fill="#00A19A" d="M583.148-245.313c0.726-0.121,1.676-0.225,2.885-0.225c1.485,0,2.573,0.346,3.265,0.967
			c0.639,0.553,1.02,1.399,1.02,2.436c0,1.054-0.312,1.883-0.898,2.487c-0.795,0.847-2.09,1.278-3.559,1.278
			c-0.449,0-0.863-0.017-1.209-0.104v4.664h-1.503V-245.313z M584.651-239.7c0.328,0.086,0.743,0.121,1.244,0.121
			c1.813,0,2.919-0.881,2.919-2.487c0-1.538-1.089-2.28-2.747-2.28c-0.656,0-1.157,0.052-1.416,0.121V-239.7z"/>
		<path fill="#00A19A" d="M592.285-239.562c0-0.984-0.017-1.831-0.069-2.608h1.33l0.052,1.641h0.069
			c0.38-1.123,1.296-1.831,2.314-1.831c0.173,0,0.294,0.018,0.432,0.052v1.434c-0.155-0.035-0.311-0.052-0.518-0.052
			c-1.071,0-1.831,0.812-2.038,1.952c-0.035,0.207-0.069,0.449-0.069,0.708v4.457h-1.503V-239.562z"/>
		<path fill="#00A19A" d="M605.498-238.059c0,3.092-2.142,4.439-4.162,4.439c-2.263,0-4.008-1.658-4.008-4.301
			c0-2.798,1.831-4.439,4.146-4.439C603.875-242.36,605.498-240.615,605.498-238.059z M598.865-237.972
			c0,1.831,1.054,3.212,2.539,3.212c1.451,0,2.539-1.364,2.539-3.247c0-1.417-0.708-3.213-2.504-3.213
			C599.643-241.22,598.865-239.562,598.865-237.972z"/>
		<path fill="#00A19A" d="M608.123-242.17l1.192,1.797c0.311,0.466,0.57,0.898,0.846,1.364h0.053
			c0.276-0.501,0.553-0.933,0.829-1.382l1.174-1.779h1.642l-2.851,4.042l2.937,4.318h-1.728l-1.226-1.883
			c-0.329-0.483-0.605-0.95-0.898-1.451h-0.035c-0.276,0.5-0.569,0.95-0.881,1.451l-1.209,1.883h-1.676l2.972-4.267l-2.833-4.094
			H608.123z"/>
	</g>
	<g enable-background="new    ">
		<path fill="none" stroke="#00A19A" stroke-miterlimit="10" d="M583.148-245.313c0.726-0.121,1.676-0.225,2.885-0.225
			c1.485,0,2.573,0.346,3.265,0.967c0.639,0.553,1.02,1.399,1.02,2.436c0,1.054-0.312,1.883-0.898,2.487
			c-0.795,0.847-2.09,1.278-3.559,1.278c-0.449,0-0.863-0.017-1.209-0.104v4.664h-1.503V-245.313z M584.651-239.7
			c0.328,0.086,0.743,0.121,1.244,0.121c1.813,0,2.919-0.881,2.919-2.487c0-1.538-1.089-2.28-2.747-2.28
			c-0.656,0-1.157,0.052-1.416,0.121V-239.7z"/>
		<path fill="none" stroke="#00A19A" stroke-miterlimit="10" d="M592.285-239.562c0-0.984-0.017-1.831-0.069-2.608h1.33l0.052,1.641
			h0.069c0.38-1.123,1.296-1.831,2.314-1.831c0.173,0,0.294,0.018,0.432,0.052v1.434c-0.155-0.035-0.311-0.052-0.518-0.052
			c-1.071,0-1.831,0.812-2.038,1.952c-0.035,0.207-0.069,0.449-0.069,0.708v4.457h-1.503V-239.562z"/>
		<path fill="none" stroke="#00A19A" stroke-miterlimit="10" d="M605.498-238.059c0,3.092-2.142,4.439-4.162,4.439
			c-2.263,0-4.008-1.658-4.008-4.301c0-2.798,1.831-4.439,4.146-4.439C603.875-242.36,605.498-240.615,605.498-238.059z
			 M598.865-237.972c0,1.831,1.054,3.212,2.539,3.212c1.451,0,2.539-1.364,2.539-3.247c0-1.417-0.708-3.213-2.504-3.213
			C599.643-241.22,598.865-239.562,598.865-237.972z"/>
		<path fill="none" stroke="#00A19A" stroke-miterlimit="10" d="M608.123-242.17l1.192,1.797c0.311,0.466,0.57,0.898,0.846,1.364
			h0.053c0.276-0.501,0.553-0.933,0.829-1.382l1.174-1.779h1.642l-2.851,4.042l2.937,4.318h-1.728l-1.226-1.883
			c-0.329-0.483-0.605-0.95-0.898-1.451h-0.035c-0.276,0.5-0.569,0.95-0.881,1.451l-1.209,1.883h-1.676l2.972-4.267l-2.833-4.094
			H608.123z"/>
	</g>
	<g enable-background="new    ">
		<path fill="#00A19A" d="M576.481-213.964l6.46-9.448v-0.052h-5.907v-1.261h7.858v0.916l-6.425,9.414v0.052h6.512v1.261h-8.498
			V-213.964z"/>
		<path fill="#00A19A" d="M594.34-217.333c0,3.092-2.142,4.439-4.162,4.439c-2.263,0-4.008-1.658-4.008-4.301
			c0-2.798,1.831-4.439,4.146-4.439C592.717-221.634,594.34-219.889,594.34-217.333z M587.707-217.246
			c0,1.831,1.054,3.212,2.539,3.212c1.451,0,2.539-1.364,2.539-3.247c0-1.417-0.708-3.213-2.504-3.213
			C588.484-220.494,587.707-218.835,587.707-217.246z"/>
		<path fill="#00A19A" d="M596.257-219.181c0-0.864-0.018-1.572-0.069-2.263h1.348l0.087,1.382h0.034
			c0.414-0.795,1.382-1.572,2.764-1.572c1.157,0,2.953,0.691,2.953,3.559v4.992h-1.52v-4.819c0-1.347-0.501-2.47-1.935-2.47
			c-1.002,0-1.779,0.708-2.038,1.554c-0.069,0.19-0.104,0.449-0.104,0.708v5.026h-1.521V-219.181z"/>
		<path fill="#00A19A" d="M606.689-216.987c0.034,2.056,1.347,2.902,2.867,2.902c1.088,0,1.744-0.19,2.314-0.432l0.259,1.088
			c-0.535,0.242-1.45,0.518-2.78,0.518c-2.574,0-4.111-1.693-4.111-4.215s1.485-4.508,3.921-4.508c2.729,0,3.455,2.401,3.455,3.938
			c0,0.311-0.035,0.553-0.052,0.708H606.689z M611.146-218.075c0.018-0.967-0.397-2.47-2.107-2.47c-1.537,0-2.211,1.417-2.331,2.47
			H611.146z"/>
		<path fill="#00A19A" d="M614.289-214.638c0.449,0.294,1.243,0.604,2.004,0.604c1.105,0,1.623-0.553,1.623-1.244
			c0-0.725-0.432-1.123-1.555-1.537c-1.502-0.536-2.211-1.365-2.211-2.366c0-1.348,1.089-2.453,2.885-2.453
			c0.847,0,1.589,0.242,2.056,0.519l-0.38,1.105c-0.328-0.208-0.933-0.484-1.71-0.484c-0.898,0-1.399,0.518-1.399,1.14
			c0,0.691,0.501,1.002,1.589,1.417c1.451,0.553,2.194,1.278,2.194,2.521c0,1.468-1.141,2.505-3.127,2.505
			c-0.915,0-1.762-0.225-2.349-0.57L614.289-214.638z"/>
	</g>
	<g enable-background="new    ">
		<path fill="none" stroke="#00A19A" stroke-miterlimit="10" d="M576.481-213.964l6.46-9.448v-0.052h-5.907v-1.261h7.858v0.916
			l-6.425,9.414v0.052h6.512v1.261h-8.498V-213.964z"/>
		<path fill="none" stroke="#00A19A" stroke-miterlimit="10" d="M594.34-217.333c0,3.092-2.142,4.439-4.162,4.439
			c-2.263,0-4.008-1.658-4.008-4.301c0-2.798,1.831-4.439,4.146-4.439C592.717-221.634,594.34-219.889,594.34-217.333z
			 M587.707-217.246c0,1.831,1.054,3.212,2.539,3.212c1.451,0,2.539-1.364,2.539-3.247c0-1.417-0.708-3.213-2.504-3.213
			C588.484-220.494,587.707-218.835,587.707-217.246z"/>
		<path fill="none" stroke="#00A19A" stroke-miterlimit="10" d="M596.257-219.181c0-0.864-0.018-1.572-0.069-2.263h1.348
			l0.087,1.382h0.034c0.414-0.795,1.382-1.572,2.764-1.572c1.157,0,2.953,0.691,2.953,3.559v4.992h-1.52v-4.819
			c0-1.347-0.501-2.47-1.935-2.47c-1.002,0-1.779,0.708-2.038,1.554c-0.069,0.19-0.104,0.449-0.104,0.708v5.026h-1.521V-219.181z"/>
		<path fill="none" stroke="#00A19A" stroke-miterlimit="10" d="M606.689-216.987c0.034,2.056,1.347,2.902,2.867,2.902
			c1.088,0,1.744-0.19,2.314-0.432l0.259,1.088c-0.535,0.242-1.45,0.518-2.78,0.518c-2.574,0-4.111-1.693-4.111-4.215
			s1.485-4.508,3.921-4.508c2.729,0,3.455,2.401,3.455,3.938c0,0.311-0.035,0.553-0.052,0.708H606.689z M611.146-218.075
			c0.018-0.967-0.397-2.47-2.107-2.47c-1.537,0-2.211,1.417-2.331,2.47H611.146z"/>
		<path fill="none" stroke="#00A19A" stroke-miterlimit="10" d="M614.289-214.638c0.449,0.294,1.243,0.604,2.004,0.604
			c1.105,0,1.623-0.553,1.623-1.244c0-0.725-0.432-1.123-1.555-1.537c-1.502-0.536-2.211-1.365-2.211-2.366
			c0-1.348,1.089-2.453,2.885-2.453c0.847,0,1.589,0.242,2.056,0.519l-0.38,1.105c-0.328-0.208-0.933-0.484-1.71-0.484
			c-0.898,0-1.399,0.518-1.399,1.14c0,0.691,0.501,1.002,1.589,1.417c1.451,0.553,2.194,1.278,2.194,2.521
			c0,1.468-1.141,2.505-3.127,2.505c-0.915,0-1.762-0.225-2.349-0.57L614.289-214.638z"/>
	</g>
	<rect x="566.384" y="-255.324" fill="none" width="62.785" height="56.652"/>
</g>
<g id="HVAC_zones">
	<g enable-background="new    ">
		<path fill="#00A19A" d="M645.073-245.452v4.871h5.631v-4.871h1.521v11.642h-1.521v-5.458h-5.631v5.458h-1.503v-11.642H645.073z"/>
		<path fill="#00A19A" d="M657.388-233.81l-3.8-11.642h1.623l1.814,5.735c0.501,1.572,0.933,2.988,1.243,4.353h0.034
			c0.329-1.347,0.813-2.815,1.33-4.335l1.97-5.752h1.606l-4.163,11.642H657.388z"/>
		<path fill="#00A19A" d="M666.352-237.472l-1.209,3.662h-1.555l3.956-11.642h1.813l3.973,11.642h-1.606l-1.244-3.662H666.352z
			 M670.169-238.646l-1.14-3.351c-0.26-0.76-0.432-1.451-0.604-2.125h-0.035c-0.173,0.691-0.362,1.399-0.587,2.107l-1.14,3.368
			H670.169z"/>
		<path fill="#00A19A" d="M683.175-234.189c-0.553,0.276-1.658,0.553-3.074,0.553c-3.282,0-5.752-2.073-5.752-5.89
			c0-3.645,2.47-6.115,6.08-6.115c1.451,0,2.366,0.311,2.764,0.518l-0.363,1.227c-0.569-0.276-1.382-0.484-2.349-0.484
			c-2.729,0-4.543,1.745-4.543,4.802c0,2.85,1.641,4.681,4.474,4.681c0.916,0,1.849-0.19,2.453-0.483L683.175-234.189z"/>
	</g>
	<g enable-background="new    ">
		<path fill="none" stroke="#00A19A" stroke-miterlimit="10" d="M645.073-245.452v4.871h5.631v-4.871h1.521v11.642h-1.521v-5.458
			h-5.631v5.458h-1.503v-11.642H645.073z"/>
		<path fill="none" stroke="#00A19A" stroke-miterlimit="10" d="M657.388-233.81l-3.8-11.642h1.623l1.814,5.735
			c0.501,1.572,0.933,2.988,1.243,4.353h0.034c0.329-1.347,0.813-2.815,1.33-4.335l1.97-5.752h1.606l-4.163,11.642H657.388z"/>
		<path fill="none" stroke="#00A19A" stroke-miterlimit="10" d="M666.352-237.472l-1.209,3.662h-1.555l3.956-11.642h1.813
			l3.973,11.642h-1.606l-1.244-3.662H666.352z M670.169-238.646l-1.14-3.351c-0.26-0.76-0.432-1.451-0.604-2.125h-0.035
			c-0.173,0.691-0.362,1.399-0.587,2.107l-1.14,3.368H670.169z"/>
		<path fill="none" stroke="#00A19A" stroke-miterlimit="10" d="M683.175-234.189c-0.553,0.276-1.658,0.553-3.074,0.553
			c-3.282,0-5.752-2.073-5.752-5.89c0-3.645,2.47-6.115,6.08-6.115c1.451,0,2.366,0.311,2.764,0.518l-0.363,1.227
			c-0.569-0.276-1.382-0.484-2.349-0.484c-2.729,0-4.543,1.745-4.543,4.802c0,2.85,1.641,4.681,4.474,4.681
			c0.916,0,1.849-0.19,2.453-0.483L683.175-234.189z"/>
	</g>
	<g enable-background="new    ">
		<path fill="#00A19A" d="M641.481-213.964l6.46-9.448v-0.052h-5.907v-1.261h7.858v0.916l-6.425,9.414v0.052h6.512v1.261h-8.498
			V-213.964z"/>
		<path fill="#00A19A" d="M659.34-217.333c0,3.092-2.142,4.439-4.162,4.439c-2.263,0-4.008-1.658-4.008-4.301
			c0-2.798,1.831-4.439,4.146-4.439C657.717-221.634,659.34-219.889,659.34-217.333z M652.707-217.246
			c0,1.831,1.054,3.212,2.539,3.212c1.451,0,2.539-1.364,2.539-3.247c0-1.417-0.708-3.213-2.504-3.213
			C653.484-220.494,652.707-218.835,652.707-217.246z"/>
		<path fill="#00A19A" d="M661.257-219.181c0-0.864-0.018-1.572-0.069-2.263h1.348l0.087,1.382h0.034
			c0.414-0.795,1.382-1.572,2.764-1.572c1.157,0,2.953,0.691,2.953,3.559v4.992h-1.52v-4.819c0-1.347-0.501-2.47-1.935-2.47
			c-1.002,0-1.779,0.708-2.038,1.554c-0.069,0.19-0.104,0.449-0.104,0.708v5.026h-1.521V-219.181z"/>
		<path fill="#00A19A" d="M671.689-216.987c0.034,2.056,1.347,2.902,2.867,2.902c1.088,0,1.744-0.19,2.314-0.432l0.259,1.088
			c-0.535,0.242-1.45,0.518-2.78,0.518c-2.574,0-4.111-1.693-4.111-4.215s1.485-4.508,3.921-4.508c2.729,0,3.455,2.401,3.455,3.938
			c0,0.311-0.035,0.553-0.052,0.708H671.689z M676.146-218.075c0.018-0.967-0.397-2.47-2.107-2.47c-1.537,0-2.211,1.417-2.331,2.47
			H676.146z"/>
		<path fill="#00A19A" d="M679.289-214.638c0.449,0.294,1.243,0.604,2.004,0.604c1.105,0,1.623-0.553,1.623-1.244
			c0-0.725-0.432-1.123-1.555-1.537c-1.502-0.536-2.211-1.365-2.211-2.366c0-1.348,1.089-2.453,2.885-2.453
			c0.847,0,1.589,0.242,2.056,0.519l-0.38,1.105c-0.328-0.208-0.933-0.484-1.71-0.484c-0.898,0-1.399,0.518-1.399,1.14
			c0,0.691,0.501,1.002,1.589,1.417c1.451,0.553,2.194,1.278,2.194,2.521c0,1.468-1.141,2.505-3.127,2.505
			c-0.915,0-1.762-0.225-2.349-0.57L679.289-214.638z"/>
	</g>
	<g enable-background="new    ">
		<path fill="none" stroke="#00A19A" stroke-miterlimit="10" d="M641.481-213.964l6.46-9.448v-0.052h-5.907v-1.261h7.858v0.916
			l-6.425,9.414v0.052h6.512v1.261h-8.498V-213.964z"/>
		<path fill="none" stroke="#00A19A" stroke-miterlimit="10" d="M659.34-217.333c0,3.092-2.142,4.439-4.162,4.439
			c-2.263,0-4.008-1.658-4.008-4.301c0-2.798,1.831-4.439,4.146-4.439C657.717-221.634,659.34-219.889,659.34-217.333z
			 M652.707-217.246c0,1.831,1.054,3.212,2.539,3.212c1.451,0,2.539-1.364,2.539-3.247c0-1.417-0.708-3.213-2.504-3.213
			C653.484-220.494,652.707-218.835,652.707-217.246z"/>
		<path fill="none" stroke="#00A19A" stroke-miterlimit="10" d="M661.257-219.181c0-0.864-0.018-1.572-0.069-2.263h1.348
			l0.087,1.382h0.034c0.414-0.795,1.382-1.572,2.764-1.572c1.157,0,2.953,0.691,2.953,3.559v4.992h-1.52v-4.819
			c0-1.347-0.501-2.47-1.935-2.47c-1.002,0-1.779,0.708-2.038,1.554c-0.069,0.19-0.104,0.449-0.104,0.708v5.026h-1.521V-219.181z"/>
		<path fill="none" stroke="#00A19A" stroke-miterlimit="10" d="M671.689-216.987c0.034,2.056,1.347,2.902,2.867,2.902
			c1.088,0,1.744-0.19,2.314-0.432l0.259,1.088c-0.535,0.242-1.45,0.518-2.78,0.518c-2.574,0-4.111-1.693-4.111-4.215
			s1.485-4.508,3.921-4.508c2.729,0,3.455,2.401,3.455,3.938c0,0.311-0.035,0.553-0.052,0.708H671.689z M676.146-218.075
			c0.018-0.967-0.397-2.47-2.107-2.47c-1.537,0-2.211,1.417-2.331,2.47H676.146z"/>
		<path fill="none" stroke="#00A19A" stroke-miterlimit="10" d="M679.289-214.638c0.449,0.294,1.243,0.604,2.004,0.604
			c1.105,0,1.623-0.553,1.623-1.244c0-0.725-0.432-1.123-1.555-1.537c-1.502-0.536-2.211-1.365-2.211-2.366
			c0-1.348,1.089-2.453,2.885-2.453c0.847,0,1.589,0.242,2.056,0.519l-0.38,1.105c-0.328-0.208-0.933-0.484-1.71-0.484
			c-0.898,0-1.399,0.518-1.399,1.14c0,0.691,0.501,1.002,1.589,1.417c1.451,0.553,2.194,1.278,2.194,2.521
			c0,1.468-1.141,2.505-3.127,2.505c-0.915,0-1.762-0.225-2.349-0.57L679.289-214.638z"/>
	</g>
	<rect x="629.169" y="-255.324" fill="none" width="62.331" height="56.652"/>
</g>
<g id="top_left_graph">
	<rect id="top_left_svg" x="-281.09" y="-255.284" fill="none" width="395.521" height="235.099"/>
</g>
<g id="bottom_left_graph">
	<rect id="bottom_left_svg" x="-281.09" y="-20.185" fill="none" width="395.521" height="235.099"/>
</g>
<g id="bottom_right_graph">
	<rect id="bottom_right_svg" x="117.479" y="-20.185" fill="none" width="395.521" height="235.099"/>
</g>
<g id="pointer">
</g>
<g id="track_all">
	<g>
		<path opacity="0.6" fill="#00A19A" stroke="#00A19A" stroke-width="3" stroke-miterlimit="10" enable-background="new    " d="
			M-55.771,306.419h-68.765c-7.123,0-12.953-5.828-12.953-12.953V248.56c0-7.125,5.83-12.955,12.953-12.955h68.765
			c7.125,0,12.954,5.83,12.954,12.955v44.906C-42.816,300.591-48.646,306.419-55.771,306.419z"/>
		<g enable-background="new    ">
			<path fill="#FFFFFF" d="M-110.483,249.327h-4.426v-1.598h10.774v1.598h-4.448v12.955h-1.9V249.327z"/>
			<path fill="#FFFFFF" d="M-102.582,255.091c0-1.23-0.021-2.289-0.086-3.26h1.663l0.065,2.051h0.086
				c0.475-1.403,1.62-2.289,2.894-2.289c0.216,0,0.367,0.021,0.54,0.064v1.792c-0.194-0.043-0.389-0.065-0.647-0.065
				c-1.339,0-2.289,1.015-2.548,2.44c-0.043,0.259-0.086,0.561-0.086,0.885v5.57h-1.878V255.091z"/>
			<path fill="#FFFFFF" d="M-89.735,262.281l-0.151-1.317h-0.065c-0.583,0.82-1.706,1.554-3.195,1.554
				c-2.116,0-3.195-1.49-3.195-3.001c0-2.526,2.245-3.908,6.283-3.886v-0.216c0-0.863-0.237-2.418-2.375-2.418
				c-0.972,0-1.986,0.302-2.72,0.777l-0.432-1.252c0.864-0.562,2.116-0.928,3.433-0.928c3.195,0,3.973,2.181,3.973,4.275v3.908
				c0,0.907,0.043,1.792,0.173,2.504H-89.735z M-90.016,256.948c-2.073-0.043-4.426,0.324-4.426,2.354
				c0,1.23,0.82,1.813,1.792,1.813c1.36,0,2.224-0.864,2.526-1.749c0.064-0.194,0.108-0.41,0.108-0.604V256.948z"/>
			<path fill="#FFFFFF" d="M-77.667,261.893c-0.497,0.259-1.598,0.604-3.001,0.604c-3.152,0-5.204-2.137-5.204-5.333
				c0-3.217,2.203-5.549,5.614-5.549c1.123,0,2.116,0.281,2.634,0.54l-0.432,1.468c-0.453-0.259-1.166-0.497-2.202-0.497
				c-2.396,0-3.692,1.771-3.692,3.951c0,2.418,1.555,3.908,3.627,3.908c1.079,0,1.792-0.281,2.332-0.518L-77.667,261.893z"/>
			<path fill="#FFFFFF" d="M-73.565,256.625h0.043c0.259-0.367,0.626-0.821,0.929-1.188l3.066-3.606h2.289l-4.038,4.297l4.599,6.153
				h-2.311l-3.605-5.009l-0.972,1.08v3.93h-1.878v-15.33h1.878V256.625z"/>
		</g>
		<g enable-background="new    ">
			<path fill="#FFFFFF" d="M-98.585,283.613l-1.511,4.577h-1.943l4.945-14.552h2.267l4.966,14.552h-2.008l-1.554-4.577H-98.585z
				 M-93.813,282.145l-1.425-4.189c-0.324-0.95-0.54-1.813-0.755-2.656h-0.043c-0.216,0.864-0.453,1.749-0.734,2.634l-1.425,4.21
				H-93.813z"/>
			<path fill="#FFFFFF" d="M-87.791,272.861h1.9v15.33h-1.9V272.861z"/>
			<path fill="#FFFFFF" d="M-82.695,272.861h1.9v15.33h-1.9V272.861z"/>
		</g>
	</g>
</g>
<g id="track_person">
	<g>
		<path opacity="0.6" fill="#00A19A" stroke="#00A19A" stroke-width="3" stroke-miterlimit="10" enable-background="new    " d="
			M-194.548,306.419h-68.764c-7.125,0-12.955-5.828-12.955-12.953V248.56c0-7.125,5.83-12.955,12.955-12.955h68.764
			c7.124,0,12.953,5.83,12.953,12.955v44.906C-181.595,300.591-187.424,306.419-194.548,306.419z"/>
		<g enable-background="new    ">
			<path fill="#FFFFFF" d="M-248.505,250.152h-4.426v-1.598h10.774v1.598h-4.448v12.955h-1.9V250.152z"/>
			<path fill="#FFFFFF" d="M-240.604,255.917c0-1.23-0.021-2.289-0.086-3.26h1.663l0.065,2.051h0.086
				c0.475-1.403,1.62-2.289,2.894-2.289c0.216,0,0.367,0.021,0.54,0.064v1.792c-0.194-0.043-0.389-0.065-0.647-0.065
				c-1.339,0-2.289,1.015-2.548,2.44c-0.043,0.259-0.086,0.561-0.086,0.885v5.57h-1.878V255.917z"/>
			<path fill="#FFFFFF" d="M-227.757,263.106l-0.151-1.317h-0.065c-0.583,0.82-1.706,1.554-3.195,1.554
				c-2.116,0-3.195-1.49-3.195-3.001c0-2.526,2.245-3.908,6.283-3.886v-0.216c0-0.863-0.237-2.418-2.375-2.418
				c-0.972,0-1.986,0.302-2.72,0.777l-0.432-1.252c0.864-0.562,2.116-0.928,3.433-0.928c3.195,0,3.973,2.181,3.973,4.275v3.908
				c0,0.907,0.043,1.792,0.173,2.504H-227.757z M-228.038,257.773c-2.073-0.043-4.426,0.324-4.426,2.354
				c0,1.23,0.82,1.813,1.792,1.813c1.36,0,2.224-0.864,2.526-1.749c0.064-0.194,0.108-0.41,0.108-0.604V257.773z"/>
			<path fill="#FFFFFF" d="M-215.689,262.718c-0.497,0.259-1.598,0.604-3.001,0.604c-3.152,0-5.204-2.137-5.204-5.333
				c0-3.217,2.203-5.549,5.614-5.549c1.123,0,2.116,0.281,2.634,0.54l-0.432,1.468c-0.453-0.259-1.166-0.497-2.202-0.497
				c-2.396,0-3.692,1.771-3.692,3.951c0,2.418,1.555,3.908,3.627,3.908c1.079,0,1.792-0.281,2.332-0.518L-215.689,262.718z"/>
			<path fill="#FFFFFF" d="M-211.587,257.45h0.043c0.259-0.367,0.626-0.821,0.929-1.188l3.066-3.606h2.289l-4.038,4.297l4.599,6.153
				h-2.311l-3.605-5.009l-0.972,1.08v3.93h-1.878v-15.33h1.878V257.45z"/>
		</g>
		<g enable-background="new    ">
			<path fill="#FFFFFF" d="M-258.18,274.634c0.907-0.151,2.094-0.281,3.605-0.281c1.857,0,3.217,0.432,4.081,1.209
				c0.799,0.691,1.274,1.749,1.274,3.044c0,1.317-0.389,2.353-1.123,3.109c-0.993,1.058-2.612,1.598-4.448,1.598
				c-0.562,0-1.08-0.021-1.511-0.129v5.83h-1.878V274.634z M-256.302,281.651c0.41,0.108,0.928,0.151,1.554,0.151
				c2.267,0,3.649-1.101,3.649-3.109c0-1.921-1.36-2.85-3.433-2.85c-0.821,0-1.447,0.064-1.771,0.151V281.651z"/>
			<path fill="#FFFFFF" d="M-245.701,284.134c0.043,2.569,1.684,3.627,3.584,3.627c1.36,0,2.181-0.237,2.893-0.54l0.324,1.36
				c-0.669,0.302-1.814,0.647-3.477,0.647c-3.217,0-5.139-2.116-5.139-5.268s1.857-5.635,4.901-5.635
				c3.412,0,4.318,3.001,4.318,4.923c0,0.389-0.043,0.691-0.065,0.885H-245.701z M-240.131,282.774
				c0.021-1.209-0.497-3.087-2.634-3.087c-1.921,0-2.764,1.77-2.915,3.087H-240.131z"/>
			<path fill="#FFFFFF" d="M-235.943,281.824c0-1.23-0.021-2.289-0.086-3.26h1.663l0.065,2.051h0.086
				c0.475-1.403,1.62-2.289,2.894-2.289c0.216,0,0.367,0.021,0.54,0.064v1.792c-0.194-0.043-0.389-0.065-0.647-0.065
				c-1.339,0-2.289,1.015-2.548,2.44c-0.043,0.259-0.086,0.561-0.086,0.885v5.57h-1.878V281.824z"/>
			<path fill="#FFFFFF" d="M-229.143,287.07c0.562,0.367,1.555,0.756,2.505,0.756c1.382,0,2.029-0.691,2.029-1.555
				c0-0.907-0.54-1.403-1.943-1.921c-1.878-0.669-2.764-1.706-2.764-2.958c0-1.684,1.36-3.066,3.605-3.066
				c1.058,0,1.986,0.302,2.569,0.647l-0.475,1.382c-0.41-0.259-1.166-0.604-2.137-0.604c-1.123,0-1.749,0.648-1.749,1.425
				c0,0.863,0.626,1.252,1.986,1.771c1.813,0.691,2.742,1.598,2.742,3.152c0,1.835-1.425,3.131-3.908,3.131
				c-1.144,0-2.202-0.281-2.936-0.712L-229.143,287.07z"/>
			<path fill="#FFFFFF" d="M-210.877,283.702c0,3.865-2.677,5.549-5.204,5.549c-2.829,0-5.009-2.073-5.009-5.376
				c0-3.498,2.289-5.549,5.182-5.549C-212.907,278.326-210.877,280.507-210.877,283.702z M-219.168,283.81
				c0,2.289,1.317,4.016,3.174,4.016c1.813,0,3.174-1.706,3.174-4.059c0-1.771-0.885-4.016-3.131-4.016
				C-218.196,279.751-219.168,281.824-219.168,283.81z"/>
			<path fill="#FFFFFF" d="M-208.481,281.392c0-1.08-0.021-1.965-0.086-2.829h1.684l0.108,1.728h0.043
				c0.518-0.993,1.727-1.965,3.455-1.965c1.446,0,3.692,0.863,3.692,4.448v6.24h-1.9v-6.024c0-1.684-0.626-3.087-2.418-3.087
				c-1.252,0-2.224,0.885-2.547,1.943c-0.086,0.238-0.13,0.562-0.13,0.885v6.283h-1.9V281.392z"/>
		</g>
	</g>
</g>
<g id="temp">
	<g>
		<path opacity="0.6" fill="#00A19A" stroke="#00A19A" stroke-width="3" stroke-miterlimit="10" enable-background="new    " d="
			M79.417,306.42H10.654c-7.125,0-12.954-5.828-12.954-12.953v-44.906c0-7.125,5.829-12.955,12.954-12.955h68.764
			c7.123,0,12.953,5.83,12.953,12.955v44.906C92.371,300.592,86.541,306.42,79.417,306.42z"/>
		<g enable-background="new    ">
			<path fill="#FFFFFF" d="M25.105,262.47h-4.426v-1.598h10.774v1.598h-4.448v12.955h-1.9V262.47z"/>
			<path fill="#FFFFFF" d="M34.064,270.545c0.043,2.569,1.684,3.627,3.584,3.627c1.36,0,2.181-0.237,2.893-0.54l0.324,1.36
				c-0.669,0.302-1.814,0.647-3.477,0.647c-3.217,0-5.139-2.116-5.139-5.268s1.857-5.635,4.901-5.635
				c3.412,0,4.318,3.001,4.318,4.923c0,0.389-0.043,0.691-0.065,0.885H34.064z M39.635,269.185c0.021-1.209-0.497-3.087-2.634-3.087
				c-1.921,0-2.764,1.77-2.915,3.087H39.635z"/>
			<path fill="#FFFFFF" d="M43.823,267.803c0-1.08-0.021-1.965-0.086-2.829h1.663l0.086,1.684h0.064
				c0.583-0.993,1.555-1.921,3.282-1.921c1.425,0,2.504,0.863,2.958,2.094h0.043c0.324-0.583,0.734-1.037,1.166-1.36
				c0.626-0.475,1.317-0.734,2.31-0.734c1.382,0,3.433,0.907,3.433,4.534v6.153h-1.857v-5.916c0-2.008-0.734-3.217-2.267-3.217
				c-1.08,0-1.921,0.799-2.245,1.728c-0.086,0.259-0.151,0.604-0.151,0.95v6.456h-1.857v-6.261c0-1.663-0.734-2.872-2.181-2.872
				c-1.188,0-2.051,0.95-2.354,1.9c-0.108,0.281-0.151,0.604-0.151,0.928v6.305h-1.857V267.803z"/>
			<path fill="#FFFFFF" d="M61.829,268.386c0-1.339-0.043-2.418-0.086-3.412h1.706l0.086,1.792h0.043
				c0.777-1.274,2.008-2.029,3.713-2.029c2.526,0,4.426,2.137,4.426,5.312c0,3.757-2.289,5.613-4.75,5.613
				c-1.382,0-2.591-0.604-3.217-1.641h-0.043v5.678h-1.878V268.386z M63.707,271.171c0,0.281,0.043,0.54,0.086,0.777
				c0.345,1.317,1.49,2.224,2.85,2.224c2.008,0,3.174-1.641,3.174-4.038c0-2.094-1.101-3.886-3.109-3.886
				c-1.295,0-2.504,0.928-2.872,2.354c-0.064,0.237-0.129,0.518-0.129,0.777V271.171z"/>
		</g>
	</g>
</g>
<g id="cooling_state">
	<g>
		<path opacity="0.6" fill="#00A19A" stroke="#00A19A" stroke-width="3" stroke-miterlimit="10" enable-background="new    " d="
			M218.643,306.419h-68.762c-7.127,0-12.955-5.828-12.955-12.953V248.56c0-7.125,5.828-12.955,12.955-12.955h68.762
			c7.125,0,12.953,5.83,12.953,12.955v44.906C231.596,300.591,225.768,306.419,218.643,306.419z"/>
		<rect x="135.738" y="250.286" fill="none" width="97.048" height="41.454"/>
		<g enable-background="new    ">
			<path fill="#FFFFFF" d="M160.833,265.127c-0.691,0.346-2.073,0.691-3.843,0.691c-4.103,0-7.19-2.591-7.19-7.362
				c0-4.556,3.087-7.644,7.6-7.644c1.813,0,2.958,0.389,3.455,0.648l-0.454,1.533c-0.712-0.345-1.727-0.604-2.936-0.604
				c-3.412,0-5.679,2.181-5.679,6.002c0,3.563,2.051,5.851,5.592,5.851c1.144,0,2.31-0.237,3.066-0.604L160.833,265.127z"/>
			<path fill="#FFFFFF" d="M172.578,260.291c0,3.865-2.677,5.549-5.204,5.549c-2.829,0-5.009-2.073-5.009-5.376
				c0-3.498,2.289-5.549,5.182-5.549C170.548,254.915,172.578,257.096,172.578,260.291z M164.287,260.399
				c0,2.289,1.317,4.016,3.174,4.016c1.813,0,3.174-1.706,3.174-4.059c0-1.771-0.885-4.016-3.131-4.016
				C165.259,256.34,164.287,258.413,164.287,260.399z"/>
			<path fill="#FFFFFF" d="M184.431,260.291c0,3.865-2.677,5.549-5.204,5.549c-2.829,0-5.009-2.073-5.009-5.376
				c0-3.498,2.289-5.549,5.182-5.549C182.401,254.915,184.431,257.096,184.431,260.291z M176.14,260.399
				c0,2.289,1.317,4.016,3.174,4.016c1.813,0,3.174-1.706,3.174-4.059c0-1.771-0.885-4.016-3.131-4.016
				C177.111,256.34,176.14,258.413,176.14,260.399z"/>
			<path fill="#FFFFFF" d="M186.826,250.273h1.9v15.33h-1.9V250.273z"/>
			<path fill="#FFFFFF" d="M194.037,252.216c0.022,0.648-0.453,1.166-1.209,1.166c-0.669,0-1.144-0.518-1.144-1.166
				c0-0.669,0.497-1.188,1.188-1.188C193.584,251.028,194.037,251.547,194.037,252.216z M191.921,265.603v-10.45h1.9v10.45H191.921z
				"/>
			<path fill="#FFFFFF" d="M196.973,257.981c0-1.08-0.021-1.965-0.086-2.829h1.684l0.108,1.728h0.043
				c0.518-0.993,1.727-1.965,3.455-1.965c1.446,0,3.692,0.863,3.692,4.448v6.24h-1.9v-6.024c0-1.684-0.626-3.087-2.418-3.087
				c-1.252,0-2.224,0.885-2.547,1.943c-0.086,0.238-0.13,0.562-0.13,0.885v6.283h-1.9V257.981z"/>
			<path fill="#FFFFFF" d="M217.959,255.152c-0.043,0.756-0.086,1.598-0.086,2.872v6.067c0,2.396-0.475,3.865-1.49,4.771
				c-1.015,0.95-2.483,1.252-3.8,1.252c-1.252,0-2.634-0.302-3.476-0.864l0.475-1.447c0.691,0.432,1.771,0.821,3.066,0.821
				c1.943,0,3.369-1.015,3.369-3.649v-1.166h-0.043c-0.583,0.972-1.706,1.749-3.325,1.749c-2.591,0-4.448-2.203-4.448-5.096
				c0-3.541,2.311-5.549,4.707-5.549c1.813,0,2.807,0.95,3.26,1.813h0.043l0.086-1.576H217.959z M215.994,259.276
				c0-0.324-0.021-0.604-0.108-0.864c-0.345-1.101-1.274-2.008-2.656-2.008c-1.813,0-3.109,1.533-3.109,3.951
				c0,2.051,1.036,3.757,3.087,3.757c1.166,0,2.224-0.734,2.634-1.943c0.108-0.324,0.151-0.691,0.151-1.015V259.276z"/>
		</g>
		<g enable-background="new    ">
			<path fill="#FFFFFF" d="M162.498,289.222c0.842,0.518,2.073,0.95,3.368,0.95c1.922,0,3.044-1.015,3.044-2.483
				c0-1.36-0.777-2.137-2.742-2.893c-2.375-0.842-3.843-2.073-3.843-4.124c0-2.267,1.878-3.951,4.707-3.951
				c1.49,0,2.569,0.346,3.217,0.712l-0.519,1.533c-0.475-0.259-1.446-0.691-2.764-0.691c-1.986,0-2.742,1.188-2.742,2.181
				c0,1.36,0.885,2.03,2.893,2.807c2.461,0.95,3.713,2.138,3.713,4.275c0,2.245-1.662,4.188-5.095,4.188
				c-1.403,0-2.937-0.41-3.714-0.928L162.498,289.222z"/>
			<path fill="#FFFFFF" d="M175.624,278.06v3.001h2.721v1.447h-2.721v5.635c0,1.295,0.367,2.029,1.425,2.029
				c0.497,0,0.863-0.064,1.101-0.129l0.086,1.425c-0.367,0.151-0.95,0.259-1.684,0.259c-0.885,0-1.598-0.281-2.051-0.799
				c-0.54-0.562-0.734-1.49-0.734-2.72v-5.7h-1.619v-1.447h1.619v-2.504L175.624,278.06z"/>
			<path fill="#FFFFFF" d="M186.269,291.511l-0.151-1.317h-0.065c-0.583,0.82-1.706,1.554-3.195,1.554
				c-2.116,0-3.195-1.49-3.195-3.001c0-2.526,2.245-3.908,6.283-3.886v-0.216c0-0.863-0.237-2.418-2.375-2.418
				c-0.972,0-1.986,0.302-2.72,0.777l-0.432-1.252c0.864-0.562,2.116-0.928,3.433-0.928c3.195,0,3.973,2.181,3.973,4.275v3.908
				c0,0.907,0.043,1.792,0.173,2.504H186.269z M185.988,286.178c-2.073-0.043-4.426,0.324-4.426,2.354
				c0,1.23,0.82,1.813,1.792,1.813c1.36,0,2.224-0.864,2.526-1.749c0.064-0.194,0.108-0.41,0.108-0.604V286.178z"/>
			<path fill="#FFFFFF" d="M193.176,278.06v3.001h2.721v1.447h-2.721v5.635c0,1.295,0.367,2.029,1.425,2.029
				c0.497,0,0.863-0.064,1.101-0.129l0.086,1.425c-0.367,0.151-0.95,0.259-1.684,0.259c-0.885,0-1.598-0.281-2.051-0.799
				c-0.54-0.562-0.734-1.49-0.734-2.72v-5.7H189.7v-1.447h1.619v-2.504L193.176,278.06z"/>
			<path fill="#FFFFFF" d="M199.092,286.631c0.043,2.569,1.684,3.627,3.584,3.627c1.36,0,2.181-0.237,2.893-0.54l0.324,1.36
				c-0.669,0.302-1.814,0.647-3.477,0.647c-3.217,0-5.139-2.116-5.139-5.268s1.857-5.635,4.901-5.635
				c3.412,0,4.318,3.001,4.318,4.923c0,0.389-0.043,0.691-0.065,0.885H199.092z M204.663,285.271
				c0.021-1.209-0.497-3.087-2.634-3.087c-1.921,0-2.764,1.77-2.915,3.087H204.663z"/>
		</g>
	</g>
</g>
<g id="hazium">
	<g>
		<path opacity="0.6" fill="#00A19A" stroke="#00A19A" stroke-width="3" stroke-miterlimit="10" enable-background="new    " d="
			M367.571,306.42h-68.765c-7.123,0-12.951-5.828-12.951-12.953v-44.906c0-7.125,5.828-12.955,12.951-12.955h68.765
			c7.123,0,12.955,5.83,12.955,12.955v44.906C380.526,300.592,374.694,306.42,367.571,306.42z"/>
		<g enable-background="new    ">
			<path fill="#FFFFFF" d="M301.195,260.871v6.088h7.039v-6.088h1.899v14.552h-1.899v-6.823h-7.039v6.823h-1.878v-14.552H301.195z"
				/>
			<path fill="#FFFFFF" d="M319.115,275.423l-0.152-1.317h-0.064c-0.583,0.82-1.705,1.554-3.195,1.554
				c-2.115,0-3.195-1.49-3.195-3.001c0-2.526,2.245-3.908,6.283-3.886v-0.216c0-0.863-0.238-2.418-2.375-2.418
				c-0.973,0-1.986,0.302-2.721,0.777l-0.432-1.252c0.863-0.562,2.115-0.928,3.433-0.928c3.195,0,3.973,2.181,3.973,4.275v3.908
				c0,0.907,0.044,1.792,0.173,2.504H319.115z M318.834,270.09c-2.072-0.043-4.426,0.324-4.426,2.354c0,1.23,0.82,1.813,1.791,1.813
				c1.361,0,2.225-0.864,2.527-1.749c0.064-0.194,0.107-0.41,0.107-0.604V270.09z"/>
			<path fill="#FFFFFF" d="M322.547,274.322l4.729-6.154c0.453-0.561,0.885-1.058,1.36-1.619v-0.043h-5.657v-1.533h7.967
				l-0.021,1.188l-4.663,6.067c-0.433,0.583-0.864,1.101-1.339,1.641v0.043h6.11v1.511h-8.485V274.322z"/>
			<path fill="#FFFFFF" d="M335.091,262.037c0.022,0.648-0.453,1.166-1.209,1.166c-0.669,0-1.144-0.518-1.144-1.166
				c0-0.669,0.496-1.188,1.188-1.188C334.638,260.849,335.091,261.368,335.091,262.037z M332.975,275.423v-10.45h1.9v10.45H332.975z
				"/>
			<path fill="#FFFFFF" d="M346.771,272.573c0,1.08,0.021,2.03,0.086,2.85h-1.684l-0.108-1.706h-0.043
				c-0.497,0.842-1.598,1.943-3.454,1.943c-1.642,0-3.606-0.907-3.606-4.577v-6.11h1.9v5.787c0,1.986,0.604,3.325,2.331,3.325
				c1.274,0,2.16-0.885,2.505-1.727c0.108-0.281,0.173-0.626,0.173-0.972v-6.413h1.9V272.573z"/>
			<path fill="#FFFFFF" d="M349.923,267.802c0-1.08-0.021-1.965-0.086-2.829h1.662l0.086,1.684h0.065
				c0.583-0.993,1.555-1.921,3.281-1.921c1.426,0,2.505,0.863,2.958,2.094h0.044c0.323-0.583,0.733-1.037,1.165-1.36
				c0.627-0.475,1.317-0.734,2.311-0.734c1.382,0,3.434,0.907,3.434,4.534v6.153h-1.857v-5.916c0-2.008-0.734-3.217-2.267-3.217
				c-1.08,0-1.922,0.799-2.246,1.728c-0.086,0.259-0.15,0.604-0.15,0.95v6.456h-1.857v-6.261c0-1.663-0.734-2.872-2.181-2.872
				c-1.188,0-2.051,0.95-2.354,1.9c-0.107,0.281-0.151,0.604-0.151,0.928v6.305h-1.856V267.802z"/>
		</g>
	</g>
</g>
<g id="co2">
	<g>
		<path opacity="0.6" fill="#00A19A" stroke="#00A19A" stroke-width="3" stroke-miterlimit="10" enable-background="new    " d="
			M505.123,306.419h-68.766c-7.123,0-12.949-5.828-12.949-12.953V248.56c0-7.125,5.826-12.955,12.949-12.955h68.766
			c7.125,0,12.955,5.83,12.955,12.955v44.906C518.078,300.591,512.248,306.419,505.123,306.419z"/>
		<g>
			<rect x="423.514" y="260.326" fill="none" width="79.127" height="27.636"/>
			<text transform="matrix(1 0 0 1 445.9707 279.4893)" fill="#FFFFFF" font-family="'MyriadPro-Regular'" font-size="26.9873">CO</text>
			<rect x="469.932" y="254.065" fill="none" width="29.471" height="20.186"/>
			<text transform="matrix(1 0 0 1 480.5303 265.5098)" fill="#FFFFFF" font-family="'MyriadPro-Regular'" font-size="16.1924">2</text>
		</g>
	</g>
</g>
<g id="clock">
	<g>
		<path opacity="0.7" fill="#00A19A" stroke="#00A19A" stroke-miterlimit="10" d="M675.802,223.213h-94.996
			c-5.699,0-10.362-4.664-10.362-10.364v-11.485c0-5.701,4.663-10.362,10.362-10.362h94.996c5.7,0,10.361,4.662,10.361,10.362
			v11.485C686.163,218.549,681.502,223.213,675.802,223.213z"/>
		<rect x="607.577" y="199.809" fill="none" width="41.453" height="14.593"/>
		<g enable-background="new    ">
			<path fill="#FFFFFF" d="M611.488,202.148h-0.033l-1.854,1l-0.278-1.099l2.329-1.247h1.23v10.662h-1.395V202.148z"/>
			<path fill="#FFFFFF" d="M621.234,211.465v-2.903h-4.954v-0.952l4.757-6.807h1.559v6.627h1.492v1.132h-1.492v2.903H621.234z
				 M621.234,207.43v-3.56c0-0.558,0.016-1.115,0.049-1.673h-0.049c-0.328,0.623-0.591,1.083-0.886,1.575l-2.608,3.625v0.033
				H621.234z"/>
			<path fill="#FFFFFF" d="M625.304,204.838c0-0.607,0.41-1.033,0.984-1.033s0.951,0.426,0.968,1.033
				c0,0.574-0.377,1.017-0.984,1.017C625.698,205.855,625.304,205.413,625.304,204.838z M625.304,210.629
				c0-0.607,0.41-1.034,0.984-1.034s0.951,0.427,0.968,1.034c0,0.574-0.377,1.017-0.984,1.017
				C625.698,211.646,625.304,211.203,625.304,210.629z"/>
			<path fill="#FFFFFF" d="M628.931,209.809c0.41,0.263,1.361,0.672,2.361,0.672c1.854,0,2.428-1.181,2.411-2.066
				c-0.016-1.493-1.361-2.133-2.755-2.133h-0.804v-1.083h0.804c1.05,0,2.378-0.541,2.378-1.804c0-0.853-0.541-1.607-1.87-1.607
				c-0.853,0-1.673,0.377-2.132,0.705l-0.378-1.05c0.558-0.41,1.641-0.82,2.789-0.82c2.1,0,3.051,1.247,3.051,2.542
				c0,1.099-0.656,2.034-1.969,2.509v0.033c1.313,0.262,2.379,1.247,2.379,2.739c0,1.706-1.329,3.199-3.888,3.199
				c-1.197,0-2.247-0.377-2.772-0.722L628.931,209.809z"/>
			<path fill="#FFFFFF" d="M644.089,206.02c0,3.625-1.345,5.626-3.707,5.626c-2.083,0-3.494-1.952-3.526-5.479
				c0-3.576,1.542-5.544,3.707-5.544C642.81,200.623,644.089,202.624,644.089,206.02z M638.299,206.184
				c0,2.772,0.853,4.347,2.165,4.347c1.477,0,2.182-1.722,2.182-4.445c0-2.625-0.673-4.347-2.165-4.347
				C639.217,201.738,638.299,203.28,638.299,206.184z"/>
		</g>
	</g>
</g>
<g id="floor_3">
	<g>
		<path opacity="0.6" fill="#00A19A" stroke="#00A19A" stroke-width="4" stroke-miterlimit="10" enable-background="new    " d="
			M676.665,93.759h-99.141c-5.699,0-10.363-4.664-10.363-10.362v-46.03c0-5.699,4.664-10.362,10.363-10.362h99.054
			c5.7,0,10.364,4.664,10.364,10.362v46.03C687.028,89.095,682.364,93.759,676.665,93.759z"/>
		<rect x="584.26" y="45.484" fill="none" width="86.359" height="37.135"/>
		<g enable-background="new    ">
			<path fill="#FFFFFF" d="M596.109,32.674h10.973v2.207h-8.343v6.771h7.708v2.177h-7.708v9.219h-2.63V32.674z"/>
			<path fill="#FFFFFF" d="M610.739,31.586h2.659v21.461h-2.659V31.586z"/>
			<path fill="#FFFFFF" d="M631.111,45.612c0,5.411-3.748,7.769-7.285,7.769c-3.96,0-7.013-2.902-7.013-7.527
				c0-4.896,3.204-7.769,7.255-7.769C628.27,38.085,631.111,41.138,631.111,45.612z M619.504,45.763
				c0,3.204,1.844,5.622,4.443,5.622c2.539,0,4.443-2.388,4.443-5.683c0-2.479-1.239-5.623-4.383-5.623
				S619.504,42.982,619.504,45.763z"/>
			<path fill="#FFFFFF" d="M647.706,45.612c0,5.411-3.748,7.769-7.285,7.769c-3.96,0-7.013-2.902-7.013-7.527
				c0-4.896,3.204-7.769,7.255-7.769C644.864,38.085,647.706,41.138,647.706,45.612z M636.099,45.763
				c0,3.204,1.844,5.622,4.443,5.622c2.539,0,4.443-2.388,4.443-5.683c0-2.479-1.239-5.623-4.383-5.623
				S636.099,42.982,636.099,45.763z"/>
			<path fill="#FFFFFF" d="M651.061,42.982c0-1.723-0.03-3.204-0.121-4.564h2.327l0.091,2.872h0.121
				c0.665-1.964,2.267-3.204,4.051-3.204c0.302,0,0.514,0.03,0.755,0.091v2.509c-0.271-0.06-0.544-0.09-0.906-0.09
				c-1.874,0-3.204,1.42-3.567,3.416c-0.061,0.363-0.12,0.786-0.12,1.239v7.799h-2.63V42.982z"/>
			<path fill="#FFFFFF" d="M617.313,86.266c0.756,0.484,2.509,1.24,4.353,1.24c3.416,0,4.474-2.177,4.443-3.809
				c-0.03-2.75-2.509-3.929-5.078-3.929h-1.481v-1.995h1.481c1.935,0,4.383-0.998,4.383-3.325c0-1.572-0.997-2.962-3.445-2.962
				c-1.572,0-3.084,0.695-3.93,1.3l-0.695-1.935c1.027-0.755,3.022-1.511,5.139-1.511c3.869,0,5.622,2.297,5.622,4.685
				c0,2.025-1.209,3.749-3.627,4.625v0.061c2.418,0.483,4.383,2.297,4.383,5.048c0,3.144-2.448,5.895-7.164,5.895
				c-2.206,0-4.141-0.695-5.108-1.33L617.313,86.266z"/>
		</g>
	</g>
</g>
<g id="play_day">
	<g>
		<path opacity="0.7" fill="#00A19A" d="M588.146,114.141c-9.757,0-17.702,7.945-17.702,17.703c0,9.759,7.945,17.705,17.702,17.705
			c9.76,0,17.705-7.945,17.705-17.705C605.851,122.086,597.905,114.141,588.146,114.141z M596.61,133.225l-10.537,7.254
			c-0.258,0.172-0.604,0.346-0.949,0.346c-0.26,0-0.518-0.086-0.776-0.174c-0.604-0.258-0.951-0.863-0.951-1.554v-14.509
			c0-0.603,0.347-1.208,0.951-1.554c0.604-0.259,1.208-0.259,1.812,0.086l10.537,7.254c0.432,0.346,0.777,0.863,0.777,1.382
			C597.388,132.362,597.128,132.88,596.61,133.225z"/>
		<rect x="613.708" y="122.69" fill="none" width="78.328" height="36.271"/>
		<g enable-background="new    ">
			<path fill="#00A19A" d="M614.941,123.384c0.688-0.115,1.591-0.213,2.739-0.213c1.41,0,2.443,0.328,3.1,0.918
				c0.607,0.525,0.968,1.329,0.968,2.313c0,1-0.295,1.788-0.853,2.362c-0.755,0.804-1.985,1.214-3.379,1.214
				c-0.427,0-0.82-0.016-1.148-0.098v4.429h-1.427V123.384z M616.368,128.715c0.312,0.082,0.705,0.115,1.181,0.115
				c1.723,0,2.772-0.837,2.772-2.362c0-1.46-1.033-2.165-2.608-2.165c-0.623,0-1.099,0.049-1.345,0.115V128.715z"/>
			<path fill="#00A19A" d="M623.621,122.662h1.443v11.646h-1.443V122.662z"/>
			<path fill="#00A19A" d="M631.89,134.308l-0.115-1h-0.049c-0.443,0.623-1.296,1.181-2.428,1.181c-1.607,0-2.428-1.132-2.428-2.28
				c0-1.919,1.706-2.969,4.773-2.953v-0.164c0-0.656-0.181-1.837-1.805-1.837c-0.738,0-1.509,0.229-2.066,0.59l-0.328-0.951
				c0.656-0.427,1.607-0.706,2.607-0.706c2.428,0,3.019,1.657,3.019,3.248v2.969c0,0.689,0.033,1.361,0.131,1.903H631.89z
				 M631.676,130.256c-1.574-0.033-3.362,0.246-3.362,1.788c0,0.935,0.623,1.378,1.361,1.378c1.033,0,1.689-0.656,1.919-1.329
				c0.05-0.147,0.082-0.312,0.082-0.459V130.256z"/>
			<path fill="#00A19A" d="M635.927,126.369l1.738,4.691c0.181,0.525,0.377,1.148,0.509,1.624h0.032
				c0.148-0.476,0.313-1.083,0.509-1.657l1.575-4.658h1.525l-2.165,5.659c-1.034,2.723-1.739,4.118-2.724,4.97
				c-0.705,0.624-1.41,0.87-1.771,0.935l-0.36-1.214c0.36-0.115,0.836-0.344,1.263-0.705c0.394-0.312,0.886-0.87,1.214-1.607
				c0.065-0.148,0.115-0.263,0.115-0.345s-0.033-0.197-0.099-0.377l-2.937-7.315H635.927z"/>
			<path fill="#00A19A" d="M646.658,123.4c0.869-0.131,1.902-0.229,3.034-0.229c2.051,0,3.511,0.476,4.479,1.378
				c0.983,0.902,1.558,2.182,1.558,3.969c0,1.805-0.558,3.281-1.591,4.298c-1.033,1.033-2.739,1.591-4.889,1.591
				c-1.017,0-1.869-0.049-2.591-0.131V123.4z M648.085,133.176c0.36,0.065,0.886,0.082,1.443,0.082c3.051,0,4.708-1.706,4.708-4.691
				c0.017-2.608-1.46-4.265-4.479-4.265c-0.738,0-1.296,0.065-1.673,0.147V133.176z"/>
			<path fill="#00A19A" d="M661.933,134.308l-0.115-1h-0.049c-0.443,0.623-1.296,1.181-2.428,1.181c-1.607,0-2.428-1.132-2.428-2.28
				c0-1.919,1.706-2.969,4.773-2.953v-0.164c0-0.656-0.181-1.837-1.805-1.837c-0.738,0-1.509,0.229-2.066,0.59l-0.328-0.951
				c0.656-0.427,1.607-0.706,2.607-0.706c2.428,0,3.019,1.657,3.019,3.248v2.969c0,0.689,0.033,1.361,0.131,1.903H661.933z
				 M661.719,130.256c-1.574-0.033-3.362,0.246-3.362,1.788c0,0.935,0.623,1.378,1.361,1.378c1.033,0,1.689-0.656,1.919-1.329
				c0.05-0.147,0.082-0.312,0.082-0.459V130.256z"/>
			<path fill="#00A19A" d="M665.97,126.369l1.738,4.691c0.181,0.525,0.377,1.148,0.509,1.624h0.032
				c0.148-0.476,0.313-1.083,0.509-1.657l1.575-4.658h1.525l-2.165,5.659c-1.034,2.723-1.739,4.118-2.724,4.97
				c-0.705,0.624-1.41,0.87-1.771,0.935l-0.36-1.214c0.36-0.115,0.836-0.344,1.263-0.705c0.394-0.312,0.886-0.87,1.214-1.607
				c0.065-0.148,0.115-0.263,0.115-0.345s-0.033-0.197-0.099-0.377l-2.937-7.315H665.97z"/>
		</g>
		<g opacity="0.7" enable-background="new    ">
			<path fill="none" stroke="#00A19A" stroke-miterlimit="10" d="M614.941,123.384c0.688-0.115,1.591-0.213,2.739-0.213
				c1.41,0,2.443,0.328,3.1,0.918c0.607,0.525,0.968,1.329,0.968,2.313c0,1-0.295,1.788-0.853,2.362
				c-0.755,0.804-1.985,1.214-3.379,1.214c-0.427,0-0.82-0.016-1.148-0.098v4.429h-1.427V123.384z M616.368,128.715
				c0.312,0.082,0.705,0.115,1.181,0.115c1.723,0,2.772-0.837,2.772-2.362c0-1.46-1.033-2.165-2.608-2.165
				c-0.623,0-1.099,0.049-1.345,0.115V128.715z"/>
			<path fill="none" stroke="#00A19A" stroke-miterlimit="10" d="M623.621,122.662h1.443v11.646h-1.443V122.662z"/>
			<path fill="none" stroke="#00A19A" stroke-miterlimit="10" d="M631.89,134.308l-0.115-1h-0.049
				c-0.443,0.623-1.296,1.181-2.428,1.181c-1.607,0-2.428-1.132-2.428-2.28c0-1.919,1.706-2.969,4.773-2.953v-0.164
				c0-0.656-0.181-1.837-1.805-1.837c-0.738,0-1.509,0.229-2.066,0.59l-0.328-0.951c0.656-0.427,1.607-0.706,2.607-0.706
				c2.428,0,3.019,1.657,3.019,3.248v2.969c0,0.689,0.033,1.361,0.131,1.903H631.89z M631.676,130.256
				c-1.574-0.033-3.362,0.246-3.362,1.788c0,0.935,0.623,1.378,1.361,1.378c1.033,0,1.689-0.656,1.919-1.329
				c0.05-0.147,0.082-0.312,0.082-0.459V130.256z"/>
			<path fill="none" stroke="#00A19A" stroke-miterlimit="10" d="M635.927,126.369l1.738,4.691c0.181,0.525,0.377,1.148,0.509,1.624
				h0.032c0.148-0.476,0.313-1.083,0.509-1.657l1.575-4.658h1.525l-2.165,5.659c-1.034,2.723-1.739,4.118-2.724,4.97
				c-0.705,0.624-1.41,0.87-1.771,0.935l-0.36-1.214c0.36-0.115,0.836-0.344,1.263-0.705c0.394-0.312,0.886-0.87,1.214-1.607
				c0.065-0.148,0.115-0.263,0.115-0.345s-0.033-0.197-0.099-0.377l-2.937-7.315H635.927z"/>
			<path fill="none" stroke="#00A19A" stroke-miterlimit="10" d="M646.658,123.4c0.869-0.131,1.902-0.229,3.034-0.229
				c2.051,0,3.511,0.476,4.479,1.378c0.983,0.902,1.558,2.182,1.558,3.969c0,1.805-0.558,3.281-1.591,4.298
				c-1.033,1.033-2.739,1.591-4.889,1.591c-1.017,0-1.869-0.049-2.591-0.131V123.4z M648.085,133.176
				c0.36,0.065,0.886,0.082,1.443,0.082c3.051,0,4.708-1.706,4.708-4.691c0.017-2.608-1.46-4.265-4.479-4.265
				c-0.738,0-1.296,0.065-1.673,0.147V133.176z"/>
			<path fill="none" stroke="#00A19A" stroke-miterlimit="10" d="M661.933,134.308l-0.115-1h-0.049
				c-0.443,0.623-1.296,1.181-2.428,1.181c-1.607,0-2.428-1.132-2.428-2.28c0-1.919,1.706-2.969,4.773-2.953v-0.164
				c0-0.656-0.181-1.837-1.805-1.837c-0.738,0-1.509,0.229-2.066,0.59l-0.328-0.951c0.656-0.427,1.607-0.706,2.607-0.706
				c2.428,0,3.019,1.657,3.019,3.248v2.969c0,0.689,0.033,1.361,0.131,1.903H661.933z M661.719,130.256
				c-1.574-0.033-3.362,0.246-3.362,1.788c0,0.935,0.623,1.378,1.361,1.378c1.033,0,1.689-0.656,1.919-1.329
				c0.05-0.147,0.082-0.312,0.082-0.459V130.256z"/>
			<path fill="none" stroke="#00A19A" stroke-miterlimit="10" d="M665.97,126.369l1.738,4.691c0.181,0.525,0.377,1.148,0.509,1.624
				h0.032c0.148-0.476,0.313-1.083,0.509-1.657l1.575-4.658h1.525l-2.165,5.659c-1.034,2.723-1.739,4.118-2.724,4.97
				c-0.705,0.624-1.41,0.87-1.771,0.935l-0.36-1.214c0.36-0.115,0.836-0.344,1.263-0.705c0.394-0.312,0.886-0.87,1.214-1.607
				c0.065-0.148,0.115-0.263,0.115-0.345s-0.033-0.197-0.099-0.377l-2.937-7.315H665.97z"/>
		</g>
	</g>
</g>
<g id="floor_2">
	<g>
		<path opacity="0.6" fill="#00A19A" stroke="#00A19A" stroke-width="4" stroke-miterlimit="10" enable-background="new    " d="
			M677.441-0.286h-99.053c-5.7,0-10.364-4.664-10.364-10.363v-46.029c0-5.7,4.664-10.363,10.364-10.363h99.053
			c5.7,0,10.364,4.663,10.364,10.363v46.029C687.806-4.95,683.142-0.286,677.441-0.286z"/>
		<rect x="584.26" y="-47.006" fill="none" width="86.359" height="37.135"/>
		<g enable-background="new    ">
			<path fill="#FFFFFF" d="M597.273-59.126h10.973v2.207h-8.343v6.771h7.708v2.177h-7.708v9.219h-2.63V-59.126z"/>
			<path fill="#FFFFFF" d="M611.903-60.214h2.659v21.461h-2.659V-60.214z"/>
			<path fill="#FFFFFF" d="M632.275-46.188c0,5.411-3.748,7.769-7.285,7.769c-3.96,0-7.013-2.902-7.013-7.527
				c0-4.897,3.204-7.769,7.255-7.769C629.434-53.715,632.275-50.662,632.275-46.188z M620.668-46.037
				c0,3.204,1.844,5.622,4.443,5.622c2.539,0,4.443-2.388,4.443-5.683c0-2.479-1.239-5.623-4.383-5.623
				S620.668-48.818,620.668-46.037z"/>
			<path fill="#FFFFFF" d="M648.87-46.188c0,5.411-3.748,7.769-7.285,7.769c-3.96,0-7.013-2.902-7.013-7.527
				c0-4.897,3.204-7.769,7.255-7.769C646.028-53.715,648.87-50.662,648.87-46.188z M637.263-46.037c0,3.204,1.844,5.622,4.443,5.622
				c2.539,0,4.443-2.388,4.443-5.683c0-2.479-1.239-5.623-4.383-5.623S637.263-48.818,637.263-46.037z"/>
			<path fill="#FFFFFF" d="M652.225-48.818c0-1.723-0.03-3.204-0.121-4.564h2.327l0.091,2.872h0.121
				c0.665-1.964,2.267-3.204,4.051-3.204c0.302,0,0.514,0.03,0.755,0.091v2.509c-0.271-0.06-0.544-0.09-0.906-0.09
				c-1.874,0-3.204,1.42-3.567,3.416c-0.061,0.363-0.12,0.786-0.12,1.239v7.799h-2.63V-48.818z"/>
			<path fill="#FFFFFF" d="M617.843-2.481v-1.632l2.086-2.025c5.018-4.776,7.284-7.315,7.314-10.277
				c0-1.995-0.967-3.839-3.899-3.839c-1.783,0-3.265,0.907-4.171,1.663l-0.847-1.874c1.36-1.149,3.295-1.995,5.563-1.995
				c4.231,0,6.015,2.902,6.015,5.713c0,3.627-2.63,6.56-6.771,10.55l-1.572,1.451v0.061h8.826v2.207H617.843z"/>
		</g>
	</g>
</g>
<g id="floor_1">
	<g>
		<path opacity="0.6" fill="#00A19A" stroke="#00A19A" stroke-width="4" stroke-miterlimit="10" enable-background="new    " d="
			M675.802-95.195h-99.055c-5.699,0-10.363-4.664-10.363-10.363v-46.03c0-5.699,4.664-10.362,10.363-10.362h99.055
			c5.7,0,10.361,4.663,10.361,10.362v46.03C686.163-99.858,681.502-95.195,675.802-95.195z"/>
		<rect x="584.26" y="-141.916" fill="none" width="86.359" height="37.134"/>
		<g enable-background="new    ">
			<path fill="#FFFFFF" d="M596.887-155.261h10.973v2.207h-8.343v6.771h7.708v2.177h-7.708v9.219h-2.63V-155.261z"/>
			<path fill="#FFFFFF" d="M611.517-156.349h2.659v21.461h-2.659V-156.349z"/>
			<path fill="#FFFFFF" d="M631.889-142.324c0,5.411-3.748,7.769-7.285,7.769c-3.96,0-7.013-2.902-7.013-7.527
				c0-4.896,3.204-7.769,7.255-7.769C629.047-149.851,631.889-146.797,631.889-142.324z M620.281-142.172
				c0,3.204,1.844,5.622,4.443,5.622c2.539,0,4.443-2.388,4.443-5.683c0-2.479-1.239-5.623-4.383-5.623
				S620.281-144.954,620.281-142.172z"/>
			<path fill="#FFFFFF" d="M648.483-142.324c0,5.411-3.748,7.769-7.285,7.769c-3.96,0-7.013-2.902-7.013-7.527
				c0-4.896,3.204-7.769,7.255-7.769C645.642-149.851,648.483-146.797,648.483-142.324z M636.876-142.172
				c0,3.204,1.844,5.622,4.443,5.622c2.539,0,4.443-2.388,4.443-5.683c0-2.479-1.239-5.623-4.383-5.623
				S636.876-144.954,636.876-142.172z"/>
			<path fill="#FFFFFF" d="M651.838-144.954c0-1.723-0.03-3.204-0.121-4.564h2.327l0.091,2.872h0.121
				c0.665-1.964,2.267-3.204,4.051-3.204c0.302,0,0.514,0.03,0.755,0.091v2.509c-0.271-0.06-0.544-0.09-0.906-0.09
				c-1.874,0-3.204,1.42-3.567,3.416c-0.061,0.363-0.12,0.786-0.12,1.239v7.799h-2.63V-144.954z"/>
			<path fill="#FFFFFF" d="M623.229-115.786h-0.061l-3.416,1.844l-0.514-2.025l4.292-2.297h2.268v19.648h-2.569V-115.786z"/>
		</g>
	</g>
</g>
</svg>
