<svg id="Layer_1" data-name="Layer 1" xmlns="http://www.w3.org/2000/svg" viewBox="0 0 616 360.5"><defs><style>.cls-1{fill:#fff;stroke:#1d1d1b;stroke-miterlimit:10;stroke-width:2px;}</style></defs><title>VAST_FloorPlan_F3</title><rect class="cls-1" x="1" y="1" width="614" height="358.5"/><rect class="cls-1" x="1" y="1" width="95" height="51"/><rect class="cls-1" x="1" y="52" width="47.5" height="80"/><rect class="cls-1" x="1" y="132" width="47.5" height="34.5"/><rect class="cls-1" x="1" y="166.5" width="47.5" height="78.5"/><rect class="cls-1" x="1" y="245" width="47.5" height="39"/><rect class="cls-1" x="1" y="284" width="47.5" height="75.5"/><rect class="cls-1" x="48.5" y="312" width="41.5" height="47.5"/><rect class="cls-1" x="90" y="312" width="64.5" height="47.5"/><rect class="cls-1" x="154.5" y="312" width="98.5" height="47.5"/><rect class="cls-1" x="253" y="312" width="33" height="47.5"/><rect class="cls-1" x="286" y="312" width="64.5" height="47.5"/><rect class="cls-1" x="350.5" y="312" width="32" height="47.5"/><rect class="cls-1" x="382.5" y="312" width="66" height="47.5"/><rect class="cls-1" x="96" y="1" width="32.5" height="51"/><rect class="cls-1" x="128.5" y="1" width="33.5" height="51"/><rect class="cls-1" x="162" y="1" width="77.5" height="51"/><rect class="cls-1" x="239.5" y="1" width="65" height="51"/><rect class="cls-1" x="304.5" y="1" width="32.5" height="51"/><rect class="cls-1" x="337" y="1" width="32.5" height="51"/><rect class="cls-1" x="369.5" y="1" width="63.5" height="51"/><rect class="cls-1" x="237" y="70.5" width="22.5" height="32"/><rect class="cls-1" x="259.5" y="70.5" width="22" height="32"/><rect class="cls-1" x="259.5" y="102.5" width="22" height="29.5"/><rect class="cls-1" x="237" y="102.5" width="22.5" height="29.5"/><rect class="cls-1" x="218" y="152" width="83.5" height="62"/><rect class="cls-1" x="299.5" y="70.5" width="21.25" height="32"/><rect class="cls-1" x="320.75" y="70.5" width="21.75" height="32"/><rect class="cls-1" x="320.75" y="102.5" width="21.75" height="29.5"/><rect class="cls-1" x="299.5" y="102.5" width="21.25" height="29.5"/><rect class="cls-1" x="360.5" y="70.5" width="22" height="32"/><rect class="cls-1" x="382.5" y="70.5" width="23" height="32"/><rect class="cls-1" x="382.5" y="102.5" width="23" height="29.5"/><rect class="cls-1" x="360.5" y="102.5" width="22" height="29.5"/><rect class="cls-1" x="301.5" y="152" width="81" height="31"/><rect class="cls-1" x="301.5" y="183" width="81" height="31"/><rect class="cls-1" x="357" y="214" width="25.5" height="77.5"/><rect class="cls-1" x="243.5" y="214" width="113.5" height="77.5"/><rect class="cls-1" x="69.25" y="70.5" width="48.25" height="32"/><rect class="cls-1" x="69.25" y="102.5" width="48.25" height="41.5"/><rect class="cls-1" x="69.25" y="144" width="48.25" height="33"/><rect class="cls-1" x="69.25" y="177" width="48.25" height="33.5"/><rect class="cls-1" x="69.25" y="210.5" width="48.25" height="81"/><rect class="cls-1" x="117.5" y="266.5" width="25" height="25"/><rect class="cls-1" x="117.5" y="210.5" width="25" height="56"/><rect class="cls-1" x="117.5" y="152" width="30" height="58.5"/><rect class="cls-1" x="147.5" y="152" width="22" height="58.5"/></svg>