<svg id="Layer_1" data-name="Layer 1" xmlns="http://www.w3.org/2000/svg" viewBox="0 0 616 360.67"><defs><style>.cls-1{fill:#fff;stroke:#1d1d1b;stroke-miterlimit:10;stroke-width:2px;}</style></defs><title>VAST_FloorPlan_F1</title><rect class="cls-1" x="1" y="1" width="614" height="358.67"/><rect class="cls-1" x="1" y="1" width="152" height="128"/><rect class="cls-1" x="1" y="129" width="48.67" height="33.33"/><rect class="cls-1" x="1" y="162.33" width="48.67" height="133.33"/><rect class="cls-1" x="1" y="295.67" width="48.67" height="64"/><rect class="cls-1" x="49.67" y="310.33" width="41.33" height="49.33"/><rect class="cls-1" x="91" y="310.33" width="62" height="49.33"/><rect class="cls-1" x="197" y="1" width="240" height="115.33"/><rect class="cls-1" x="461" y="152.33" width="24.67" height="59.33"/><rect class="cls-1" x="489.67" y="310.33" width="62.67" height="49.33"/><rect class="cls-1" x="552.33" y="310.33" width="62.67" height="49.33"/><rect class="cls-1" x="358.33" y="211.67" width="27.33" height="80"/><rect class="cls-1" x="245" y="211.67" width="113.33" height="80"/><rect class="cls-1" x="219" y="152.33" width="82.67" height="59.33"/><rect class="cls-1" x="301.67" y="152.33" width="84" height="29.67"/><rect class="cls-1" x="301.67" y="182" width="84" height="29.67"/><rect class="cls-1" x="122" y="152.33" width="25.67" height="59.33"/><rect class="cls-1" x="147.67" y="152.33" width="22.67" height="59.33"/></svg>