<?xml version="1.0" encoding="utf-8"?>
<!-- Generator: Adobe Illustrator 16.0.0, SVG Export Plug-In . SVG Version: 6.00 Build 0)  -->
<!DOCTYPE svg PUBLIC "-//W3C//DTD SVG 1.1//EN" "http://www.w3.org/Graphics/SVG/1.1/DTD/svg11.dtd">
<svg version="1.1" xmlns="http://www.w3.org/2000/svg" xmlns:xlink="http://www.w3.org/1999/xlink" x="0px" y="0px"
	 width="850.39px" height="1275.59px" viewBox="0 0 850.39 1275.59" enable-background="new 0 0 850.39 1275.59"
	 xml:space="preserve">
<g id="Layer_1">
</g>
<g id="F3_Z3">
	
		<rect x="354.667" y="525.667" fill="none" stroke="#000000" stroke-width="2" stroke-miterlimit="10" width="169.333" height="65.333"/>
</g>
<g id="F3_Z2">
	
		<rect x="213.333" y="458.333" fill="none" stroke="#000000" stroke-width="2" stroke-miterlimit="10" width="340" height="50.667"/>
</g>
<g id="F3_Z1">
	<rect x="118" y="458.333" fill="none" stroke="#000000" stroke-width="2" stroke-miterlimit="10" width="95.333" height="50.667"/>
</g>
<g id="F3_Z7">
	<rect x="118" y="741.667" fill="none" stroke="#000000" stroke-width="2" stroke-miterlimit="10" width="50.667" height="74.667"/>
</g>
<g id="F3_Z8">
	<rect x="118" y="509" fill="none" stroke="#000000" stroke-width="2" stroke-miterlimit="10" width="50.667" height="232.667"/>
</g>
<g id="F3_Z4">
	<rect x="336.667" y="607.666" fill="none" stroke="#000000" stroke-width="2" stroke-miterlimit="10" width="82" height="62.667"/>
</g>
<g id="F3_Z6">
	<rect x="168.667" y="766.333" fill="none" stroke="#000000" stroke-width="2" stroke-miterlimit="10" width="394" height="50"/>
</g>
<g id="F3_Z9">
	<rect x="186" y="670.334" fill="none" stroke="#000000" stroke-width="2" stroke-miterlimit="10" width="78" height="79.999"/>
</g>
<g id="F3_Z10">
	
		<rect x="186" y="529.666" fill="none" stroke="#000000" stroke-width="2" stroke-miterlimit="10" width="51.333" height="140.667"/>
</g>
<g id="F3_Z11B">
	<polygon fill="none" stroke="#000000" stroke-width="2" stroke-miterlimit="10" points="502.667,607.667 336.667,607.667 
		336.667,670.334 288,670.334 288,607.667 237.333,607.667 237.333,598 553.334,598 553.334,670.334 502.667,670.334 	"/>
</g>
<g id="F3_Z11A">
	<polygon fill="none" stroke="#000000" stroke-width="2" stroke-miterlimit="10" points="237.333,529.667 237.333,598 553.333,598 
		553.333,509 168.667,509 168.667,598 186,598 186,529.667 	"/>
</g>
<g id="F3_Z5">
	<rect x="361" y="670.333" fill="none" stroke="#000000" stroke-width="2" stroke-miterlimit="10" width="141.667" height="80"/>
</g>
<g id="F3_Z11C">
	<polygon fill="none" stroke="#000000" stroke-width="2" stroke-miterlimit="10" points="264,750.333 264,670.333 361,670.333 
		361,750.333 502.667,750.333 502.667,670.333 553.333,670.333 553.333,766.333 168.667,766.333 168.667,670.333 186,670.333 
		186,750.333 	"/>
</g>
<g id="F3_Z12">
	<polygon fill="none" stroke="#000000" stroke-width="2" stroke-miterlimit="10" points="562.667,766.333 562.667,816.333 
		732,816.333 732,458.333 553.334,458.333 553.334,766.333 	"/>
</g>
</svg>
