<svg id="Layer_1" data-name="Layer 1" xmlns="http://www.w3.org/2000/svg" viewBox="0 0 617.33 360.67"><defs><style>.cls-1{fill:none;stroke:#231f20;stroke-miterlimit:10;stroke-width:2px;}</style></defs><title>VAST_FloorPlan_F2</title><rect class="cls-1" x="1" y="1" width="615.33" height="358.67"/><rect class="cls-1" x="1" y="1" width="65.33" height="52"/><rect class="cls-1" x="1" y="53" width="50.67" height="46"/><rect class="cls-1" x="1" y="99" width="50.67" height="28.67"/><rect class="cls-1" x="1" y="127.67" width="50.67" height="34.67"/><rect class="cls-1" x="1" y="162.33" width="50.67" height="30.54"/><rect class="cls-1" x="1" y="192.87" width="50.67" height="33.46"/><rect class="cls-1" x="1" y="226.33" width="50.67" height="32"/><rect class="cls-1" x="1" y="258.33" width="50.67" height="38"/><rect class="cls-1" x="1" y="296.33" width="50.67" height="63.33"/><rect class="cls-1" x="51.67" y="312.33" width="40" height="47.33"/><rect class="cls-1" x="91.67" y="312.33" width="32.67" height="47.33"/><rect class="cls-1" x="124.33" y="312.33" width="33.33" height="47.33"/><rect class="cls-1" x="157.67" y="312.33" width="98" height="47.33"/><rect class="cls-1" x="255.67" y="312.33" width="30.67" height="47.33"/><rect class="cls-1" x="286.33" y="312.33" width="64.67" height="47.33"/><rect class="cls-1" x="351" y="312.33" width="32.67" height="47.33"/><rect class="cls-1" x="383.67" y="312.33" width="32.67" height="47.33"/><rect class="cls-1" x="416.33" y="312.33" width="32.67" height="47.33"/><rect class="cls-1" x="449" y="312.33" width="64.67" height="47.33"/><rect class="cls-1" x="513.67" y="312.33" width="39.33" height="47.33"/><rect class="cls-1" x="553" y="312.33" width="63.33" height="47.33"/><rect class="cls-1" x="567.67" y="261.67" width="48.67" height="50.67"/><rect class="cls-1" x="567.67" y="229" width="48.67" height="32.67"/><rect class="cls-1" x="567.67" y="192.87" width="48.67" height="36.13"/><rect class="cls-1" x="567.67" y="162.33" width="48.67" height="30.54"/><rect class="cls-1" x="567.67" y="130.33" width="48.67" height="32"/><rect class="cls-1" x="567.67" y="99" width="48.67" height="31.33"/><rect class="cls-1" x="567.67" y="67.67" width="48.67" height="31.33"/><rect class="cls-1" x="567.67" y="1" width="48.67" height="66.67"/><rect class="cls-1" x="533.33" y="1" width="34.33" height="52"/><rect class="cls-1" x="461" y="1" width="72.33" height="52"/><rect class="cls-1" x="428.33" y="1" width="32.67" height="52"/><rect class="cls-1" x="397" y="1" width="31.33" height="52"/><rect class="cls-1" x="364.33" y="1" width="32.67" height="52"/><rect class="cls-1" x="332.33" y="1" width="32" height="52"/><rect class="cls-1" x="299.67" y="1" width="32.67" height="52"/><rect class="cls-1" x="267.67" y="1" width="32" height="52"/><rect class="cls-1" x="235" y="1" width="32.67" height="52"/><rect class="cls-1" x="202.33" y="1" width="32.67" height="52"/><rect class="cls-1" x="169.67" y="1" width="32.67" height="52"/><rect class="cls-1" x="105" y="1" width="64.67" height="52"/><rect class="cls-1" x="66.33" y="1" width="38.67" height="52"/><rect class="cls-1" x="71.67" y="71.67" width="50" height="32"/><rect class="cls-1" x="71.67" y="103.67" width="50" height="41.33"/><rect class="cls-1" x="71.67" y="145" width="50" height="32.6"/><rect class="cls-1" x="71.67" y="177.6" width="50" height="32"/><rect class="cls-1" x="71.67" y="209.6" width="50" height="82.06"/><rect class="cls-1" x="121.67" y="268.33" width="23.33" height="23.33"/><rect class="cls-1" x="121.67" y="214.33" width="23.33" height="54"/><rect class="cls-1" x="121.67" y="152.33" width="28" height="62"/><rect class="cls-1" x="121.67" y="152.33" width="50.67" height="62"/><rect class="cls-1" x="137.33" y="71.67" width="48.67" height="32"/><rect class="cls-1" x="137.33" y="103.67" width="32.33" height="30"/><rect class="cls-1" x="169.67" y="103.67" width="32.67" height="30"/><rect class="cls-1" x="238.33" y="71.67" width="22.67" height="32"/><rect class="cls-1" x="238.33" y="103.67" width="22.67" height="30"/><rect class="cls-1" x="261" y="103.67" width="22.67" height="30"/><rect class="cls-1" x="261" y="71.67" width="22.67" height="32"/><rect class="cls-1" x="299.67" y="71.67" width="23.86" height="32"/><rect class="cls-1" x="323.53" y="71.67" width="21.47" height="32"/><rect class="cls-1" x="323.53" y="103.67" width="21.47" height="30"/><rect class="cls-1" x="299.67" y="103.67" width="23.86" height="30"/><rect class="cls-1" x="361.67" y="71.67" width="22" height="32"/><rect class="cls-1" x="383.67" y="103.67" width="22.67" height="30"/><rect class="cls-1" x="383.67" y="71.67" width="22.67" height="32"/><rect class="cls-1" x="361.67" y="103.67" width="22" height="30"/><rect class="cls-1" x="424.33" y="71.67" width="20.33" height="32"/><rect class="cls-1" x="444.67" y="71.67" width="23.67" height="32"/><rect class="cls-1" x="444.67" y="103.67" width="23.67" height="30"/><rect class="cls-1" x="424.33" y="103.67" width="20.33" height="30"/><rect class="cls-1" x="485.67" y="103.67" width="30" height="30"/><rect class="cls-1" x="515.67" y="103.67" width="34.83" height="30"/><rect class="cls-1" x="500.67" y="71.67" width="49.83" height="32"/><rect class="cls-1" x="218.67" y="152.33" width="84.33" height="62"/><rect class="cls-1" x="303" y="152.33" width="80.67" height="31"/><rect class="cls-1" x="303" y="183.33" width="80.67" height="31"/><rect class="cls-1" x="359" y="214.33" width="27.33" height="77.33"/><rect class="cls-1" x="245.67" y="214.33" width="113.33" height="77.33"/><rect class="cls-1" x="406.33" y="152.33" width="54.67" height="62"/><rect class="cls-1" x="461" y="152.33" width="24.67" height="62"/><rect class="cls-1" x="504.33" y="152.33" width="24" height="31"/><rect class="cls-1" x="528.33" y="152.33" width="19.33" height="31"/><rect class="cls-1" x="528.33" y="183.33" width="19.33" height="31"/><rect class="cls-1" x="504.33" y="183.33" width="24" height="31"/><rect class="cls-1" x="516.33" y="245.33" width="31.33" height="46.33"/><rect class="cls-1" x="485.67" y="245.33" width="30.67" height="46.33"/><rect class="cls-1" x="406.33" y="232.33" width="31" height="31"/><rect class="cls-1" x="437.33" y="232.33" width="31" height="31"/><rect class="cls-1" x="437.33" y="263.33" width="31" height="28.33"/><rect class="cls-1" x="406.33" y="263.33" width="31" height="28.33"/></svg>