<?xml version="1.0" encoding="utf-8"?>
<!-- Generator: Adobe Illustrator 16.0.0, SVG Export Plug-In . SVG Version: 6.00 Build 0)  -->
<!DOCTYPE svg PUBLIC "-//W3C//DTD SVG 1.1//EN" "http://www.w3.org/Graphics/SVG/1.1/DTD/svg11.dtd">
<svg version="1.1" id="Layer_1" xmlns="http://www.w3.org/2000/svg" xmlns:xlink="http://www.w3.org/1999/xlink" x="0px" y="0px"
	 width="708.662px" height="425.197px" viewBox="70.865 425.196 708.662 425.197"
	 enable-background="new 70.865 425.196 708.662 425.197" xml:space="preserve">
<rect x="117.333" y="457.667" fill="#FFFFFF" width="614" height="358.667"/>
<rect x="117.333" y="457.667" fill="none" stroke="#000000" stroke-width="5" stroke-miterlimit="10" width="614" height="358.667"/>
<rect x="117.333" y="457.667" fill="#FFFFFF" width="152" height="128"/>
<rect x="117.333" y="457.667" fill="none" stroke="#000000" stroke-width="5" stroke-miterlimit="10" width="152" height="128"/>
<rect x="117.333" y="585.667" fill="#FFFFFF" width="48.667" height="33.333"/>
<rect x="117.333" y="585.667" fill="none" stroke="#000000" stroke-width="5" stroke-miterlimit="10" width="48.667" height="33.333"/>
<rect x="117.333" y="619" fill="#FFFFFF" width="48.667" height="133.333"/>
<rect x="117.333" y="619" fill="none" stroke="#000000" stroke-width="5" stroke-miterlimit="10" width="48.667" height="133.333"/>
<rect x="117.333" y="752.333" fill="#FFFFFF" width="48.667" height="64"/>
<rect x="117.333" y="752.333" fill="none" stroke="#000000" stroke-width="5" stroke-miterlimit="10" width="48.667" height="64"/>
<rect x="166" y="767" fill="#FFFFFF" width="41.333" height="49.333"/>
<rect x="166" y="767" fill="none" stroke="#000000" stroke-width="5" stroke-miterlimit="10" width="41.333" height="49.333"/>
<rect x="207.333" y="767" fill="#FFFFFF" width="62" height="49.333"/>
<rect x="207.333" y="767" fill="none" stroke="#000000" stroke-width="5" stroke-miterlimit="10" width="62" height="49.333"/>
<rect x="313.333" y="457.667" fill="#FFFFFF" width="240" height="115.333"/>
<rect x="313.333" y="457.667" fill="none" stroke="#000000" stroke-width="5" stroke-miterlimit="10" width="240" height="115.333"/>
<rect x="577.333" y="609" fill="#FFFFFF" width="24.668" height="59.333"/>
<rect x="577.333" y="609" fill="none" stroke="#000000" stroke-width="5" stroke-miterlimit="10" width="24.668" height="59.333"/>
<rect x="606.001" y="767" fill="#FFFFFF" width="62.666" height="49.333"/>
<rect x="606.001" y="767" fill="none" stroke="#000000" stroke-width="5" stroke-miterlimit="10" width="62.666" height="49.333"/>
<rect x="668.667" y="767" fill="#FFFFFF" width="62.668" height="49.333"/>
<rect x="668.667" y="767" fill="none" stroke="#000000" stroke-width="5" stroke-miterlimit="10" width="62.668" height="49.333"/>
<rect x="474.667" y="668.333" fill="#FFFFFF" width="27.334" height="80"/>
<rect x="474.667" y="668.333" fill="none" stroke="#000000" stroke-width="5" stroke-miterlimit="10" width="27.334" height="80"/>
<rect x="361.335" y="668.333" fill="#FFFFFF" width="113.333" height="80"/>
<rect x="361.335" y="668.333" fill="none" stroke="#000000" stroke-width="5" stroke-miterlimit="10" width="113.333" height="80"/>
<rect x="335.333" y="609" fill="#FFFFFF" width="82.668" height="59.333"/>
<rect x="335.333" y="609" fill="none" stroke="#000000" stroke-width="5" stroke-miterlimit="10" width="82.668" height="59.333"/>
<rect x="418.001" y="609" fill="#FFFFFF" width="84" height="29.667"/>
<rect x="418.001" y="609" fill="none" stroke="#000000" stroke-width="5" stroke-miterlimit="10" width="84" height="29.667"/>
<rect x="418.001" y="638.667" fill="#FFFFFF" width="84" height="29.667"/>
<rect x="418.001" y="638.667" fill="none" stroke="#000000" stroke-width="5" stroke-miterlimit="10" width="84" height="29.667"/>
<rect x="238.333" y="609" fill="#FFFFFF" width="25.667" height="59.333"/>
<rect x="238.333" y="609" fill="none" stroke="#000000" stroke-width="5" stroke-miterlimit="10" width="25.667" height="59.333"/>
<rect x="264" y="609" fill="#FFFFFF" width="22.667" height="59.333"/>
<rect x="264" y="609" fill="none" stroke="#000000" stroke-width="5" stroke-miterlimit="10" width="22.667" height="59.333"/>
</svg>
