<?xml version="1.0" encoding="utf-8"?>
<!-- Generator: Adobe Illustrator 16.0.0, SVG Export Plug-In . SVG Version: 6.00 Build 0)  -->
<!DOCTYPE svg PUBLIC "-//W3C//DTD SVG 1.1//EN" "http://www.w3.org/Graphics/SVG/1.1/DTD/svg11.dtd">
<svg version="1.1" xmlns="http://www.w3.org/2000/svg" xmlns:xlink="http://www.w3.org/1999/xlink" x="0px" y="0px"
	 width="708.661px" height="425.197px" viewBox="0 0 708.661 425.197" enable-background="new 0 0 708.661 425.197"
	 xml:space="preserve">
<g id="Layer_1">
</g>
<g id="F1_Z7_L">
	<polygon id="zone7" fill="none" points="95.802,339.136 198.469,339.136 198.469,390.469 46.469,390.469 46.469,159.803 
		95.802,159.803 	"/>
</g>
<g id="F1_Z8B_L">
	<polygon id="zone8b" fill="none" points="289.136,247.136 289.136,324.469 429.803,324.469 429.803,247.136 532.469,247.136 
		532.469,390.469 198.469,390.469 198.469,339.136 95.803,339.136 95.803,247.136 	"/>
</g>
<g id="F1_Z8A_L">
	<polygon id="zone8a" fill="none" points="483.136,149.803 483.136,33.136 532.469,33.136 532.469,247.136 429.803,247.136 
		429.803,181.803 264.469,181.803 264.469,247.136 95.803,247.136 95.803,159.803 198.469,159.803 198.469,33.136 241.803,33.136 
		241.803,149.803 	"/>
</g>
<g id="F1_Z5_L">
	<rect id="zone5" x="289.136" y="247.136" fill="none" width="140.667" height="77.333"/>
</g>
<g id="F1_Z6_L">
	<rect id="zone6" x="264.47" y="181.803" fill="none" width="165.333" height="65.333"/>
</g>
<g id="F1_Z4_L">
	<rect id="zone4" x="532.469" y="339.136" fill="none" width="127.333" height="51.333"/>
</g>
<g id="F1_Z3_L">
	<rect id="zone3" x="532.47" y="33.136" fill="none" width="127.333" height="306"/>
</g>
<g id="F1_Z2_L">
	<rect id="zone2" x="241.803" y="33.136" fill="none" width="241.333" height="116.667"/>
</g>
<g id="F1_Z1_L">
	<rect id="zone1" x="46.469" y="33.136" fill="none" width="152" height="126.667"/>
</g>
</svg>
