<svg id="Layer_1" data-name="Layer 1" xmlns="http://www.w3.org/2000/svg" viewBox="0 0 974.5 666.75"><defs><style>.cls-1,.cls-13,.cls-18,.cls-21,.cls-22,.cls-5,.cls-6,.cls-8{fill:#00a19a;}.cls-1,.cls-12,.cls-13,.cls-18,.cls-22,.cls-5,.cls-6,.cls-8{stroke:#00a19a;}.cls-1,.cls-10,.cls-11,.cls-12,.cls-13,.cls-14,.cls-15,.cls-16,.cls-17,.cls-18,.cls-2,.cls-22,.cls-23,.cls-3,.cls-4,.cls-5,.cls-6,.cls-8,.cls-9{stroke-miterlimit:10;}.cls-1{stroke-width:6px;opacity:0.2;}.cls-11,.cls-2,.cls-3,.cls-4{fill:none;}.cls-11,.cls-2,.cls-3{stroke:#e30613;}.cls-11,.cls-16,.cls-2,.cls-5{stroke-width:4px;}.cls-3,.cls-4{stroke-width:2px;}.cls-4{stroke:#1d1d1b;}.cls-11,.cls-4{opacity:0.5;}.cls-12,.cls-13,.cls-5,.cls-6,.cls-8{opacity:0.6;}.cls-14,.cls-6{font-size:20px;}.cls-10,.cls-12,.cls-13,.cls-14,.cls-15,.cls-17,.cls-19,.cls-22,.cls-23,.cls-6,.cls-9{font-family:Myriad Pro;}.cls-7{letter-spacing:-1px;}.cls-8{stroke-width:3px;}.cls-9{font-size:25px;}.cls-10,.cls-14,.cls-15,.cls-17,.cls-19,.cls-23,.cls-9{fill:#fff;}.cls-10,.cls-14,.cls-15,.cls-17,.cls-23,.cls-9{stroke:#fff;}.cls-10,.cls-12,.cls-13{font-size:15px;}.cls-12{fill:#1d1d1b;}.cls-15{font-size:35px;}.cls-16{fill:#ffed00;stroke:#ffed00;}.cls-17,.cls-19{font-size:10px;}.cls-18{opacity:0.8;}.cls-20{white-space:pre;}.cls-22{font-size:19px;}.cls-23{font-size:4px;}</style></defs><title>Design_on_click</title><rect class="cls-1" x="157.17" y="161.04" width="634.38" height="376.56" rx="12" ry="12"/><polygon class="cls-2" points="216.17 220.09 216.17 238.09 296.17 238.09 295.5 168.75 166.83 169.42 168.17 220.09 216.17 220.09"/><polygon class="cls-2" points="216.17 238.09 282.5 238.09 282.5 376.08 234.17 376.08 234.17 459.42 286.17 459.42 286.17 434.75 309.5 434.75 309.5 477.42 255.5 477.42 255.5 526.09 166.83 527.42 168.17 220.09 216.17 220.09 216.17 238.09"/><rect class="cls-3" x="234.17" y="376.09" width="52" height="83.33"/><rect class="cls-2" x="286.17" y="319.42" width="50" height="63.26"/><rect class="cls-3" x="384.83" y="319.42" width="83.33" height="62.67"/><polyline class="cls-2" points="288.17 376.08 288.17 434.75 311.5 434.75 311.5 477.42 257.5 477.42 257.5 526.09 421.5 527.42 420.83 459.42 410.17 459.42 410.17 382.08 386.83 382.08 386.83 319.42 407.5 319.42 407.5 299.42 428.5 299.42 428.5 238.09 407.5 238.09 407.5 168.75 297.5 168.75 298.17 238.09 284.5 238.09 284.5 319.42 338.17 319.42 338.17 376.08 284.5 376.08"/><polygon class="cls-2" points="405.5 238.09 426.5 238.09 426.5 299.42 405.5 299.42 405.5 319.42 468.17 319.42 468.17 382.08 408.17 382.08 408.17 459.42 418.83 459.42 419.5 527.42 614.83 527.42 614.83 475.42 600.17 476.75 598.83 168.75 405.5 168.75 405.5 238.09"/><polygon class="cls-2" points="600.17 476.75 614.83 475.42 614.83 527.42 781.5 527.42 781.5 168.75 598.83 168.75 600.17 476.75"/><rect class="cls-4" x="166.83" y="169.34" width="615.33" height="358.67"/><rect class="cls-4" x="166.83" y="169.34" width="65.33" height="52"/><rect class="cls-4" x="166.83" y="221.34" width="50.67" height="46"/><rect class="cls-4" x="166.83" y="267.34" width="50.67" height="28.67"/><rect class="cls-4" x="166.83" y="296.01" width="50.67" height="34.67"/><rect class="cls-4" x="166.83" y="330.68" width="50.67" height="30.54"/><rect class="cls-4" x="166.83" y="361.21" width="50.67" height="33.46"/><rect class="cls-4" x="166.83" y="394.68" width="50.67" height="32"/><rect class="cls-4" x="166.83" y="426.68" width="50.67" height="38"/><rect class="cls-4" x="166.83" y="464.68" width="50.67" height="63.33"/><rect class="cls-4" x="217.5" y="480.68" width="40" height="47.33"/><rect class="cls-4" x="257.5" y="480.68" width="32.67" height="47.33"/><rect class="cls-4" x="290.17" y="480.68" width="33.33" height="47.33"/><rect class="cls-4" x="323.5" y="480.68" width="98" height="47.33"/><rect class="cls-4" x="421.5" y="480.68" width="30.67" height="47.33"/><rect class="cls-4" x="452.17" y="480.68" width="64.67" height="47.33"/><rect class="cls-4" x="516.83" y="480.68" width="32.67" height="47.33"/><rect class="cls-4" x="549.5" y="480.68" width="32.67" height="47.33"/><rect class="cls-4" x="582.17" y="480.68" width="32.67" height="47.33"/><rect class="cls-4" x="614.83" y="480.68" width="64.67" height="47.33"/><rect class="cls-4" x="679.5" y="480.68" width="39.33" height="47.33"/><rect class="cls-4" x="718.83" y="480.68" width="63.33" height="47.33"/><rect class="cls-4" x="733.5" y="430.01" width="48.67" height="50.67"/><rect class="cls-4" x="733.5" y="397.34" width="48.67" height="32.67"/><rect class="cls-4" x="733.5" y="361.21" width="48.67" height="36.13"/><rect class="cls-4" x="733.5" y="330.68" width="48.67" height="30.54"/><rect class="cls-4" x="733.5" y="298.68" width="48.67" height="32"/><rect class="cls-4" x="733.5" y="267.34" width="48.67" height="31.33"/><rect class="cls-4" x="733.5" y="236.01" width="48.67" height="31.33"/><rect class="cls-4" x="733.5" y="169.34" width="48.67" height="66.67"/><rect class="cls-4" x="699.17" y="169.34" width="34.33" height="52"/><rect class="cls-4" x="626.83" y="169.34" width="72.33" height="52"/><rect class="cls-4" x="594.17" y="169.34" width="32.67" height="52"/><rect class="cls-4" x="562.83" y="169.34" width="31.33" height="52"/><rect class="cls-4" x="530.17" y="169.34" width="32.67" height="52"/><rect class="cls-4" x="498.17" y="169.34" width="32" height="52"/><rect class="cls-4" x="465.5" y="169.34" width="32.67" height="52"/><rect class="cls-4" x="433.5" y="169.34" width="32" height="52"/><rect class="cls-4" x="400.83" y="169.34" width="32.67" height="52"/><rect class="cls-4" x="368.17" y="169.34" width="32.67" height="52"/><rect class="cls-4" x="335.5" y="169.34" width="32.67" height="52"/><rect class="cls-4" x="270.83" y="169.34" width="64.67" height="52"/><rect class="cls-4" x="232.17" y="169.34" width="38.67" height="52"/><rect class="cls-4" x="237.5" y="240.01" width="50" height="32"/><rect class="cls-4" x="237.5" y="272.01" width="50" height="41.33"/><rect class="cls-4" x="237.5" y="313.34" width="50" height="32.6"/><rect class="cls-4" x="237.5" y="345.94" width="50" height="32"/><rect class="cls-4" x="237.5" y="377.94" width="50" height="82.06"/><rect class="cls-4" x="287.5" y="436.68" width="23.33" height="23.33"/><rect class="cls-4" x="287.5" y="382.68" width="23.33" height="54"/><rect class="cls-4" x="287.5" y="320.68" width="28" height="62"/><rect class="cls-4" x="287.5" y="320.68" width="50.67" height="62"/><rect class="cls-4" x="303.17" y="240.01" width="48.67" height="32"/><rect class="cls-4" x="303.17" y="272.01" width="32.33" height="30"/><rect class="cls-4" x="335.5" y="272.01" width="32.67" height="30"/><rect class="cls-4" x="404.17" y="240.01" width="22.67" height="32"/><rect class="cls-4" x="404.17" y="272.01" width="22.67" height="30"/><rect class="cls-4" x="426.83" y="272.01" width="22.67" height="30"/><rect class="cls-4" x="426.83" y="240.01" width="22.67" height="32"/><rect class="cls-4" x="465.5" y="240.01" width="23.86" height="32"/><rect class="cls-4" x="489.36" y="240.01" width="21.47" height="32"/><rect class="cls-4" x="489.36" y="272.01" width="21.47" height="30"/><rect class="cls-4" x="465.5" y="272.01" width="23.86" height="30"/><rect class="cls-4" x="527.5" y="240.01" width="22" height="32"/><rect class="cls-4" x="549.5" y="272.01" width="22.67" height="30"/><rect class="cls-4" x="549.5" y="240.01" width="22.67" height="32"/><rect class="cls-4" x="527.5" y="272.01" width="22" height="30"/><rect class="cls-4" x="590.17" y="240.01" width="20.33" height="32"/><rect class="cls-4" x="610.5" y="240.01" width="23.67" height="32"/><rect class="cls-4" x="610.5" y="272.01" width="23.67" height="30"/><rect class="cls-4" x="590.17" y="272.01" width="20.33" height="30"/><rect class="cls-4" x="651.5" y="272.01" width="30" height="30"/><rect class="cls-4" x="681.5" y="272.01" width="34.83" height="30"/><rect class="cls-4" x="666.5" y="240.01" width="49.83" height="32"/><rect class="cls-4" x="384.5" y="320.68" width="84.33" height="62"/><rect class="cls-4" x="468.83" y="320.68" width="80.67" height="31"/><rect class="cls-4" x="468.83" y="351.68" width="80.67" height="31"/><rect class="cls-4" x="524.83" y="382.68" width="27.33" height="77.33"/><rect class="cls-4" x="411.5" y="382.68" width="113.33" height="77.33"/><rect class="cls-4" x="572.17" y="320.68" width="54.67" height="62"/><rect class="cls-4" x="626.83" y="320.68" width="24.67" height="62"/><rect class="cls-4" x="670.17" y="320.68" width="24" height="31"/><rect class="cls-4" x="694.17" y="320.68" width="19.33" height="31"/><rect class="cls-4" x="694.17" y="351.68" width="19.33" height="31"/><rect class="cls-4" x="670.17" y="351.68" width="24" height="31"/><rect class="cls-4" x="682.17" y="413.68" width="31.33" height="46.33"/><rect class="cls-4" x="651.5" y="413.68" width="30.67" height="46.33"/><rect class="cls-4" x="572.17" y="400.68" width="31" height="31"/><rect class="cls-4" x="603.17" y="400.68" width="31" height="31"/><rect class="cls-4" x="603.17" y="431.68" width="31" height="28.33"/><rect class="cls-4" x="572.17" y="431.68" width="31" height="28.33"/><line class="cls-5" x1="823.93" y1="120.91" x2="962.65" y2="120.91"/><line class="cls-5" x1="893.29" y1="120.91" x2="893.29" y2="55.32"/><rect class="cls-5" x="822.58" y="158.71" width="138.72" height="77.3" rx="12" ry="12"/><text class="cls-6" transform="translate(838.86 80.23)">P<tspan x="10.32" y="0">r</tspan><tspan x="16.66" y="0">o</tspan><tspan x="27.36" y="0">x</tspan><tspan x="-7.11" y="24">Z</tspan><tspan x="3.71" y="24">ones</tspan></text><text class="cls-6" transform="translate(909.14 80.23)">H<tspan class="cls-7" x="13.04" y="0">V</tspan><tspan x="23.06" y="0">A</tspan><tspan x="35" y="0">C</tspan><tspan x="-2.12" y="24">Z</tspan><tspan x="8.7" y="24">ones</tspan></text><rect class="cls-8" x="372.64" y="55.32" width="87.71" height="65.6" rx="12" ry="12"/><rect class="cls-8" x="699.01" y="55.32" width="87.71" height="65.6" rx="12" ry="12"/><rect class="cls-8" x="479.14" y="55.32" width="87.71" height="65.6" rx="12" ry="12"/><rect class="cls-8" x="589.07" y="55.32" width="87.71" height="65.6" rx="12" ry="12"/><text class="cls-9" transform="translate(720.23 95.97)">C<tspan x="13.97" y="0">O</tspan></text><text class="cls-10" transform="translate(751.99 83.02)">2</text><line class="cls-8" x1="157.17" y1="567.42" x2="157.17" y2="604.75"/><line class="cls-8" x1="190.45" y1="567.42" x2="190.45" y2="604.75"/><line class="cls-8" x1="190.45" y1="567.42" x2="190.45" y2="604.75"/><line class="cls-8" x1="223.73" y1="567.42" x2="223.73" y2="604.75"/><line class="cls-8" x1="223.73" y1="567.42" x2="223.73" y2="604.75"/><line class="cls-8" x1="257.01" y1="567.42" x2="257.01" y2="604.75"/><line class="cls-8" x1="257.01" y1="567.42" x2="257.01" y2="604.75"/><line class="cls-8" x1="290.29" y1="567.42" x2="290.29" y2="604.75"/><line class="cls-8" x1="289.69" y1="567.42" x2="289.69" y2="604.75"/><line class="cls-8" x1="322.97" y1="567.42" x2="322.97" y2="604.75"/><line class="cls-8" x1="322.97" y1="567.42" x2="322.97" y2="604.75"/><line class="cls-8" x1="356.25" y1="567.42" x2="356.25" y2="604.75"/><line class="cls-8" x1="356.25" y1="567.42" x2="356.25" y2="604.75"/><line class="cls-8" x1="389.53" y1="567.42" x2="389.53" y2="604.75"/><line class="cls-8" x1="389.53" y1="567.42" x2="389.53" y2="604.75"/><line class="cls-8" x1="422.8" y1="567.42" x2="422.8" y2="604.75"/><line class="cls-8" x1="422.8" y1="567.42" x2="422.8" y2="604.75"/><line class="cls-8" x1="456.08" y1="567.42" x2="456.08" y2="604.75"/><line class="cls-8" x1="456.08" y1="567.42" x2="456.08" y2="604.75"/><line class="cls-8" x1="489.36" y1="567.42" x2="489.36" y2="604.75"/><line class="cls-8" x1="489.36" y1="567.42" x2="489.36" y2="604.75"/><line class="cls-8" x1="522.64" y1="567.42" x2="522.64" y2="604.75"/><line class="cls-8" x1="522.64" y1="567.42" x2="522.64" y2="604.75"/><line class="cls-8" x1="555.92" y1="567.42" x2="555.92" y2="604.75"/><line class="cls-8" x1="555.92" y1="567.42" x2="555.92" y2="604.75"/><line class="cls-8" x1="555.92" y1="567.42" x2="555.92" y2="604.75"/><line class="cls-8" x1="589.2" y1="567.42" x2="589.2" y2="604.75"/><line class="cls-8" x1="589.2" y1="567.42" x2="589.2" y2="604.75"/><line class="cls-8" x1="622.48" y1="567.42" x2="622.48" y2="604.75"/><line class="cls-8" x1="622.48" y1="567.42" x2="622.48" y2="604.75"/><line class="cls-8" x1="655.76" y1="567.42" x2="655.76" y2="604.75"/><line class="cls-8" x1="655.76" y1="567.42" x2="655.76" y2="604.75"/><line class="cls-8" x1="689.04" y1="567.42" x2="689.04" y2="604.75"/><line class="cls-8" x1="689.04" y1="567.42" x2="689.04" y2="604.75"/><line class="cls-8" x1="722.32" y1="567.42" x2="722.32" y2="604.75"/><line class="cls-8" x1="722.32" y1="567.42" x2="722.32" y2="604.75"/><line class="cls-8" x1="755.6" y1="567.42" x2="755.6" y2="604.75"/><line class="cls-8" x1="755.6" y1="567.42" x2="755.6" y2="604.75"/><line class="cls-8" x1="788.88" y1="567.42" x2="788.88" y2="604.75"/><path class="cls-11" d="M467,941.31a13.27,13.27,0,0,1-26.53,0c0-7.19,13.27-36.31,13.27-36.31S467,934.12,467,941.31Z" transform="translate(-163.43 -289.58)"/><text class="cls-12" transform="translate(285.84 653.32)">5</text><text class="cls-13" transform="translate(123.08 580.48)">D<tspan x="9.99" y="0">a</tspan><tspan x="17.1" y="0">y</tspan><tspan x="8.23" y="18">1</tspan></text><text class="cls-13" transform="translate(796.83 580.48)">D<tspan x="9.99" y="0">a</tspan><tspan x="17.1" y="0">y</tspan><tspan x="4.39" y="18">20</tspan></text><rect class="cls-8" x="263.67" y="55.32" width="87.71" height="65.6" rx="12" ry="12"/><rect class="cls-8" x="157.17" y="55.32" width="87.71" height="65.6" rx="12" ry="12"/><rect class="cls-5" x="824.45" y="268.65" width="138.72" height="77.3" rx="12" ry="12"/><rect class="cls-5" x="823.51" y="377.53" width="138.72" height="77.3" rx="12" ry="12"/><text class="cls-14" transform="translate(600.02 92.2)">Hazium</text><text class="cls-14" transform="translate(490.49 83.11)">C<tspan x="11.38" y="0">ooling</tspan><tspan x="11.26" y="24">S</tspan><tspan x="21.06" y="24">t</tspan><tspan x="27.68" y="24">a</tspan><tspan x="37.24" y="24">t</tspan><tspan x="43.74" y="24">e</tspan></text><text class="cls-14" transform="translate(391.41 92.2)"><tspan class="cls-7">T</tspan><tspan x="8.52" y="0">emp</tspan></text><text class="cls-14" transform="translate(285.1 80.03)">T<tspan x="9.04" y="0">r</tspan><tspan x="15.48" y="0">ack</tspan><tspan x="10.92" y="24">A</tspan><tspan x="23.1" y="24">ll</tspan></text><text class="cls-14" transform="translate(179.3 80.79)">T<tspan x="9.04" y="0">r</tspan><tspan x="15.48" y="0">ack</tspan><tspan x="-6.62" y="24">P</tspan><tspan x="3.52" y="24">erson</tspan></text><text class="cls-15" transform="translate(843.31 206.77)">F<tspan x="16.45" y="0">loor 1</tspan></text><text class="cls-15" transform="translate(843.31 316.69)">F<tspan x="16.45" y="0">loor 2</tspan></text><text class="cls-15" transform="translate(843.31 423.77)">F<tspan x="16.45" y="0">loor 3</tspan></text><polygon class="cls-16" points="177.86 46.49 157.21 45.66 144.54 61.99 139.27 42.34 119.81 35.75 137.2 24.43 137.84 4.03 153.86 16.68 173.72 10.67 166.23 29.8 177.86 46.49"/><text class="cls-17" transform="translate(137.59 40.7) rotate(-31)">On<tspan x="12.44" y="0">-</tspan><tspan x="15.69" y="0">click</tspan></text><rect class="cls-18" x="0.5" y="55.32" width="126.88" height="184.69" rx="12" ry="12"/><text class="cls-19" transform="translate(33.24 70.79)">S<tspan x="4.99" y="0">ea</tspan><tspan x="14.82" y="0">r</tspan><tspan x="17.99" y="0">ch person:</tspan><tspan x="23.16" y="24">B</tspan><tspan x="28.62" y="24">o</tspan><tspan x="33.87" y="24">..</tspan></text><text class="cls-19" transform="translate(15.17 123.85)">B<tspan x="5.46" y="0">ob </tspan><tspan x="18.76" y="0">C</tspan><tspan x="24.53" y="0">r</tspan><tspan x="27.75" y="0">a</tspan><tspan x="32.49" y="0">wly</tspan><tspan x="0" y="12">B</tspan><tspan x="5.46" y="12">o hersch</tspan><tspan x="0" y="24">B</tspan><tspan x="5.46" y="24">obbet</tspan><tspan x="30.65" y="24">t</tspan><tspan x="33.9" y="24">e the builder </tspan><tspan x="0" y="36">B</tspan><tspan class="cls-20" x="5.46" y="36">obbi  plop</tspan><tspan x="0" y="48">B</tspan><tspan class="cls-20" x="5.46" y="48">obbie  </tspan><tspan x="33.92" y="48">k</tspan><tspan x="38.79" y="48">a</tspan><tspan x="43.61" y="48">r</tspan><tspan x="46.92" y="48">ig</tspan><tspan x="0" y="60">B</tspan><tspan x="5.46" y="60">obbie Sue </tspan><tspan x="0" y="72">B</tspan><tspan x="5.46" y="72">ob</tspan><tspan x="16.64" y="72">b</tspan><tspan class="cls-20" x="22.26" y="72">y  he</tspan><tspan x="41.77" y="72">r</tspan><tspan x="45.08" y="72">b</tspan><tspan x="0" y="84">B</tspan><tspan x="5.46" y="84">ob</tspan><tspan x="16.64" y="84">b</tspan><tspan x="22.26" y="84">y</tspan><tspan class="cls-20" x="26.87" y="84">e  poppe</tspan><tspan x="63.69" y="84">y</tspan><tspan x="68.3" y="84">e</tspan><tspan x="0" y="96">B</tspan><tspan class="cls-20" x="5.46" y="96">odhi  o</tspan><tspan x="34.21" y="96">k</tspan><tspan x="39.07" y="96">ke</tspan><tspan x="48.77" y="96">r</tspan><tspan x="52.08" y="96">noot</tspan></text><path class="cls-21" d="M1017.72,780.12a20.48,20.48,0,1,0,20.48,20.48A20.48,20.48,0,0,0,1017.72,780.12Zm9.8,22.12-12.22,8.4a2,2,0,0,1-3.13-1.64V792.2a2,2,0,0,1,3.13-1.64l12.22,8.4A2,2,0,0,1,1027.52,802.24Z" transform="translate(-163.43 -289.58)"/><text class="cls-22" transform="translate(883.83 513.91)">P<tspan x="10.01" y="0">l</tspan><tspan x="14.5" y="0">a</tspan><tspan x="23.5" y="0">y D</tspan><tspan x="49.13" y="0">a</tspan><tspan x="58.14" y="0">y</tspan></text><polygon class="cls-16" points="89.75 121.8 81.49 121.47 76.42 128 74.31 120.14 66.53 117.51 73.49 112.98 73.74 104.82 80.15 109.88 88.1 107.47 85.1 115.13 89.75 121.8"/><text class="cls-23" transform="translate(73.64 119.49) rotate(-31)">On<tspan x="4.98" y="0">-</tspan><tspan x="6.28" y="0">click</tspan></text><path d="M533.85,636.29a0.22,0.22,0,0,0,0,.34,0.2,0.2,0,0,1-.11.35,1.58,1.58,0,0,1-.6,0,0.57,0.57,0,0,0-.6.11c-0.1.1-.2,0.09-0.27-0.06a0.27,0.27,0,0,0-.19-0.11,12.06,12.06,0,0,0-1.34-.14,1.33,1.33,0,0,0-.71.19q-1,.64-1.92,1.34c-0.68.52-1.34,1.07-2,1.6a0.27,0.27,0,0,0-.11.32c0.13,0.61.25,1.22,0.37,1.83a0.92,0.92,0,0,0,.43.74,0.24,0.24,0,0,0,.07,0,2.14,2.14,0,0,1,1.74-.88,1.28,1.28,0,0,1,1.09.39,2.74,2.74,0,0,1,.82,1.59,0.31,0.31,0,0,0,.19.16,9.32,9.32,0,0,0,1.32.44,0.77,0.77,0,0,1,.64.76,3.31,3.31,0,0,0,.17.5,8.21,8.21,0,0,0,2.86-.8,0.29,0.29,0,0,0,.18-0.29,1,1,0,0,1,.63-1c0.5-.24,1-0.45,1.5-0.73,0.68-.41,1.35-0.86,2-1.32a7.75,7.75,0,0,1,2.15-1,1.86,1.86,0,0,1,.44-0.08,0.4,0.4,0,0,1,.46.48,1.18,1.18,0,0,0,.06.29c0,0.1,0,.2.05,0.3a0.66,0.66,0,0,0,0,.14,0.34,0.34,0,0,1-.19.51,0.12,0.12,0,0,0-.06.07,1.12,1.12,0,0,1-.12.57,1,1,0,0,1-.67.91c-0.69.36-1.41,0.66-2.13,1a6.51,6.51,0,0,1-1.05.32,1.21,1.21,0,0,0-.79.57q-0.61,1-1.19,2a3.11,3.11,0,0,1-1.2,1.31,2.71,2.71,0,0,1-.94.29,1.17,1.17,0,0,0-.86.48c-0.26.34-.49,0.72-0.72,1.08a9.77,9.77,0,0,1-1.77,2.15,0.32,0.32,0,0,0-.09.25,2,2,0,0,0,1,1.32,0.5,0.5,0,0,0,.55-0.21,1.2,1.2,0,0,0,.16-1,0.25,0.25,0,0,1,.46-0.17,1.2,1.2,0,0,1,.34.81,0.65,0.65,0,0,0,.48.57c0.5,0.17.56,0.39,0.42,0.89a1.93,1.93,0,0,1-1.08,1.16l-0.15.08a0.5,0.5,0,0,1-.72,0,1.44,1.44,0,0,0-1-.34,3.5,3.5,0,0,1-2-.76,0.63,0.63,0,0,1-.16-0.15,12.59,12.59,0,0,0-1.31-1.28,0.4,0.4,0,0,0-.27-0.08,3.44,3.44,0,0,1-3-1.73,3.58,3.58,0,0,1-.36-1,1.15,1.15,0,0,0-.69-0.8,2.16,2.16,0,0,0-1.91.18,9.09,9.09,0,0,0-1.29.7,4.29,4.29,0,0,1-1.55.6,2.67,2.67,0,0,0-1.24.54c-0.4.31-.85,0.54-1.29,0.81l-2.66,1.63c-0.25.15-.52,0.27-0.76,0.42a1,1,0,0,1-1.09-.24,0.89,0.89,0,0,1-.19-1.1,6.7,6.7,0,0,1,.77-1,10,10,0,0,0,1.41-1.71A5.44,5.44,0,0,1,517,649.1a17.84,17.84,0,0,0,1.73-.93c0.29-.16.56-0.36,0.85-0.52a3.71,3.71,0,0,0,1.27-1.21,12.72,12.72,0,0,1,1-1.38,9,9,0,0,1,.91-0.78A0.46,0.46,0,0,0,523,644a13,13,0,0,0,.16-2.43,5.27,5.27,0,0,1,.56-2.42,3.28,3.28,0,0,1,1.25-1.3,18,18,0,0,1,3.16-1.61c1-.41,1.9-0.85,2.85-1.27a3.41,3.41,0,0,1,1.44-.37,1.73,1.73,0,0,1,.59.14c0.26,0.1.5,0.26,0.76,0.36a0.92,0.92,0,0,1,.59.92,0.43,0.43,0,0,1-.12.3A0.64,0.64,0,0,1,533.85,636.29Zm-0.58-.52c-0.33,0-.23.27-0.23,0.43a0.24,0.24,0,0,0,.16.15,0.21,0.21,0,0,0,.14-0.14A2.66,2.66,0,0,0,533.27,635.77Z" transform="translate(-163.43 -289.58)"/></svg>