<?xml version="1.0" encoding="utf-8"?>
<!-- Generator: Adobe Illustrator 16.0.0, SVG Export Plug-In . SVG Version: 6.00 Build 0)  -->
<!DOCTYPE svg PUBLIC "-//W3C//DTD SVG 1.1//EN" "http://www.w3.org/Graphics/SVG/1.1/DTD/svg11.dtd">
<svg version="1.1" id="Layer_1" xmlns="http://www.w3.org/2000/svg" xmlns:xlink="http://www.w3.org/1999/xlink" x="0px" y="0px"
	 width="595.28px" height="841.89px" viewBox="0 0 595.28 841.89" enable-background="new 0 0 595.28 841.89" xml:space="preserve">
<path opacity="0.2" fill="#00A19A" stroke="#00A19A" stroke-width="6" stroke-miterlimit="10" enable-background="new    " d="
	M545.559,741.113H39.469c-5.472,0-9.949-3.285-9.949-7.3v-214.47c0-4.014,4.478-7.298,9.949-7.298h506.089
	c5.474,0,9.949,3.284,9.949,7.298v214.47C555.508,737.828,551.032,741.113,545.559,741.113z"/>
<polygon fill="none" stroke="#E30D18" stroke-width="3" stroke-miterlimit="10" points="78.438,548.662 78.438,559.61 
	144.768,559.61 144.187,517.397 37.563,517.823 38.641,548.662 "/>
<polygon fill="none" stroke="#E30D18" stroke-width="3" stroke-miterlimit="10" points="78.438,559.61 133.408,559.61 
	133.408,643.55 93.362,643.55 93.362,694.217 136.476,694.217 136.476,679.193 155.794,679.193 155.794,705.166 111.022,705.166 
	111.022,734.787 37.563,735.578 38.641,548.662 78.438,548.662 "/>
<rect x="93.362" y="643.55" opacity="0.4" fill="none" stroke="#E30D18" stroke-miterlimit="10" width="43.113" height="50.667"/>
<rect x="136.476" y="609.062" opacity="0.4" fill="none" stroke="#E30D18" stroke-miterlimit="10" width="41.456" height="38.503"/>
<rect x="218.309" y="609.062" opacity="0.4" fill="none" stroke="#E30D18" stroke-miterlimit="10" width="69.065" height="38.137"/>
<polyline fill="none" stroke="#E30D18" stroke-width="3" stroke-miterlimit="10" points="138.133,643.55 138.133,679.193 
	157.452,679.193 157.452,705.166 112.68,705.166 112.68,734.787 248.655,735.578 248.156,694.217 239.286,694.217 239.286,647.198 
	219.967,647.198 219.967,609.062 237.047,609.062 237.047,596.896 254.458,596.896 254.458,559.61 237.047,559.61 237.047,517.397 
	145.844,517.397 146.425,559.61 135.066,559.61 135.066,609.062 179.59,609.062 179.59,643.55 135.066,643.55 "/>
<polygon fill="none" stroke="#E30D18" stroke-width="3" stroke-miterlimit="10" points="235.388,559.61 252.8,559.61 252.8,596.896 
	235.388,596.896 235.388,609.062 287.374,609.062 287.374,647.198 237.627,647.198 237.627,694.217 246.499,694.217 
	246.995,735.578 409.004,735.578 409.004,703.949 396.817,704.739 395.738,517.397 235.388,517.397 "/>
<polygon fill="none" stroke="#E30D18" stroke-width="3" stroke-miterlimit="10" points="396.817,704.739 409.004,703.949 
	409.004,735.578 547.137,735.578 547.137,517.397 395.738,517.397 "/>
<rect x="37.563" y="517.764" opacity="0.4" fill="none" stroke="#010202" stroke-miterlimit="10" enable-background="new    " width="54.142" height="31.628"/>
<rect x="37.563" y="549.392" opacity="0.4" fill="none" stroke="#010202" stroke-miterlimit="10" enable-background="new    " width="42.036" height="27.98"/>
<rect x="37.563" y="577.372" opacity="0.4" fill="none" stroke="#010202" stroke-miterlimit="10" enable-background="new    " width="42.036" height="17.456"/>
<rect x="37.563" y="594.828" opacity="0.4" fill="none" stroke="#010202" stroke-miterlimit="10" enable-background="new    " width="42.036" height="21.106"/>
<rect x="37.563" y="615.935" opacity="0.4" fill="none" stroke="#010202" stroke-miterlimit="10" enable-background="new    " width="42.036" height="18.553"/>
<rect x="37.563" y="634.487" opacity="0.4" fill="none" stroke="#010202" stroke-miterlimit="10" enable-background="new    " width="42.036" height="20.375"/>
<rect x="37.563" y="654.862" opacity="0.4" fill="none" stroke="#010202" stroke-miterlimit="10" enable-background="new    " width="42.036" height="19.465"/>
<rect x="37.563" y="674.327" opacity="0.4" fill="none" stroke="#010202" stroke-miterlimit="10" enable-background="new    " width="42.036" height="23.113"/>
<rect x="37.563" y="697.44" opacity="0.4" fill="none" stroke="#010202" stroke-miterlimit="10" enable-background="new    " width="42.036" height="38.503"/>
<rect x="79.516" y="707.173" opacity="0.4" fill="none" stroke="#010202" stroke-miterlimit="10" enable-background="new    " width="33.164" height="28.771"/>
<rect x="112.68" y="707.173" opacity="0.4" fill="none" stroke="#010202" stroke-miterlimit="10" enable-background="new    " width="27.111" height="28.771"/>
<rect x="139.792" y="707.173" opacity="0.4" fill="none" stroke="#010202" stroke-miterlimit="10" enable-background="new    " width="27.61" height="28.771"/>
<rect x="167.401" y="707.173" opacity="0.4" fill="none" stroke="#010202" stroke-miterlimit="10" enable-background="new    " width="81.254" height="28.771"/>
<rect x="248.655" y="707.173" opacity="0.4" fill="none" stroke="#010202" stroke-miterlimit="10" enable-background="new    " width="25.453" height="28.771"/>
<rect x="274.108" y="707.173" opacity="0.4" fill="none" stroke="#010202" stroke-miterlimit="10" enable-background="new    " width="53.644" height="28.771"/>
<rect x="327.752" y="707.173" opacity="0.4" fill="none" stroke="#010202" stroke-miterlimit="10" enable-background="new    " width="27.113" height="28.771"/>
<rect x="354.78" y="707.173" opacity="0.4" fill="none" stroke="#010202" stroke-miterlimit="10" enable-background="new    " width="27.113" height="28.771"/>
<rect x="381.894" y="707.173" opacity="0.4" fill="none" stroke="#010202" stroke-miterlimit="10" enable-background="new    " width="27.11" height="28.771"/>
<rect x="409.004" y="707.173" opacity="0.4" fill="none" stroke="#010202" stroke-miterlimit="10" enable-background="new    " width="53.642" height="28.771"/>
<rect x="462.563" y="707.173" opacity="0.4" fill="none" stroke="#010202" stroke-miterlimit="10" enable-background="new    " width="32.587" height="28.771"/>
<rect x="495.23" y="707.173" opacity="0.4" fill="none" stroke="#010202" stroke-miterlimit="10" enable-background="new    " width="52.485" height="28.771"/>
<rect x="507.337" y="676.334" opacity="0.4" fill="none" stroke="#010202" stroke-miterlimit="10" enable-background="new    " width="40.379" height="30.839"/>
<rect x="507.337" y="656.444" opacity="0.4" fill="none" stroke="#010202" stroke-miterlimit="10" enable-background="new    " width="40.379" height="19.89"/>
<rect x="507.337" y="634.487" opacity="0.4" fill="none" stroke="#010202" stroke-miterlimit="10" enable-background="new    " width="40.379" height="21.957"/>
<rect x="507.337" y="615.935" opacity="0.4" fill="none" stroke="#010202" stroke-miterlimit="10" enable-background="new    " width="40.379" height="18.553"/>
<rect x="507.337" y="596.47" opacity="0.4" fill="none" stroke="#010202" stroke-miterlimit="10" enable-background="new    " width="40.379" height="19.465"/>
<rect x="507.337" y="577.372" opacity="0.4" fill="none" stroke="#010202" stroke-miterlimit="10" enable-background="new    " width="40.379" height="19.037"/>
<rect x="507.337" y="558.333" opacity="0.4" fill="none" stroke="#010202" stroke-miterlimit="10" enable-background="new    " width="40.379" height="19.038"/>
<rect x="507.337" y="517.764" opacity="0.4" fill="none" stroke="#010202" stroke-miterlimit="10" enable-background="new    " width="40.379" height="40.569"/>
<rect x="478.859" y="517.764" opacity="0.4" fill="none" stroke="#010202" stroke-miterlimit="10" enable-background="new    " width="28.437" height="31.628"/>
<rect x="418.953" y="517.764" opacity="0.4" fill="none" stroke="#010202" stroke-miterlimit="10" enable-background="new    " width="59.947" height="31.628"/>
<rect x="391.843" y="517.764" opacity="0.4" fill="none" stroke="#010202" stroke-miterlimit="10" enable-background="new    " width="27.11" height="31.628"/>
<rect x="365.891" y="517.764" opacity="0.4" fill="none" stroke="#010202" stroke-miterlimit="10" enable-background="new    " width="25.952" height="31.628"/>
<rect x="338.779" y="517.764" opacity="0.4" fill="none" stroke="#010202" stroke-miterlimit="10" enable-background="new    " width="27.111" height="31.628"/>
<rect x="312.248" y="517.764" opacity="0.4" fill="none" stroke="#010202" stroke-miterlimit="10" enable-background="new    " width="26.531" height="31.628"/>
<rect x="285.136" y="517.764" opacity="0.4" fill="none" stroke="#010202" stroke-miterlimit="10" enable-background="new    " width="27.112" height="31.628"/>
<rect x="258.604" y="517.764" opacity="0.4" fill="none" stroke="#010202" stroke-miterlimit="10" enable-background="new    " width="26.532" height="31.628"/>
<rect x="231.575" y="517.764" opacity="0.4" fill="none" stroke="#010202" stroke-miterlimit="10" enable-background="new    " width="27.112" height="31.628"/>
<rect x="204.463" y="517.764" opacity="0.4" fill="none" stroke="#010202" stroke-miterlimit="10" enable-background="new    " width="27.112" height="31.628"/>
<rect x="177.352" y="517.764" opacity="0.4" fill="none" stroke="#010202" stroke-miterlimit="10" enable-background="new    " width="27.111" height="31.628"/>
<rect x="123.79" y="517.764" opacity="0.4" fill="none" stroke="#010202" stroke-miterlimit="10" enable-background="new    " width="53.643" height="31.628"/>
<rect x="91.704" y="517.764" opacity="0.4" fill="none" stroke="#010202" stroke-miterlimit="10" enable-background="new    " width="32.087" height="31.628"/>
<rect x="96.098" y="560.767" opacity="0.4" fill="none" stroke="#010202" stroke-miterlimit="10" enable-background="new    " width="41.456" height="19.464"/>
<rect x="96.098" y="580.23" opacity="0.4" fill="none" stroke="#010202" stroke-miterlimit="10" enable-background="new    " width="41.456" height="25.12"/>
<rect x="96.098" y="605.351" opacity="0.4" fill="none" stroke="#010202" stroke-miterlimit="10" enable-background="new    " width="41.456" height="19.83"/>
<rect x="96.098" y="625.181" opacity="0.4" fill="none" stroke="#010202" stroke-miterlimit="10" enable-background="new    " width="41.456" height="19.465"/>
<rect x="96.098" y="644.646" opacity="0.4" fill="none" stroke="#010202" stroke-miterlimit="10" enable-background="new    " width="41.456" height="49.936"/>
<rect x="137.553" y="680.409" opacity="0.4" fill="none" stroke="#010202" stroke-miterlimit="10" enable-background="new    " width="19.318" height="14.172"/>
<rect x="137.553" y="647.564" opacity="0.4" fill="none" stroke="#010202" stroke-miterlimit="10" enable-background="new    " width="19.318" height="32.845"/>
<rect x="137.553" y="609.853" opacity="0.4" fill="none" stroke="#010202" stroke-miterlimit="10" enable-background="new    " width="23.215" height="37.712"/>
<rect x="137.553" y="609.853" opacity="0.4" fill="none" stroke="#010202" stroke-miterlimit="10" enable-background="new    " width="42.037" height="37.712"/>
<rect x="150.57" y="560.767" opacity="0.4" fill="none" stroke="#010202" stroke-miterlimit="10" enable-background="new    " width="40.378" height="19.464"/>
<rect x="150.57" y="580.23" opacity="0.4" fill="none" stroke="#010202" stroke-miterlimit="10" enable-background="new    " width="26.781" height="18.248"/>
<rect x="177.352" y="580.23" opacity="0.4" fill="none" stroke="#010202" stroke-miterlimit="10" enable-background="new    " width="27.111" height="18.248"/>
<rect x="234.31" y="560.767" opacity="0.4" fill="none" stroke="#010202" stroke-miterlimit="10" enable-background="new    " width="18.822" height="19.464"/>
<rect x="234.31" y="580.23" opacity="0.4" fill="none" stroke="#010202" stroke-miterlimit="10" enable-background="new    " width="18.822" height="18.248"/>
<rect x="253.132" y="580.23" opacity="0.4" fill="none" stroke="#010202" stroke-miterlimit="10" enable-background="new    " width="18.82" height="18.248"/>
<rect x="253.132" y="560.767" opacity="0.4" fill="none" stroke="#010202" stroke-miterlimit="10" enable-background="new    " width="18.82" height="19.464"/>
<rect x="285.136" y="560.767" opacity="0.4" fill="none" stroke="#010202" stroke-miterlimit="10" enable-background="new    " width="19.814" height="19.464"/>
<rect x="304.95" y="560.767" opacity="0.4" fill="none" stroke="#010202" stroke-miterlimit="10" enable-background="new    " width="17.827" height="19.464"/>
<rect x="304.95" y="580.23" opacity="0.4" fill="none" stroke="#010202" stroke-miterlimit="10" enable-background="new    " width="17.827" height="18.248"/>
<rect x="285.136" y="580.23" opacity="0.4" fill="none" stroke="#010202" stroke-miterlimit="10" enable-background="new    " width="19.814" height="18.248"/>
<rect x="336.539" y="560.767" opacity="0.4" fill="none" stroke="#010202" stroke-miterlimit="10" enable-background="new    " width="18.241" height="19.464"/>
<rect x="354.78" y="580.23" opacity="0.4" fill="none" stroke="#010202" stroke-miterlimit="10" enable-background="new    " width="18.822" height="18.248"/>
<rect x="354.78" y="560.767" opacity="0.4" fill="none" stroke="#010202" stroke-miterlimit="10" enable-background="new    " width="18.822" height="19.464"/>
<rect x="336.539" y="580.23" opacity="0.4" fill="none" stroke="#010202" stroke-miterlimit="10" enable-background="new    " width="18.241" height="18.248"/>
<rect x="388.526" y="560.767" opacity="0.4" fill="none" stroke="#010202" stroke-miterlimit="10" enable-background="new    " width="16.829" height="19.464"/>
<rect x="405.355" y="560.767" opacity="0.4" fill="none" stroke="#010202" stroke-miterlimit="10" enable-background="new    " width="19.651" height="19.464"/>
<rect x="405.355" y="580.23" opacity="0.4" fill="none" stroke="#010202" stroke-miterlimit="10" enable-background="new    " width="19.651" height="18.248"/>
<rect x="388.526" y="580.23" opacity="0.4" fill="none" stroke="#010202" stroke-miterlimit="10" enable-background="new    " width="16.829" height="18.248"/>
<rect x="439.349" y="580.23" opacity="0.4" fill="none" stroke="#010202" stroke-miterlimit="10" enable-background="new    " width="24.875" height="18.248"/>
<rect x="464.224" y="580.23" opacity="0.4" fill="none" stroke="#010202" stroke-miterlimit="10" enable-background="new    " width="28.854" height="18.248"/>
<rect x="451.787" y="560.767" opacity="0.4" fill="none" stroke="#010202" stroke-miterlimit="10" enable-background="new    " width="41.29" height="19.464"/>
<rect x="217.978" y="609.853" opacity="0.4" fill="none" stroke="#010202" stroke-miterlimit="10" enable-background="new    " width="69.894" height="37.712"/>
<rect x="287.955" y="609.853" opacity="0.4" fill="none" stroke="#010202" stroke-miterlimit="10" enable-background="new    " width="66.911" height="18.856"/>
<rect x="287.955" y="628.709" opacity="0.4" fill="none" stroke="#010202" stroke-miterlimit="10" enable-background="new    " width="66.911" height="18.855"/>
<rect x="334.385" y="647.564" opacity="0.4" fill="none" stroke="#010202" stroke-miterlimit="10" enable-background="new    " width="22.633" height="47.017"/>
<rect x="240.364" y="647.564" opacity="0.4" fill="none" stroke="#010202" stroke-miterlimit="10" enable-background="new    " width="93.938" height="47.017"/>
<rect x="373.603" y="609.853" opacity="0.4" fill="none" stroke="#010202" stroke-miterlimit="10" enable-background="new    " width="45.351" height="37.712"/>
<rect x="418.953" y="609.853" opacity="0.4" fill="none" stroke="#010202" stroke-miterlimit="10" enable-background="new    " width="20.48" height="37.712"/>
<rect x="454.854" y="609.853" opacity="0.4" fill="none" stroke="#010202" stroke-miterlimit="10" enable-background="new    " width="19.898" height="18.856"/>
<rect x="474.753" y="609.853" opacity="0.4" fill="none" stroke="#010202" stroke-miterlimit="10" enable-background="new    " width="16.002" height="18.856"/>
<rect x="474.753" y="628.709" opacity="0.4" fill="none" stroke="#010202" stroke-miterlimit="10" enable-background="new    " width="16.002" height="18.855"/>
<rect x="454.854" y="628.709" opacity="0.4" fill="none" stroke="#010202" stroke-miterlimit="10" enable-background="new    " width="19.898" height="18.855"/>
<rect x="464.804" y="666.419" opacity="0.4" fill="none" stroke="#010202" stroke-miterlimit="10" enable-background="new    " width="25.951" height="28.162"/>
<rect x="439.349" y="666.419" opacity="0.4" fill="none" stroke="#010202" stroke-miterlimit="10" enable-background="new    " width="25.455" height="28.162"/>
<rect x="373.603" y="658.513" opacity="0.4" fill="none" stroke="#010202" stroke-miterlimit="10" enable-background="new    " width="25.702" height="18.855"/>
<rect x="399.305" y="658.513" opacity="0.4" fill="none" stroke="#010202" stroke-miterlimit="10" enable-background="new    " width="25.702" height="18.855"/>
<rect x="399.305" y="677.368" opacity="0.4" fill="none" stroke="#010202" stroke-miterlimit="10" enable-background="new    " width="25.702" height="17.213"/>
<rect x="373.603" y="677.368" opacity="0.4" fill="none" stroke="#010202" stroke-miterlimit="10" enable-background="new    " width="25.702" height="17.213"/>
<line opacity="0.6" fill="none" stroke="#00A19A" stroke-width="4" stroke-miterlimit="10" enable-background="new    " x1="520.34" y1="129.156" x2="586.884" y2="129.156"/>
<line opacity="0.6" fill="none" stroke="#00A19A" stroke-width="4" stroke-miterlimit="10" enable-background="new    " x1="553.588" y1="129.156" x2="553.588" y2="97.683"/>
<path opacity="0.6" fill="#00A19A" stroke="#00A19A" stroke-width="4" stroke-miterlimit="10" enable-background="new    " d="
	M579.495,186.643h-55.03c-3.166,0-5.757-2.591-5.757-5.757v-25.572c0-3.166,2.591-5.757,5.757-5.757h55.03
	c3.167,0,5.757,2.591,5.757,5.757v25.572C585.252,184.052,582.662,186.643,579.495,186.643z"/>
<rect x="516.837" y="102.816" fill="none" width="38.862" height="21.206"/>
<g enable-background="new    ">
	<path fill="#00A19A" d="M528.021,103.243c0.403-0.067,0.931-0.125,1.603-0.125c0.825,0,1.431,0.192,1.814,0.538
		c0.354,0.307,0.566,0.777,0.566,1.354c0,0.585-0.173,1.046-0.499,1.382c-0.442,0.47-1.162,0.71-1.978,0.71
		c-0.25,0-0.479-0.01-0.672-0.058v2.591h-0.835V103.243z M528.856,106.362c0.183,0.048,0.413,0.067,0.691,0.067
		c1.008,0,1.622-0.49,1.622-1.382c0-0.854-0.605-1.267-1.526-1.267c-0.365,0-0.644,0.029-0.787,0.067V106.362z"/>
	<path fill="#00A19A" d="M533.097,106.439c0-0.547-0.009-1.017-0.038-1.449h0.739l0.028,0.912h0.039
		c0.211-0.624,0.72-1.018,1.286-1.018c0.096,0,0.163,0.01,0.239,0.029v0.797c-0.086-0.02-0.173-0.029-0.287-0.029
		c-0.596,0-1.018,0.451-1.133,1.084c-0.02,0.115-0.038,0.25-0.038,0.394v2.476h-0.836V106.439z"/>
	<path fill="#00A19A" d="M540.438,107.274c0,1.718-1.19,2.466-2.313,2.466c-1.258,0-2.228-0.921-2.228-2.39
		c0-1.555,1.018-2.467,2.304-2.467C539.536,104.884,540.438,105.854,540.438,107.274z M536.753,107.322
		c0,1.017,0.586,1.785,1.411,1.785c0.806,0,1.411-0.758,1.411-1.804c0-0.787-0.394-1.786-1.392-1.786
		C537.185,105.518,536.753,106.439,536.753,107.322z"/>
	<path fill="#00A19A" d="M541.896,104.99l0.663,0.999c0.172,0.259,0.316,0.499,0.47,0.758h0.029c0.153-0.278,0.307-0.518,0.46-0.768
		l0.653-0.989h0.911l-1.583,2.246l1.631,2.399h-0.959l-0.682-1.046c-0.183-0.269-0.336-0.528-0.499-0.806h-0.02
		c-0.153,0.278-0.316,0.528-0.489,0.806l-0.672,1.046h-0.931l1.65-2.371l-1.574-2.275H541.896z"/>
</g>
<g enable-background="new    ">
	<path fill="none" stroke="#00A19A" stroke-miterlimit="10" d="M528.021,103.243c0.403-0.067,0.931-0.125,1.603-0.125
		c0.825,0,1.431,0.192,1.814,0.538c0.354,0.307,0.566,0.777,0.566,1.354c0,0.585-0.173,1.046-0.499,1.382
		c-0.442,0.47-1.162,0.71-1.978,0.71c-0.25,0-0.479-0.01-0.672-0.058v2.591h-0.835V103.243z M528.856,106.362
		c0.183,0.048,0.413,0.067,0.691,0.067c1.008,0,1.622-0.49,1.622-1.382c0-0.854-0.605-1.267-1.526-1.267
		c-0.365,0-0.644,0.029-0.787,0.067V106.362z"/>
	<path fill="none" stroke="#00A19A" stroke-miterlimit="10" d="M533.097,106.439c0-0.547-0.009-1.017-0.038-1.449h0.739l0.028,0.912
		h0.039c0.211-0.624,0.72-1.018,1.286-1.018c0.096,0,0.163,0.01,0.239,0.029v0.797c-0.086-0.02-0.173-0.029-0.287-0.029
		c-0.596,0-1.018,0.451-1.133,1.084c-0.02,0.115-0.038,0.25-0.038,0.394v2.476h-0.836V106.439z"/>
	<path fill="none" stroke="#00A19A" stroke-miterlimit="10" d="M540.438,107.274c0,1.718-1.19,2.466-2.313,2.466
		c-1.258,0-2.228-0.921-2.228-2.39c0-1.555,1.018-2.467,2.304-2.467C539.536,104.884,540.438,105.854,540.438,107.274z
		 M536.753,107.322c0,1.017,0.586,1.785,1.411,1.785c0.806,0,1.411-0.758,1.411-1.804c0-0.787-0.394-1.786-1.392-1.786
		C537.185,105.518,536.753,106.439,536.753,107.322z"/>
	<path fill="none" stroke="#00A19A" stroke-miterlimit="10" d="M541.896,104.99l0.663,0.999c0.172,0.259,0.316,0.499,0.47,0.758
		h0.029c0.153-0.278,0.307-0.518,0.46-0.768l0.653-0.989h0.911l-1.583,2.246l1.631,2.399h-0.959l-0.682-1.046
		c-0.183-0.269-0.336-0.528-0.499-0.806h-0.02c-0.153,0.278-0.316,0.528-0.489,0.806l-0.672,1.046h-0.931l1.65-2.371l-1.574-2.275
		H541.896z"/>
</g>
<g enable-background="new    ">
	<path fill="#00A19A" d="M524.317,120.661l3.59-5.25v-0.029h-3.283v-0.701h4.367v0.508l-3.57,5.231v0.029h3.618v0.701h-4.722
		V120.661z"/>
	<path fill="#00A19A" d="M534.24,118.789c0,1.718-1.19,2.466-2.313,2.466c-1.258,0-2.228-0.921-2.228-2.39
		c0-1.555,1.018-2.467,2.304-2.467C533.338,116.399,534.24,117.368,534.24,118.789z M530.555,118.837
		c0,1.017,0.586,1.785,1.411,1.785c0.806,0,1.411-0.758,1.411-1.804c0-0.787-0.394-1.786-1.392-1.786
		C530.986,117.032,530.555,117.954,530.555,118.837z"/>
	<path fill="#00A19A" d="M535.304,117.762c0-0.479-0.009-0.873-0.038-1.257h0.749l0.048,0.768h0.02
		c0.229-0.441,0.768-0.874,1.535-0.874c0.644,0,1.642,0.384,1.642,1.977v2.774h-0.845v-2.678c0-0.749-0.278-1.373-1.075-1.373
		c-0.557,0-0.988,0.394-1.133,0.864c-0.038,0.105-0.058,0.25-0.058,0.394v2.793h-0.845V117.762z"/>
	<path fill="#00A19A" d="M541.1,118.981c0.02,1.142,0.749,1.612,1.593,1.612c0.605,0,0.97-0.105,1.286-0.24l0.145,0.604
		c-0.298,0.134-0.807,0.288-1.545,0.288c-1.431,0-2.285-0.941-2.285-2.342c0-1.401,0.826-2.505,2.179-2.505
		c1.517,0,1.92,1.334,1.92,2.188c0,0.173-0.02,0.307-0.028,0.394H541.1z M543.576,118.376c0.01-0.537-0.221-1.373-1.171-1.373
		c-0.854,0-1.229,0.787-1.296,1.373H543.576z"/>
	<path fill="#00A19A" d="M545.322,120.286c0.249,0.163,0.69,0.336,1.113,0.336c0.614,0,0.901-0.307,0.901-0.691
		c0-0.403-0.239-0.624-0.863-0.854c-0.835-0.297-1.229-0.758-1.229-1.315c0-0.749,0.604-1.363,1.603-1.363
		c0.471,0,0.883,0.134,1.143,0.288l-0.211,0.614c-0.183-0.115-0.519-0.269-0.95-0.269c-0.5,0-0.778,0.288-0.778,0.634
		c0,0.384,0.278,0.557,0.884,0.787c0.806,0.307,1.219,0.71,1.219,1.401c0,0.816-0.634,1.392-1.737,1.392
		c-0.509,0-0.979-0.125-1.306-0.317L545.322,120.286z"/>
</g>
<g enable-background="new    ">
	<path fill="none" stroke="#00A19A" stroke-miterlimit="10" d="M524.317,120.661l3.59-5.25v-0.029h-3.283v-0.701h4.367v0.508
		l-3.57,5.231v0.029h3.618v0.701h-4.722V120.661z"/>
	<path fill="none" stroke="#00A19A" stroke-miterlimit="10" d="M534.24,118.789c0,1.718-1.19,2.466-2.313,2.466
		c-1.258,0-2.228-0.921-2.228-2.39c0-1.555,1.018-2.467,2.304-2.467C533.338,116.399,534.24,117.368,534.24,118.789z
		 M530.555,118.837c0,1.017,0.586,1.785,1.411,1.785c0.806,0,1.411-0.758,1.411-1.804c0-0.787-0.394-1.786-1.392-1.786
		C530.986,117.032,530.555,117.954,530.555,118.837z"/>
	<path fill="none" stroke="#00A19A" stroke-miterlimit="10" d="M535.304,117.762c0-0.479-0.009-0.873-0.038-1.257h0.749l0.048,0.768
		h0.02c0.229-0.441,0.768-0.874,1.535-0.874c0.644,0,1.642,0.384,1.642,1.977v2.774h-0.845v-2.678c0-0.749-0.278-1.373-1.075-1.373
		c-0.557,0-0.988,0.394-1.133,0.864c-0.038,0.105-0.058,0.25-0.058,0.394v2.793h-0.845V117.762z"/>
	<path fill="none" stroke="#00A19A" stroke-miterlimit="10" d="M541.1,118.981c0.02,1.142,0.749,1.612,1.593,1.612
		c0.605,0,0.97-0.105,1.286-0.24l0.145,0.604c-0.298,0.134-0.807,0.288-1.545,0.288c-1.431,0-2.285-0.941-2.285-2.342
		c0-1.401,0.826-2.505,2.179-2.505c1.517,0,1.92,1.334,1.92,2.188c0,0.173-0.02,0.307-0.028,0.394H541.1z M543.576,118.376
		c0.01-0.537-0.221-1.373-1.171-1.373c-0.854,0-1.229,0.787-1.296,1.373H543.576z"/>
	<path fill="none" stroke="#00A19A" stroke-miterlimit="10" d="M545.322,120.286c0.249,0.163,0.69,0.336,1.113,0.336
		c0.614,0,0.901-0.307,0.901-0.691c0-0.403-0.239-0.624-0.863-0.854c-0.835-0.297-1.229-0.758-1.229-1.315
		c0-0.749,0.604-1.363,1.603-1.363c0.471,0,0.883,0.134,1.143,0.288l-0.211,0.614c-0.183-0.115-0.519-0.269-0.95-0.269
		c-0.5,0-0.778,0.288-0.778,0.634c0,0.384,0.278,0.557,0.884,0.787c0.806,0.307,1.219,0.71,1.219,1.401
		c0,0.816-0.634,1.392-1.737,1.392c-0.509,0-0.979-0.125-1.306-0.317L545.322,120.286z"/>
</g>
<rect x="552.964" y="102.816" fill="none" width="38.862" height="21.206"/>
<g enable-background="new    ">
	<path fill="#00A19A" d="M562.424,103.167v2.707h3.129v-2.707h0.846v6.469h-0.846v-3.033h-3.129v3.033h-0.834v-6.469H562.424z"/>
	<path fill="#00A19A" d="M569.266,109.635l-2.111-6.469h0.902l1.008,3.187c0.277,0.873,0.518,1.66,0.691,2.418h0.018
		c0.184-0.749,0.451-1.564,0.74-2.409l1.094-3.196h0.893l-2.313,6.469H569.266z"/>
	<path fill="#00A19A" d="M574.246,107.601l-0.672,2.035h-0.863l2.197-6.469h1.008l2.207,6.469h-0.893l-0.691-2.035H574.246z
		 M576.367,106.948l-0.633-1.862c-0.145-0.422-0.24-0.806-0.336-1.181h-0.02c-0.096,0.384-0.201,0.777-0.326,1.171l-0.635,1.872
		H576.367z"/>
	<path fill="#00A19A" d="M583.592,109.424c-0.307,0.153-0.922,0.307-1.707,0.307c-1.824,0-3.197-1.152-3.197-3.273
		c0-2.025,1.373-3.398,3.379-3.398c0.807,0,1.314,0.173,1.535,0.288l-0.201,0.682c-0.316-0.154-0.768-0.269-1.305-0.269
		c-1.518,0-2.525,0.97-2.525,2.668c0,1.583,0.912,2.601,2.486,2.601c0.508,0,1.027-0.106,1.363-0.269L583.592,109.424z"/>
</g>
<g enable-background="new    ">
	<path fill="none" stroke="#00A19A" stroke-miterlimit="10" d="M562.424,103.167v2.707h3.129v-2.707h0.846v6.469h-0.846v-3.033
		h-3.129v3.033h-0.834v-6.469H562.424z"/>
	<path fill="none" stroke="#00A19A" stroke-miterlimit="10" d="M569.266,109.635l-2.111-6.469h0.902l1.008,3.187
		c0.277,0.873,0.518,1.66,0.691,2.418h0.018c0.184-0.749,0.451-1.564,0.74-2.409l1.094-3.196h0.893l-2.313,6.469H569.266z"/>
	<path fill="none" stroke="#00A19A" stroke-miterlimit="10" d="M574.246,107.601l-0.672,2.035h-0.863l2.197-6.469h1.008l2.207,6.469
		h-0.893l-0.691-2.035H574.246z M576.367,106.948l-0.633-1.862c-0.145-0.422-0.24-0.806-0.336-1.181h-0.02
		c-0.096,0.384-0.201,0.777-0.326,1.171l-0.635,1.872H576.367z"/>
	<path fill="none" stroke="#00A19A" stroke-miterlimit="10" d="M583.592,109.424c-0.307,0.153-0.922,0.307-1.707,0.307
		c-1.824,0-3.197-1.152-3.197-3.273c0-2.025,1.373-3.398,3.379-3.398c0.807,0,1.314,0.173,1.535,0.288l-0.201,0.682
		c-0.316-0.154-0.768-0.269-1.305-0.269c-1.518,0-2.525,0.97-2.525,2.668c0,1.583,0.912,2.601,2.486,2.601
		c0.508,0,1.027-0.106,1.363-0.269L583.592,109.424z"/>
</g>
<g enable-background="new    ">
	<path fill="#00A19A" d="M560.429,120.661l3.59-5.25v-0.029h-3.283v-0.701h4.367v0.508l-3.57,5.231v0.029h3.618v0.701h-4.722
		V120.661z"/>
	<path fill="#00A19A" d="M570.352,118.789c0,1.718-1.19,2.466-2.313,2.466c-1.258,0-2.228-0.921-2.228-2.39
		c0-1.555,1.018-2.467,2.304-2.467C569.449,116.399,570.352,117.368,570.352,118.789z M566.666,118.837
		c0,1.017,0.586,1.785,1.411,1.785c0.806,0,1.411-0.758,1.411-1.804c0-0.787-0.394-1.786-1.392-1.786
		C567.098,117.032,566.666,117.954,566.666,118.837z"/>
	<path fill="#00A19A" d="M571.415,117.762c0-0.479-0.009-0.873-0.038-1.257h0.749l0.048,0.768h0.02
		c0.229-0.441,0.768-0.874,1.535-0.874c0.644,0,1.642,0.384,1.642,1.977v2.774h-0.845v-2.678c0-0.749-0.278-1.373-1.075-1.373
		c-0.557,0-0.988,0.394-1.133,0.864c-0.038,0.105-0.058,0.25-0.058,0.394v2.793h-0.845V117.762z"/>
	<path fill="#00A19A" d="M577.211,118.981c0.02,1.142,0.749,1.612,1.593,1.612c0.605,0,0.97-0.105,1.286-0.24l0.145,0.604
		c-0.298,0.134-0.807,0.288-1.545,0.288c-1.431,0-2.285-0.941-2.285-2.342c0-1.401,0.826-2.505,2.179-2.505
		c1.517,0,1.92,1.334,1.92,2.188c0,0.173-0.02,0.307-0.028,0.394H577.211z M579.688,118.376c0.01-0.537-0.221-1.373-1.171-1.373
		c-0.854,0-1.229,0.787-1.296,1.373H579.688z"/>
	<path fill="#00A19A" d="M581.434,120.286c0.249,0.163,0.69,0.336,1.113,0.336c0.614,0,0.901-0.307,0.901-0.691
		c0-0.403-0.239-0.624-0.863-0.854c-0.835-0.297-1.229-0.758-1.229-1.315c0-0.749,0.604-1.363,1.603-1.363
		c0.471,0,0.883,0.134,1.143,0.288l-0.211,0.614c-0.183-0.115-0.519-0.269-0.95-0.269c-0.5,0-0.778,0.288-0.778,0.634
		c0,0.384,0.278,0.557,0.884,0.787c0.806,0.307,1.219,0.71,1.219,1.401c0,0.816-0.634,1.392-1.737,1.392
		c-0.509,0-0.979-0.125-1.306-0.317L581.434,120.286z"/>
</g>
<g enable-background="new    ">
	<path fill="none" stroke="#00A19A" stroke-miterlimit="10" d="M560.429,120.661l3.59-5.25v-0.029h-3.283v-0.701h4.367v0.508
		l-3.57,5.231v0.029h3.618v0.701h-4.722V120.661z"/>
	<path fill="none" stroke="#00A19A" stroke-miterlimit="10" d="M570.352,118.789c0,1.718-1.19,2.466-2.313,2.466
		c-1.258,0-2.228-0.921-2.228-2.39c0-1.555,1.018-2.467,2.304-2.467C569.449,116.399,570.352,117.368,570.352,118.789z
		 M566.666,118.837c0,1.017,0.586,1.785,1.411,1.785c0.806,0,1.411-0.758,1.411-1.804c0-0.787-0.394-1.786-1.392-1.786
		C567.098,117.032,566.666,117.954,566.666,118.837z"/>
	<path fill="none" stroke="#00A19A" stroke-miterlimit="10" d="M571.415,117.762c0-0.479-0.009-0.873-0.038-1.257h0.749l0.048,0.768
		h0.02c0.229-0.441,0.768-0.874,1.535-0.874c0.644,0,1.642,0.384,1.642,1.977v2.774h-0.845v-2.678c0-0.749-0.278-1.373-1.075-1.373
		c-0.557,0-0.988,0.394-1.133,0.864c-0.038,0.105-0.058,0.25-0.058,0.394v2.793h-0.845V117.762z"/>
	<path fill="none" stroke="#00A19A" stroke-miterlimit="10" d="M577.211,118.981c0.02,1.142,0.749,1.612,1.593,1.612
		c0.605,0,0.97-0.105,1.286-0.24l0.145,0.604c-0.298,0.134-0.807,0.288-1.545,0.288c-1.431,0-2.285-0.941-2.285-2.342
		c0-1.401,0.826-2.505,2.179-2.505c1.517,0,1.92,1.334,1.92,2.188c0,0.173-0.02,0.307-0.028,0.394H577.211z M579.688,118.376
		c0.01-0.537-0.221-1.373-1.171-1.373c-0.854,0-1.229,0.787-1.296,1.373H579.688z"/>
	<path fill="none" stroke="#00A19A" stroke-miterlimit="10" d="M581.434,120.286c0.249,0.163,0.69,0.336,1.113,0.336
		c0.614,0,0.901-0.307,0.901-0.691c0-0.403-0.239-0.624-0.863-0.854c-0.835-0.297-1.229-0.758-1.229-1.315
		c0-0.749,0.604-1.363,1.603-1.363c0.471,0,0.883,0.134,1.143,0.288l-0.211,0.614c-0.183-0.115-0.519-0.269-0.95-0.269
		c-0.5,0-0.778,0.288-0.778,0.634c0,0.384,0.278,0.557,0.884,0.787c0.806,0.307,1.219,0.71,1.219,1.401
		c0,0.816-0.634,1.392-1.737,1.392c-0.509,0-0.979-0.125-1.306-0.317L581.434,120.286z"/>
</g>
<path opacity="0.6" fill="#00A19A" stroke="#00A19A" stroke-width="3" stroke-miterlimit="10" enable-background="new    " d="
	M240.436,492.527h-30.562c-3.167,0-5.757-2.591-5.757-5.758v-19.958c0-3.167,2.591-5.757,5.757-5.757h30.562
	c3.167,0,5.757,2.59,5.757,5.757v19.958C246.193,489.937,243.602,492.527,240.436,492.527z"/>
<path opacity="0.6" fill="#00A19A" stroke="#00A19A" stroke-width="3" stroke-miterlimit="10" enable-background="new    " d="
	M397.034,492.527h-30.563c-3.166,0-5.756-2.591-5.756-5.758v-19.958c0-3.167,2.59-5.757,5.756-5.757h30.563
	c3.166,0,5.758,2.59,5.758,5.757v19.958C402.792,489.937,400.2,492.527,397.034,492.527z"/>
<path opacity="0.6" fill="#00A19A" stroke="#00A19A" stroke-width="3" stroke-miterlimit="10" enable-background="new    " d="
	M291.532,492.527H260.97c-3.167,0-5.758-2.591-5.758-5.758v-19.958c0-3.167,2.591-5.757,5.758-5.757h30.562
	c3.167,0,5.756,2.59,5.756,5.757v19.958C297.288,489.937,294.698,492.527,291.532,492.527z"/>
<path opacity="0.6" fill="#00A19A" stroke="#00A19A" stroke-width="3" stroke-miterlimit="10" enable-background="new    " d="
	M344.259,492.527h-30.563c-3.166,0-5.756-2.591-5.756-5.758v-19.958c0-3.167,2.59-5.757,5.756-5.757h30.563
	c3.166,0,5.758,2.59,5.758,5.757v19.958C350.017,489.937,347.425,492.527,344.259,492.527z"/>
<g>
	<rect x="360.763" y="472.041" fill="none" width="35.168" height="12.282"/>
	<text transform="matrix(1 0 0 1 370.7441 480.5586)" fill="#FFFFFF" font-family="'MyriadPro-Regular'" font-size="11.9944">CO</text>
	
		<text transform="matrix(1 0 0 1 370.7441 480.5586)" fill="none" stroke="#FFFFFF" stroke-miterlimit="10" font-family="'MyriadPro-Regular'" font-size="11.9944">CO</text>
	<rect x="381.394" y="469.258" fill="none" width="13.098" height="8.973"/>
	<text transform="matrix(1 0 0 1 386.1045 474.3457)" fill="#FFFFFF" font-family="'MyriadPro-Regular'" font-size="7.1966">2</text>
	
		<text transform="matrix(1 0 0 1 386.1045 474.3457)" fill="none" stroke="#FFFFFF" stroke-miterlimit="10" font-family="'MyriadPro-Regular'" font-size="7.1966">2</text>
</g>
<line opacity="0.6" fill="none" stroke="#00A19A" stroke-width="3" stroke-miterlimit="10" enable-background="new    " x1="28.954" y1="389.84" x2="28.954" y2="411.726"/>
<line opacity="0.6" fill="none" stroke="#00A19A" stroke-width="3" stroke-miterlimit="10" enable-background="new    " x1="52.499" y1="389.84" x2="52.499" y2="411.726"/>
<line opacity="0.6" fill="none" stroke="#00A19A" stroke-width="3" stroke-miterlimit="10" enable-background="new    " x1="52.499" y1="389.84" x2="52.499" y2="411.726"/>
<line opacity="0.6" fill="none" stroke="#00A19A" stroke-width="3" stroke-miterlimit="10" enable-background="new    " x1="76.042" y1="389.84" x2="76.042" y2="411.726"/>
<line opacity="0.6" fill="none" stroke="#00A19A" stroke-width="3" stroke-miterlimit="10" enable-background="new    " x1="76.042" y1="389.84" x2="76.042" y2="411.726"/>
<line opacity="0.6" fill="none" stroke="#00A19A" stroke-width="3" stroke-miterlimit="10" enable-background="new    " x1="99.517" y1="389.84" x2="99.517" y2="411.726"/>
<line opacity="0.6" fill="none" stroke="#00A19A" stroke-width="3" stroke-miterlimit="10" enable-background="new    " x1="99.517" y1="389.84" x2="99.517" y2="411.726"/>
<line opacity="0.6" fill="none" stroke="#00A19A" stroke-width="3" stroke-miterlimit="10" enable-background="new    " x1="123.061" y1="389.84" x2="123.061" y2="411.726"/>
<line opacity="0.6" fill="none" stroke="#00A19A" stroke-width="3" stroke-miterlimit="10" enable-background="new    " x1="122.637" y1="389.84" x2="122.637" y2="411.726"/>
<line opacity="0.6" fill="none" stroke="#00A19A" stroke-width="3" stroke-miterlimit="10" enable-background="new    " x1="146.181" y1="389.84" x2="146.181" y2="411.726"/>
<line opacity="0.6" fill="none" stroke="#00A19A" stroke-width="3" stroke-miterlimit="10" enable-background="new    " x1="146.181" y1="389.84" x2="146.181" y2="411.726"/>
<line opacity="0.6" fill="none" stroke="#00A19A" stroke-width="3" stroke-miterlimit="10" enable-background="new    " x1="169.726" y1="389.84" x2="169.726" y2="411.726"/>
<line opacity="0.6" fill="none" stroke="#00A19A" stroke-width="3" stroke-miterlimit="10" enable-background="new    " x1="169.726" y1="389.84" x2="169.726" y2="411.726"/>
<line opacity="0.6" fill="none" stroke="#00A19A" stroke-width="3" stroke-miterlimit="10" enable-background="new    " x1="193.27" y1="389.84" x2="193.27" y2="411.726"/>
<line opacity="0.6" fill="none" stroke="#00A19A" stroke-width="3" stroke-miterlimit="10" enable-background="new    " x1="193.27" y1="389.84" x2="193.27" y2="411.726"/>
<line opacity="0.6" fill="none" stroke="#00A19A" stroke-width="3" stroke-miterlimit="10" enable-background="new    " x1="216.744" y1="389.84" x2="216.744" y2="411.726"/>
<line opacity="0.6" fill="none" stroke="#00A19A" stroke-width="3" stroke-miterlimit="10" enable-background="new    " x1="216.744" y1="389.84" x2="216.744" y2="411.726"/>
<line opacity="0.6" fill="none" stroke="#00A19A" stroke-width="3" stroke-miterlimit="10" enable-background="new    " x1="240.288" y1="389.84" x2="240.288" y2="411.726"/>
<line opacity="0.6" fill="none" stroke="#00A19A" stroke-width="3" stroke-miterlimit="10" enable-background="new    " x1="240.288" y1="389.84" x2="240.288" y2="411.726"/>
<line opacity="0.6" fill="none" stroke="#00A19A" stroke-width="3" stroke-miterlimit="10" enable-background="new    " x1="263.832" y1="389.84" x2="263.832" y2="411.726"/>
<line opacity="0.6" fill="none" stroke="#00A19A" stroke-width="3" stroke-miterlimit="10" enable-background="new    " x1="263.832" y1="389.84" x2="263.832" y2="411.726"/>
<line opacity="0.6" fill="none" stroke="#00A19A" stroke-width="3" stroke-miterlimit="10" enable-background="new    " x1="287.376" y1="389.84" x2="287.376" y2="411.726"/>
<line opacity="0.6" fill="none" stroke="#00A19A" stroke-width="3" stroke-miterlimit="10" enable-background="new    " x1="287.376" y1="389.84" x2="287.376" y2="411.726"/>
<line opacity="0.6" fill="none" stroke="#00A19A" stroke-width="3" stroke-miterlimit="10" enable-background="new    " x1="310.921" y1="389.84" x2="310.921" y2="411.726"/>
<line opacity="0.6" fill="none" stroke="#00A19A" stroke-width="3" stroke-miterlimit="10" enable-background="new    " x1="310.921" y1="389.84" x2="310.921" y2="411.726"/>
<line opacity="0.6" fill="none" stroke="#00A19A" stroke-width="3" stroke-miterlimit="10" enable-background="new    " x1="310.921" y1="389.84" x2="310.921" y2="411.726"/>
<line opacity="0.6" fill="none" stroke="#00A19A" stroke-width="3" stroke-miterlimit="10" enable-background="new    " x1="334.396" y1="389.84" x2="334.396" y2="411.726"/>
<line opacity="0.6" fill="none" stroke="#00A19A" stroke-width="3" stroke-miterlimit="10" enable-background="new    " x1="334.396" y1="389.84" x2="334.396" y2="411.726"/>
<line opacity="0.6" fill="none" stroke="#00A19A" stroke-width="3" stroke-miterlimit="10" enable-background="new    " x1="357.94" y1="389.84" x2="357.94" y2="411.726"/>
<line opacity="0.6" fill="none" stroke="#00A19A" stroke-width="3" stroke-miterlimit="10" enable-background="new    " x1="357.94" y1="389.84" x2="357.94" y2="411.726"/>
<line opacity="0.6" fill="none" stroke="#00A19A" stroke-width="3" stroke-miterlimit="10" enable-background="new    " x1="381.483" y1="389.84" x2="381.483" y2="411.726"/>
<line opacity="0.6" fill="none" stroke="#00A19A" stroke-width="3" stroke-miterlimit="10" enable-background="new    " x1="381.483" y1="389.84" x2="381.483" y2="411.726"/>
<line opacity="0.6" fill="none" stroke="#00A19A" stroke-width="3" stroke-miterlimit="10" enable-background="new    " x1="405.028" y1="389.84" x2="405.028" y2="411.726"/>
<line opacity="0.6" fill="none" stroke="#00A19A" stroke-width="3" stroke-miterlimit="10" enable-background="new    " x1="405.028" y1="389.84" x2="405.028" y2="411.726"/>
<line opacity="0.6" fill="none" stroke="#00A19A" stroke-width="3" stroke-miterlimit="10" enable-background="new    " x1="428.573" y1="389.84" x2="428.573" y2="411.726"/>
<line opacity="0.6" fill="none" stroke="#00A19A" stroke-width="3" stroke-miterlimit="10" enable-background="new    " x1="428.573" y1="389.84" x2="428.573" y2="411.726"/>
<line opacity="0.6" fill="none" stroke="#00A19A" stroke-width="3" stroke-miterlimit="10" enable-background="new    " x1="452.046" y1="389.84" x2="452.046" y2="411.726"/>
<line opacity="0.6" fill="none" stroke="#00A19A" stroke-width="3" stroke-miterlimit="10" enable-background="new    " x1="452.046" y1="389.84" x2="452.046" y2="411.726"/>
<line opacity="0.6" fill="none" stroke="#00A19A" stroke-width="3" stroke-miterlimit="10" enable-background="new    " x1="475.591" y1="389.84" x2="475.591" y2="411.726"/>
<path opacity="0.5" fill="none" stroke="#E30D18" stroke-width="4" stroke-miterlimit="10" enable-background="new    " d="
	M132.465,439.303c0,4.223-4.171,7.627-9.404,7.627s-9.404-3.404-9.404-7.627c0-4.225,9.404-21.299,9.404-21.299
	S132.465,435.078,132.465,439.303z"/>
<rect x="118.465" y="434.021" fill="none" width="8.343" height="8.508"/>
<text transform="matrix(1.205 0 0 1 119.9302 440.2422)" opacity="0.6" fill="#010202" enable-background="new    " font-family="'MyriadPro-Regular'" font-size="8.8012">5</text>
<text transform="matrix(1.205 0 0 1 119.9302 440.2422)" opacity="0.6" fill="none" stroke="#00A19A" stroke-miterlimit="10" enable-background="new    " font-family="'MyriadPro-Regular'" font-size="8.8012">5</text>
<rect x="3.712" y="391.248" fill="none" width="19.303" height="19.07"/>
<g enable-background="new    ">
	<path fill="#00A19A" d="M5.619,391.652c0.562-0.071,1.23-0.124,1.962-0.124c1.325,0,2.269,0.256,2.895,0.74
		c0.636,0.484,1.007,1.171,1.007,2.13c0,0.969-0.36,1.762-1.029,2.308c-0.668,0.555-1.771,0.854-3.16,0.854
		c-0.657,0-1.209-0.026-1.675-0.07V391.652z M6.542,396.899c0.233,0.035,0.573,0.044,0.933,0.044c1.973,0,3.044-0.916,3.044-2.518
		c0.01-1.4-0.944-2.29-2.896-2.29c-0.477,0-0.837,0.036-1.082,0.08V396.899z"/>
	<path fill="#00A19A" d="M15.492,397.506l-0.074-0.537h-0.032c-0.286,0.335-0.838,0.634-1.569,0.634c-1.04,0-1.57-0.607-1.57-1.224
		c0-1.03,1.103-1.594,3.086-1.585v-0.088c0-0.353-0.117-0.986-1.167-0.986c-0.477,0-0.976,0.123-1.336,0.317l-0.212-0.511
		c0.424-0.229,1.04-0.379,1.687-0.379c1.569,0,1.951,0.89,1.951,1.743v1.594c0,0.37,0.021,0.73,0.085,1.021H15.492z M15.354,395.332
		c-1.018-0.018-2.174,0.132-2.174,0.96c0,0.502,0.403,0.739,0.88,0.739c0.668,0,1.092-0.352,1.241-0.713
		c0.032-0.079,0.053-0.167,0.053-0.247V395.332z"/>
	<path fill="#00A19A" d="M18.101,393.245l1.125,2.519c0.117,0.281,0.244,0.616,0.329,0.871h0.021
		c0.096-0.255,0.202-0.581,0.329-0.889l1.018-2.501h0.986l-1.4,3.038c-0.668,1.461-1.125,2.21-1.761,2.668
		c-0.456,0.334-0.912,0.466-1.145,0.501L17.37,398.8c0.233-0.062,0.541-0.185,0.816-0.378c0.254-0.168,0.573-0.467,0.785-0.863
		c0.042-0.079,0.074-0.141,0.074-0.185s-0.021-0.105-0.063-0.203l-1.898-3.927H18.101z"/>
</g>
<g enable-background="new    ">
	<path fill="none" stroke="#00A19A" stroke-miterlimit="10" d="M5.619,391.652c0.562-0.071,1.23-0.124,1.962-0.124
		c1.325,0,2.269,0.256,2.895,0.74c0.636,0.484,1.007,1.171,1.007,2.13c0,0.969-0.36,1.762-1.029,2.308
		c-0.668,0.555-1.771,0.854-3.16,0.854c-0.657,0-1.209-0.026-1.675-0.07V391.652z M6.542,396.899
		c0.233,0.035,0.573,0.044,0.933,0.044c1.973,0,3.044-0.916,3.044-2.518c0.01-1.4-0.944-2.29-2.896-2.29
		c-0.477,0-0.837,0.036-1.082,0.08V396.899z"/>
	<path fill="none" stroke="#00A19A" stroke-miterlimit="10" d="M15.492,397.506l-0.074-0.537h-0.032
		c-0.286,0.335-0.838,0.634-1.569,0.634c-1.04,0-1.57-0.607-1.57-1.224c0-1.03,1.103-1.594,3.086-1.585v-0.088
		c0-0.353-0.117-0.986-1.167-0.986c-0.477,0-0.976,0.123-1.336,0.317l-0.212-0.511c0.424-0.229,1.04-0.379,1.687-0.379
		c1.569,0,1.951,0.89,1.951,1.743v1.594c0,0.37,0.021,0.73,0.085,1.021H15.492z M15.354,395.332
		c-1.018-0.018-2.174,0.132-2.174,0.96c0,0.502,0.403,0.739,0.88,0.739c0.668,0,1.092-0.352,1.241-0.713
		c0.032-0.079,0.053-0.167,0.053-0.247V395.332z"/>
	<path fill="none" stroke="#00A19A" stroke-miterlimit="10" d="M18.101,393.245l1.125,2.519c0.117,0.281,0.244,0.616,0.329,0.871
		h0.021c0.096-0.255,0.202-0.581,0.329-0.889l1.018-2.501h0.986l-1.4,3.038c-0.668,1.461-1.125,2.21-1.761,2.668
		c-0.456,0.334-0.912,0.466-1.145,0.501L17.37,398.8c0.233-0.062,0.541-0.185,0.816-0.378c0.254-0.168,0.573-0.467,0.785-0.863
		c0.042-0.079,0.074-0.141,0.074-0.185s-0.021-0.105-0.063-0.203l-1.898-3.927H18.101z"/>
</g>
<text transform="matrix(1.205 0 0 1 10.6821 408.0688)" fill="#00A19A" font-family="'MyriadPro-Regular'" font-size="8.8012">1</text>
<text transform="matrix(1.205 0 0 1 10.6821 408.0688)" fill="none" stroke="#00A19A" stroke-miterlimit="10" font-family="'MyriadPro-Regular'" font-size="8.8012">1</text>
<rect x="480.116" y="391.248" fill="none" width="19.303" height="19.07"/>
<g enable-background="new    ">
	<path fill="#00A19A" d="M481.988,391.652c0.563-0.071,1.23-0.124,1.961-0.124c1.326,0,2.27,0.256,2.896,0.74
		c0.635,0.484,1.008,1.171,1.008,2.13c0,0.969-0.361,1.762-1.029,2.308c-0.668,0.555-1.771,0.854-3.16,0.854
		c-0.658,0-1.209-0.026-1.676-0.07V391.652z M482.91,396.899c0.234,0.035,0.572,0.044,0.934,0.044c1.973,0,3.043-0.916,3.043-2.518
		c0.012-1.4-0.943-2.29-2.895-2.29c-0.477,0-0.838,0.036-1.082,0.08V396.899z"/>
	<path fill="#00A19A" d="M491.861,397.506l-0.074-0.537h-0.031c-0.287,0.335-0.838,0.634-1.57,0.634
		c-1.039,0-1.568-0.607-1.568-1.224c0-1.03,1.102-1.594,3.086-1.585v-0.088c0-0.353-0.117-0.986-1.166-0.986
		c-0.479,0-0.977,0.123-1.338,0.317l-0.211-0.511c0.424-0.229,1.039-0.379,1.686-0.379c1.57,0,1.951,0.89,1.951,1.743v1.594
		c0,0.37,0.021,0.73,0.086,1.021H491.861z M491.725,395.332c-1.02-0.018-2.174,0.132-2.174,0.96c0,0.502,0.402,0.739,0.879,0.739
		c0.668,0,1.094-0.352,1.242-0.713c0.031-0.079,0.053-0.167,0.053-0.247V395.332z"/>
	<path fill="#00A19A" d="M494.471,393.245l1.123,2.519c0.117,0.281,0.244,0.616,0.33,0.871h0.021
		c0.094-0.255,0.201-0.581,0.328-0.889l1.018-2.501h0.986l-1.4,3.038c-0.668,1.461-1.123,2.21-1.76,2.668
		c-0.455,0.334-0.912,0.466-1.145,0.501l-0.234-0.651c0.234-0.062,0.541-0.185,0.816-0.378c0.256-0.168,0.574-0.467,0.785-0.863
		c0.043-0.079,0.074-0.141,0.074-0.185s-0.021-0.105-0.063-0.203l-1.898-3.927H494.471z"/>
</g>
<g enable-background="new    ">
	<path fill="none" stroke="#00A19A" stroke-miterlimit="10" d="M481.988,391.652c0.563-0.071,1.23-0.124,1.961-0.124
		c1.326,0,2.27,0.256,2.896,0.74c0.635,0.484,1.008,1.171,1.008,2.13c0,0.969-0.361,1.762-1.029,2.308
		c-0.668,0.555-1.771,0.854-3.16,0.854c-0.658,0-1.209-0.026-1.676-0.07V391.652z M482.91,396.899
		c0.234,0.035,0.572,0.044,0.934,0.044c1.973,0,3.043-0.916,3.043-2.518c0.012-1.4-0.943-2.29-2.895-2.29
		c-0.477,0-0.838,0.036-1.082,0.08V396.899z"/>
	<path fill="none" stroke="#00A19A" stroke-miterlimit="10" d="M491.861,397.506l-0.074-0.537h-0.031
		c-0.287,0.335-0.838,0.634-1.57,0.634c-1.039,0-1.568-0.607-1.568-1.224c0-1.03,1.102-1.594,3.086-1.585v-0.088
		c0-0.353-0.117-0.986-1.166-0.986c-0.479,0-0.977,0.123-1.338,0.317l-0.211-0.511c0.424-0.229,1.039-0.379,1.686-0.379
		c1.57,0,1.951,0.89,1.951,1.743v1.594c0,0.37,0.021,0.73,0.086,1.021H491.861z M491.725,395.332
		c-1.02-0.018-2.174,0.132-2.174,0.96c0,0.502,0.402,0.739,0.879,0.739c0.668,0,1.094-0.352,1.242-0.713
		c0.031-0.079,0.053-0.167,0.053-0.247V395.332z"/>
	<path fill="none" stroke="#00A19A" stroke-miterlimit="10" d="M494.471,393.245l1.123,2.519c0.117,0.281,0.244,0.616,0.33,0.871
		h0.021c0.094-0.255,0.201-0.581,0.328-0.889l1.018-2.501h0.986l-1.4,3.038c-0.668,1.461-1.123,2.21-1.76,2.668
		c-0.455,0.334-0.912,0.466-1.145,0.501l-0.234-0.651c0.234-0.062,0.541-0.185,0.816-0.378c0.256-0.168,0.574-0.467,0.785-0.863
		c0.043-0.079,0.074-0.141,0.074-0.185s-0.021-0.105-0.063-0.203l-1.898-3.927H494.471z"/>
</g>
<text transform="matrix(1.205 0 0 1 484.293 408.0688)" fill="#00A19A" font-family="'MyriadPro-Regular'" font-size="8.8012">20</text>
<text transform="matrix(1.205 0 0 1 484.293 408.0688)" fill="none" stroke="#00A19A" stroke-miterlimit="10" font-family="'MyriadPro-Regular'" font-size="8.8012">20</text>
<path opacity="0.6" fill="#00A19A" stroke="#00A19A" stroke-width="4" stroke-miterlimit="10" enable-background="new    " d="
	M580.406,239.37h-55.029c-3.167,0-5.758-2.591-5.758-5.757v-25.572c0-3.167,2.591-5.757,5.758-5.757h55.029
	c3.167,0,5.758,2.591,5.758,5.757v25.572C586.164,236.779,583.573,239.37,580.406,239.37z"/>
<path opacity="0.6" fill="#00A19A" stroke="#00A19A" stroke-width="4" stroke-miterlimit="10" enable-background="new    " d="
	M579.975,291.617h-55.078c-3.166,0-5.757-2.591-5.757-5.757v-25.572c0-3.166,2.591-5.757,5.757-5.757h55.03
	c3.167,0,5.758,2.591,5.758,5.757v25.572C585.732,289.026,583.142,291.617,579.975,291.617z"/>
<rect x="307.783" y="509.945" fill="none" width="43.133" height="9.691"/>
<g enable-background="new    ">
	<path fill="#FFFFFF" d="M314.759,472.283v2.706h3.129v-2.706h0.845v6.469h-0.845v-3.033h-3.129v3.033h-0.835v-6.469H314.759z"/>
	<path fill="#FFFFFF" d="M322.723,478.752l-0.066-0.586h-0.029c-0.259,0.365-0.758,0.691-1.42,0.691
		c-0.941,0-1.421-0.662-1.421-1.334c0-1.123,0.998-1.737,2.793-1.728v-0.097c0-0.384-0.105-1.074-1.056-1.074
		c-0.432,0-0.883,0.134-1.209,0.345l-0.192-0.557c0.384-0.249,0.94-0.412,1.526-0.412c1.42,0,1.766,0.969,1.766,1.9v1.737
		c0,0.402,0.02,0.796,0.077,1.113H322.723z M322.599,476.381c-0.922-0.019-1.968,0.145-1.968,1.046c0,0.548,0.364,0.807,0.797,0.807
		c0.604,0,0.988-0.384,1.122-0.777c0.029-0.087,0.049-0.183,0.049-0.269V476.381z"/>
	<path fill="#FFFFFF" d="M324.248,478.263l2.102-2.736c0.202-0.249,0.394-0.47,0.604-0.72v-0.019h-2.515v-0.682h3.542l-0.01,0.527
		l-2.073,2.697c-0.191,0.26-0.384,0.489-0.595,0.729v0.02h2.716v0.672h-3.771V478.263z"/>
	<path fill="#FFFFFF" d="M329.824,472.801c0.009,0.288-0.202,0.519-0.538,0.519c-0.297,0-0.509-0.23-0.509-0.519
		c0-0.297,0.221-0.527,0.528-0.527C329.622,472.273,329.824,472.504,329.824,472.801z M328.883,478.752v-4.646h0.845v4.646H328.883z
		"/>
	<path fill="#FFFFFF" d="M335.016,477.484c0,0.48,0.01,0.902,0.038,1.268h-0.748l-0.049-0.759h-0.019
		c-0.221,0.375-0.711,0.864-1.536,0.864c-0.729,0-1.603-0.403-1.603-2.035v-2.716h0.845v2.572c0,0.883,0.269,1.478,1.036,1.478
		c0.566,0,0.96-0.394,1.113-0.768c0.048-0.125,0.077-0.278,0.077-0.432v-2.851h0.845V477.484z"/>
	<path fill="#FFFFFF" d="M336.415,475.363c0-0.479-0.009-0.873-0.038-1.257h0.739l0.038,0.749h0.029
		c0.259-0.442,0.69-0.854,1.459-0.854c0.633,0,1.113,0.384,1.314,0.931h0.02c0.144-0.259,0.326-0.461,0.518-0.604
		c0.278-0.211,0.586-0.326,1.027-0.326c0.614,0,1.526,0.403,1.526,2.016v2.735h-0.826v-2.63c0-0.893-0.326-1.431-1.007-1.431
		c-0.48,0-0.854,0.355-0.999,0.769c-0.038,0.115-0.066,0.269-0.066,0.422v2.87h-0.826v-2.783c0-0.739-0.326-1.277-0.969-1.277
		c-0.528,0-0.912,0.423-1.047,0.845c-0.048,0.125-0.066,0.27-0.066,0.413v2.803h-0.826V475.363z"/>
</g>
<g enable-background="new    ">
	<path fill="none" stroke="#FFFFFF" stroke-miterlimit="10" d="M314.759,472.283v2.706h3.129v-2.706h0.845v6.469h-0.845v-3.033
		h-3.129v3.033h-0.835v-6.469H314.759z"/>
	<path fill="none" stroke="#FFFFFF" stroke-miterlimit="10" d="M322.723,478.752l-0.066-0.586h-0.029
		c-0.259,0.365-0.758,0.691-1.42,0.691c-0.941,0-1.421-0.662-1.421-1.334c0-1.123,0.998-1.737,2.793-1.728v-0.097
		c0-0.384-0.105-1.074-1.056-1.074c-0.432,0-0.883,0.134-1.209,0.345l-0.192-0.557c0.384-0.249,0.94-0.412,1.526-0.412
		c1.42,0,1.766,0.969,1.766,1.9v1.737c0,0.402,0.02,0.796,0.077,1.113H322.723z M322.599,476.381
		c-0.922-0.019-1.968,0.145-1.968,1.046c0,0.548,0.364,0.807,0.797,0.807c0.604,0,0.988-0.384,1.122-0.777
		c0.029-0.087,0.049-0.183,0.049-0.269V476.381z"/>
	<path fill="none" stroke="#FFFFFF" stroke-miterlimit="10" d="M324.248,478.263l2.102-2.736c0.202-0.249,0.394-0.47,0.604-0.72
		v-0.019h-2.515v-0.682h3.542l-0.01,0.527l-2.073,2.697c-0.191,0.26-0.384,0.489-0.595,0.729v0.02h2.716v0.672h-3.771V478.263z"/>
	<path fill="none" stroke="#FFFFFF" stroke-miterlimit="10" d="M329.824,472.801c0.009,0.288-0.202,0.519-0.538,0.519
		c-0.297,0-0.509-0.23-0.509-0.519c0-0.297,0.221-0.527,0.528-0.527C329.622,472.273,329.824,472.504,329.824,472.801z
		 M328.883,478.752v-4.646h0.845v4.646H328.883z"/>
	<path fill="none" stroke="#FFFFFF" stroke-miterlimit="10" d="M335.016,477.484c0,0.48,0.01,0.902,0.038,1.268h-0.748l-0.049-0.759
		h-0.019c-0.221,0.375-0.711,0.864-1.536,0.864c-0.729,0-1.603-0.403-1.603-2.035v-2.716h0.845v2.572
		c0,0.883,0.269,1.478,1.036,1.478c0.566,0,0.96-0.394,1.113-0.768c0.048-0.125,0.077-0.278,0.077-0.432v-2.851h0.845V477.484z"/>
	<path fill="none" stroke="#FFFFFF" stroke-miterlimit="10" d="M336.415,475.363c0-0.479-0.009-0.873-0.038-1.257h0.739l0.038,0.749
		h0.029c0.259-0.442,0.69-0.854,1.459-0.854c0.633,0,1.113,0.384,1.314,0.931h0.02c0.144-0.259,0.326-0.461,0.518-0.604
		c0.278-0.211,0.586-0.326,1.027-0.326c0.614,0,1.526,0.403,1.526,2.016v2.735h-0.826v-2.63c0-0.893-0.326-1.431-1.007-1.431
		c-0.48,0-0.854,0.355-0.999,0.769c-0.038,0.115-0.066,0.269-0.066,0.422v2.87h-0.826v-2.783c0-0.739-0.326-1.277-0.969-1.277
		c-0.528,0-0.912,0.423-1.047,0.845c-0.048,0.125-0.066,0.27-0.066,0.413v2.803h-0.826V475.363z"/>
</g>
<rect x="254.685" y="467.579" fill="none" width="43.132" height="18.423"/>
<g enable-background="new    ">
	<path fill="#FFFFFF" d="M265.84,474.176c-0.308,0.153-0.922,0.307-1.708,0.307c-1.824,0-3.196-1.151-3.196-3.272
		c0-2.025,1.372-3.397,3.378-3.397c0.807,0,1.315,0.172,1.536,0.287l-0.202,0.682c-0.316-0.153-0.768-0.269-1.305-0.269
		c-1.517,0-2.524,0.97-2.524,2.669c0,1.583,0.912,2.601,2.485,2.601c0.509,0,1.027-0.106,1.363-0.269L265.84,474.176z"/>
	<path fill="#FFFFFF" d="M271.06,472.025c0,1.719-1.19,2.467-2.313,2.467c-1.258,0-2.228-0.922-2.228-2.39
		c0-1.555,1.018-2.467,2.304-2.467C270.158,469.636,271.06,470.605,271.06,472.025z M267.375,472.074
		c0,1.017,0.586,1.785,1.411,1.785c0.806,0,1.411-0.759,1.411-1.805c0-0.787-0.394-1.785-1.392-1.785
		C267.806,470.27,267.375,471.19,267.375,472.074z"/>
	<path fill="#FFFFFF" d="M276.328,472.025c0,1.719-1.19,2.467-2.313,2.467c-1.258,0-2.228-0.922-2.228-2.39
		c0-1.555,1.018-2.467,2.304-2.467C275.425,469.636,276.328,470.605,276.328,472.025z M272.642,472.074
		c0,1.017,0.586,1.785,1.411,1.785c0.806,0,1.411-0.759,1.411-1.805c0-0.787-0.394-1.785-1.392-1.785
		C273.074,470.27,272.642,471.19,272.642,472.074z"/>
	<path fill="#FFFFFF" d="M277.391,467.572h0.845v6.814h-0.845V467.572z"/>
	<path fill="#FFFFFF" d="M280.597,468.436c0.009,0.289-0.202,0.52-0.538,0.52c-0.297,0-0.509-0.23-0.509-0.52
		c0-0.297,0.221-0.527,0.528-0.527C280.395,467.908,280.597,468.139,280.597,468.436z M279.656,474.387v-4.646h0.845v4.646H279.656z
		"/>
	<path fill="#FFFFFF" d="M281.901,470.998c0-0.479-0.009-0.873-0.038-1.257h0.749l0.048,0.769h0.02
		c0.229-0.441,0.768-0.874,1.535-0.874c0.644,0,1.642,0.384,1.642,1.978v2.773h-0.845v-2.678c0-0.748-0.278-1.373-1.075-1.373
		c-0.557,0-0.988,0.395-1.133,0.864c-0.038,0.105-0.058,0.249-0.058,0.394v2.793h-0.845V470.998z"/>
	<path fill="#FFFFFF" d="M291.23,469.741c-0.02,0.336-0.039,0.71-0.039,1.276v2.697c0,1.065-0.211,1.719-0.662,2.121
		c-0.451,0.422-1.104,0.557-1.688,0.557c-0.557,0-1.171-0.135-1.546-0.384l0.211-0.644c0.308,0.192,0.787,0.365,1.363,0.365
		c0.864,0,1.497-0.451,1.497-1.622v-0.519h-0.019c-0.26,0.432-0.759,0.777-1.479,0.777c-1.151,0-1.978-0.979-1.978-2.265
		c0-1.574,1.027-2.467,2.093-2.467c0.807,0,1.248,0.423,1.449,0.806h0.02l0.038-0.7H291.23z M290.356,471.574
		c0-0.144-0.009-0.269-0.048-0.384c-0.153-0.489-0.566-0.893-1.181-0.893c-0.806,0-1.382,0.682-1.382,1.757
		c0,0.912,0.461,1.67,1.373,1.67c0.518,0,0.988-0.326,1.171-0.863c0.048-0.145,0.066-0.308,0.066-0.451V471.574z"/>
</g>
<g enable-background="new    ">
	<path fill="none" stroke="#FFFFFF" stroke-miterlimit="10" d="M265.84,474.176c-0.308,0.153-0.922,0.307-1.708,0.307
		c-1.824,0-3.196-1.151-3.196-3.272c0-2.025,1.372-3.397,3.378-3.397c0.807,0,1.315,0.172,1.536,0.287l-0.202,0.682
		c-0.316-0.153-0.768-0.269-1.305-0.269c-1.517,0-2.524,0.97-2.524,2.669c0,1.583,0.912,2.601,2.485,2.601
		c0.509,0,1.027-0.106,1.363-0.269L265.84,474.176z"/>
	<path fill="none" stroke="#FFFFFF" stroke-miterlimit="10" d="M271.06,472.025c0,1.719-1.19,2.467-2.313,2.467
		c-1.258,0-2.228-0.922-2.228-2.39c0-1.555,1.018-2.467,2.304-2.467C270.158,469.636,271.06,470.605,271.06,472.025z
		 M267.375,472.074c0,1.017,0.586,1.785,1.411,1.785c0.806,0,1.411-0.759,1.411-1.805c0-0.787-0.394-1.785-1.392-1.785
		C267.806,470.27,267.375,471.19,267.375,472.074z"/>
	<path fill="none" stroke="#FFFFFF" stroke-miterlimit="10" d="M276.328,472.025c0,1.719-1.19,2.467-2.313,2.467
		c-1.258,0-2.228-0.922-2.228-2.39c0-1.555,1.018-2.467,2.304-2.467C275.425,469.636,276.328,470.605,276.328,472.025z
		 M272.642,472.074c0,1.017,0.586,1.785,1.411,1.785c0.806,0,1.411-0.759,1.411-1.805c0-0.787-0.394-1.785-1.392-1.785
		C273.074,470.27,272.642,471.19,272.642,472.074z"/>
	<path fill="none" stroke="#FFFFFF" stroke-miterlimit="10" d="M277.391,467.572h0.845v6.814h-0.845V467.572z"/>
	<path fill="none" stroke="#FFFFFF" stroke-miterlimit="10" d="M280.597,468.436c0.009,0.289-0.202,0.52-0.538,0.52
		c-0.297,0-0.509-0.23-0.509-0.52c0-0.297,0.221-0.527,0.528-0.527C280.395,467.908,280.597,468.139,280.597,468.436z
		 M279.656,474.387v-4.646h0.845v4.646H279.656z"/>
	<path fill="none" stroke="#FFFFFF" stroke-miterlimit="10" d="M281.901,470.998c0-0.479-0.009-0.873-0.038-1.257h0.749l0.048,0.769
		h0.02c0.229-0.441,0.768-0.874,1.535-0.874c0.644,0,1.642,0.384,1.642,1.978v2.773h-0.845v-2.678c0-0.748-0.278-1.373-1.075-1.373
		c-0.557,0-0.988,0.395-1.133,0.864c-0.038,0.105-0.058,0.249-0.058,0.394v2.793h-0.845V470.998z"/>
	<path fill="none" stroke="#FFFFFF" stroke-miterlimit="10" d="M291.23,469.741c-0.02,0.336-0.039,0.71-0.039,1.276v2.697
		c0,1.065-0.211,1.719-0.662,2.121c-0.451,0.422-1.104,0.557-1.688,0.557c-0.557,0-1.171-0.135-1.546-0.384l0.211-0.644
		c0.308,0.192,0.787,0.365,1.363,0.365c0.864,0,1.497-0.451,1.497-1.622v-0.519h-0.019c-0.26,0.432-0.759,0.777-1.479,0.777
		c-1.151,0-1.978-0.979-1.978-2.265c0-1.574,1.027-2.467,2.093-2.467c0.807,0,1.248,0.423,1.449,0.806h0.02l0.038-0.7H291.23z
		 M290.356,471.574c0-0.144-0.009-0.269-0.048-0.384c-0.153-0.489-0.566-0.893-1.181-0.893c-0.806,0-1.382,0.682-1.382,1.757
		c0,0.912,0.461,1.67,1.373,1.67c0.518,0,0.988-0.326,1.171-0.863c0.048-0.145,0.066-0.308,0.066-0.451V471.574z"/>
</g>
<g enable-background="new    ">
	<path fill="#FFFFFF" d="M266.579,484.884c0.374,0.23,0.921,0.423,1.497,0.423c0.854,0,1.354-0.451,1.354-1.104
		c0-0.604-0.346-0.95-1.219-1.286c-1.056-0.375-1.709-0.922-1.709-1.833c0-1.008,0.835-1.757,2.093-1.757
		c0.662,0,1.142,0.153,1.43,0.316l-0.23,0.682c-0.211-0.115-0.643-0.307-1.229-0.307c-0.883,0-1.219,0.527-1.219,0.969
		c0,0.604,0.394,0.902,1.286,1.248c1.095,0.422,1.651,0.95,1.651,1.9c0,0.998-0.739,1.862-2.266,1.862
		c-0.624,0-1.305-0.183-1.65-0.413L266.579,484.884z"/>
	<path fill="#FFFFFF" d="M272.413,479.922v1.334h1.21v0.644h-1.21v2.505c0,0.576,0.163,0.902,0.634,0.902
		c0.221,0,0.384-0.029,0.489-0.058l0.038,0.634c-0.163,0.066-0.422,0.115-0.748,0.115c-0.394,0-0.71-0.125-0.912-0.355
		c-0.24-0.25-0.326-0.662-0.326-1.209v-2.534h-0.72v-0.644h0.72v-1.113L272.413,479.922z"/>
	<path fill="#FFFFFF" d="M277.143,485.901l-0.066-0.585h-0.029c-0.259,0.364-0.758,0.69-1.42,0.69c-0.941,0-1.421-0.662-1.421-1.334
		c0-1.123,0.998-1.737,2.793-1.728v-0.096c0-0.384-0.105-1.075-1.056-1.075c-0.432,0-0.883,0.135-1.209,0.346l-0.192-0.557
		c0.384-0.25,0.94-0.413,1.526-0.413c1.42,0,1.766,0.97,1.766,1.9v1.737c0,0.403,0.02,0.797,0.077,1.113H277.143z M277.019,483.531
		c-0.922-0.02-1.968,0.144-1.968,1.046c0,0.547,0.364,0.807,0.797,0.807c0.604,0,0.988-0.385,1.122-0.778
		c0.029-0.086,0.049-0.182,0.049-0.269V483.531z"/>
	<path fill="#FFFFFF" d="M280.213,479.922v1.334h1.21v0.644h-1.21v2.505c0,0.576,0.163,0.902,0.634,0.902
		c0.221,0,0.384-0.029,0.489-0.058l0.038,0.634c-0.163,0.066-0.422,0.115-0.748,0.115c-0.394,0-0.71-0.125-0.912-0.355
		c-0.24-0.25-0.326-0.662-0.326-1.209v-2.534h-0.72v-0.644h0.72v-1.113L280.213,479.922z"/>
	<path fill="#FFFFFF" d="M282.843,483.732c0.02,1.143,0.749,1.612,1.594,1.612c0.604,0,0.969-0.105,1.285-0.239l0.145,0.604
		c-0.298,0.134-0.807,0.288-1.545,0.288c-1.431,0-2.285-0.941-2.285-2.343c0-1.4,0.826-2.505,2.179-2.505
		c1.517,0,1.92,1.334,1.92,2.188c0,0.173-0.02,0.308-0.028,0.394H282.843z M285.32,483.128c0.01-0.537-0.221-1.372-1.171-1.372
		c-0.854,0-1.229,0.786-1.296,1.372H285.32z"/>
</g>
<g enable-background="new    ">
	<path fill="none" stroke="#FFFFFF" stroke-miterlimit="10" d="M266.579,484.884c0.374,0.23,0.921,0.423,1.497,0.423
		c0.854,0,1.354-0.451,1.354-1.104c0-0.604-0.346-0.95-1.219-1.286c-1.056-0.375-1.709-0.922-1.709-1.833
		c0-1.008,0.835-1.757,2.093-1.757c0.662,0,1.142,0.153,1.43,0.316l-0.23,0.682c-0.211-0.115-0.643-0.307-1.229-0.307
		c-0.883,0-1.219,0.527-1.219,0.969c0,0.604,0.394,0.902,1.286,1.248c1.095,0.422,1.651,0.95,1.651,1.9
		c0,0.998-0.739,1.862-2.266,1.862c-0.624,0-1.305-0.183-1.65-0.413L266.579,484.884z"/>
	<path fill="none" stroke="#FFFFFF" stroke-miterlimit="10" d="M272.413,479.922v1.334h1.21v0.644h-1.21v2.505
		c0,0.576,0.163,0.902,0.634,0.902c0.221,0,0.384-0.029,0.489-0.058l0.038,0.634c-0.163,0.066-0.422,0.115-0.748,0.115
		c-0.394,0-0.71-0.125-0.912-0.355c-0.24-0.25-0.326-0.662-0.326-1.209v-2.534h-0.72v-0.644h0.72v-1.113L272.413,479.922z"/>
	<path fill="none" stroke="#FFFFFF" stroke-miterlimit="10" d="M277.143,485.901l-0.066-0.585h-0.029
		c-0.259,0.364-0.758,0.69-1.42,0.69c-0.941,0-1.421-0.662-1.421-1.334c0-1.123,0.998-1.737,2.793-1.728v-0.096
		c0-0.384-0.105-1.075-1.056-1.075c-0.432,0-0.883,0.135-1.209,0.346l-0.192-0.557c0.384-0.25,0.94-0.413,1.526-0.413
		c1.42,0,1.766,0.97,1.766,1.9v1.737c0,0.403,0.02,0.797,0.077,1.113H277.143z M277.019,483.531
		c-0.922-0.02-1.968,0.144-1.968,1.046c0,0.547,0.364,0.807,0.797,0.807c0.604,0,0.988-0.385,1.122-0.778
		c0.029-0.086,0.049-0.182,0.049-0.269V483.531z"/>
	<path fill="none" stroke="#FFFFFF" stroke-miterlimit="10" d="M280.213,479.922v1.334h1.21v0.644h-1.21v2.505
		c0,0.576,0.163,0.902,0.634,0.902c0.221,0,0.384-0.029,0.489-0.058l0.038,0.634c-0.163,0.066-0.422,0.115-0.748,0.115
		c-0.394,0-0.71-0.125-0.912-0.355c-0.24-0.25-0.326-0.662-0.326-1.209v-2.534h-0.72v-0.644h0.72v-1.113L280.213,479.922z"/>
	<path fill="none" stroke="#FFFFFF" stroke-miterlimit="10" d="M282.843,483.732c0.02,1.143,0.749,1.612,1.594,1.612
		c0.604,0,0.969-0.105,1.285-0.239l0.145,0.604c-0.298,0.134-0.807,0.288-1.545,0.288c-1.431,0-2.285-0.941-2.285-2.343
		c0-1.4,0.826-2.505,2.179-2.505c1.517,0,1.92,1.334,1.92,2.188c0,0.173-0.02,0.308-0.028,0.394H282.843z M285.32,483.128
		c0.01-0.537-0.221-1.372-1.171-1.372c-0.854,0-1.229,0.786-1.296,1.372H285.32z"/>
</g>
<rect x="203.625" y="509.945" fill="none" width="43.132" height="9.691"/>
<g enable-background="new    ">
	<path fill="#FFFFFF" d="M214.727,472.993h-1.968v-0.71h4.79v0.71h-1.977v5.759h-0.845V472.993z"/>
	<path fill="#FFFFFF" d="M218.709,476.583c0.019,1.142,0.749,1.612,1.593,1.612c0.604,0,0.969-0.105,1.286-0.24l0.144,0.604
		c-0.298,0.135-0.806,0.288-1.545,0.288c-1.43,0-2.284-0.94-2.284-2.342s0.825-2.505,2.179-2.505c1.517,0,1.919,1.334,1.919,2.188
		c0,0.173-0.019,0.307-0.029,0.394H218.709z M221.185,475.978c0.01-0.537-0.221-1.372-1.171-1.372c-0.854,0-1.229,0.787-1.295,1.372
		H221.185z"/>
	<path fill="#FFFFFF" d="M223.046,475.363c0-0.479-0.01-0.873-0.039-1.257h0.739l0.038,0.749h0.029
		c0.259-0.442,0.691-0.854,1.459-0.854c0.633,0,1.113,0.384,1.315,0.931h0.019c0.144-0.259,0.327-0.461,0.519-0.604
		c0.278-0.211,0.585-0.326,1.027-0.326c0.614,0,1.526,0.403,1.526,2.016v2.735h-0.825v-2.63c0-0.893-0.326-1.431-1.008-1.431
		c-0.48,0-0.854,0.355-0.998,0.769c-0.039,0.115-0.067,0.269-0.067,0.422v2.87h-0.825v-2.783c0-0.739-0.327-1.277-0.97-1.277
		c-0.528,0-0.912,0.423-1.046,0.845c-0.048,0.125-0.067,0.27-0.067,0.413v2.803h-0.825V475.363z"/>
	<path fill="#FFFFFF" d="M231.048,475.623c0-0.596-0.019-1.075-0.039-1.517h0.758l0.039,0.797h0.019
		c0.346-0.566,0.893-0.902,1.651-0.902c1.123,0,1.967,0.95,1.967,2.361c0,1.67-1.017,2.495-2.111,2.495
		c-0.614,0-1.152-0.269-1.43-0.729h-0.019v2.524h-0.835V475.623z M231.883,476.861c0,0.124,0.019,0.239,0.039,0.345
		c0.153,0.586,0.662,0.989,1.267,0.989c0.893,0,1.411-0.729,1.411-1.795c0-0.931-0.49-1.728-1.382-1.728
		c-0.576,0-1.113,0.412-1.276,1.046c-0.029,0.105-0.058,0.23-0.058,0.346V476.861z"/>
</g>
<g enable-background="new    ">
	<path fill="none" stroke="#F39200" stroke-miterlimit="10" d="M214.727,472.993h-1.968v-0.71h4.79v0.71h-1.977v5.759h-0.845
		V472.993z"/>
	<path fill="none" stroke="#F39200" stroke-miterlimit="10" d="M218.709,476.583c0.019,1.142,0.749,1.612,1.593,1.612
		c0.604,0,0.969-0.105,1.286-0.24l0.144,0.604c-0.298,0.135-0.806,0.288-1.545,0.288c-1.43,0-2.284-0.94-2.284-2.342
		s0.825-2.505,2.179-2.505c1.517,0,1.919,1.334,1.919,2.188c0,0.173-0.019,0.307-0.029,0.394H218.709z M221.185,475.978
		c0.01-0.537-0.221-1.372-1.171-1.372c-0.854,0-1.229,0.787-1.295,1.372H221.185z"/>
	<path fill="none" stroke="#F39200" stroke-miterlimit="10" d="M223.046,475.363c0-0.479-0.01-0.873-0.039-1.257h0.739l0.038,0.749
		h0.029c0.259-0.442,0.691-0.854,1.459-0.854c0.633,0,1.113,0.384,1.315,0.931h0.019c0.144-0.259,0.327-0.461,0.519-0.604
		c0.278-0.211,0.585-0.326,1.027-0.326c0.614,0,1.526,0.403,1.526,2.016v2.735h-0.825v-2.63c0-0.893-0.326-1.431-1.008-1.431
		c-0.48,0-0.854,0.355-0.998,0.769c-0.039,0.115-0.067,0.269-0.067,0.422v2.87h-0.825v-2.783c0-0.739-0.327-1.277-0.97-1.277
		c-0.528,0-0.912,0.423-1.046,0.845c-0.048,0.125-0.067,0.27-0.067,0.413v2.803h-0.825V475.363z"/>
	<path fill="none" stroke="#F39200" stroke-miterlimit="10" d="M231.048,475.623c0-0.596-0.019-1.075-0.039-1.517h0.758l0.039,0.797
		h0.019c0.346-0.566,0.893-0.902,1.651-0.902c1.123,0,1.967,0.95,1.967,2.361c0,1.67-1.017,2.495-2.111,2.495
		c-0.614,0-1.152-0.269-1.43-0.729h-0.019v2.524h-0.835V475.623z M231.883,476.861c0,0.124,0.019,0.239,0.039,0.345
		c0.153,0.586,0.662,0.989,1.267,0.989c0.893,0,1.411-0.729,1.411-1.795c0-0.931-0.49-1.728-1.382-1.728
		c-0.576,0-1.113,0.412-1.276,1.046c-0.029,0.105-0.058,0.23-0.058,0.346V476.861z"/>
</g>
<rect x="528.639" y="160.687" fill="none" width="47.978" height="20.63"/>
<g enable-background="new    ">
	<path fill="#E71D73" stroke="#E71D73" stroke-miterlimit="10" d="M535.653,154.022h6.093v1.226h-4.632v3.76h4.279v1.208h-4.279
		v5.119h-1.461V154.022z"/>
	<path fill="#E71D73" stroke="#E71D73" stroke-miterlimit="10" d="M543.781,153.418h1.477v11.917h-1.477V153.418z"/>
	<path fill="#E71D73" stroke="#E71D73" stroke-miterlimit="10" d="M555.096,161.207c0,3.004-2.081,4.313-4.045,4.313
		c-2.199,0-3.895-1.611-3.895-4.179c0-2.719,1.779-4.314,4.028-4.314C553.518,157.027,555.096,158.722,555.096,161.207z
		 M548.65,161.291c0,1.779,1.023,3.122,2.467,3.122c1.41,0,2.468-1.326,2.468-3.155c0-1.376-0.688-3.122-2.434-3.122
		C549.405,158.135,548.65,159.746,548.65,161.291z"/>
	<path fill="#E71D73" stroke="#E71D73" stroke-miterlimit="10" d="M564.314,161.207c0,3.004-2.081,4.313-4.045,4.313
		c-2.199,0-3.895-1.611-3.895-4.179c0-2.719,1.779-4.314,4.028-4.314C562.736,157.027,564.314,158.722,564.314,161.207z
		 M557.869,161.291c0,1.779,1.023,3.122,2.467,3.122c1.41,0,2.468-1.326,2.468-3.155c0-1.376-0.688-3.122-2.434-3.122
		C558.624,158.135,557.869,159.746,557.869,161.291z"/>
	<path fill="#E71D73" stroke="#E71D73" stroke-miterlimit="10" d="M566.182,159.746c0-0.957-0.017-1.779-0.067-2.535h1.292
		l0.051,1.595h0.067c0.369-1.091,1.259-1.779,2.249-1.779c0.168,0,0.285,0.017,0.419,0.051v1.393c-0.15-0.034-0.302-0.05-0.503-0.05
		c-1.041,0-1.779,0.789-1.98,1.896c-0.034,0.201-0.067,0.437-0.067,0.688v4.331h-1.46V159.746z"/>
	<path fill="#E71D73" stroke="#E71D73" stroke-miterlimit="10" d="M550.286,175.952h-0.033l-1.896,1.024l-0.285-1.125l2.383-1.276
		h1.259v10.91h-1.427V175.952z"/>
</g>
<rect x="528.639" y="213.415" fill="none" width="47.978" height="20.63"/>
<rect x="528.639" y="264.798" fill="none" width="47.978" height="20.631"/>
<g>
	<path fill="#00A19A" d="M530.798,302.94c-5.421,0-9.835,4.414-9.835,9.835c0,5.422,4.414,9.836,9.835,9.836
		c5.422,0,9.836-4.414,9.836-9.836C540.634,307.354,536.22,302.94,530.798,302.94z M535.5,313.543l-5.854,4.03
		c-0.144,0.096-0.336,0.192-0.527,0.192c-0.145,0-0.288-0.048-0.432-0.097c-0.336-0.144-0.528-0.479-0.528-0.863v-8.061
		c0-0.335,0.192-0.671,0.528-0.863c0.336-0.144,0.671-0.144,1.007,0.048l5.854,4.03c0.24,0.192,0.432,0.479,0.432,0.768
		C535.932,313.063,535.788,313.352,535.5,313.543z"/>
	<rect x="544.999" y="307.69" fill="none" width="43.516" height="20.15"/>
	<g enable-background="new    ">
		<path fill="#00A19A" d="M545.684,308.077c0.383-0.063,0.884-0.118,1.521-0.118c0.783,0,1.357,0.183,1.722,0.511
			c0.337,0.291,0.537,0.737,0.537,1.284c0,0.556-0.164,0.993-0.474,1.312c-0.419,0.446-1.103,0.674-1.877,0.674
			c-0.236,0-0.455-0.009-0.638-0.055v2.46h-0.792V308.077z M546.476,311.038c0.174,0.046,0.393,0.063,0.656,0.063
			c0.957,0,1.54-0.464,1.54-1.312c0-0.811-0.574-1.202-1.449-1.202c-0.346,0-0.61,0.027-0.747,0.063V311.038z"/>
		<path fill="#00A19A" d="M550.506,307.677h0.802v6.468h-0.802V307.677z"/>
		<path fill="#00A19A" d="M555.099,314.145l-0.063-0.556h-0.027c-0.246,0.346-0.72,0.656-1.349,0.656
			c-0.893,0-1.349-0.629-1.349-1.267c0-1.065,0.948-1.648,2.651-1.64v-0.091c0-0.364-0.101-1.021-1.002-1.021
			c-0.41,0-0.838,0.128-1.147,0.328l-0.183-0.528c0.364-0.237,0.893-0.392,1.448-0.392c1.349,0,1.677,0.92,1.677,1.804v1.648
			c0,0.383,0.018,0.756,0.072,1.057H555.099z M554.98,311.895c-0.875-0.019-1.868,0.137-1.868,0.993
			c0,0.519,0.347,0.765,0.757,0.765c0.573,0,0.938-0.364,1.065-0.737c0.027-0.082,0.046-0.174,0.046-0.255V311.895z"/>
		<path fill="#00A19A" d="M557.342,309.735l0.966,2.605c0.101,0.292,0.21,0.638,0.282,0.902h0.019
			c0.082-0.265,0.173-0.602,0.282-0.921l0.875-2.587h0.847l-1.202,3.143c-0.574,1.513-0.966,2.287-1.513,2.761
			c-0.392,0.346-0.783,0.482-0.983,0.52l-0.2-0.675c0.2-0.063,0.465-0.191,0.701-0.392c0.219-0.173,0.492-0.482,0.674-0.893
			c0.037-0.082,0.064-0.146,0.064-0.191s-0.019-0.109-0.055-0.209l-1.631-4.063H557.342z"/>
		<path fill="#00A19A" d="M563.304,308.087c0.482-0.073,1.057-0.128,1.686-0.128c1.139,0,1.949,0.265,2.486,0.766
			c0.547,0.501,0.865,1.211,0.865,2.204c0,1.002-0.31,1.822-0.883,2.387c-0.574,0.574-1.521,0.884-2.715,0.884
			c-0.565,0-1.039-0.027-1.439-0.073V308.087z M564.096,313.516c0.201,0.037,0.492,0.046,0.802,0.046
			c1.694,0,2.615-0.947,2.615-2.605c0.009-1.448-0.812-2.368-2.487-2.368c-0.41,0-0.72,0.036-0.93,0.082V313.516z"/>
		<path fill="#00A19A" d="M571.789,314.145l-0.063-0.556h-0.027c-0.246,0.346-0.72,0.656-1.349,0.656
			c-0.893,0-1.349-0.629-1.349-1.267c0-1.065,0.948-1.648,2.651-1.64v-0.091c0-0.364-0.101-1.021-1.002-1.021
			c-0.41,0-0.838,0.128-1.147,0.328l-0.183-0.528c0.364-0.237,0.893-0.392,1.448-0.392c1.349,0,1.677,0.92,1.677,1.804v1.648
			c0,0.383,0.018,0.756,0.072,1.057H571.789z M571.671,311.895c-0.875-0.019-1.868,0.137-1.868,0.993
			c0,0.519,0.347,0.765,0.757,0.765c0.573,0,0.938-0.364,1.065-0.737c0.027-0.082,0.046-0.174,0.046-0.255V311.895z"/>
		<path fill="#00A19A" d="M574.032,309.735l0.966,2.605c0.101,0.292,0.21,0.638,0.282,0.902h0.019
			c0.082-0.265,0.173-0.602,0.282-0.921l0.875-2.587h0.847l-1.202,3.143c-0.574,1.513-0.966,2.287-1.513,2.761
			c-0.392,0.346-0.783,0.482-0.983,0.52l-0.2-0.675c0.2-0.063,0.465-0.191,0.701-0.392c0.219-0.173,0.492-0.482,0.674-0.893
			c0.037-0.082,0.064-0.146,0.064-0.191s-0.019-0.109-0.055-0.209l-1.631-4.063H574.032z"/>
	</g>
	<g enable-background="new    ">
		<path fill="none" stroke="#00A19A" stroke-miterlimit="10" d="M545.684,308.077c0.383-0.063,0.884-0.118,1.521-0.118
			c0.783,0,1.357,0.183,1.722,0.511c0.337,0.291,0.537,0.737,0.537,1.284c0,0.556-0.164,0.993-0.474,1.312
			c-0.419,0.446-1.103,0.674-1.877,0.674c-0.236,0-0.455-0.009-0.638-0.055v2.46h-0.792V308.077z M546.476,311.038
			c0.174,0.046,0.393,0.063,0.656,0.063c0.957,0,1.54-0.464,1.54-1.312c0-0.811-0.574-1.202-1.449-1.202
			c-0.346,0-0.61,0.027-0.747,0.063V311.038z"/>
		<path fill="none" stroke="#00A19A" stroke-miterlimit="10" d="M550.506,307.677h0.802v6.468h-0.802V307.677z"/>
		<path fill="none" stroke="#00A19A" stroke-miterlimit="10" d="M555.099,314.145l-0.063-0.556h-0.027
			c-0.246,0.346-0.72,0.656-1.349,0.656c-0.893,0-1.349-0.629-1.349-1.267c0-1.065,0.948-1.648,2.651-1.64v-0.091
			c0-0.364-0.101-1.021-1.002-1.021c-0.41,0-0.838,0.128-1.147,0.328l-0.183-0.528c0.364-0.237,0.893-0.392,1.448-0.392
			c1.349,0,1.677,0.92,1.677,1.804v1.648c0,0.383,0.018,0.756,0.072,1.057H555.099z M554.98,311.895
			c-0.875-0.019-1.868,0.137-1.868,0.993c0,0.519,0.347,0.765,0.757,0.765c0.573,0,0.938-0.364,1.065-0.737
			c0.027-0.082,0.046-0.174,0.046-0.255V311.895z"/>
		<path fill="none" stroke="#00A19A" stroke-miterlimit="10" d="M557.342,309.735l0.966,2.605c0.101,0.292,0.21,0.638,0.282,0.902
			h0.019c0.082-0.265,0.173-0.602,0.282-0.921l0.875-2.587h0.847l-1.202,3.143c-0.574,1.513-0.966,2.287-1.513,2.761
			c-0.392,0.346-0.783,0.482-0.983,0.52l-0.2-0.675c0.2-0.063,0.465-0.191,0.701-0.392c0.219-0.173,0.492-0.482,0.674-0.893
			c0.037-0.082,0.064-0.146,0.064-0.191s-0.019-0.109-0.055-0.209l-1.631-4.063H557.342z"/>
		<path fill="none" stroke="#00A19A" stroke-miterlimit="10" d="M563.304,308.087c0.482-0.073,1.057-0.128,1.686-0.128
			c1.139,0,1.949,0.265,2.486,0.766c0.547,0.501,0.865,1.211,0.865,2.204c0,1.002-0.31,1.822-0.883,2.387
			c-0.574,0.574-1.521,0.884-2.715,0.884c-0.565,0-1.039-0.027-1.439-0.073V308.087z M564.096,313.516
			c0.201,0.037,0.492,0.046,0.802,0.046c1.694,0,2.615-0.947,2.615-2.605c0.009-1.448-0.812-2.368-2.487-2.368
			c-0.41,0-0.72,0.036-0.93,0.082V313.516z"/>
		<path fill="none" stroke="#00A19A" stroke-miterlimit="10" d="M571.789,314.145l-0.063-0.556h-0.027
			c-0.246,0.346-0.72,0.656-1.349,0.656c-0.893,0-1.349-0.629-1.349-1.267c0-1.065,0.948-1.648,2.651-1.64v-0.091
			c0-0.364-0.101-1.021-1.002-1.021c-0.41,0-0.838,0.128-1.147,0.328l-0.183-0.528c0.364-0.237,0.893-0.392,1.448-0.392
			c1.349,0,1.677,0.92,1.677,1.804v1.648c0,0.383,0.018,0.756,0.072,1.057H571.789z M571.671,311.895
			c-0.875-0.019-1.868,0.137-1.868,0.993c0,0.519,0.347,0.765,0.757,0.765c0.573,0,0.938-0.364,1.065-0.737
			c0.027-0.082,0.046-0.174,0.046-0.255V311.895z"/>
		<path fill="none" stroke="#00A19A" stroke-miterlimit="10" d="M574.032,309.735l0.966,2.605c0.101,0.292,0.21,0.638,0.282,0.902
			h0.019c0.082-0.265,0.173-0.602,0.282-0.921l0.875-2.587h0.847l-1.202,3.143c-0.574,1.513-0.966,2.287-1.513,2.761
			c-0.392,0.346-0.783,0.482-0.983,0.52l-0.2-0.675c0.2-0.063,0.465-0.191,0.701-0.392c0.219-0.173,0.492-0.482,0.674-0.893
			c0.037-0.082,0.064-0.146,0.064-0.191s-0.019-0.109-0.055-0.209l-1.631-4.063H574.032z"/>
	</g>
</g>
<path fill="#00A19A" stroke="#00A19A" stroke-miterlimit="10" d="M579.495,363.536H526.72c-3.166,0-5.757-2.591-5.757-5.758v-6.381
	c0-3.167,2.591-5.757,5.757-5.757h52.775c3.167,0,5.757,2.59,5.757,5.757v6.381C585.252,360.945,582.662,363.536,579.495,363.536z"
	/>
<rect x="541.593" y="350.534" fill="none" width="23.029" height="8.107"/>
<g enable-background="new    ">
	<path fill="#FFFFFF" d="M543.765,351.836h-0.018l-1.029,0.556l-0.155-0.61l1.294-0.692h0.683v5.921h-0.774V351.836z"/>
	<path fill="#FFFFFF" d="M549.179,357.01v-1.612h-2.751v-0.528l2.642-3.78h0.865v3.68h0.829v0.629h-0.829v1.612H549.179z
		 M549.179,354.769v-1.977c0-0.31,0.009-0.619,0.027-0.929h-0.027c-0.183,0.346-0.328,0.601-0.492,0.874l-1.448,2.014v0.018H549.179
		z"/>
	<path fill="#FFFFFF" d="M551.441,353.33c0-0.337,0.228-0.573,0.547-0.573c0.318,0,0.528,0.236,0.537,0.573
		c0,0.319-0.209,0.565-0.547,0.565C551.66,353.895,551.441,353.649,551.441,353.33z M551.441,356.545
		c0-0.337,0.228-0.573,0.547-0.573c0.318,0,0.528,0.236,0.537,0.573c0,0.319-0.209,0.565-0.547,0.565
		C551.66,357.111,551.441,356.865,551.441,356.545z"/>
	<path fill="#FFFFFF" d="M553.456,356.09c0.228,0.146,0.756,0.373,1.312,0.373c1.029,0,1.348-0.655,1.339-1.147
		c-0.009-0.829-0.756-1.185-1.53-1.185h-0.446v-0.601h0.446c0.583,0,1.321-0.301,1.321-1.002c0-0.474-0.301-0.894-1.039-0.894
		c-0.474,0-0.929,0.21-1.184,0.393l-0.21-0.583c0.31-0.229,0.911-0.456,1.549-0.456c1.166,0,1.694,0.692,1.694,1.412
		c0,0.61-0.364,1.13-1.094,1.394v0.019c0.729,0.146,1.321,0.692,1.321,1.521c0,0.947-0.738,1.776-2.159,1.776
		c-0.665,0-1.248-0.21-1.539-0.401L553.456,356.09z"/>
	<path fill="#FFFFFF" d="M561.876,353.986c0,2.014-0.747,3.125-2.06,3.125c-1.156,0-1.94-1.084-1.958-3.043
		c0-1.986,0.856-3.079,2.059-3.079C561.165,350.989,561.876,352.1,561.876,353.986z M558.66,354.077c0,1.54,0.474,2.414,1.202,2.414
		c0.82,0,1.212-0.956,1.212-2.469c0-1.457-0.374-2.414-1.203-2.414C559.17,351.608,558.66,352.464,558.66,354.077z"/>
</g>
<g enable-background="new    ">
	<path fill="none" stroke="#FFFFFF" stroke-miterlimit="10" d="M543.765,351.836h-0.018l-1.029,0.556l-0.155-0.61l1.294-0.692h0.683
		v5.921h-0.774V351.836z"/>
	<path fill="none" stroke="#FFFFFF" stroke-miterlimit="10" d="M549.179,357.01v-1.612h-2.751v-0.528l2.642-3.78h0.865v3.68h0.829
		v0.629h-0.829v1.612H549.179z M549.179,354.769v-1.977c0-0.31,0.009-0.619,0.027-0.929h-0.027
		c-0.183,0.346-0.328,0.601-0.492,0.874l-1.448,2.014v0.018H549.179z"/>
	<path fill="none" stroke="#FFFFFF" stroke-miterlimit="10" d="M551.441,353.33c0-0.337,0.228-0.573,0.547-0.573
		c0.318,0,0.528,0.236,0.537,0.573c0,0.319-0.209,0.565-0.547,0.565C551.66,353.895,551.441,353.649,551.441,353.33z
		 M551.441,356.545c0-0.337,0.228-0.573,0.547-0.573c0.318,0,0.528,0.236,0.537,0.573c0,0.319-0.209,0.565-0.547,0.565
		C551.66,357.111,551.441,356.865,551.441,356.545z"/>
	<path fill="none" stroke="#FFFFFF" stroke-miterlimit="10" d="M553.456,356.09c0.228,0.146,0.756,0.373,1.312,0.373
		c1.029,0,1.348-0.655,1.339-1.147c-0.009-0.829-0.756-1.185-1.53-1.185h-0.446v-0.601h0.446c0.583,0,1.321-0.301,1.321-1.002
		c0-0.474-0.301-0.894-1.039-0.894c-0.474,0-0.929,0.21-1.184,0.393l-0.21-0.583c0.31-0.229,0.911-0.456,1.549-0.456
		c1.166,0,1.694,0.692,1.694,1.412c0,0.61-0.364,1.13-1.094,1.394v0.019c0.729,0.146,1.321,0.692,1.321,1.521
		c0,0.947-0.738,1.776-2.159,1.776c-0.665,0-1.248-0.21-1.539-0.401L553.456,356.09z"/>
	<path fill="none" stroke="#FFFFFF" stroke-miterlimit="10" d="M561.876,353.986c0,2.014-0.747,3.125-2.06,3.125
		c-1.156,0-1.94-1.084-1.958-3.043c0-1.986,0.856-3.079,2.059-3.079C561.165,350.989,561.876,352.1,561.876,353.986z
		 M558.66,354.077c0,1.54,0.474,2.414,1.202,2.414c0.82,0,1.212-0.956,1.212-2.469c0-1.457-0.374-2.414-1.203-2.414
		C559.17,351.608,558.66,352.464,558.66,354.077z"/>
</g>
<g>
	<path opacity="0.6" fill="#00A19A" stroke="#00A19A" stroke-width="3" stroke-miterlimit="10" enable-background="new    " d="
		M188.14,492.527h-30.562c-3.167,0-5.757-2.591-5.757-5.758v-19.958c0-3.167,2.591-5.757,5.757-5.757h30.562
		c3.167,0,5.757,2.59,5.757,5.757v19.958C193.897,489.937,191.307,492.527,188.14,492.527z"/>
	<rect x="150.958" y="466.092" fill="none" width="43.132" height="24.181"/>
	<g enable-background="new    ">
		<path fill="#FFFFFF" d="M163.824,467.152h-1.968v-0.71h4.79v0.71h-1.977v5.759h-0.845V467.152z"/>
		<path fill="#FFFFFF" d="M167.336,469.715c0-0.547-0.01-1.018-0.039-1.449h0.739l0.029,0.912h0.038
			c0.211-0.624,0.72-1.018,1.286-1.018c0.096,0,0.163,0.01,0.24,0.029v0.797c-0.086-0.02-0.173-0.029-0.288-0.029
			c-0.595,0-1.018,0.451-1.132,1.084c-0.02,0.115-0.039,0.25-0.039,0.395v2.476h-0.835V469.715z"/>
		<path fill="#FFFFFF" d="M173.046,472.911l-0.067-0.585h-0.029c-0.259,0.364-0.758,0.69-1.42,0.69c-0.94,0-1.42-0.662-1.42-1.334
			c0-1.123,0.998-1.737,2.793-1.728v-0.096c0-0.385-0.105-1.075-1.056-1.075c-0.432,0-0.883,0.134-1.209,0.345l-0.192-0.557
			c0.384-0.249,0.94-0.412,1.526-0.412c1.42,0,1.766,0.969,1.766,1.9v1.737c0,0.403,0.019,0.796,0.077,1.113H173.046z
			 M172.921,470.541c-0.921-0.02-1.967,0.144-1.967,1.045c0,0.548,0.365,0.807,0.796,0.807c0.605,0,0.989-0.384,1.123-0.777
			c0.029-0.086,0.048-0.182,0.048-0.269V470.541z"/>
		<path fill="#FFFFFF" d="M178.41,472.738c-0.221,0.115-0.71,0.27-1.334,0.27c-1.401,0-2.313-0.951-2.313-2.371
			c0-1.43,0.979-2.467,2.496-2.467c0.499,0,0.94,0.125,1.171,0.24l-0.192,0.652c-0.202-0.115-0.519-0.221-0.979-0.221
			c-1.065,0-1.642,0.787-1.642,1.756c0,1.075,0.691,1.738,1.613,1.738c0.479,0,0.796-0.125,1.036-0.23L178.41,472.738z"/>
		<path fill="#FFFFFF" d="M180.232,470.396h0.019c0.115-0.163,0.278-0.365,0.413-0.527l1.363-1.604h1.017l-1.794,1.91l2.044,2.735
			h-1.027l-1.603-2.227l-0.432,0.479v1.747h-0.835v-6.814h0.835V470.396z"/>
	</g>
	<g enable-background="new    ">
		<path fill="none" stroke="#FFFFFF" stroke-miterlimit="10" d="M163.824,467.152h-1.968v-0.71h4.79v0.71h-1.977v5.759h-0.845
			V467.152z"/>
		<path fill="none" stroke="#FFFFFF" stroke-miterlimit="10" d="M167.336,469.715c0-0.547-0.01-1.018-0.039-1.449h0.739l0.029,0.912
			h0.038c0.211-0.624,0.72-1.018,1.286-1.018c0.096,0,0.163,0.01,0.24,0.029v0.797c-0.086-0.02-0.173-0.029-0.288-0.029
			c-0.595,0-1.018,0.451-1.132,1.084c-0.02,0.115-0.039,0.25-0.039,0.395v2.476h-0.835V469.715z"/>
		<path fill="none" stroke="#FFFFFF" stroke-miterlimit="10" d="M173.046,472.911l-0.067-0.585h-0.029
			c-0.259,0.364-0.758,0.69-1.42,0.69c-0.94,0-1.42-0.662-1.42-1.334c0-1.123,0.998-1.737,2.793-1.728v-0.096
			c0-0.385-0.105-1.075-1.056-1.075c-0.432,0-0.883,0.134-1.209,0.345l-0.192-0.557c0.384-0.249,0.94-0.412,1.526-0.412
			c1.42,0,1.766,0.969,1.766,1.9v1.737c0,0.403,0.019,0.796,0.077,1.113H173.046z M172.921,470.541
			c-0.921-0.02-1.967,0.144-1.967,1.045c0,0.548,0.365,0.807,0.796,0.807c0.605,0,0.989-0.384,1.123-0.777
			c0.029-0.086,0.048-0.182,0.048-0.269V470.541z"/>
		<path fill="none" stroke="#FFFFFF" stroke-miterlimit="10" d="M178.41,472.738c-0.221,0.115-0.71,0.27-1.334,0.27
			c-1.401,0-2.313-0.951-2.313-2.371c0-1.43,0.979-2.467,2.496-2.467c0.499,0,0.94,0.125,1.171,0.24l-0.192,0.652
			c-0.202-0.115-0.519-0.221-0.979-0.221c-1.065,0-1.642,0.787-1.642,1.756c0,1.075,0.691,1.738,1.613,1.738
			c0.479,0,0.796-0.125,1.036-0.23L178.41,472.738z"/>
		<path fill="none" stroke="#FFFFFF" stroke-miterlimit="10" d="M180.232,470.396h0.019c0.115-0.163,0.278-0.365,0.413-0.527
			l1.363-1.604h1.017l-1.794,1.91l2.044,2.735h-1.027l-1.603-2.227l-0.432,0.479v1.747h-0.835v-6.814h0.835V470.396z"/>
	</g>
	<g enable-background="new    ">
		<path fill="#FFFFFF" d="M169.112,482.392l-0.672,2.034h-0.864l2.198-6.469h1.008l2.208,6.469h-0.893l-0.691-2.034H169.112z
			 M171.233,481.738l-0.633-1.861c-0.144-0.423-0.24-0.807-0.336-1.181h-0.019c-0.096,0.384-0.202,0.777-0.326,1.171l-0.634,1.871
			H171.233z"/>
		<path fill="#FFFFFF" d="M173.91,477.611h0.845v6.814h-0.845V477.611z"/>
		<path fill="#FFFFFF" d="M176.174,477.611h0.845v6.814h-0.845V477.611z"/>
	</g>
	<g enable-background="new    ">
		<path fill="none" stroke="#FFFFFF" stroke-miterlimit="10" d="M169.112,482.392l-0.672,2.034h-0.864l2.198-6.469h1.008
			l2.208,6.469h-0.893l-0.691-2.034H169.112z M171.233,481.738l-0.633-1.861c-0.144-0.423-0.24-0.807-0.336-1.181h-0.019
			c-0.096,0.384-0.202,0.777-0.326,1.171l-0.634,1.871H171.233z"/>
		<path fill="none" stroke="#FFFFFF" stroke-miterlimit="10" d="M173.91,477.611h0.845v6.814h-0.845V477.611z"/>
		<path fill="none" stroke="#FFFFFF" stroke-miterlimit="10" d="M176.174,477.611h0.845v6.814h-0.845V477.611z"/>
	</g>
</g>
<g>
	<path opacity="0.6" fill="#00A19A" stroke="#00A19A" stroke-width="3" stroke-miterlimit="10" enable-background="new    " d="
		M137.044,492.527h-30.562c-3.167,0-5.757-2.591-5.757-5.758v-19.958c0-3.167,2.591-5.757,5.757-5.757h30.562
		c3.167,0,5.757,2.59,5.757,5.757v19.958C142.801,489.937,140.211,492.527,137.044,492.527z"/>
	<rect x="100.198" y="466.476" fill="none" width="43.131" height="18.327"/>
	<g enable-background="new    ">
		<path fill="#FFFFFF" d="M113.064,467.519h-1.968v-0.71h4.79v0.71h-1.977v5.759h-0.845V467.519z"/>
		<path fill="#FFFFFF" d="M116.576,470.081c0-0.547-0.01-1.017-0.039-1.449h0.739l0.029,0.912h0.038
			c0.211-0.624,0.72-1.018,1.286-1.018c0.096,0,0.163,0.01,0.24,0.028v0.797c-0.086-0.02-0.173-0.028-0.288-0.028
			c-0.595,0-1.018,0.45-1.132,1.085c-0.02,0.115-0.039,0.249-0.039,0.393v2.477h-0.835V470.081z"/>
		<path fill="#FFFFFF" d="M122.286,473.277l-0.067-0.586h-0.029c-0.259,0.365-0.758,0.691-1.42,0.691c-0.94,0-1.42-0.662-1.42-1.334
			c0-1.123,0.998-1.737,2.793-1.728v-0.097c0-0.383-0.105-1.074-1.056-1.074c-0.432,0-0.883,0.135-1.209,0.346l-0.192-0.557
			c0.384-0.25,0.94-0.413,1.526-0.413c1.42,0,1.766,0.97,1.766,1.9v1.737c0,0.402,0.019,0.797,0.077,1.113H122.286z
			 M122.161,470.906c-0.921-0.019-1.967,0.145-1.967,1.047c0,0.547,0.365,0.807,0.796,0.807c0.605,0,0.989-0.385,1.123-0.778
			c0.029-0.086,0.048-0.183,0.048-0.269V470.906z"/>
		<path fill="#FFFFFF" d="M127.649,473.104c-0.221,0.115-0.71,0.269-1.334,0.269c-1.401,0-2.313-0.949-2.313-2.371
			c0-1.43,0.979-2.466,2.496-2.466c0.499,0,0.94,0.124,1.171,0.239l-0.192,0.653c-0.202-0.115-0.519-0.221-0.979-0.221
			c-1.065,0-1.642,0.787-1.642,1.757c0,1.074,0.691,1.736,1.613,1.736c0.479,0,0.796-0.125,1.036-0.23L127.649,473.104z"/>
		<path fill="#FFFFFF" d="M129.472,470.763h0.019c0.115-0.163,0.278-0.364,0.413-0.528l1.363-1.603h1.017l-1.794,1.91l2.044,2.735
			h-1.027l-1.603-2.227l-0.432,0.48v1.746h-0.835v-6.814h0.835V470.763z"/>
	</g>
	<g enable-background="new    ">
		<path fill="none" stroke="#FFFFFF" stroke-miterlimit="10" d="M113.064,467.519h-1.968v-0.71h4.79v0.71h-1.977v5.759h-0.845
			V467.519z"/>
		<path fill="none" stroke="#FFFFFF" stroke-miterlimit="10" d="M116.576,470.081c0-0.547-0.01-1.017-0.039-1.449h0.739l0.029,0.912
			h0.038c0.211-0.624,0.72-1.018,1.286-1.018c0.096,0,0.163,0.01,0.24,0.028v0.797c-0.086-0.02-0.173-0.028-0.288-0.028
			c-0.595,0-1.018,0.45-1.132,1.085c-0.02,0.115-0.039,0.249-0.039,0.393v2.477h-0.835V470.081z"/>
		<path fill="none" stroke="#FFFFFF" stroke-miterlimit="10" d="M122.286,473.277l-0.067-0.586h-0.029
			c-0.259,0.365-0.758,0.691-1.42,0.691c-0.94,0-1.42-0.662-1.42-1.334c0-1.123,0.998-1.737,2.793-1.728v-0.097
			c0-0.383-0.105-1.074-1.056-1.074c-0.432,0-0.883,0.135-1.209,0.346l-0.192-0.557c0.384-0.25,0.94-0.413,1.526-0.413
			c1.42,0,1.766,0.97,1.766,1.9v1.737c0,0.402,0.019,0.797,0.077,1.113H122.286z M122.161,470.906
			c-0.921-0.019-1.967,0.145-1.967,1.047c0,0.547,0.365,0.807,0.796,0.807c0.605,0,0.989-0.385,1.123-0.778
			c0.029-0.086,0.048-0.183,0.048-0.269V470.906z"/>
		<path fill="none" stroke="#FFFFFF" stroke-miterlimit="10" d="M127.649,473.104c-0.221,0.115-0.71,0.269-1.334,0.269
			c-1.401,0-2.313-0.949-2.313-2.371c0-1.43,0.979-2.466,2.496-2.466c0.499,0,0.94,0.124,1.171,0.239l-0.192,0.653
			c-0.202-0.115-0.519-0.221-0.979-0.221c-1.065,0-1.642,0.787-1.642,1.757c0,1.074,0.691,1.736,1.613,1.736
			c0.479,0,0.796-0.125,1.036-0.23L127.649,473.104z"/>
		<path fill="none" stroke="#FFFFFF" stroke-miterlimit="10" d="M129.472,470.763h0.019c0.115-0.163,0.278-0.364,0.413-0.528
			l1.363-1.603h1.017l-1.794,1.91l2.044,2.735h-1.027l-1.603-2.227l-0.432,0.48v1.746h-0.835v-6.814h0.835V470.763z"/>
	</g>
	<g enable-background="new    ">
		<path fill="#FFFFFF" d="M108.764,478.4c0.403-0.068,0.931-0.125,1.603-0.125c0.826,0,1.43,0.191,1.814,0.537
			c0.355,0.307,0.566,0.777,0.566,1.354c0,0.586-0.173,1.046-0.499,1.382c-0.441,0.47-1.161,0.71-1.977,0.71
			c-0.25,0-0.48-0.01-0.672-0.057v2.591h-0.835V478.4z M109.599,481.52c0.182,0.048,0.413,0.066,0.691,0.066
			c1.008,0,1.622-0.489,1.622-1.382c0-0.854-0.604-1.267-1.526-1.267c-0.365,0-0.643,0.029-0.787,0.066V481.52z"/>
		<path fill="#FFFFFF" d="M114.311,482.623c0.019,1.143,0.749,1.612,1.593,1.612c0.604,0,0.969-0.105,1.286-0.239l0.144,0.604
			c-0.298,0.135-0.806,0.289-1.545,0.289c-1.43,0-2.284-0.941-2.284-2.343s0.825-2.505,2.179-2.505c1.517,0,1.919,1.334,1.919,2.188
			c0,0.173-0.019,0.308-0.029,0.394H114.311z M116.787,482.018c0.01-0.537-0.221-1.372-1.171-1.372
			c-0.854,0-1.229,0.787-1.295,1.372H116.787z"/>
		<path fill="#FFFFFF" d="M118.647,481.596c0-0.547-0.01-1.018-0.039-1.449h0.739l0.029,0.912h0.038
			c0.211-0.624,0.72-1.018,1.286-1.018c0.096,0,0.164,0.01,0.24,0.029v0.797c-0.086-0.02-0.173-0.029-0.288-0.029
			c-0.595,0-1.017,0.451-1.132,1.084c-0.02,0.115-0.039,0.25-0.039,0.395v2.476h-0.835V481.596z"/>
		<path fill="#FFFFFF" d="M121.67,483.928c0.25,0.164,0.691,0.336,1.113,0.336c0.614,0,0.902-0.307,0.902-0.69
			c0-0.403-0.24-0.624-0.864-0.854c-0.835-0.297-1.229-0.758-1.229-1.314c0-0.749,0.604-1.363,1.603-1.363
			c0.471,0,0.883,0.135,1.142,0.288l-0.211,0.614c-0.182-0.115-0.518-0.27-0.95-0.27c-0.499,0-0.777,0.289-0.777,0.635
			c0,0.383,0.278,0.557,0.883,0.787c0.806,0.307,1.219,0.709,1.219,1.4c0,0.816-0.634,1.393-1.737,1.393
			c-0.509,0-0.979-0.125-1.305-0.317L121.67,483.928z"/>
		<path fill="#FFFFFF" d="M129.789,482.432c0,1.717-1.19,2.466-2.313,2.466c-1.257,0-2.227-0.921-2.227-2.39
			c0-1.555,1.017-2.467,2.303-2.467C128.887,480.041,129.789,481.01,129.789,482.432z M126.103,482.479
			c0,1.018,0.585,1.785,1.411,1.785c0.806,0,1.411-0.758,1.411-1.804c0-0.787-0.394-1.786-1.392-1.786
			S126.103,481.596,126.103,482.479z"/>
		<path fill="#FFFFFF" d="M130.853,481.404c0-0.48-0.01-0.873-0.039-1.258h0.749l0.048,0.768h0.019
			c0.23-0.441,0.768-0.873,1.536-0.873c0.643,0,1.641,0.384,1.641,1.977v2.774h-0.844v-2.678c0-0.749-0.278-1.372-1.075-1.372
			c-0.557,0-0.989,0.393-1.132,0.863c-0.039,0.105-0.058,0.25-0.058,0.394v2.793h-0.845V481.404z"/>
	</g>
	<g enable-background="new    ">
		<path fill="none" stroke="#FFFFFF" stroke-miterlimit="10" d="M108.764,478.4c0.403-0.068,0.931-0.125,1.603-0.125
			c0.826,0,1.43,0.191,1.814,0.537c0.355,0.307,0.566,0.777,0.566,1.354c0,0.586-0.173,1.046-0.499,1.382
			c-0.441,0.47-1.161,0.71-1.977,0.71c-0.25,0-0.48-0.01-0.672-0.057v2.591h-0.835V478.4z M109.599,481.52
			c0.182,0.048,0.413,0.066,0.691,0.066c1.008,0,1.622-0.489,1.622-1.382c0-0.854-0.604-1.267-1.526-1.267
			c-0.365,0-0.643,0.029-0.787,0.066V481.52z"/>
		<path fill="none" stroke="#FFFFFF" stroke-miterlimit="10" d="M114.311,482.623c0.019,1.143,0.749,1.612,1.593,1.612
			c0.604,0,0.969-0.105,1.286-0.239l0.144,0.604c-0.298,0.135-0.806,0.289-1.545,0.289c-1.43,0-2.284-0.941-2.284-2.343
			s0.825-2.505,2.179-2.505c1.517,0,1.919,1.334,1.919,2.188c0,0.173-0.019,0.308-0.029,0.394H114.311z M116.787,482.018
			c0.01-0.537-0.221-1.372-1.171-1.372c-0.854,0-1.229,0.787-1.295,1.372H116.787z"/>
		<path fill="none" stroke="#FFFFFF" stroke-miterlimit="10" d="M118.647,481.596c0-0.547-0.01-1.018-0.039-1.449h0.739l0.029,0.912
			h0.038c0.211-0.624,0.72-1.018,1.286-1.018c0.096,0,0.164,0.01,0.24,0.029v0.797c-0.086-0.02-0.173-0.029-0.288-0.029
			c-0.595,0-1.017,0.451-1.132,1.084c-0.02,0.115-0.039,0.25-0.039,0.395v2.476h-0.835V481.596z"/>
		<path fill="none" stroke="#FFFFFF" stroke-miterlimit="10" d="M121.67,483.928c0.25,0.164,0.691,0.336,1.113,0.336
			c0.614,0,0.902-0.307,0.902-0.69c0-0.403-0.24-0.624-0.864-0.854c-0.835-0.297-1.229-0.758-1.229-1.314
			c0-0.749,0.604-1.363,1.603-1.363c0.471,0,0.883,0.135,1.142,0.288l-0.211,0.614c-0.182-0.115-0.518-0.27-0.95-0.27
			c-0.499,0-0.777,0.289-0.777,0.635c0,0.383,0.278,0.557,0.883,0.787c0.806,0.307,1.219,0.709,1.219,1.4
			c0,0.816-0.634,1.393-1.737,1.393c-0.509,0-0.979-0.125-1.305-0.317L121.67,483.928z"/>
		<path fill="none" stroke="#FFFFFF" stroke-miterlimit="10" d="M129.789,482.432c0,1.717-1.19,2.466-2.313,2.466
			c-1.257,0-2.227-0.921-2.227-2.39c0-1.555,1.017-2.467,2.303-2.467C128.887,480.041,129.789,481.01,129.789,482.432z
			 M126.103,482.479c0,1.018,0.585,1.785,1.411,1.785c0.806,0,1.411-0.758,1.411-1.804c0-0.787-0.394-1.786-1.392-1.786
			S126.103,481.596,126.103,482.479z"/>
		<path fill="none" stroke="#FFFFFF" stroke-miterlimit="10" d="M130.853,481.404c0-0.48-0.01-0.873-0.039-1.258h0.749l0.048,0.768
			h0.019c0.23-0.441,0.768-0.873,1.536-0.873c0.643,0,1.641,0.384,1.641,1.977v2.774h-0.844v-2.678c0-0.749-0.278-1.372-1.075-1.372
			c-0.557,0-0.989,0.393-1.132,0.863c-0.039,0.105-0.058,0.25-0.058,0.394v2.793h-0.845V481.404z"/>
	</g>
</g>
<line fill="none" stroke="#00A19A" stroke-width="6" stroke-miterlimit="10" x1="253.793" y1="97.5" x2="253.793" y2="375.5"/>
<line fill="none" stroke="#00A19A" stroke-width="6" stroke-miterlimit="10" x1="10.473" y1="236.5" x2="502" y2="236.5"/>
<line fill="none" stroke="#575756" stroke-miterlimit="10" x1="23.015" y1="91.69" x2="23.015" y2="207.422"/>
<line fill="none" x1="24.019" y1="220.827" x2="310.854" y2="220.827"/>
<text transform="matrix(1.2617 0 0 1 24.7285 220.8271)" font-family="'MyriadHebrew-Regular'" font-size="10">0               5             10            15              20</text>
<line fill="none" stroke="#706F6F" stroke-width="2" stroke-miterlimit="10" x1="23.015" y1="207.422" x2="234.31" y2="207.422"/>
<line fill="none" stroke="#009FE3" stroke-width="2" stroke-miterlimit="10" x1="23.015" y1="168.1" x2="58.581" y2="149.557"/>
<line fill="none" stroke="#009FE3" stroke-width="2" stroke-miterlimit="10" x1="58.581" y1="149.557" x2="91.165" y2="158.828"/>
<line fill="none" stroke="#009FE3" stroke-width="2" stroke-miterlimit="10" x1="91.165" y1="158.828" x2="128.663" y2="149.557"/>
<line fill="none" stroke="#009FE3" stroke-width="2" stroke-miterlimit="10" x1="128.663" y1="149.557" x2="155.794" y2="129.156"/>
<line fill="none" stroke="#009FE3" stroke-width="2" stroke-miterlimit="10" x1="155.794" y1="129.156" x2="203.625" y2="139.356"/>
<line fill="none" stroke="#009FE3" stroke-width="2" stroke-miterlimit="10" x1="203.625" y1="139.356" x2="225.19" y2="134.256"/>
<line fill="none" stroke="#575756" stroke-miterlimit="10" x1="271.262" y1="94.26" x2="271.262" y2="209.991"/>
<line fill="none" x1="272.265" y1="223.396" x2="559.102" y2="223.396"/>
<text transform="matrix(1.2617 0 0 1 272.9751 223.3965)" font-family="'MyriadHebrew-Regular'" font-size="10">0               5             10            15              20</text>
<line fill="none" stroke="#706F6F" stroke-width="2" stroke-miterlimit="10" x1="271.262" y1="209.991" x2="482.557" y2="209.991"/>
<line fill="none" stroke="#E30613" stroke-width="2" stroke-miterlimit="10" x1="271.262" y1="175.305" x2="306.827" y2="156.762"/>
<line fill="none" stroke="#E30613" stroke-width="2" stroke-miterlimit="10" x1="306.028" y1="156.762" x2="336.116" y2="165.323"/>
<line fill="none" stroke="#E30613" stroke-width="2" stroke-miterlimit="10" x1="335.467" y1="164.904" x2="411.738" y2="139.347"/>
<line fill="none" stroke="#E30613" stroke-width="2" stroke-miterlimit="10" x1="411.44" y1="139.356" x2="438.572" y2="118.955"/>
<line fill="none" stroke="#E30613" stroke-width="2" stroke-miterlimit="10" x1="438.144" y1="118.955" x2="481.182" y2="113.854"/>
<g enable-background="new    ">
	<path fill="#A48A7B" stroke="#7B6A58" stroke-miterlimit="10" d="M535.222,205.355h6.093v1.226h-4.632v3.76h4.279v1.208h-4.279
		v5.119h-1.461V205.355z"/>
	<path fill="#A48A7B" stroke="#7B6A58" stroke-miterlimit="10" d="M543.35,204.751h1.477v11.917h-1.477V204.751z"/>
	<path fill="#A48A7B" stroke="#7B6A58" stroke-miterlimit="10" d="M554.664,212.54c0,3.004-2.081,4.313-4.045,4.313
		c-2.199,0-3.895-1.611-3.895-4.179c0-2.719,1.779-4.314,4.028-4.314C553.086,208.36,554.664,210.055,554.664,212.54z
		 M548.219,212.624c0,1.779,1.023,3.122,2.467,3.122c1.41,0,2.468-1.326,2.468-3.155c0-1.376-0.688-3.122-2.434-3.122
		C548.974,209.468,548.219,211.079,548.219,212.624z"/>
	<path fill="#A48A7B" stroke="#7B6A58" stroke-miterlimit="10" d="M563.883,212.54c0,3.004-2.081,4.313-4.045,4.313
		c-2.199,0-3.895-1.611-3.895-4.179c0-2.719,1.779-4.314,4.028-4.314C562.305,208.36,563.883,210.055,563.883,212.54z
		 M557.438,212.624c0,1.779,1.023,3.122,2.467,3.122c1.41,0,2.468-1.326,2.468-3.155c0-1.376-0.688-3.122-2.434-3.122
		C558.192,209.468,557.438,211.079,557.438,212.624z"/>
	<path fill="#A48A7B" stroke="#7B6A58" stroke-miterlimit="10" d="M565.75,211.079c0-0.957-0.017-1.779-0.067-2.535h1.292
		l0.051,1.595h0.067c0.369-1.091,1.259-1.779,2.249-1.779c0.168,0,0.285,0.017,0.419,0.051v1.393c-0.15-0.034-0.302-0.05-0.503-0.05
		c-1.041,0-1.779,0.789-1.98,1.896c-0.034,0.201-0.067,0.437-0.067,0.688v4.331h-1.46V211.079z"/>
	<path fill="#A48A7B" stroke="#7B6A58" stroke-miterlimit="10" d="M546.648,236.819v-0.906l1.158-1.125
		c2.786-2.652,4.046-4.062,4.063-5.707c0-1.108-0.537-2.131-2.165-2.131c-0.99,0-1.813,0.503-2.316,0.923l-0.471-1.041
		c0.756-0.638,1.83-1.108,3.089-1.108c2.35,0,3.34,1.611,3.34,3.172c0,2.014-1.46,3.642-3.76,5.858l-0.872,0.806v0.034h4.9v1.225
		H546.648z"/>
</g>
<g enable-background="new    ">
	<path fill="#FFFFFF" stroke="#FFFFFF" stroke-miterlimit="10" d="M535.221,258.022h6.094v1.226h-4.633v3.76h4.279v1.208h-4.279
		v5.119h-1.461V258.022z"/>
	<path fill="#FFFFFF" stroke="#FFFFFF" stroke-miterlimit="10" d="M543.35,257.418h1.477v11.917h-1.477V257.418z"/>
	<path fill="#FFFFFF" stroke="#FFFFFF" stroke-miterlimit="10" d="M554.664,265.207c0,3.004-2.082,4.313-4.045,4.313
		c-2.199,0-3.895-1.611-3.895-4.179c0-2.719,1.779-4.314,4.027-4.314C553.086,261.027,554.664,262.722,554.664,265.207z
		 M548.219,265.291c0,1.779,1.023,3.122,2.467,3.122c1.41,0,2.467-1.326,2.467-3.155c0-1.376-0.688-3.122-2.434-3.122
		S548.219,263.746,548.219,265.291z"/>
	<path fill="#FFFFFF" stroke="#FFFFFF" stroke-miterlimit="10" d="M563.883,265.207c0,3.004-2.082,4.313-4.045,4.313
		c-2.199,0-3.895-1.611-3.895-4.179c0-2.719,1.779-4.314,4.027-4.314C562.305,261.027,563.883,262.722,563.883,265.207z
		 M557.438,265.291c0,1.779,1.023,3.122,2.467,3.122c1.41,0,2.467-1.326,2.467-3.155c0-1.376-0.688-3.122-2.434-3.122
		S557.438,263.746,557.438,265.291z"/>
	<path fill="#FFFFFF" stroke="#FFFFFF" stroke-miterlimit="10" d="M565.75,263.746c0-0.957-0.018-1.779-0.068-2.535h1.293
		l0.051,1.595h0.066c0.369-1.091,1.26-1.779,2.25-1.779c0.168,0,0.285,0.017,0.418,0.051v1.393c-0.15-0.034-0.301-0.05-0.502-0.05
		c-1.041,0-1.779,0.789-1.98,1.896c-0.035,0.201-0.068,0.437-0.068,0.688v4.331h-1.459V263.746z"/>
	<path fill="#FFFFFF" stroke="#FFFFFF" stroke-miterlimit="10" d="M547,287.791c0.42,0.269,1.395,0.688,2.418,0.688
		c1.896,0,2.484-1.209,2.467-2.115c-0.016-1.527-1.393-2.182-2.82-2.182h-0.822v-1.108h0.822c1.074,0,2.436-0.554,2.436-1.846
		c0-0.873-0.555-1.645-1.914-1.645c-0.873,0-1.713,0.386-2.182,0.722l-0.387-1.074c0.57-0.419,1.678-0.839,2.854-0.839
		c2.148,0,3.121,1.276,3.121,2.602c0,1.125-0.67,2.082-2.014,2.568v0.033c1.344,0.269,2.434,1.276,2.434,2.803
		c0,1.746-1.359,3.273-3.977,3.273c-1.227,0-2.301-0.386-2.838-0.738L547,287.791z"/>
</g>
<line fill="none" stroke="#009640" stroke-width="2" stroke-miterlimit="10" x1="23.015" y1="149.557" x2="64.633" y2="181.317"/>
<line fill="none" stroke="#009640" stroke-width="2" stroke-miterlimit="10" x1="64.633" y1="181.317" x2="104.333" y2="171.002"/>
<line fill="none" stroke="#009640" stroke-width="2" stroke-miterlimit="10" x1="104.333" y1="171.002" x2="132.465" y2="171.002"/>
<line fill="none" stroke="#009640" stroke-width="2" stroke-miterlimit="10" x1="132.465" y1="171.002" x2="155.794" y2="176.16"/>
<line fill="none" stroke="#009640" stroke-width="2" stroke-miterlimit="10" x1="155.794" y1="176.16" x2="172.859" y2="160.687"/>
<line fill="none" stroke="#009640" stroke-width="2" stroke-miterlimit="10" x1="172.859" y1="160.687" x2="199" y2="162.335"/>
<line fill="none" stroke="#009640" stroke-width="2" stroke-miterlimit="10" x1="199" y1="162.335" x2="225.155" y2="156.762"/>
<rect x="148.833" y="91.004" fill="none" width="67.5" height="11.833"/>
<text transform="matrix(1 0 0 1 168.1636 98.104)" fill="none" stroke="#009FE3" stroke-miterlimit="10" font-family="'MyriadHebrew-Regular'" font-size="10">Zone 1</text>
<rect x="148.833" y="102.837" fill="none" width="67.5" height="11.833"/>
<text transform="matrix(1 0 0 1 168.1636 109.937)" fill="none" stroke="#009640" stroke-miterlimit="10" font-family="'MyriadHebrew-Regular'" font-size="10">Zone 2</text>
<text transform="matrix(1 0 0 1 123.5435 98.7598)" fill="none" stroke="#E71D73" stroke-miterlimit="10" font-family="'MyriadHebrew-Regular'" font-size="10">Floor 1:</text>
<rect x="380.245" y="91.004" fill="none" width="67.5" height="11.833"/>
<text transform="matrix(1 0 0 1 396.5146 98.104)" fill="none" stroke="#E30613" stroke-miterlimit="10" font-family="'MyriadHebrew-Regular'" font-size="10">Zone 4A</text>
<text transform="matrix(1 0 0 1 354.9551 98.7598)" fill="none" stroke="#A48A7B" stroke-miterlimit="10" font-family="'MyriadHebrew-Regular'" font-size="10">Floor 2:</text>
<rect x="30.883" y="526.216" fill="none" width="67.5" height="11.833"/>
<text transform="matrix(1 0 0 1 50.2129 533.3164)" fill="none" stroke="#009FE3" stroke-miterlimit="10" font-family="'MyriadHebrew-Regular'" font-size="10">Zone 1</text>
<rect x="157.199" y="662.024" fill="none" width="67.5" height="11.833"/>
<text transform="matrix(1 0 0 1 176.5283 669.125)" fill="none" stroke="#009640" stroke-miterlimit="10" font-family="'MyriadHebrew-Regular'" font-size="10">Zone 2</text>
<rect x="166.422" y="675.574" fill="none" width="55.333" height="23.841"/>
<text transform="matrix(1 0 0 1 174.4546 682.6738)"><tspan x="0" y="0" fill="none" stroke="#F39200" stroke-miterlimit="10" font-family="'MyriadHebrew-Regular'" font-size="10">Temp: 23</tspan><tspan x="1.31" y="12" fill="none" stroke="#F39200" stroke-miterlimit="10" font-family="'MyriadHebrew-Regular'" font-size="10"> Degrees</tspan></text>
<rect x="89.158" y="526.584" fill="none" width="55.334" height="23.841"/>
<text transform="matrix(1 0 0 1 97.1909 533.6836)"><tspan x="0" y="0" fill="none" stroke="#F39200" stroke-miterlimit="10" font-family="'MyriadHebrew-Regular'" font-size="10">Temp: 23</tspan><tspan x="1.31" y="12" fill="none" stroke="#F39200" stroke-miterlimit="10" font-family="'MyriadHebrew-Regular'" font-size="10"> Degrees</tspan></text>
</svg>
